<svg xmlns:rdf="http://www.w3.org/1999/02/22-rdf-syntax-ns#" xmlns="http://www.w3.org/2000/svg" xmlns:cc="http://creativecommons.org/ns#" xmlns:dc="http://purl.org/dc/elements/1.1/" xml:space="preserve" height="19" viewBox="0 0 221.14999 119.77625" width="35" version="1.1"><g transform="matrix(1.25 0 0 -1.25 -223.17 450.34)"><g><path d="m193.68 265.07c-7.904 0-14.313 6.41-14.313 14.314v65.594c0 7.905 6.409 14.313 14.313 14.313h146.7c7.904 0 14.312-6.408 14.312-14.313v-65.594c0-7.904-6.408-14.314-14.312-14.314h-146.7z" fill="#fff"/><path d="m347.12 351.73c-1.803 1.803-4.199 2.795-6.747 2.795h-41.014l23.595-39.369 2.157-0.268 1.258-1.797 0.002-1.705 1.528-0.271 1.349-1.885 0.001-1.619 1.527-0.266s1.53-1.619 1.53-1.709c0 0.09 0.001-3.683 0.001-3.683s3.326-3.053 6.293-4.219c2.067-0.807 2.338-4.135 3.508-5.932 1.619-2.513 3.775-3.592 3.326-5.029-1.075-3.863-5.025-10.336-8.71-10.699 0 0-9.166-0.002-14.559-0.008l0.004-6.221h18.204c5.261 0 9.541 4.283 9.541 9.545v65.594c0 2.547-0.992 4.943-2.794 6.746" fill="#c00"/><path d="m285.38 354.52h-91.7c-2.547 0-4.944-0.992-6.746-2.795-1.803-1.803-2.795-4.199-2.795-6.746v-65.594c0-2.551 0.992-4.947 2.795-6.75 1.802-1.803 4.199-2.795 6.746-2.795h59.57c-1.497 2.492-3.173 5.322-3.689 6.182h-7.099c-0.011 17.609 6.005 27.408 13.105 29.298 0.987 0.182 0.536 5.034-0.723 6.473 0 0-3.415-0.094-4.134 0.086-0.899 0.268-0.27 1.166-0.27 1.166l3.32 7.193-0.449 1.977-12.311-0.01c-0.18 0.004 10.15 7.11 10.15 7.11 0.529 18.687 19.67 20.134 31.265 12.416 6.832-4.58 7.377-13.569 6.841-19.858-0.09-0.359-1.797-0.09-1.797-0.09s-1.163-6.83 1.889-6.83l13.481 0.008c5.481 0.184 10.784-3.498 10.784-3.498l1.345 4.674-29.578 38.383z" fill="#008"/><path d="m203.86 283.34c-3.619 0-6.553 2.934-6.554 6.549-0.003 3.619 2.928 6.553 6.546 6.556 3.619 0.002 6.551-2.929 6.553-6.546 0.003-3.62-2.927-6.553-6.545-6.559" fill="#fff"/></g></g></svg>
