<?xml version="1.0" encoding="utf-8"?><svg xmlns="http://www.w3.org/2000/svg" xmlns:xlink="http://www.w3.org/1999/xlink"><symbol viewBox="-5 -5 970 650" id="team-36-19171918-dark"><path fill="#FFF" d="M637.902 612.749v11.824h-2.957v-11.824h-3.422v-2.938h9.802v2.938h-3.423zm16.023 11.824v-8.713l-2.49 5.428h-2.611l-2.49-5.427v8.712h-2.957v-14.762h2.956l3.797 7.883 3.795-7.883h2.957v14.762h-2.957z"/><path fill="#C8102E" d="M668.306 87.084C622.959 30.113 557.844 0 480 0c-77.844 0-142.958 30.113-188.305 87.084-44.796 56.28-68.474 136.82-68.474 232.914 0 96.098 23.678 176.64 68.474 232.92C337.041 609.889 402.155 640 480 640c77.845 0 142.96-30.113 188.305-87.081 44.797-56.28 68.474-136.823 68.474-232.92 0-96.095-23.677-176.636-68.473-232.915zM353.849 319.998c0-41.01 3.98-99.797 22.946-146.973 9.807-24.397 22.712-43.346 38.356-56.322C432.827 102.043 454.645 94.61 480 94.61c25.355 0 47.174 7.434 64.851 22.095 15.644 12.975 28.55 31.924 38.357 56.321 18.964 47.175 22.945 105.963 22.945 146.973 0 41.01-3.98 99.799-22.945 146.975-9.807 24.399-22.713 43.35-38.356 56.325-17.678 14.661-39.496 22.096-64.852 22.096-25.354 0-47.173-7.434-64.849-22.096-15.644-12.976-28.55-31.926-38.356-56.325-18.965-47.178-22.946-105.966-22.946-146.975z"/><path fill="#FFF" d="M480 10.156c-152.125 0-246.623 118.726-246.623 309.842 0 191.127 94.498 309.846 246.623 309.846 152.126 0 246.623-118.72 246.623-309.846 0-191.116-94.497-309.842-246.623-309.842zm0 545.394c-118.6 0-136.307-147.586-136.307-235.552 0-87.969 17.706-235.545 136.307-235.545 118.606 0 136.309 147.576 136.309 235.545 0 87.966-17.703 235.552-136.31 235.552z"/><path fill="#010101" d="M706.585 319.998c0-160.105-70.24-289.804-226.585-289.804-156.343 0-226.588 129.7-226.588 289.804 0 160.107 70.245 289.813 226.588 289.813 156.346 0 226.585-129.706 226.585-289.813zm-382.928 0c0-141.144 43.323-255.58 156.343-255.58 113.021 0 156.346 114.436 156.346 255.58 0 141.153-43.325 255.588-156.346 255.588-113.02 0-156.343-114.435-156.343-255.588z"/></symbol><symbol viewBox="-5 -5 970 650" id="team-36-19171918-light"><path fill="#010101" d="M637.902 612.749v11.824h-2.957v-11.824h-3.422v-2.938h9.802v2.938h-3.423zm16.023 11.824v-8.713l-2.49 5.428h-2.611l-2.49-5.427v8.712h-2.957v-14.762h2.956l3.797 7.883 3.795-7.883h2.957v14.762h-2.957z"/><path fill="#C8102E" d="M668.306 87.084C622.959 30.113 557.844 0 480 0c-77.844 0-142.958 30.113-188.305 87.084-44.796 56.28-68.474 136.82-68.474 232.914 0 96.098 23.678 176.64 68.474 232.92C337.041 609.889 402.155 640 480 640c77.845 0 142.96-30.113 188.305-87.081 44.797-56.28 68.474-136.823 68.474-232.92 0-96.095-23.677-176.636-68.473-232.915zM353.849 319.998c0-41.01 3.98-99.797 22.946-146.973 9.807-24.397 22.712-43.346 38.356-56.322C432.827 102.043 454.645 94.61 480 94.61c25.355 0 47.174 7.434 64.851 22.095 15.644 12.975 28.55 31.924 38.357 56.321 18.964 47.175 22.945 105.963 22.945 146.973 0 41.01-3.98 99.799-22.945 146.975-9.807 24.399-22.713 43.35-38.356 56.325-17.678 14.661-39.496 22.096-64.852 22.096-25.354 0-47.173-7.434-64.849-22.096-15.644-12.976-28.55-31.926-38.356-56.325-18.965-47.178-22.946-105.966-22.946-146.975z"/><path fill="#FFF" d="M480 10.156c-152.125 0-246.623 118.726-246.623 309.842 0 191.127 94.498 309.846 246.623 309.846 152.126 0 246.623-118.72 246.623-309.846 0-191.116-94.497-309.842-246.623-309.842zm0 545.394c-118.6 0-136.307-147.586-136.307-235.552 0-87.969 17.706-235.545 136.307-235.545 118.606 0 136.309 147.576 136.309 235.545 0 87.966-17.703 235.552-136.31 235.552z"/><path fill="#010101" d="M706.585 319.998c0-160.105-70.24-289.804-226.585-289.804-156.343 0-226.588 129.7-226.588 289.804 0 160.107 70.245 289.813 226.588 289.813 156.346 0 226.585-129.706 226.585-289.813zm-382.928 0c0-141.144 43.323-255.58 156.343-255.58 113.021 0 156.346 114.436 156.346 255.58 0 141.153-43.325 255.588-156.346 255.588-113.02 0-156.343-114.435-156.343-255.588z"/></symbol><symbol viewBox="-5 -5 970 650" id="team-41-19171918-dark"><path fill="#FFF" d="M732.537 546.555v11.824h-2.957v-11.824h-3.423v-2.938h9.802v2.938h-3.422zm16.022 11.824v-8.712l-2.49 5.427h-2.611l-2.49-5.427v8.712h-2.957v-14.762h2.956l3.797 7.884 3.795-7.884h2.957v14.762h-2.957z"/><path fill="#E4002B" d="M480 610.798l-15.64-9.555c-19.48-11.902-47.127-22.15-82.174-30.46-31.81-7.543-58.17-10.628-59.276-10.756l-.367-.045c-29.644-3.808-54.8-12.051-74.79-24.503-18.519-11.534-32.42-26.19-42.5-44.805-11.683-21.574-17.752-47.486-18.04-77.014-.226-23.174 3.34-48.27 10.04-70.668 3.679-12.294 8.262-25.494 13.114-39.47 10.643-30.656 23.866-68.743 22.91-88.505-.59-12.186-3.388-23.33-8.316-33.126a71.882 71.882 0 0 0-9.336-14.14l-14.453-17.068 79.354-121.481 25.272 17.183C332.911 64.82 370.88 78.75 415.602 86.67c35.81 6.342 63.287 6.606 64.44 6.614 1.083-.01 28.792-.316 64.356-6.614 44.721-7.92 82.691-21.85 109.804-40.286l25.272-17.183 79.354 121.48-14.453 17.069a71.902 71.902 0 0 0-9.336 14.14c-4.928 9.795-7.726 20.94-8.316 33.126-.956 19.762 12.268 57.85 22.893 88.456 4.857 13.988 9.442 27.193 13.13 39.519 6.7 22.397 10.267 47.494 10.041 70.668-.287 29.527-6.357 55.44-18.04 77.014-10.08 18.616-23.981 33.27-42.5 44.806-19.99 12.451-45.146 20.694-74.77 24.499l-.343.043c-1.15.133-27.5 3.215-59.32 10.76-35.047 8.31-62.694 18.56-82.173 30.46L480 610.799z"/><path fill="#FFF" d="M480 604.939l-13.034-7.963c-19.93-12.178-48.067-22.627-83.626-31.059-32.11-7.614-58.74-10.728-59.858-10.857l-.322-.04c-28.906-3.713-53.387-11.715-72.764-23.785-17.761-11.063-31.09-25.108-40.746-42.941-11.291-20.851-17.158-45.978-17.438-74.683-.22-22.687 3.271-47.257 9.832-69.186 3.65-12.203 8.222-25.368 13.061-39.307 10.768-31.014 24.17-69.612 23.165-90.343-.623-12.888-3.598-24.707-8.843-35.13a76.895 76.895 0 0 0-9.987-15.124l-12.044-14.224L281.926 36.2l21.06 14.32c27.692 18.829 66.333 33.032 111.744 41.074 36.181 6.408 64.034 6.682 65.276 6.691 1.94-.016 29.543-.364 65.263-6.69 45.412-8.043 84.052-22.246 111.745-41.075l21.06-14.32 74.53 114.096-12.044 14.224a76.895 76.895 0 0 0-9.988 15.124c-5.244 10.423-8.22 22.243-8.844 35.131-1.002 20.73 12.399 59.33 23.166 90.345 4.84 13.938 9.41 27.103 13.062 39.305v.001c6.56 21.929 10.052 46.5 9.831 69.185-.28 28.705-6.146 53.832-17.437 74.683-9.656 17.832-22.985 31.878-40.748 42.942-19.376 12.07-43.857 20.071-72.762 23.784l-.323.04c-1.118.129-27.748 3.243-59.857 10.857-35.56 8.432-63.695 18.881-83.626 31.06L480 604.938z"/><path fill="#E4002B" d="M734.005 351.59c-12.66-42.314-38.956-102.708-37.247-138.024.787-16.248 4.582-31.445 11.482-45.158a101.856 101.856 0 0 1 13.24-20.043l-50.41-77.172c-74.46 50.63-185.746 52.055-190.906 52.092l-.164.001-.164-.001c-5.16-.037-116.446-1.463-190.907-52.092l-50.41 77.172a101.856 101.856 0 0 1 13.241 20.043c6.9 13.713 10.695 28.91 11.482 45.158 1.71 35.316-24.587 95.71-37.247 138.025-10.69 35.734-14.612 87.404 5.639 124.798 7.537 13.919 17.998 24.918 31.98 33.627 16.31 10.158 37.414 16.957 62.731 20.208 2.736.315 29.773 3.545 62.763 11.368 38.217 9.062 68.687 20.484 90.892 34.05 22.205-13.566 52.675-24.989 90.891-34.05 32.991-7.823 60.027-11.053 62.763-11.368 25.318-3.251 46.423-10.05 62.732-20.209 13.982-8.708 24.443-19.707 31.98-33.626 20.25-37.394 16.33-89.064 5.639-124.798z"/><path fill="#FFF" d="M600.574 183.117l-49.871 133.846c-1.295 3.474-6.108 3.736-7.772.422l-55.344-110.204c-3.133-6.24-12.04-6.24-15.175 0L417.07 317.386c-1.664 3.313-6.477 3.05-7.772-.423l-49.871-133.846H285l110.393 296.24c2.599 6.973 12.272 7.468 15.568.797L480 340.444l69.039 139.71c3.296 6.67 12.97 6.176 15.568-.797L675 183.117h-74.426z"/></symbol><symbol viewBox="-5 -5 970 650" id="team-41-19171918-light"><path fill="#E4002B" d="M732.537 546.555v11.824h-2.957v-11.824h-3.423v-2.938h9.802v2.938h-3.422zm16.022 11.824v-8.712l-2.49 5.427h-2.611l-2.49-5.427v8.712h-2.957v-14.762h2.956l3.797 7.884 3.795-7.884h2.957v14.762h-2.957zM480 610.798l-15.64-9.555c-19.48-11.902-47.127-22.15-82.174-30.46-31.81-7.543-58.17-10.628-59.276-10.756l-.367-.045c-29.644-3.808-54.8-12.051-74.79-24.503-18.519-11.534-32.42-26.19-42.5-44.805-11.683-21.574-17.752-47.486-18.04-77.014-.226-23.174 3.34-48.27 10.04-70.668 3.679-12.294 8.262-25.494 13.114-39.47 10.643-30.656 23.866-68.743 22.91-88.505-.59-12.186-3.388-23.33-8.316-33.126a71.882 71.882 0 0 0-9.336-14.14l-14.453-17.068 79.354-121.481 25.272 17.183C332.911 64.82 370.88 78.75 415.602 86.67c35.81 6.342 63.287 6.606 64.44 6.614 1.083-.01 28.792-.316 64.356-6.614 44.721-7.92 82.691-21.85 109.804-40.286l25.272-17.183 79.354 121.48-14.453 17.069a71.902 71.902 0 0 0-9.336 14.14c-4.928 9.795-7.726 20.94-8.316 33.126-.956 19.762 12.268 57.85 22.893 88.456 4.857 13.988 9.442 27.193 13.13 39.519 6.7 22.397 10.267 47.494 10.041 70.668-.287 29.527-6.357 55.44-18.04 77.014-10.08 18.616-23.981 33.27-42.5 44.806-19.99 12.451-45.146 20.694-74.77 24.499l-.343.043c-1.15.133-27.5 3.215-59.32 10.76-35.047 8.31-62.694 18.56-82.173 30.46L480 610.799z"/><path fill="#FFF" d="M480 604.939l-13.034-7.963c-19.93-12.178-48.067-22.627-83.626-31.059-32.11-7.614-58.74-10.728-59.858-10.857l-.322-.04c-28.906-3.713-53.387-11.715-72.764-23.785-17.761-11.063-31.09-25.108-40.746-42.941-11.291-20.851-17.158-45.978-17.438-74.683-.22-22.687 3.271-47.257 9.832-69.186 3.65-12.203 8.222-25.368 13.061-39.307 10.768-31.014 24.17-69.612 23.165-90.343-.623-12.888-3.598-24.707-8.843-35.13a76.895 76.895 0 0 0-9.987-15.124l-12.044-14.224L281.926 36.2l21.06 14.32c27.692 18.829 66.333 33.032 111.744 41.074 36.181 6.408 64.034 6.682 65.276 6.691 1.94-.016 29.543-.364 65.263-6.69 45.412-8.043 84.052-22.246 111.745-41.075l21.06-14.32 74.53 114.096-12.044 14.224a76.895 76.895 0 0 0-9.988 15.124c-5.244 10.423-8.22 22.243-8.844 35.131-1.002 20.73 12.399 59.33 23.166 90.345 4.84 13.938 9.41 27.103 13.062 39.305v.001c6.56 21.929 10.052 46.5 9.831 69.185-.28 28.705-6.146 53.832-17.437 74.683-9.656 17.832-22.985 31.878-40.748 42.942-19.376 12.07-43.857 20.071-72.762 23.784l-.323.04c-1.118.129-27.748 3.243-59.857 10.857-35.56 8.432-63.695 18.881-83.626 31.06L480 604.938z"/><path fill="#E4002B" d="M734.005 351.59c-12.66-42.314-38.956-102.708-37.247-138.024.787-16.248 4.582-31.445 11.482-45.158a101.856 101.856 0 0 1 13.24-20.043l-50.41-77.172c-74.46 50.63-185.746 52.055-190.906 52.092l-.164.001-.164-.001c-5.16-.037-116.446-1.463-190.907-52.092l-50.41 77.172a101.856 101.856 0 0 1 13.241 20.043c6.9 13.713 10.695 28.91 11.482 45.158 1.71 35.316-24.587 95.71-37.247 138.025-10.69 35.734-14.612 87.404 5.639 124.798 7.537 13.919 17.998 24.918 31.98 33.627 16.31 10.158 37.414 16.957 62.731 20.208 2.736.315 29.773 3.545 62.763 11.368 38.217 9.062 68.687 20.484 90.892 34.05 22.205-13.566 52.675-24.989 90.891-34.05 32.991-7.823 60.027-11.053 62.763-11.368 25.318-3.251 46.423-10.05 62.732-20.209 13.982-8.708 24.443-19.707 31.98-33.626 20.25-37.394 16.33-89.064 5.639-124.798z"/><path fill="#FFF" d="M600.574 183.117l-49.871 133.846c-1.295 3.474-6.108 3.736-7.772.422l-55.344-110.204c-3.133-6.24-12.04-6.24-15.175 0L417.07 317.386c-1.664 3.313-6.477 3.05-7.772-.423l-49.871-133.846H285l110.393 296.24c2.599 6.973 12.272 7.468 15.568.797L480 340.444l69.039 139.71c3.296 6.67 12.97 6.176 15.568-.797L675 183.117h-74.426z"/></symbol><symbol viewBox="-5 -5 970 650" id="team-57-19171918-dark"><g fill="#FFF"><path d="M667.902 627.849v11.824h-2.957v-11.824h-3.422v-2.938h9.802v2.938h-3.423zm16.023 11.824v-8.713l-2.49 5.428h-2.611l-2.49-5.427v8.712h-2.957v-14.762h2.956l3.797 7.883 3.795-7.883h2.957v14.762h-2.957zM191.422 0l-5 170.275h88.073l4.207-59.28a12.03 12.03 0 0 1 12-11.179H404.22c11.046 0 20 8.955 20 20v410.367c0 5.523-4.477 10-10 10H309.725V640h340.55v-99.817H545.78c-5.523 0-10-4.477-10-10V119.817c0-11.046 8.954-20 20-20h113.518a12.03 12.03 0 0 1 12 11.178l4.207 59.28h88.073L768.578 0H191.422z"/></g></symbol><symbol viewBox="-5 -5 970 650" id="team-57-19171918-light"><g fill="#003087"><path d="M667.902 627.849v11.824h-2.957v-11.824h-3.422v-2.938h9.802v2.938h-3.423zm16.023 11.824v-8.713l-2.49 5.428h-2.611l-2.49-5.427v8.712h-2.957v-14.762h2.956l3.797 7.883 3.795-7.883h2.957v14.762h-2.957zM191.422 0l-5 170.275h88.073l4.207-59.28a12.03 12.03 0 0 1 12-11.179H404.22c11.046 0 20 8.955 20 20v410.367c0 5.523-4.477 10-10 10H309.725V640h340.55v-99.817H545.78c-5.523 0-10-4.477-10-10V119.817c0-11.046 8.954-20 20-20h113.518a12.03 12.03 0 0 1 12 11.178l4.207 59.28h88.073L768.578 0H191.422z"/></g></symbol><symbol viewBox="-5 -5 970 650" id="team-7286-19171918-dark"><path fill="#FFF" d="M624.159 620.191v11.824h-2.957v-11.824h-3.423v-2.937h9.803v2.937h-3.423zm16.023 11.824v-8.712l-2.49 5.428h-2.612l-2.49-5.428v8.713h-2.956v-14.762h2.956l3.796 7.883 3.796-7.883h2.956v14.761h-2.956z"/><path fill="#154734" d="M485.866 640c-12.801 0-21.458-.814-23.56-1.033-46.066-1.112-93.195-19.404-136.319-52.915-32.45-25.217-51.13-49.917-51.91-50.956l-5.19-6.919 91.716-82.543 6.339 5.963c24.073 22.645 61.257 50.427 101.695 54.183 23.752 2.209 37.698-5.078 37.834-5.153 19.156-10.618 30.12-23.41 32.534-37.987 4.002-24.173-15.892-46.445-16.093-46.668l-.671-.739-.501-.865c-10.7-18.426-71.417-60.27-93.908-74.839l-.137-.09c-44.529-29.942-63.893-59.926-66.442-64.077-33.709-46.27-37.285-90.826-34.34-120.087 3.062-30.423 13.503-50.83 14.88-53.411 16.746-34.405 45.704-62.264 83.754-80.569 27.707-13.33 50.698-17.102 53.03-17.46C540.33-7.116 592.972 7.45 626.26 21.606c36.106 15.354 57.524 33.23 58.42 33.983l6.434 5.423-68.424 103.618-7.756-4.617c-34.806-20.717-83.595-42.723-118.38-29.907-20.685 7.623-26.982 24.655-27.04 24.824l-.13.36c-15.127 39.22 51.23 90.356 78.076 106.75 94.418 58.34 117.8 111.277 120.372 117.723 27.214 54.3 21.906 103.405 12.642 135.072-9.826 33.59-25.814 54.814-27.163 56.565-25.35 33.875-66.61 56.281-119.322 64.796C515.435 639.194 498.6 640 485.866 640z"/><path fill="#A6192E" d="M360.461 458.486l-78.817 70.936s73.3 97.734 181.28 100.098c0 0 124.531 14.187 182.856-63.842 0 0 63.842-81.97 13.399-182.068 0 0-19.704-53.596-116.65-113.497 0 0-103.25-63.054-81.97-118.226 0 0 26.798-78.818 159.211 0l58.813-89.064s-83.246-70.147-198.47-49.655c0 0-91.278 13.4-129.898 93.005 0 0-43.35 78.817 18.916 163.94 0 0 18.128 30.739 63.842 61.477 0 0 82.758 53.596 96.945 78.03 0 0 53.596 59.113-18.916 99.31 0 0-60.886 33.891-150.541-50.444z"/><g fill="#FFF"><path d="M445.19 86.862V71.493h-53.202V157.798h53.202v-15.37h-31.921V122.33h27.192v-15.37h-27.192V86.863zM443.492 286.23h21.977l-22.16-85.952h-30.753l-22.16 85.952h21.977l4.917-19.073h21.285l4.917 19.073zm-22.24-34.442l6.68-25.909 6.68 25.909h-13.36zM603.219 528.24v-70.936h-21.281V543.61h53.202v-15.37zM555.337 287.847h-62.66v16.551h20.69v69.754h21.28v-69.754h20.69zM628.637 346.566h-62.66v16.551h20.69v69.754h21.28v-69.754h20.69zM551.002 543.61v-15.37h-53.201v86.305h53.201v-15.37h-31.921v-20.098h27.192v-15.37h-27.192V543.61zM555.337 43.715V29.523l-13.793-8.274h-36.65l-13.202 8.274v33.103l13.202 8.768h29.162v19.407h-21.083v-7.096h-21.281v14.192l13.202 8.273h36.65l13.793-8.273V64.793l-13.793-8.768h-28.571V36.619h21.083v7.096z"/></g></symbol><symbol viewBox="-5 -5 970 650" id="team-7286-19171918-light"><path fill="#154734" d="M624.159 620.191v11.824h-2.957v-11.824h-3.423v-2.937h9.803v2.937h-3.423zm16.023 11.824v-8.712l-2.49 5.428h-2.612l-2.49-5.428v8.713h-2.956v-14.762h2.956l3.796 7.883 3.796-7.883h2.956v14.761h-2.956zM485.866 640c-12.801 0-21.458-.814-23.56-1.033-46.066-1.112-93.195-19.404-136.319-52.915-32.45-25.217-51.13-49.917-51.91-50.956l-5.19-6.919 91.716-82.543 6.339 5.963c24.073 22.645 61.257 50.427 101.695 54.183 23.752 2.209 37.698-5.078 37.834-5.153 19.156-10.618 30.12-23.41 32.534-37.987 4.002-24.173-15.892-46.445-16.093-46.668l-.671-.739-.501-.865c-10.7-18.426-71.417-60.27-93.908-74.839l-.137-.09c-44.529-29.942-63.893-59.926-66.442-64.077-33.709-46.27-37.285-90.826-34.34-120.087 3.062-30.423 13.503-50.83 14.88-53.411 16.746-34.405 45.704-62.264 83.754-80.569 27.707-13.33 50.698-17.102 53.03-17.46C540.33-7.116 592.972 7.45 626.26 21.606c36.106 15.354 57.524 33.23 58.42 33.983l6.434 5.423-68.424 103.618-7.756-4.617c-34.806-20.717-83.595-42.723-118.38-29.907-20.685 7.623-26.982 24.655-27.04 24.824l-.13.36c-15.127 39.22 51.23 90.356 78.076 106.75 94.418 58.34 117.8 111.277 120.372 117.723 27.214 54.3 21.906 103.405 12.642 135.072-9.826 33.59-25.814 54.814-27.163 56.565-25.35 33.875-66.61 56.281-119.322 64.796C515.435 639.194 498.6 640 485.866 640z"/><path fill="#A6192E" d="M360.461 458.486l-78.817 70.936s73.3 97.734 181.28 100.098c0 0 124.531 14.187 182.856-63.842 0 0 63.842-81.97 13.399-182.068 0 0-19.704-53.596-116.65-113.497 0 0-103.25-63.054-81.97-118.226 0 0 26.798-78.818 159.211 0l58.813-89.064s-83.246-70.147-198.47-49.655c0 0-91.278 13.4-129.898 93.005 0 0-43.35 78.817 18.916 163.94 0 0 18.128 30.739 63.842 61.477 0 0 82.758 53.596 96.945 78.03 0 0 53.596 59.113-18.916 99.31 0 0-60.886 33.891-150.541-50.444z"/><g fill="#FFF"><path d="M445.19 86.862V71.493h-53.202V157.798h53.202v-15.37h-31.921V122.33h27.192v-15.37h-27.192V86.863zM443.492 286.23h21.977l-22.16-85.952h-30.753l-22.16 85.952h21.977l4.917-19.073h21.285l4.917 19.073zm-22.24-34.442l6.68-25.909 6.68 25.909h-13.36zM603.219 528.24v-70.936h-21.281V543.61h53.202v-15.37zM555.337 287.847h-62.66v16.551h20.69v69.754h21.28v-69.754h20.69zM628.637 346.566h-62.66v16.551h20.69v69.754h21.28v-69.754h20.69zM551.002 543.61v-15.37h-53.201v86.305h53.201v-15.37h-31.921v-20.098h27.192v-15.37h-27.192V543.61zM555.337 43.715V29.523l-13.793-8.274h-36.65l-13.202 8.274v33.103l13.202 8.768h29.162v19.407h-21.083v-7.096h-21.281v14.192l13.202 8.273h36.65l13.793-8.273V64.793l-13.793-8.768h-28.571V36.619h21.083v7.096z"/></g></symbol><symbol viewBox="-5 -5 970 650" id="team-7288-19171918-dark"><path fill="#DDCBA4" d="M593.603 619.388v11.824h-2.957v-11.824h-3.423v-2.938h9.802v2.938h-3.422zm16.023 11.824v-8.713l-2.49 5.428h-2.612l-2.49-5.428v8.713h-2.956V616.45h2.956l3.796 7.883 3.795-7.883h2.957v14.762h-2.956zM559.309 0v119.722h42.431L479.584 469.918l-122.17-350.196h43.265V0h-226.51v119.722h48.168L394.409 640h170.335l172.061-520.278h49.026V0H559.31z"/><g fill="#6F263D"><path d="M305.163 21.136l-22.387 67.52-22.386-67.52h-24.122l34.14 102.973h24.736l34.141-102.973zM346.569 244.269h24.122L336.55 141.295h-24.735L277.674 244.27h24.122l8.598-25.933h27.577l8.598 25.933zm-28.584-48.83l6.197-18.69 6.197 18.69h-12.394zM395.938 270.975h-20.31v55.445l-35.196-55.44v-.005h-20.31V374.01h20.31v-55.44l35.195 55.44h20.31zM414.743 467.169v6.712a4.906 4.906 0 0 1-4.907 4.906h-20.511a4.906 4.906 0 0 1-4.906-4.906v-50.053a4.906 4.906 0 0 1 4.906-4.906h20.511a4.906 4.906 0 0 1 4.906 4.906v5.725h21.262v-15.538c0-9.032-7.323-16.354-16.355-16.354h-40.137c-9.032 0-16.355 7.322-16.355 16.354v69.679c0 9.032 7.323 16.355 16.355 16.355h40.137c9.033 0 16.355-7.323 16.355-16.355v-16.525h-21.262zM500.068 508.88H459.932c-9.033 0-16.355 7.323-16.355 16.356v69.678c0 9.032 7.322 16.355 16.355 16.355H500.068c9.033 0 16.355-7.323 16.355-16.355V525.236c0-9.033-7.322-16.355-16.355-16.355zm-4.906 58.776V585.1a4.906 4.906 0 0 1-4.907 4.906h-20.511a4.906 4.906 0 0 1-4.906-4.906v-50.053a4.906 4.906 0 0 1 4.906-4.906h20.512a4.906 4.906 0 0 1 4.906 4.906V567.657zM575.817 397.337v76.868a4.906 4.906 0 0 1-4.907 4.906H550.4a4.906 4.906 0 0 1-4.907-4.906v-76.868h-21.261v86.68c0 9.033 7.322 16.355 16.354 16.355h40.137c9.033 0 16.355-7.322 16.355-16.355v-86.68h-21.261zM633.731 271.006l-22.386 67.52-22.387-67.52h-24.122l34.141 102.974h24.735l34.141-102.974zM678.615 170.362v-22.896l-71.962-.103V250.4h71.962v-22.897h-51.651v-17.121h36.931v-22.897h-36.931v-17.122zM696.54 85.367C703.885 82.017 709 74.629 709 66.03V42.69c0-11.742-9.519-21.261-21.261-21.261h-51.585v102.388h21.26V87.29h17.221l13.24 36.525h22.614l-13.949-38.45zm-13.708-42.602a4.906 4.906 0 0 1 4.907 4.907v13.375a4.906 4.906 0 0 1-4.907 4.907h-25.417V42.766h25.417z"/></g></symbol><symbol viewBox="-5 -5 970 650" id="team-7288-19171918-light"><path fill="#6F263D" d="M593.603 619.388v11.824h-2.957v-11.824h-3.423v-2.938h9.802v2.938h-3.422zm16.023 11.824v-8.713l-2.49 5.428h-2.612l-2.49-5.428v8.713h-2.956V616.45h2.956l3.796 7.883 3.795-7.883h2.957v14.762h-2.956zM559.309 0v119.722h42.431L479.584 469.918l-122.17-350.196h43.265V0h-226.51v119.722h48.168L394.409 640h170.335l172.061-520.278h49.026V0H559.31z"/><g fill="#DDCBA4"><path d="M305.163 21.136l-22.387 67.52-22.386-67.52h-24.122l34.14 102.973h24.736l34.141-102.973zM346.569 244.269h24.122L336.55 141.295h-24.735L277.674 244.27h24.122l8.598-25.933h27.577l8.598 25.933zm-28.584-48.83l6.197-18.69 6.197 18.69h-12.394zM395.938 270.975h-20.31v55.445l-35.196-55.44v-.005h-20.31V374.01h20.31v-55.44l35.195 55.44h20.31zM414.743 467.169v6.712a4.906 4.906 0 0 1-4.907 4.906h-20.511a4.906 4.906 0 0 1-4.906-4.906v-50.053a4.906 4.906 0 0 1 4.906-4.906h20.511a4.906 4.906 0 0 1 4.906 4.906v5.725h21.262v-15.538c0-9.032-7.323-16.354-16.355-16.354h-40.137c-9.032 0-16.355 7.322-16.355 16.354v69.679c0 9.032 7.323 16.355 16.355 16.355h40.137c9.033 0 16.355-7.323 16.355-16.355v-16.525h-21.262zM500.068 508.88H459.932c-9.033 0-16.355 7.323-16.355 16.356v69.678c0 9.032 7.322 16.355 16.355 16.355H500.068c9.033 0 16.355-7.323 16.355-16.355V525.236c0-9.033-7.322-16.355-16.355-16.355zm-4.906 58.776V585.1a4.906 4.906 0 0 1-4.907 4.906h-20.511a4.906 4.906 0 0 1-4.906-4.906v-50.053a4.906 4.906 0 0 1 4.906-4.906h20.512a4.906 4.906 0 0 1 4.906 4.906V567.657zM575.817 397.337v76.868a4.906 4.906 0 0 1-4.907 4.906H550.4a4.906 4.906 0 0 1-4.907-4.906v-76.868h-21.261v86.68c0 9.033 7.322 16.355 16.354 16.355h40.137c9.033 0 16.355-7.322 16.355-16.355v-86.68h-21.261zM633.731 271.006l-22.386 67.52-22.387-67.52h-24.122l34.141 102.974h24.735l34.141-102.974zM678.615 170.362v-22.896l-71.962-.103V250.4h71.962v-22.897h-51.651v-17.121h36.931v-22.897h-36.931v-17.122zM696.54 85.367C703.885 82.017 709 74.629 709 66.03V42.69c0-11.742-9.519-21.261-21.261-21.261h-51.585v102.388h21.26V87.29h17.221l13.24 36.525h22.614l-13.949-38.45zm-13.708-42.602a4.906 4.906 0 0 1 4.907 4.907v13.375a4.906 4.906 0 0 1-4.907 4.907h-25.417V42.766h25.417z"/></g></symbol><symbol viewBox="-5 -5 970 650" id="team-8-19171918-dark"><path fill="#FFF" d="M793.017 520.555v11.824h-2.957v-11.824h-3.423v-2.938h9.803v2.938h-3.423zm16.023 11.824v-8.712l-2.49 5.427h-2.612l-2.49-5.427v8.712h-2.956v-14.762h2.956l3.796 7.884 3.796-7.884h2.956v14.762h-2.956z"/><path fill="#003087" d="M733.797 389.375c-.246.252-23.919 23.676-118.247 41.096l3.883-217.41c18.71 2.136 68.536 5.876 123.58 32.895l1.893.892 33.644-5.763c-60.483-34.689-152.866-62.46-254.822-63.855-200.726-2.818-309.222 61.507-313.4 147.616-4.203 87.096 102.776 144.168 286.345 145.814 117.574 1.084 208.243-25.672 262.201-68.122l-20.134-10.386-4.943-2.777zm-335.334 48.078c-9.642-1.367-29.806-4.752-52.32-11.645-28.453-8.712-66.624-24.963-86.882-52.913-13.417-18.512-17.524-40.26-12.206-64.64l.056-.297c.13-.799 14.363-78.872 155.238-98.603l-3.886 228.098zm151.203 5.941c-1.43.098-2.835.197-4.22.293-12.313.866-22.946 1.612-36.49 1.265-6.819-.158-13.587-.22-22.952-.307-7.028-.064-15.605-.143-26.939-.286l.611-87.654 91.354.273-1.364 86.416zm3.718-144.812l-92.288-.296 2.286-95.233c28.103-.939 40.674-1.156 53.968-.966 12.344.182 24.952.793 37.552 1.82l-1.518 94.675z"/><path fill="#FFF" d="M210.328 324.846c-4.203 87.096 102.776 144.168 286.345 145.814 110.139 1.015 196.665-22.4 251.524-60.26l.41-.288a217.087 217.087 0 0 0 4.4-3.14c.39-.285.782-.57 1.169-.856 1.593-1.181-1.534 1.206 0 0l-20.3-10.298S711.963 416.9 609.633 437.12l4.112-230.174s66.264 1.948 133.81 35.104l23.604-5.084c-60.484-34.69-145.474-58.341-247.43-59.737-200.726-2.818-309.222 61.508-313.4 147.616zm193.307 118.89s-187.894-19.088-162.25-136.655c0 0 13.74-85.088 166.351-104.051l-4.1 240.706zm151.227 4.849c-16.614 1.071-29.174 2.346-46.293 1.91-12.618-.292-24.78-.254-55.34-.665l.688-98.674 102.48.307-1.535 97.122zm3.712-144.441l-103.41-.333 2.548-106.11c31.68-1.083 45.267-1.348 59.46-1.146 14.273.211 28.668.978 43.091 2.282l-1.689 105.307z"/><path fill="#C8102E" d="M847.767 450.868c-71.71 68.191-186.752 108.1-354.403 109.119-227.305 1.281-400.159-91.337-391.725-247.005 6.867-127.228 164.566-226.616 398.243-222.607 143.607 2.452 227.886 39.314 257.887 48.21L777.806 80l80.85 5.879s-19.52 78.044-14.094 143.9l-66.012 11.306c-60.484-34.689-152.866-62.46-254.822-63.855-200.726-2.818-309.222 61.508-313.4 147.616-4.203 87.096 102.776 144.169 286.345 145.814 117.574 1.084 208.243-25.672 262.201-68.122l88.893 48.33z"/></symbol><symbol viewBox="-5 -5 970 650" id="team-8-19171918-light"><path fill="#003087" d="M793.017 520.555v11.824h-2.957v-11.824h-3.423v-2.938h9.803v2.938h-3.423zm16.023 11.824v-8.712l-2.49 5.427h-2.612l-2.49-5.427v8.712h-2.956v-14.762h2.956l3.796 7.884 3.796-7.884h2.956v14.762h-2.956zM733.797 389.375c-.246.252-23.919 23.676-118.247 41.096l3.883-217.41c18.71 2.136 68.536 5.876 123.58 32.895l1.893.892 33.644-5.763c-60.483-34.689-152.866-62.46-254.822-63.855-200.726-2.818-309.222 61.507-313.4 147.616-4.203 87.096 102.776 144.168 286.345 145.814 117.574 1.084 208.243-25.672 262.201-68.122l-20.134-10.386-4.943-2.777zm-335.334 48.078c-9.642-1.367-29.806-4.752-52.32-11.645-28.453-8.712-66.624-24.963-86.882-52.913-13.417-18.512-17.524-40.26-12.206-64.64l.056-.297c.13-.799 14.363-78.872 155.238-98.603l-3.886 228.098zm151.203 5.941c-1.43.098-2.835.197-4.22.293-12.313.866-22.946 1.612-36.49 1.265-6.819-.158-13.587-.22-22.952-.307-7.028-.064-15.605-.143-26.939-.286l.611-87.654 91.354.273-1.364 86.416zm3.718-144.812l-92.288-.296 2.286-95.233c28.103-.939 40.674-1.156 53.968-.966 12.344.182 24.952.793 37.552 1.82l-1.518 94.675z"/><path fill="#FFF" d="M210.328 324.846c-4.203 87.096 102.776 144.168 286.345 145.814 110.139 1.015 196.665-22.4 251.524-60.26l.41-.288a217.087 217.087 0 0 0 4.4-3.14c.39-.285.782-.57 1.169-.856 1.593-1.181-1.534 1.206 0 0l-20.3-10.298S711.963 416.9 609.633 437.12l4.112-230.174s66.264 1.948 133.81 35.104l23.604-5.084c-60.484-34.69-145.474-58.341-247.43-59.737-200.726-2.818-309.222 61.508-313.4 147.616zm193.307 118.89s-187.894-19.088-162.25-136.655c0 0 13.74-85.088 166.351-104.051l-4.1 240.706zm151.227 4.849c-16.614 1.071-29.174 2.346-46.293 1.91-12.618-.292-24.78-.254-55.34-.665l.688-98.674 102.48.307-1.535 97.122zm3.712-144.441l-103.41-.333 2.548-106.11c31.68-1.083 45.267-1.348 59.46-1.146 14.273.211 28.668.978 43.091 2.282l-1.689 105.307z"/><path fill="#C8102E" d="M847.767 450.868c-71.71 68.191-186.752 108.1-354.403 109.119-227.305 1.281-400.159-91.337-391.725-247.005 6.867-127.228 164.566-226.616 398.243-222.607 143.607 2.452 227.886 39.314 257.887 48.21L777.806 80l80.85 5.879s-19.52 78.044-14.094 143.9l-66.012 11.306c-60.484-34.689-152.866-62.46-254.822-63.855-200.726-2.818-309.222 61.508-313.4 147.616-4.203 87.096 102.776 144.169 286.345 145.814 117.574 1.084 208.243-25.672 262.201-68.122l88.893 48.33z"/></symbol><symbol viewBox="-5 -5 970 650" id="team-99-19171918-dark"><path fill="#FE5000" d="M703.85 591.977v15.827h-3.958v-15.827h-4.581v-3.932h13.12v3.932h-4.58zm21.447 15.827v-11.662l-3.333 7.265h-3.495l-3.334-7.265v11.662h-3.956v-19.76h3.956l5.082 10.553 5.08-10.552h3.958v19.759h-3.957z"/><path fill="#010101" d="M653.503 24.133S551.618 60.206 479.998 0c-71.62 60.206-173.506 24.133-173.506 24.133-60.5 76.437-84.995 97.392-108.185 106.244 0 0 20.533 20.954 20.533 77.621 0 61.386-19.478 126.315-19.478 197.738 0 252.04 260.01 197.147 280.636 234.264 20.627-37.118 280.638 17.776 280.638-234.264 0-71.423-19.478-136.352-19.478-197.738 0-56.667 20.535-77.621 20.535-77.621-23.19-8.852-47.689-29.807-108.19-106.244z"/><g fill="#FE5000"><path d="M723.449 207.998c0-33.42 6.65-56.15 13.207-70.446-20.119-12.713-44.814-37.166-89.576-93.058-29.352 7.674-104.98 21.107-167.082-22.204-62.102 43.311-137.732 29.878-167.086 22.204-44.758 55.892-69.452 80.345-89.572 93.058 6.553 14.296 13.207 37.026 13.207 70.446 0 63.45-19.478 127.496-19.478 197.738 0 222.234 218.395 184.752 262.929 211.715 44.534-26.963 262.93 10.519 262.93-211.715 0-70.242-19.48-134.288-19.48-197.738zM319.695 64.297c35.177 7.52 101.517 14.354 160.303-20.927 58.788 35.281 125.125 28.448 160.298 20.927 30.472 37.565 52.668 61.536 71.422 76.928-3.145 4.518-11.924 21.217-11.924 66.773 0 48.53 16.679 84.871 23.018 148.22L295.435 93.334c7.491-8.65 15.527-18.271 24.26-29.037zm160.303 533.627c-39.546-31.282-245.22 16.175-245.22-192.188 0-45.009 5.53-78.008 11.432-106.493l409.613 251.956c-63.574 38.097-151.393 27.398-175.825 46.725zm191.725-57.74l-421.59-259.318c5.362-24.762 10.067-47.1 10.067-72.868 0-45.556-8.775-62.255-11.92-66.773 10.406-8.54 21.884-19.742 35.24-34.432l440.957 271.235c.47 8.73.743 17.922.743 27.708 0 68.516-22.24 109.365-53.497 134.447z"/><path d="M276 285.94l75.362-123.878 19.942 12.131-8.752 108.019 50.326-82.727 19.098 11.618-75.362 123.878-20.618-12.543 8.245-105.663-49.145 80.782L276 285.941zM407.267 366.33l75.362-123.879 20.45 12.44-29.662 48.758 48.833 29.789 29.662-48.758 20.45 12.442L497 421l-20.45-12.44 32.95-54.166-48.831-29.789-32.952 54.165-20.45-12.44zM550.552 454.589l74.745-122.863 20.45 12.44-61.996 101.907 63.998 38.976L635 506.005l-84.448-51.416z"/></g></symbol><symbol viewBox="-5 -5 970 650" id="team-99-19171918-light"><path fill="#010101" d="M703.85 591.977v15.827h-3.958v-15.827h-4.581v-3.932h13.12v3.932h-4.58zm21.447 15.827v-11.662l-3.333 7.265h-3.495l-3.334-7.265v11.662h-3.956v-19.76h3.956l5.082 10.553 5.08-10.552h3.958v19.759h-3.957zM653.503 24.133S551.618 60.206 479.998 0c-71.62 60.206-173.506 24.133-173.506 24.133-60.5 76.437-84.995 97.392-108.185 106.244 0 0 20.533 20.954 20.533 77.621 0 61.386-19.478 126.315-19.478 197.738 0 252.04 260.01 197.147 280.636 234.264 20.627-37.118 280.638 17.776 280.638-234.264 0-71.423-19.478-136.352-19.478-197.738 0-56.667 20.535-77.621 20.535-77.621-23.19-8.852-47.689-29.807-108.19-106.244z"/><g fill="#FE5000"><path d="M723.449 207.998c0-33.42 6.65-56.15 13.207-70.446-20.119-12.713-44.814-37.166-89.576-93.058-29.352 7.674-104.98 21.107-167.082-22.204-62.102 43.311-137.732 29.878-167.086 22.204-44.758 55.892-69.452 80.345-89.572 93.058 6.553 14.296 13.207 37.026 13.207 70.446 0 63.45-19.478 127.496-19.478 197.738 0 222.234 218.395 184.752 262.929 211.715 44.534-26.963 262.93 10.519 262.93-211.715 0-70.242-19.48-134.288-19.48-197.738zM319.695 64.297c35.177 7.52 101.517 14.354 160.303-20.927 58.788 35.281 125.125 28.448 160.298 20.927 30.472 37.565 52.668 61.536 71.422 76.928-3.145 4.518-11.924 21.217-11.924 66.773 0 48.53 16.679 84.871 23.018 148.22L295.435 93.334c7.491-8.65 15.527-18.271 24.26-29.037zm160.303 533.627c-39.546-31.282-245.22 16.175-245.22-192.188 0-45.009 5.53-78.008 11.432-106.493l409.613 251.956c-63.574 38.097-151.393 27.398-175.825 46.725zm191.725-57.74l-421.59-259.318c5.362-24.762 10.067-47.1 10.067-72.868 0-45.556-8.775-62.255-11.92-66.773 10.406-8.54 21.884-19.742 35.24-34.432l440.957 271.235c.47 8.73.743 17.922.743 27.708 0 68.516-22.24 109.365-53.497 134.447z"/><path d="M276 285.94l75.362-123.878 19.942 12.131-8.752 108.019 50.326-82.727 19.098 11.618-75.362 123.878-20.618-12.543 8.245-105.663-49.145 80.782L276 285.941zM407.267 366.33l75.362-123.879 20.45 12.44-29.662 48.758 48.833 29.789 29.662-48.758 20.45 12.442L497 421l-20.45-12.44 32.95-54.166-48.831-29.789-32.952 54.165-20.45-12.44zM550.552 454.589l74.745-122.863 20.45 12.44-61.996 101.907 63.998 38.976L635 506.005l-84.448-51.416z"/></g></symbol></svg>