<?xml version="1.0" encoding="utf-8"?><svg xmlns="http://www.w3.org/2000/svg" xmlns:xlink="http://www.w3.org/1999/xlink"><symbol viewBox="-5 -5 970 650" id="team-36-19241925-dark"><path fill="#FFF" d="M637.902 612.749v11.824h-2.957v-11.824h-3.422v-2.938h9.802v2.938h-3.423zm16.023 11.824v-8.713l-2.49 5.428h-2.611l-2.49-5.427v8.712h-2.957v-14.762h2.956l3.797 7.883 3.795-7.883h2.957v14.762h-2.957z"/><path fill="#C8102E" d="M668.306 87.084C622.959 30.113 557.844 0 480 0c-77.844 0-142.958 30.113-188.305 87.084-44.796 56.28-68.474 136.82-68.474 232.914 0 96.098 23.678 176.64 68.474 232.92C337.041 609.889 402.155 640 480 640c77.845 0 142.96-30.113 188.305-87.081 44.797-56.28 68.474-136.823 68.474-232.92 0-96.095-23.677-176.636-68.473-232.915zM353.849 319.998c0-41.01 3.98-99.797 22.946-146.973 9.807-24.397 22.712-43.346 38.356-56.322C432.827 102.043 454.645 94.61 480 94.61c25.355 0 47.174 7.434 64.851 22.095 15.644 12.975 28.55 31.924 38.357 56.321 18.964 47.175 22.945 105.963 22.945 146.973 0 41.01-3.98 99.799-22.945 146.975-9.807 24.399-22.713 43.35-38.356 56.325-17.678 14.661-39.496 22.096-64.852 22.096-25.354 0-47.173-7.434-64.849-22.096-15.644-12.976-28.55-31.926-38.356-56.325-18.965-47.178-22.946-105.966-22.946-146.975z"/><path fill="#FFF" d="M480 10.156c-152.125 0-246.623 118.726-246.623 309.842 0 191.127 94.498 309.846 246.623 309.846 152.126 0 246.623-118.72 246.623-309.846 0-191.116-94.497-309.842-246.623-309.842zm0 545.394c-118.6 0-136.307-147.586-136.307-235.552 0-87.969 17.706-235.545 136.307-235.545 118.606 0 136.309 147.576 136.309 235.545 0 87.966-17.703 235.552-136.31 235.552z"/><path fill="#010101" d="M706.585 319.998c0-160.105-70.24-289.804-226.585-289.804-156.343 0-226.588 129.7-226.588 289.804 0 160.107 70.245 289.813 226.588 289.813 156.346 0 226.585-129.706 226.585-289.813zm-382.928 0c0-141.144 43.323-255.58 156.343-255.58 113.021 0 156.346 114.436 156.346 255.58 0 141.153-43.325 255.588-156.346 255.588-113.02 0-156.343-114.435-156.343-255.588z"/></symbol><symbol viewBox="-5 -5 970 650" id="team-36-19241925-light"><path fill="#010101" d="M637.902 612.749v11.824h-2.957v-11.824h-3.422v-2.938h9.802v2.938h-3.423zm16.023 11.824v-8.713l-2.49 5.428h-2.611l-2.49-5.427v8.712h-2.957v-14.762h2.956l3.797 7.883 3.795-7.883h2.957v14.762h-2.957z"/><path fill="#C8102E" d="M668.306 87.084C622.959 30.113 557.844 0 480 0c-77.844 0-142.958 30.113-188.305 87.084-44.796 56.28-68.474 136.82-68.474 232.914 0 96.098 23.678 176.64 68.474 232.92C337.041 609.889 402.155 640 480 640c77.845 0 142.96-30.113 188.305-87.081 44.797-56.28 68.474-136.823 68.474-232.92 0-96.095-23.677-176.636-68.473-232.915zM353.849 319.998c0-41.01 3.98-99.797 22.946-146.973 9.807-24.397 22.712-43.346 38.356-56.322C432.827 102.043 454.645 94.61 480 94.61c25.355 0 47.174 7.434 64.851 22.095 15.644 12.975 28.55 31.924 38.357 56.321 18.964 47.175 22.945 105.963 22.945 146.973 0 41.01-3.98 99.799-22.945 146.975-9.807 24.399-22.713 43.35-38.356 56.325-17.678 14.661-39.496 22.096-64.852 22.096-25.354 0-47.173-7.434-64.849-22.096-15.644-12.976-28.55-31.926-38.356-56.325-18.965-47.178-22.946-105.966-22.946-146.975z"/><path fill="#FFF" d="M480 10.156c-152.125 0-246.623 118.726-246.623 309.842 0 191.127 94.498 309.846 246.623 309.846 152.126 0 246.623-118.72 246.623-309.846 0-191.116-94.497-309.842-246.623-309.842zm0 545.394c-118.6 0-136.307-147.586-136.307-235.552 0-87.969 17.706-235.545 136.307-235.545 118.606 0 136.309 147.576 136.309 235.545 0 87.966-17.703 235.552-136.31 235.552z"/><path fill="#010101" d="M706.585 319.998c0-160.105-70.24-289.804-226.585-289.804-156.343 0-226.588 129.7-226.588 289.804 0 160.107 70.245 289.813 226.588 289.813 156.346 0 226.585-129.706 226.585-289.813zm-382.928 0c0-141.144 43.323-255.58 156.343-255.58 113.021 0 156.346 114.436 156.346 255.58 0 141.153-43.325 255.588-156.346 255.588-113.02 0-156.343-114.435-156.343-255.588z"/></symbol><symbol viewBox="-5 -5 970 650" id="team-37-19241925-dark"><path fill="#FFC72C" d="M794.73 603.176V615h-2.957v-11.824h-3.423v-2.938h9.803v2.938h-3.423zM810.753 615v-8.713l-2.49 5.428h-2.612l-2.49-5.427V615h-2.956v-14.762h2.956l3.796 7.883 3.796-7.883h2.956V615h-2.956zM776.29 615h-260v-90h57.5V400h-225v125h57.5v90h-260v-90h57.5V400h-16.598l-32-160h48.599V115h-57.5V25h260v90h-57.5v125h225V115h-57.5V25h260v90h-57.5v125h16.598l32 160h-48.598v125h57.5v90z"/><path fill="#010101" d="M771.29 110V30h-250v80h57.5v135h-235V110h57.5V30h-250v80h57.5v135h-47.5l30 150h17.5v135h-57.5v80h250v-80h-57.5V395h235v135h-57.5v80h250v-80h-57.5V395h47.5l-30-150h-17.5V110z"/><g fill="#FFC72C"><path d="M253.135 376.165V282.77h-27.4v-19.015h73.377v19.015h-27.335v93.395h-18.642zM310.575 376.165V263.75h18.642v112.414h-18.642zM389.932 334.836v-18.939h40.182v44.783c-3.904 4.6-9.565 8.65-16.973 12.153-7.411 3.5-14.916 5.253-22.516 5.253-9.659 0-18.076-2.463-25.255-7.4-7.179-4.931-12.574-11.989-16.185-21.163-3.611-9.175-5.415-19.157-5.415-29.944 0-11.709 2.016-22.108 6.044-31.209 4.032-9.097 9.929-16.077 17.7-20.934 5.92-3.732 13.287-5.6 22.105-5.6 11.463 0 20.416 2.928 26.86 8.78 6.446 5.854 10.592 13.944 12.44 24.27l-18.517 4.217c-1.303-5.523-3.746-9.878-7.337-13.075-3.588-3.194-8.071-4.793-13.446-4.793-8.145 0-14.623 3.143-19.43 9.43-4.806 6.287-7.212 15.62-7.212 27.989 0 13.34 2.437 23.347 7.307 30.017 4.87 6.67 11.25 10.01 19.147 10.01 3.904 0 7.818-.93 11.745-2.797 3.928-1.868 7.297-4.13 10.11-6.792v-14.26h-21.354v.004zM447.308 376.165V263.75h68.463v19.016h-49.82v24.922h46.353v18.941H465.95v30.597h51.584v18.938h-70.226zM533.403 376.165V263.75h39.24c9.867 0 17.036 1.01 21.509 3.03 4.47 2.018 8.05 5.61 10.736 10.772 2.686 5.163 4.029 11.07 4.029 17.713 0 8.434-2.033 15.401-6.105 20.894-4.076 5.496-10.164 8.96-18.269 10.393 4.032 2.86 7.36 6.007 9.986 9.43 2.622 3.43 6.159 9.508 10.612 18.252l11.274 21.93H594.12l-13.48-24.461c-4.785-8.744-8.06-14.25-9.824-16.525-1.763-2.275-3.631-3.834-5.604-4.678-1.975-.845-5.105-1.266-9.386-1.266h-3.776v46.927h-18.646v.003zm18.645-64.872h13.793c8.942 0 14.525-.46 16.753-1.38 2.228-.918 3.972-2.504 5.23-4.755 1.26-2.248 1.892-5.059 1.892-8.434 0-3.783-.831-6.836-2.487-9.165-1.66-2.325-3.999-3.793-7.024-4.409-1.511-.256-6.045-.383-13.604-.383h-14.546v28.526h-.006zM621.77 339.591l18.14-2.15c1.09 7.414 3.305 12.856 6.647 16.336 3.336 3.477 7.839 5.213 13.51 5.213 6.004 0 10.527-1.545 13.57-4.638 3.045-3.093 4.567-6.707 4.567-10.85 0-2.659-.64-4.924-1.922-6.789-1.282-1.867-3.517-3.49-6.708-4.866-2.18-.919-7.158-2.558-14.926-4.91-9.996-3.016-17.006-6.722-21.035-11.12-5.67-6.183-8.501-13.725-8.501-22.62 0-5.725 1.332-11.08 3.998-16.064 2.669-4.985 6.512-8.778 11.527-11.386 5.018-2.605 11.076-3.91 18.17-3.91 11.589 0 20.312 3.092 26.168 9.278 5.856 6.186 8.933 14.445 9.225 24.767l-18.642.997c-.797-5.776-2.51-9.932-5.132-12.463-2.622-2.531-6.56-3.793-11.81-3.793-5.415 0-9.656 1.353-12.722 4.065-1.972 1.737-2.958 4.066-2.958 6.977 0 2.659.922 4.934 2.77 6.826 2.349 2.403 8.064 4.907 17.13 7.515 9.07 2.605 15.778 5.304 20.123 8.088 4.345 2.786 7.748 6.593 10.201 11.426 2.454 4.83 3.686 10.796 3.686 17.905 0 6.441-1.471 12.476-4.41 18.096-2.94 5.627-7.097 9.804-12.472 12.54s-12.072 4.103-20.093 4.103c-11.671 0-20.637-3.285-26.89-9.854-6.26-6.573-9.996-16.145-11.211-28.719z"/></g></symbol><symbol viewBox="-5 -5 970 650" id="team-37-19241925-light"><path fill="#010101" d="M794.73 603.176V615h-2.957v-11.824h-3.423v-2.938h9.803v2.938h-3.423zM810.753 615v-8.713l-2.49 5.428h-2.612l-2.49-5.427V615h-2.956v-14.762h2.956l3.796 7.883 3.796-7.883h2.956V615h-2.956z"/><path fill="none" d="M776.29 615h-260v-90h57.5V400h-225v125h57.5v90h-260v-90h57.5V400h-16.598l-32-160h48.599V115h-57.5V25h260v90h-57.5v125h225V115h-57.5V25h260v90h-57.5v125h16.598l32 160h-48.598v125h57.5v90z"/><path fill="#010101" d="M771.29 110V30h-250v80h57.5v135h-235V110h57.5V30h-250v80h57.5v135h-47.5l30 150h17.5v135h-57.5v80h250v-80h-57.5V395h235v135h-57.5v80h250v-80h-57.5V395h47.5l-30-150h-17.5V110z"/><g fill="#FFC72C"><path d="M253.135 376.165V282.77h-27.4v-19.015h73.377v19.015h-27.335v93.395h-18.642zM310.575 376.165V263.75h18.642v112.414h-18.642zM389.932 334.836v-18.939h40.182v44.783c-3.904 4.6-9.565 8.65-16.973 12.153-7.411 3.5-14.916 5.253-22.516 5.253-9.659 0-18.076-2.463-25.255-7.4-7.179-4.931-12.574-11.989-16.185-21.163-3.611-9.175-5.415-19.157-5.415-29.944 0-11.709 2.016-22.108 6.044-31.209 4.032-9.097 9.929-16.077 17.7-20.934 5.92-3.732 13.287-5.6 22.105-5.6 11.463 0 20.416 2.928 26.86 8.78 6.446 5.854 10.592 13.944 12.44 24.27l-18.517 4.217c-1.303-5.523-3.746-9.878-7.337-13.075-3.588-3.194-8.071-4.793-13.446-4.793-8.145 0-14.623 3.143-19.43 9.43-4.806 6.287-7.212 15.62-7.212 27.989 0 13.34 2.437 23.347 7.307 30.017 4.87 6.67 11.25 10.01 19.147 10.01 3.904 0 7.818-.93 11.745-2.797 3.928-1.868 7.297-4.13 10.11-6.792v-14.26h-21.354v.004zM447.308 376.165V263.75h68.463v19.016h-49.82v24.922h46.353v18.941H465.95v30.597h51.584v18.938h-70.226zM533.403 376.165V263.75h39.24c9.867 0 17.036 1.01 21.509 3.03 4.47 2.018 8.05 5.61 10.736 10.772 2.686 5.163 4.029 11.07 4.029 17.713 0 8.434-2.033 15.401-6.105 20.894-4.076 5.496-10.164 8.96-18.269 10.393 4.032 2.86 7.36 6.007 9.986 9.43 2.622 3.43 6.159 9.508 10.612 18.252l11.274 21.93H594.12l-13.48-24.461c-4.785-8.744-8.06-14.25-9.824-16.525-1.763-2.275-3.631-3.834-5.604-4.678-1.975-.845-5.105-1.266-9.386-1.266h-3.776v46.927h-18.646v.003zm18.645-64.872h13.793c8.942 0 14.525-.46 16.753-1.38 2.228-.918 3.972-2.504 5.23-4.755 1.26-2.248 1.892-5.059 1.892-8.434 0-3.783-.831-6.836-2.487-9.165-1.66-2.325-3.999-3.793-7.024-4.409-1.511-.256-6.045-.383-13.604-.383h-14.546v28.526h-.006zM621.77 339.591l18.14-2.15c1.09 7.414 3.305 12.856 6.647 16.336 3.336 3.477 7.839 5.213 13.51 5.213 6.004 0 10.527-1.545 13.57-4.638 3.045-3.093 4.567-6.707 4.567-10.85 0-2.659-.64-4.924-1.922-6.789-1.282-1.867-3.517-3.49-6.708-4.866-2.18-.919-7.158-2.558-14.926-4.91-9.996-3.016-17.006-6.722-21.035-11.12-5.67-6.183-8.501-13.725-8.501-22.62 0-5.725 1.332-11.08 3.998-16.064 2.669-4.985 6.512-8.778 11.527-11.386 5.018-2.605 11.076-3.91 18.17-3.91 11.589 0 20.312 3.092 26.168 9.278 5.856 6.186 8.933 14.445 9.225 24.767l-18.642.997c-.797-5.776-2.51-9.932-5.132-12.463-2.622-2.531-6.56-3.793-11.81-3.793-5.415 0-9.656 1.353-12.722 4.065-1.972 1.737-2.958 4.066-2.958 6.977 0 2.659.922 4.934 2.77 6.826 2.349 2.403 8.064 4.907 17.13 7.515 9.07 2.605 15.778 5.304 20.123 8.088 4.345 2.786 7.748 6.593 10.201 11.426 2.454 4.83 3.686 10.796 3.686 17.905 0 6.441-1.471 12.476-4.41 18.096-2.94 5.627-7.097 9.804-12.472 12.54s-12.072 4.103-20.093 4.103c-11.671 0-20.637-3.285-26.89-9.854-6.26-6.573-9.996-16.145-11.211-28.719z"/></g></symbol><symbol viewBox="-5 -5 970 650" id="team-43-19241925-dark"><g fill="#FFF"><path d="M917.563 394.008v11.825h-2.957v-11.825h-3.422v-2.937h9.802v2.937h-3.423zm16.023 11.825v-8.713l-2.49 5.428h-2.611l-2.49-5.428v8.713h-2.957V391.07h2.956l3.797 7.883 3.795-7.883h2.957v14.761h-2.957zM857.507 368.985V234.167h-36.848v171.665h82.798v-36.847zM778.177 234.167H729.19l-34.246 171.665h37.714l7.559-37.714h26.932l7.559 37.715h37.714l-34.246-171.666zm-24.493 97.537h-6.168l6.168-30.779 6.168 30.78h-6.168zM684.541 269.064v-34.897h-85.399v171.665h85.4v-35.871h-48.553v-31.863h42.917v-37.172h-42.917v-31.862zM565.546 336.906l19.29-19.94v-64.592l-18.206-18.206h-81.498v171.665h35.547v-68.927h5.202l26.413 68.927h39.665l-26.413-68.927zm-17.557-35.98h-27.31v-31.862h27.31v31.862zM444.817 405.832V269.064h29.911v-34.897h-98.786l.103 34.897h31.058v136.768zM300.029 330.62l29.26 75.212h38.055l-.505-171.665H331.24v72.828l-28.332-72.828h-38.86v171.665h35.98zM170.413 405.832h66.325l18.207-18.206V252.374l-18.207-18.206h-66.325l-18.207 18.206v135.252l18.207 18.207zm47.251-136.768v99.921h-29.911v-99.921h29.911zM108.423 234.167l-27.094 56.355-27.093-56.355H23.457v171.665h34.68v-36.847l15.192 36.847H89.33l15.192-36.847v36.847h34.68V234.167z"/></g></symbol><symbol viewBox="-5 -5 970 650" id="team-43-19241925-light"><g fill="#6F263D"><path d="M917.563 394.008v11.825h-2.957v-11.825h-3.422v-2.937h9.802v2.937h-3.423zm16.023 11.825v-8.713l-2.49 5.428h-2.611l-2.49-5.428v8.713h-2.957V391.07h2.956l3.797 7.883 3.795-7.883h2.957v14.761h-2.957zM857.507 368.985V234.167h-36.848v171.665h82.798v-36.847zM778.177 234.167H729.19l-34.246 171.665h37.714l7.559-37.714h26.932l7.559 37.715h37.714l-34.246-171.666zm-24.493 97.537h-6.168l6.168-30.779 6.168 30.78h-6.168zM684.541 269.064v-34.897h-85.399v171.665h85.4v-35.871h-48.553v-31.863h42.917v-37.172h-42.917v-31.862zM565.546 336.906l19.29-19.94v-64.592l-18.206-18.206h-81.498v171.665h35.547v-68.927h5.202l26.413 68.927h39.665l-26.413-68.927zm-17.557-35.98h-27.31v-31.862h27.31v31.862zM444.817 405.832V269.064h29.911v-34.897h-98.786l.103 34.897h31.058v136.768zM300.029 330.62l29.26 75.212h38.055l-.505-171.665H331.24v72.828l-28.332-72.828h-38.86v171.665h35.98zM170.413 405.832h66.325l18.207-18.206V252.374l-18.207-18.206h-66.325l-18.207 18.206v135.252l18.207 18.207zm47.251-136.768v99.921h-29.911v-99.921h29.911zM108.423 234.167l-27.094 56.355-27.093-56.355H23.457v171.665h34.68v-36.847l15.192 36.847H89.33l15.192-36.847v36.847h34.68V234.167z"/></g></symbol><symbol viewBox="-5 -5 970 650" id="team-58-19241925-dark"><path fill="#FFF" d="M868.57 482.08v11.824h-2.958v-11.825h-3.422v-2.937h9.802v2.938h-3.423zm16.022 11.824v-8.713l-2.49 5.428h-2.612l-2.49-5.428v8.713h-2.956v-14.762H877l3.796 7.883 3.796-7.883h2.956v14.762h-2.956zM766.85 146.096h-573.7c-91.688 0-169.15 79.627-169.15 173.9 0 94.27 77.462 173.908 169.15 173.908h573.7c91.685 0 169.15-79.637 169.15-173.909 0-94.272-77.465-173.899-169.15-173.899z"/><g fill="#046A38"><path d="M630.58 457.862h23.59V283.371h64.082v-23.586H566.497v23.586h64.082zM497.034 457.862l12.448-35.017h68.042l12.449 35.017h25.037l-71.508-201.14-71.505 201.14h25.037zm46.468-130.715l25.637 72.103h-51.27l25.633-72.103zM831.55 399.983c0 21.175-21.469 38.402-47.857 38.402-26.389 0-47.857-17.227-47.857-38.402h-23.588c0 34.234 31.988 61.998 71.445 61.998s71.447-27.764 71.447-61.998c0-70.988-116.72-38.07-116.72-89.993 0-16.665 20.73-30.737 45.273-30.737 24.545 0 45.272 14.072 45.272 30.737h23.59c0-30.004-30.827-54.323-68.862-54.323-38.036 0-68.864 24.319-68.864 54.323 0 75.418 116.72 44.429 116.72 89.993zM403.916 336.398h42.104c44.472 0 74.124-17.92 74.124-77.165s-29.652-77.156-74.124-77.156h-71.756v275.785h29.653V336.398zm0-124.668h42.102c30.135 0 44.474 7.102 44.474 47.503s-14.34 47.513-44.474 47.513h-42.101V211.73zM186.398 432.268c-28.614 0-51.885-24.289-51.885-54.163H104.86c0 46.298 36.498 83.816 81.538 83.816 45.036 0 81.537-37.518 81.537-83.816 0-97.536-130.46-56.402-130.46-118.912 0-28.407 21.942-51.521 48.922-51.521 26.984 0 48.922 23.114 48.922 51.52h29.653c0-44.83-35.175-81.173-78.575-81.173-43.402 0-78.572 36.343-78.572 81.174 0 90.877 130.457 50.014 130.457 118.912 0 29.874-23.27 54.163-51.885 54.163zM285.817 262.467h22.904v-70.415h31.769v-14.033h-86.44v14.033h31.767z"/></g></symbol><symbol viewBox="-5 -5 970 650" id="team-58-19241925-light"><path fill="#046A38" d="M868.57 482.08v11.824h-2.958v-11.825h-3.422v-2.937h9.802v2.938h-3.423zm16.022 11.824v-8.713l-2.49 5.428h-2.612l-2.49-5.428v8.713h-2.956v-14.762H877l3.796 7.883 3.796-7.883h2.956v14.762h-2.956zM766.85 146.096h-573.7c-91.688 0-169.15 79.627-169.15 173.9 0 94.27 77.462 173.908 169.15 173.908h573.7c91.685 0 169.15-79.637 169.15-173.909 0-94.272-77.465-173.899-169.15-173.899z"/><g fill="#FFF"><path d="M630.58 457.862h23.59V283.371h64.082v-23.586H566.497v23.586h64.082zM497.034 457.862l12.448-35.017h68.042l12.449 35.017h25.037l-71.508-201.14-71.505 201.14h25.037zm46.468-130.715l25.637 72.103h-51.27l25.633-72.103zM831.55 399.983c0 21.175-21.469 38.402-47.857 38.402-26.389 0-47.857-17.227-47.857-38.402h-23.588c0 34.234 31.988 61.998 71.445 61.998s71.447-27.764 71.447-61.998c0-70.988-116.72-38.07-116.72-89.993 0-16.665 20.73-30.737 45.273-30.737 24.545 0 45.272 14.072 45.272 30.737h23.59c0-30.004-30.827-54.323-68.862-54.323-38.036 0-68.864 24.319-68.864 54.323 0 75.418 116.72 44.429 116.72 89.993zM403.916 336.398h42.104c44.472 0 74.124-17.92 74.124-77.165s-29.652-77.156-74.124-77.156h-71.756v275.785h29.653V336.398zm0-124.668h42.102c30.135 0 44.474 7.102 44.474 47.503s-14.34 47.513-44.474 47.513h-42.101V211.73zM186.398 432.268c-28.614 0-51.885-24.289-51.885-54.163H104.86c0 46.298 36.498 83.816 81.538 83.816 45.036 0 81.537-37.518 81.537-83.816 0-97.536-130.46-56.402-130.46-118.912 0-28.407 21.942-51.521 48.922-51.521 26.984 0 48.922 23.114 48.922 51.52h29.653c0-44.83-35.175-81.173-78.575-81.173-43.402 0-78.572 36.343-78.572 81.174 0 90.877 130.457 50.014 130.457 118.912 0 29.874-23.27 54.163-51.885 54.163zM285.817 262.467h22.904v-70.415h31.769v-14.033h-86.44v14.033h31.767z"/></g></symbol><symbol viewBox="-5 -5 970 650" id="team-6-19241925-dark"><path fill="#FFC72C" d="M711.438 544.86v11.825h-2.957V544.86h-3.423v-2.938h9.802v2.938h-3.422zm16.023 11.825v-8.713l-2.49 5.428h-2.612l-2.49-5.428v8.713h-2.956v-14.762h2.956l3.796 7.883 3.795-7.883h2.957v14.762h-2.957z"/><path fill="#744F28" d="M463.23 83.508C302.796 78.16 55.335 185.855 55.335 185.855l108.33 255.162 70.544-24.367v140.035h452.913V414.938l85.153 23.266 132.39-231.35c-255-107-281-118-441.435-123.346z"/><path fill="#FFC72C" d="M598.781 426.09v-11.883c-6.337 9.351-14.767 11.258-20.568 11.258-11.469 0-18.879-9.68-18.879-24.661l.004-.164 1.014-18.067c-.04-1.761-1.173-4.336-4.357-10.33l-11.034 17.332c-6.089 9.562-7.047 11.068-7.24 11.362-8.008 12.442-17.116 24.59-32.518 24.59-10.177 0-26.321-5.817-26.321-21.425 0-10.332 7.23-15.987 12.75-18.798a25.177 25.177 0 0 1-3.21-9.795c-12.29 4.979-22.373 5.407-39.25 4.894l-4.927 15.667-3.356 10.673c-4.473 13.239-15.204 20.802-29.458 20.802-18.765 0-27.164-11.137-27.164-22.174 0-12.25 7.374-18.188 10.917-21.043.67-.539 1.265-1.016 1.534-1.272v-.155c0-.915-1.735-4.725-9.656-11.274-4.365-3.61-9.61-7.196-13.83-9.486-2.62 4.073-6.55 9.912-13.372 16.932-11.436 11.77-25.151 11.153-26.677 11.047a12.48 12.48 0 0 1-2.369-.396v36.366H253.21v111.595h414.913V426.09h-69.34z"/><path fill="#FFC72C" d="M602.985 387.159l1.507-15.626c.925-9.667 1.309-13.668 1.934-16.914.078-.4.045-.859.117-1.262.7.11 1.318.371 2.074.371 6.084 0 13.196-4.271 13.196-16.315 0-6.934-3.352-27.246-11.66-36.354-9.413-10.316-60.716-61.774-146.578-61.774-69.061 0-97.31 24.176-116.001 40.176-10.007 8.564-15.554 13.03-22.543 13.03l-5.088-.263c-6.36 0-13.45 5.016-13.45 12.21 0 3.672 1.638 6.699 2.956 9.127 0 0 .723 1.445.931 1.865-.082 6.696-1.256 8.712-2.412 10.557-1.322 2.096-3.32 5.27-3.32 10.511 0 6.344 2.643 9.984 5.198 13.506 2.708 3.724 6.416 8.835 10.944 21.754.26.629 2.839 6.755 6.62 11.293a8.603 8.603 0 0 0 6.05 3.079c1.347.091 13.423.56 23.531-9.844 7.161-7.37 11.051-13.45 13.626-17.474 0 0 .615-.905 1.234-1.806 8.873 3.815 28.866 18.323 28.866 25.895 0 2.05-.254 2.317-3.014 4.534-3.528 2.842-9.436 7.591-9.436 17.936 0 9.047 7.161 18.174 23.164 18.174 12.437 0 21.773-6.553 25.634-17.975.036-.12 6.015-19.124 9.203-29.264 22.06.761 31.52.182 46.139-6.967-.085.944-.173 1.889-.173 2.816 0 7.048 2.78 11.69 5.537 14.922-6.598 2.158-14.89 7.188-14.89 17.025 0 12.698 13.695 17.425 22.322 17.425 13.385 0 21.767-11.276 29.205-22.829.016-.023 13.056-20.507 21.875-34.355 6.191 11.413 8.07 15.02 8.07 18.324l-1.02 18.138c0 12.551 5.84 20.66 14.88 20.66 7.982 0 21.82-4.457 24.772-34.306z"/><path fill="#744F28" d="M608.617 345.118c1.816 0 4.586-.924 4.586-7.705 0-6.777-3.47-24.037-9.41-30.55-5.944-6.514-56.084-58.967-140.218-58.967-101.6 0-108.684 53.212-138.544 53.212-2.656 0-4.212-.27-5.088-.27-2.239 0-4.84 1.907-4.84 3.6 0 3.024 3.92 7.145 3.92 10.351 0 16.211-5.766 14.746-5.766 21.71 0 8.063 6.83 7.206 15.658 32.411 0 0 2.06 4.968 5.11 8.63 0 0 4.55.296 9.91-2.28 1.282-10.842-1.134-22.912-1.134-22.912l5.586-1.1s2.009 10.045 1.39 20.045c.349-.322.7-.654 1.042-1.006 13.72-14.124 14.079-22.715 19.697-22.715 5.124 0 38.808 19.212 38.808 35.329 0 12.467-12.447 10.026-12.447 22.47 0 4.164 3.073 9.568 14.554 9.568 5.98 0 14.052-1.986 17.474-12.123l11.116-35.351c33.828 1.276 37.193 1.83 66.263-15.762 0 0-5.44 11.533-5.44 20.453 0 10.999 9.867 12.46 9.867 17.71 0 3.702-4.737 4.457-6.224 4.457-1.488 0-12.995 2.354-12.995 9.779 0 7.419 11.048 8.819 13.71 8.819 7.787 0 13.835-6.257 21.967-18.884l29.752-46.722c12.113 23.001 16.041 28.021 16.041 35.352 0 7.327-1.018 15.39-1.018 18.138 0 2.744.59 12.05 6.269 12.05 5.677 0 13.995-4.2 16.201-26.549 2.214-22.347 2.566-28.184 3.555-33.31.954-4.942 1.77-13.034-.785-25.74 1.013 4.516 4.583 17.862 11.433 17.862zm-279.604-.905c-.482 4.075-4.948 1.761-7.422.596-2.464-1.175-.97-2.344 0-5.247.989-2.917 7.929-3.497 7.929-3.497 2.953 1.758 0 4.076-.507 8.148z"/><g fill="#744F28"><path d="M283.085 441.019a2.383 2.383 0 0 0-2.383 2.38v76.978a2.383 2.383 0 0 0 2.383 2.38h39.694l13.668-13.497v-21.487l-7.438-5.885 7.438-5.889v-21.481l-13.668-13.5h-39.694zm42.408 62.949l-7.106 7.018h-24.352a2.38 2.38 0 0 1-2.379-2.383v-18.447a2.38 2.38 0 0 1 2.38-2.383h24.351l7.106 7.018v9.177zm0-34.984l-7.106 7.015h-24.352a2.378 2.378 0 0 1-2.379-2.38v-18.447a2.381 2.381 0 0 1 2.38-2.383h24.351l7.106 7.019v9.176zM354.413 441.019a2.384 2.384 0 0 0-2.383 2.38l.007 73.883a5.472 5.472 0 0 0 5.475 5.474 5.472 5.472 0 0 0 5.472-5.474v-27.126a2.381 2.381 0 0 1 2.383-2.383h24.348l7.107 7.018.006 22.49a5.472 5.472 0 0 0 5.475 5.475 5.471 5.471 0 0 0 5.472-5.474v-29.509l-7.435-5.885 7.435-5.889v-21.481l-13.665-13.5h-39.697zm42.409 27.965l-7.107 7.015h-24.349a2.379 2.379 0 0 1-2.382-2.38v-18.447a2.382 2.382 0 0 1 2.382-2.383h24.349l7.107 7.019v9.176zM499.093 441.019a5.473 5.473 0 0 0-5.476 5.475v70.788c0 3.027 2.452 5.474 5.476 5.474s5.472-2.447 5.472-5.474v-70.788a5.47 5.47 0 0 0-5.472-5.475zM473.63 441.019a5.47 5.47 0 0 0-5.472 5.475l-.006 57.474-7.109 7.018h-19.622l-7.11-7.018-.003-57.474a5.473 5.473 0 0 0-5.475-5.475 5.47 5.47 0 0 0-5.472 5.475v62.766l13.665 13.496h28.411l13.665-13.496v-62.766a5.47 5.47 0 0 0-5.472-5.475zM602.943 452.79h19.629l8.3 8.2a5.735 5.735 0 0 0 8.106-.05 5.732 5.732 0 0 0-.052-8.105l-11.964-11.816h-28.41l-13.666 13.499v19.76l13.665 13.495h24.02l7.107 7.018v9.177l-7.106 7.018h-19.63l-8.3-8.2a5.735 5.735 0 0 0-8.105.049 5.735 5.735 0 0 0 .052 8.105l11.962 11.816h28.411l13.67-13.496v-19.758l-13.67-13.503h-24.02l-7.102-7.015v-9.176l7.103-7.019zM569.35 441.019a5.478 5.478 0 0 0-5.479 5.475v51.891l-34.687-54.82a5.484 5.484 0 0 0-6.153-2.331 5.485 5.485 0 0 0-3.955 5.26v70.788c0 3.024 2.455 5.474 5.479 5.474s5.478-2.45 5.478-5.474v-51.888l34.687 54.814a5.473 5.473 0 0 0 6.15 2.334 5.48 5.48 0 0 0 3.954-5.26v-70.788a5.479 5.479 0 0 0-5.474-5.475z"/></g><g fill="#FFC72C"><path d="M751.165 151.355l-122 217 35 14.5 63.755-113.206c2.978-5.287 11.067-2.554 10.227 3.456l-18.482 132.25 40.5 16 123-216-36-15.5-63.218 113.82c-2.563 4.615-9.611 2.325-8.973-2.914l16.191-132.906-40-16.5zM667.998 131.521l-38.666-13.333-16.667 6.333-25.667 81 9 14 40 13.334 17-5.334 26-81.333-11-14.667zM657.506 149l-21.324 63.973a2.639 2.639 0 0 1-3.384 1.654l-22.413-7.927a2.639 2.639 0 0 1-1.642-3.264l19.786-64.305a2.639 2.639 0 0 1 3.383-1.719l23.95 8.26a2.639 2.639 0 0 1 1.644 3.328zM502.165 98.355l-1 16 21.5 2-6 85.5 21.5 2.5 6.5-85 22.5 3 .5-15.5zM428.165 99.355l-41 3-10.5 11.5 7.5 40.436 15.5 8.564 35-2.5 4.5 26-26 3-2-9-21 1.5 3 16.5 14.75 8.5 41.25-3.5 11.5-11-7.5-39.25-16-10.25-34 2-4.5-26.5 25-2 2.5 8 20-1-2.5-14.5zM320.247 126.855l-16.06-7.5-42.022 10.5-8.956 13.5 33.456 82 17.982 7.5 41.518-10.5 9-12.5-34.918-83zm9.33 80.437l-22.365 6.79a2.911 2.911 0 0 1-3.545-1.695l-26.253-64.942a2.911 2.911 0 0 1 1.981-3.912l21.84-5.56a2.911 2.911 0 0 1 3.402 1.694l26.777 63.712a2.911 2.911 0 0 1-1.838 3.913zM261.915 284.605l-25.513-14.45a3.834 3.834 0 0 1-1.752-4.537l9.015-27.333-31-69.43-36.25-12.75-104.75 33.25 98.5 231.25 103.5-34.25 17.991-32.5-29.74-69.25zM148.647 268.72l-21.304-49.774a6.952 6.952 0 0 1 4.098-9.298l43.288-15.132a6.952 6.952 0 0 1 8.71 3.885l21.094 50.547a6.952 6.952 0 0 1-4.217 9.272l-43.08 14.36a6.952 6.952 0 0 1-8.59-3.86zM240.89 356.6l-41.9 14.334a7.918 7.918 0 0 1-9.896-4.507l-19.77-48.559c-1.715-4.214.466-9.004 4.77-10.477l41.324-14.142a7.918 7.918 0 0 1 9.863 4.422l20.345 48.366c1.778 4.228-.396 9.078-4.736 10.563z"/></g></symbol><symbol viewBox="-5 -5 970 650" id="team-6-19241925-light"><path fill="#744F28" d="M711.438 544.86v11.825h-2.957V544.86h-3.423v-2.938h9.802v2.938h-3.422zm16.023 11.825v-8.713l-2.49 5.428h-2.612l-2.49-5.428v8.713h-2.956v-14.762h2.956l3.796 7.883 3.795-7.883h2.957v14.762h-2.957zM463.23 83.508C302.796 78.16 55.335 185.855 55.335 185.855l108.33 255.162 70.544-24.367v140.035h452.913V414.938l85.153 23.266 132.39-231.35c-255-107-281-118-441.435-123.346z"/><path fill="#FFC72C" d="M598.781 426.09v-11.883c-6.337 9.351-14.767 11.258-20.568 11.258-11.469 0-18.879-9.68-18.879-24.661l.004-.164 1.014-18.067c-.04-1.761-1.173-4.336-4.357-10.33l-11.034 17.332c-6.089 9.562-7.047 11.068-7.24 11.362-8.008 12.442-17.116 24.59-32.518 24.59-10.177 0-26.321-5.817-26.321-21.425 0-10.332 7.23-15.987 12.75-18.798a25.177 25.177 0 0 1-3.21-9.795c-12.29 4.979-22.373 5.407-39.25 4.894l-4.927 15.667-3.356 10.673c-4.473 13.239-15.204 20.802-29.458 20.802-18.765 0-27.164-11.137-27.164-22.174 0-12.25 7.374-18.188 10.917-21.043.67-.539 1.265-1.016 1.534-1.272v-.155c0-.915-1.735-4.725-9.656-11.274-4.365-3.61-9.61-7.196-13.83-9.486-2.62 4.073-6.55 9.912-13.372 16.932-11.436 11.77-25.151 11.153-26.677 11.047a12.48 12.48 0 0 1-2.369-.396v36.366H253.21v111.595h414.913V426.09h-69.34z"/><path fill="#FFC72C" d="M602.985 387.159l1.507-15.626c.925-9.667 1.309-13.668 1.934-16.914.078-.4.045-.859.117-1.262.7.11 1.318.371 2.074.371 6.084 0 13.196-4.271 13.196-16.315 0-6.934-3.352-27.246-11.66-36.354-9.413-10.316-60.716-61.774-146.578-61.774-69.061 0-97.31 24.176-116.001 40.176-10.007 8.564-15.554 13.03-22.543 13.03l-5.088-.263c-6.36 0-13.45 5.016-13.45 12.21 0 3.672 1.638 6.699 2.956 9.127 0 0 .723 1.445.931 1.865-.082 6.696-1.256 8.712-2.412 10.557-1.322 2.096-3.32 5.27-3.32 10.511 0 6.344 2.643 9.984 5.198 13.506 2.708 3.724 6.416 8.835 10.944 21.754.26.629 2.839 6.755 6.62 11.293a8.603 8.603 0 0 0 6.05 3.079c1.347.091 13.423.56 23.531-9.844 7.161-7.37 11.051-13.45 13.626-17.474 0 0 .615-.905 1.234-1.806 8.873 3.815 28.866 18.323 28.866 25.895 0 2.05-.254 2.317-3.014 4.534-3.528 2.842-9.436 7.591-9.436 17.936 0 9.047 7.161 18.174 23.164 18.174 12.437 0 21.773-6.553 25.634-17.975.036-.12 6.015-19.124 9.203-29.264 22.06.761 31.52.182 46.139-6.967-.085.944-.173 1.889-.173 2.816 0 7.048 2.78 11.69 5.537 14.922-6.598 2.158-14.89 7.188-14.89 17.025 0 12.698 13.695 17.425 22.322 17.425 13.385 0 21.767-11.276 29.205-22.829.016-.023 13.056-20.507 21.875-34.355 6.191 11.413 8.07 15.02 8.07 18.324l-1.02 18.138c0 12.551 5.84 20.66 14.88 20.66 7.982 0 21.82-4.457 24.772-34.306z"/><path fill="#744F28" d="M608.617 345.118c1.816 0 4.586-.924 4.586-7.705 0-6.777-3.47-24.037-9.41-30.55-5.944-6.514-56.084-58.967-140.218-58.967-101.6 0-108.684 53.212-138.544 53.212-2.656 0-4.212-.27-5.088-.27-2.239 0-4.84 1.907-4.84 3.6 0 3.024 3.92 7.145 3.92 10.351 0 16.211-5.766 14.746-5.766 21.71 0 8.063 6.83 7.206 15.658 32.411 0 0 2.06 4.968 5.11 8.63 0 0 4.55.296 9.91-2.28 1.282-10.842-1.134-22.912-1.134-22.912l5.586-1.1s2.009 10.045 1.39 20.045c.349-.322.7-.654 1.042-1.006 13.72-14.124 14.079-22.715 19.697-22.715 5.124 0 38.808 19.212 38.808 35.329 0 12.467-12.447 10.026-12.447 22.47 0 4.164 3.073 9.568 14.554 9.568 5.98 0 14.052-1.986 17.474-12.123l11.116-35.351c33.828 1.276 37.193 1.83 66.263-15.762 0 0-5.44 11.533-5.44 20.453 0 10.999 9.867 12.46 9.867 17.71 0 3.702-4.737 4.457-6.224 4.457-1.488 0-12.995 2.354-12.995 9.779 0 7.419 11.048 8.819 13.71 8.819 7.787 0 13.835-6.257 21.967-18.884l29.752-46.722c12.113 23.001 16.041 28.021 16.041 35.352 0 7.327-1.018 15.39-1.018 18.138 0 2.744.59 12.05 6.269 12.05 5.677 0 13.995-4.2 16.201-26.549 2.214-22.347 2.566-28.184 3.555-33.31.954-4.942 1.77-13.034-.785-25.74 1.013 4.516 4.583 17.862 11.433 17.862zm-279.604-.905c-.482 4.075-4.948 1.761-7.422.596-2.464-1.175-.97-2.344 0-5.247.989-2.917 7.929-3.497 7.929-3.497 2.953 1.758 0 4.076-.507 8.148z"/><g fill="#744F28"><path d="M283.085 441.019a2.383 2.383 0 0 0-2.383 2.38v76.978a2.383 2.383 0 0 0 2.383 2.38h39.694l13.668-13.497v-21.487l-7.438-5.885 7.438-5.889v-21.481l-13.668-13.5h-39.694zm42.408 62.949l-7.106 7.018h-24.352a2.38 2.38 0 0 1-2.379-2.383v-18.447a2.38 2.38 0 0 1 2.38-2.383h24.351l7.106 7.018v9.177zm0-34.984l-7.106 7.015h-24.352a2.378 2.378 0 0 1-2.379-2.38v-18.447a2.381 2.381 0 0 1 2.38-2.383h24.351l7.106 7.019v9.176zM354.413 441.019a2.384 2.384 0 0 0-2.383 2.38l.007 73.883a5.472 5.472 0 0 0 5.475 5.474 5.472 5.472 0 0 0 5.472-5.474v-27.126a2.381 2.381 0 0 1 2.383-2.383h24.348l7.107 7.018.006 22.49a5.472 5.472 0 0 0 5.475 5.475 5.471 5.471 0 0 0 5.472-5.474v-29.509l-7.435-5.885 7.435-5.889v-21.481l-13.665-13.5h-39.697zm42.409 27.965l-7.107 7.015h-24.349a2.379 2.379 0 0 1-2.382-2.38v-18.447a2.382 2.382 0 0 1 2.382-2.383h24.349l7.107 7.019v9.176zM499.093 441.019a5.473 5.473 0 0 0-5.476 5.475v70.788c0 3.027 2.452 5.474 5.476 5.474s5.472-2.447 5.472-5.474v-70.788a5.47 5.47 0 0 0-5.472-5.475zM473.63 441.019a5.47 5.47 0 0 0-5.472 5.475l-.006 57.474-7.109 7.018h-19.622l-7.11-7.018-.003-57.474a5.473 5.473 0 0 0-5.475-5.475 5.47 5.47 0 0 0-5.472 5.475v62.766l13.665 13.496h28.411l13.665-13.496v-62.766a5.47 5.47 0 0 0-5.472-5.475zM602.943 452.79h19.629l8.3 8.2a5.735 5.735 0 0 0 8.106-.05 5.732 5.732 0 0 0-.052-8.105l-11.964-11.816h-28.41l-13.666 13.499v19.76l13.665 13.495h24.02l7.107 7.018v9.177l-7.106 7.018h-19.63l-8.3-8.2a5.735 5.735 0 0 0-8.105.049 5.735 5.735 0 0 0 .052 8.105l11.962 11.816h28.411l13.67-13.496v-19.758l-13.67-13.503h-24.02l-7.102-7.015v-9.176l7.103-7.019zM569.35 441.019a5.478 5.478 0 0 0-5.479 5.475v51.891l-34.687-54.82a5.484 5.484 0 0 0-6.153-2.331 5.485 5.485 0 0 0-3.955 5.26v70.788c0 3.024 2.455 5.474 5.479 5.474s5.478-2.45 5.478-5.474v-51.888l34.687 54.814a5.473 5.473 0 0 0 6.15 2.334 5.48 5.48 0 0 0 3.954-5.26v-70.788a5.479 5.479 0 0 0-5.474-5.475z"/></g><g fill="#FFC72C"><path d="M751.165 151.355l-122 217 35 14.5 63.755-113.206c2.978-5.287 11.067-2.554 10.227 3.456l-18.482 132.25 40.5 16 123-216-36-15.5-63.218 113.82c-2.563 4.615-9.611 2.325-8.973-2.914l16.191-132.906-40-16.5zM667.998 131.521l-38.666-13.333-16.667 6.333-25.667 81 9 14 40 13.334 17-5.334 26-81.333-11-14.667zM657.506 149l-21.324 63.973a2.639 2.639 0 0 1-3.384 1.654l-22.413-7.927a2.639 2.639 0 0 1-1.642-3.264l19.786-64.305a2.639 2.639 0 0 1 3.383-1.719l23.95 8.26a2.639 2.639 0 0 1 1.644 3.328zM502.165 98.355l-1 16 21.5 2-6 85.5 21.5 2.5 6.5-85 22.5 3 .5-15.5zM428.165 99.355l-41 3-10.5 11.5 7.5 40.436 15.5 8.564 35-2.5 4.5 26-26 3-2-9-21 1.5 3 16.5 14.75 8.5 41.25-3.5 11.5-11-7.5-39.25-16-10.25-34 2-4.5-26.5 25-2 2.5 8 20-1-2.5-14.5zM320.247 126.855l-16.06-7.5-42.022 10.5-8.956 13.5 33.456 82 17.982 7.5 41.518-10.5 9-12.5-34.918-83zm9.33 80.437l-22.365 6.79a2.911 2.911 0 0 1-3.545-1.695l-26.253-64.942a2.911 2.911 0 0 1 1.981-3.912l21.84-5.56a2.911 2.911 0 0 1 3.402 1.694l26.777 63.712a2.911 2.911 0 0 1-1.838 3.913zM261.915 284.605l-25.513-14.45a3.834 3.834 0 0 1-1.752-4.537l9.015-27.333-31-69.43-36.25-12.75-104.75 33.25 98.5 231.25 103.5-34.25 17.991-32.5-29.74-69.25zM148.647 268.72l-21.304-49.774a6.952 6.952 0 0 1 4.098-9.298l43.288-15.132a6.952 6.952 0 0 1 8.71 3.885l21.094 50.547a6.952 6.952 0 0 1-4.217 9.272l-43.08 14.36a6.952 6.952 0 0 1-8.59-3.86zM240.89 356.6l-41.9 14.334a7.918 7.918 0 0 1-9.896-4.507l-19.77-48.559c-1.715-4.214.466-9.004 4.77-10.477l41.324-14.142a7.918 7.918 0 0 1 9.863 4.422l20.345 48.366c1.778 4.228-.396 9.078-4.736 10.563z"/></g></symbol><symbol viewBox="-5 -5 970 650" id="team-7284-19241925-dark"><g fill="#FFC72C"><path d="M838.295 442.375v11.824h-2.957v-11.824h-3.423v-2.938h9.803v2.938h-3.423zm16.023 11.824v-8.712l-2.49 5.427h-2.612l-2.49-5.427v8.712h-2.956v-14.762h2.956l3.796 7.883 3.796-7.883h2.956V454.2h-2.956zM219.982 320.675v21.03a5.334 5.334 0 0 1-5.357 5.356h-34.919v101.78a5.335 5.335 0 0 1-5.357 5.358h-25.99a5.334 5.334 0 0 1-5.357-5.357v-101.78h-34.92a5.334 5.334 0 0 1-5.356-5.357v-21.03a5.336 5.336 0 0 1 5.357-5.359h106.542a5.336 5.336 0 0 1 5.357 5.359zM237.838 448.842V320.675a5.336 5.336 0 0 1 5.356-5.359h25.991a5.336 5.336 0 0 1 5.357 5.359v128.167a5.335 5.335 0 0 1-5.357 5.357h-25.99a5.335 5.335 0 0 1-5.357-5.357zM334.26 401.423c.993 12.104 7.342 23.015 25 23.015 13.888 0 24.999-5.952 24.999-21.824h-16.666a5.334 5.334 0 0 1-5.357-5.356v-21.032a5.334 5.334 0 0 1 5.357-5.356h48.013a5.334 5.334 0 0 1 5.357 5.356v25.396c0 33.927-26.983 54.561-61.703 54.561-38.093 0-60.315-24.602-61.703-53.767-.596-10.714-.397-24.007 0-35.315 1.19-29.166 23.61-53.768 61.703-53.768 37.3 0 59.52 24.403 60.711 42.26.198 2.381-1.984 4.364-4.365 4.364H389.22c-3.968 0-5.953-2.975-7.936-5.357-3.77-4.762-9.127-9.523-22.023-9.523-17.856 0-23.61 10.714-25 23.015-.793 6.944-.594 26.19 0 33.332zM480.087 422.455h62.695a5.334 5.334 0 0 1 5.357 5.356v21.03a5.335 5.335 0 0 1-5.357 5.358H448.74a5.335 5.335 0 0 1-5.358-5.357V320.675a5.336 5.336 0 0 1 5.358-5.359h92.455a5.335 5.335 0 0 1 5.357 5.359v21.03a5.334 5.334 0 0 1-5.357 5.356h-61.108v21.428h56.743a5.334 5.334 0 0 1 5.358 5.356v21.032a5.334 5.334 0 0 1-5.358 5.356h-56.743v22.222zM686.028 360.751c0 19.642-8.532 32.736-23.61 39.68l24.602 47.22c.396.794.595 1.19.595 2.183 0 2.38-1.985 4.365-4.366 4.365h-26.982c-5.357 0-7.142-2.977-8.333-5.357l-22.022-42.458h-18.254v42.458a5.335 5.335 0 0 1-5.357 5.357h-25.99a5.335 5.335 0 0 1-5.357-5.357V320.675a5.336 5.336 0 0 1 5.357-5.359h53.767c34.72 0 55.95 14.484 55.95 45.435zm-55.95 14.682c11.11 0 19.245-3.769 19.245-14.682s-8.134-14.68-19.245-14.68h-22.42v29.362h22.42zM814.591 356.783H788.6c-3.77 0-5.556-.991-7.936-3.174-1.785-1.588-6.349-8.532-20.237-8.532-9.92 0-19.443 2.182-19.443 10.119 0 7.936 9.126 9.722 38.291 15.674 28.967 5.952 43.45 17.261 43.45 42.06 0 26.785-25.792 43.253-61.306 43.253-35.712 0-60.513-21.031-61.108-41.07 0-2.38 1.983-4.365 4.166-4.365h25.991c3.572 0 5.556.993 7.539 2.779 2.38 2.182 7.54 10.911 23.412 10.911 13.889 0 24.602-2.579 24.602-10.515s-13.293-9.721-42.459-15.872c-26.982-5.754-39.283-19.245-39.283-41.863 0-22.817 21.626-42.855 56.148-42.855 33.728 0 57.735 22.023 58.33 39.085 0 2.381-1.983 4.365-4.166 4.365z"/><g><path d="M150.578 269.46c13.765 0 17.435-7.188 19.117-12.082 1.07-3.211 1.835-4.435 5.2-4.435h20.034c1.836 0 3.365 1.53 3.365 3.365-.459 20.8-20.8 37.622-47.716 37.622-29.363 0-46.492-18.964-47.563-41.446-.458-8.258-.306-18.505 0-27.222.918-22.481 18.2-41.445 47.563-41.445 26.917 0 47.257 16.823 47.716 37.621 0 1.836-1.53 3.365-3.365 3.365h-20.034c-3.365 0-4.13-1.223-5.2-4.435-1.682-4.894-5.352-12.082-19.117-12.082s-18.505 8.412-19.27 17.74c-.459 5.353-.459 20.188 0 25.694.765 9.33 5.506 17.74 19.27 17.74zM309.02 286.742c.305.765.611 1.988.611 2.294 0 1.835-1.529 3.365-3.364 3.365h-19.27c-3.977 0-5.506-2.294-5.965-3.824l-4.282-12.693h-40.68l-4.283 12.693c-.459 1.53-1.988 3.824-5.964 3.824h-19.27c-1.836 0-3.365-1.53-3.365-3.365 0-.306.306-1.53.612-2.294l33.34-96.35c.765-2.293 2.753-5.046 6.882-5.046h24.775c4.13 0 6.118 2.753 6.883 5.047l33.34 96.349zm-40.223-34.563l-12.387-36.705-12.388 36.705h24.775zM401.085 272.06v16.211a4.112 4.112 0 0 1-4.13 4.13h-70.809a4.112 4.112 0 0 1-4.129-4.13v-98.796a4.112 4.112 0 0 1 4.13-4.13h20.034a4.112 4.112 0 0 1 4.13 4.13v78.456h46.644a4.112 4.112 0 0 1 4.13 4.13zM437.33 251.72c.766 9.33 5.66 17.74 19.27 17.74 10.706 0 19.27-4.588 19.27-16.822h-12.846a4.112 4.112 0 0 1-4.129-4.13v-16.21a4.112 4.112 0 0 1 4.129-4.13h37.01a4.112 4.112 0 0 1 4.13 4.13v19.575c0 26.152-20.8 42.057-47.563 42.057-29.364 0-46.493-18.964-47.563-41.446-.459-8.258-.306-18.505 0-27.222.918-22.481 18.2-41.445 47.563-41.445 28.751 0 45.88 18.81 46.798 32.575.153 1.835-1.53 3.364-3.364 3.364h-20.34c-3.06 0-4.589-2.294-6.118-4.13-2.907-3.67-7.035-7.34-16.976-7.34-13.764 0-18.2 8.259-19.27 17.74-.612 5.353-.459 20.188 0 25.694zM615.654 286.742c.305.765.612 1.988.612 2.294 0 1.835-1.53 3.365-3.365 3.365h-19.27c-3.976 0-5.505-2.294-5.965-3.824l-4.281-12.693h-40.681l-4.282 12.693c-.459 1.53-1.988 3.824-5.965 3.824h-19.27c-1.835 0-3.364-1.53-3.364-3.365 0-.306.305-1.53.612-2.294l33.34-96.35c.764-2.293 2.752-5.046 6.881-5.046h24.776c4.129 0 6.118 2.753 6.882 5.047l33.34 96.349zm-40.222-34.563l-12.388-36.705-12.388 36.705h24.776zM717.354 220.368c0 15.14-6.577 25.235-18.2 30.587l18.965 36.399c.305.612.458.918.458 1.682 0 1.835-1.53 3.365-3.365 3.365h-20.799c-4.13 0-5.505-2.294-6.423-4.13l-16.975-32.728h-14.07v32.729a4.112 4.112 0 0 1-4.13 4.129H632.78a4.112 4.112 0 0 1-4.13-4.13v-98.796a4.112 4.112 0 0 1 4.13-4.13h41.445c26.763 0 43.128 11.165 43.128 35.023zm-43.128 11.317c8.564 0 14.835-2.906 14.835-11.317s-6.27-11.317-14.835-11.317h-17.282v22.634h17.282zM782.657 292.4h-20.034a4.112 4.112 0 0 1-4.13-4.128v-32.576L723.165 190.7c-.459-.765-.611-1.53-.611-1.988 0-1.836 1.528-3.365 3.365-3.365h20.951a7.05 7.05 0 0 1 6.423 3.823l19.27 37.623 19.423-37.623a7.05 7.05 0 0 1 6.423-3.823h20.953c1.835 0 3.364 1.53 3.364 3.365 0 .458-.153 1.223-.611 1.988l-35.329 64.997v32.576a4.112 4.112 0 0 1-4.13 4.129z"/></g></g></symbol><symbol viewBox="-5 -5 970 650" id="team-7284-19241925-light"><g fill="#010101"><path d="M838.295 442.375v11.824h-2.957v-11.824h-3.423v-2.938h9.803v2.938h-3.423zm16.023 11.824v-8.712l-2.49 5.427h-2.612l-2.49-5.427v8.712h-2.956v-14.762h2.956l3.796 7.883 3.796-7.883h2.956V454.2h-2.956zM219.982 320.675v21.03a5.334 5.334 0 0 1-5.357 5.356h-34.919v101.78a5.335 5.335 0 0 1-5.357 5.358h-25.99a5.334 5.334 0 0 1-5.357-5.357v-101.78h-34.92a5.334 5.334 0 0 1-5.356-5.357v-21.03a5.336 5.336 0 0 1 5.357-5.359h106.542a5.336 5.336 0 0 1 5.357 5.359zM237.838 448.842V320.675a5.336 5.336 0 0 1 5.356-5.359h25.991a5.336 5.336 0 0 1 5.357 5.359v128.167a5.335 5.335 0 0 1-5.357 5.357h-25.99a5.335 5.335 0 0 1-5.357-5.357zM334.26 401.423c.993 12.104 7.342 23.015 25 23.015 13.888 0 24.999-5.952 24.999-21.824h-16.666a5.334 5.334 0 0 1-5.357-5.356v-21.032a5.334 5.334 0 0 1 5.357-5.356h48.013a5.334 5.334 0 0 1 5.357 5.356v25.396c0 33.927-26.983 54.561-61.703 54.561-38.093 0-60.315-24.602-61.703-53.767-.596-10.714-.397-24.007 0-35.315 1.19-29.166 23.61-53.768 61.703-53.768 37.3 0 59.52 24.403 60.711 42.26.198 2.381-1.984 4.364-4.365 4.364H389.22c-3.968 0-5.953-2.975-7.936-5.357-3.77-4.762-9.127-9.523-22.023-9.523-17.856 0-23.61 10.714-25 23.015-.793 6.944-.594 26.19 0 33.332zM480.087 422.455h62.695a5.334 5.334 0 0 1 5.357 5.356v21.03a5.335 5.335 0 0 1-5.357 5.358H448.74a5.335 5.335 0 0 1-5.358-5.357V320.675a5.336 5.336 0 0 1 5.358-5.359h92.455a5.335 5.335 0 0 1 5.357 5.359v21.03a5.334 5.334 0 0 1-5.357 5.356h-61.108v21.428h56.743a5.334 5.334 0 0 1 5.358 5.356v21.032a5.334 5.334 0 0 1-5.358 5.356h-56.743v22.222zM686.028 360.751c0 19.642-8.532 32.736-23.61 39.68l24.602 47.22c.396.794.595 1.19.595 2.183 0 2.38-1.985 4.365-4.366 4.365h-26.982c-5.357 0-7.142-2.977-8.333-5.357l-22.022-42.458h-18.254v42.458a5.335 5.335 0 0 1-5.357 5.357h-25.99a5.335 5.335 0 0 1-5.357-5.357V320.675a5.336 5.336 0 0 1 5.357-5.359h53.767c34.72 0 55.95 14.484 55.95 45.435zm-55.95 14.682c11.11 0 19.245-3.769 19.245-14.682s-8.134-14.68-19.245-14.68h-22.42v29.362h22.42zM814.591 356.783H788.6c-3.77 0-5.556-.991-7.936-3.174-1.785-1.588-6.349-8.532-20.237-8.532-9.92 0-19.443 2.182-19.443 10.119 0 7.936 9.126 9.722 38.291 15.674 28.967 5.952 43.45 17.261 43.45 42.06 0 26.785-25.792 43.253-61.306 43.253-35.712 0-60.513-21.031-61.108-41.07 0-2.38 1.983-4.365 4.166-4.365h25.991c3.572 0 5.556.993 7.539 2.779 2.38 2.182 7.54 10.911 23.412 10.911 13.889 0 24.602-2.579 24.602-10.515s-13.293-9.721-42.459-15.872c-26.982-5.754-39.283-19.245-39.283-41.863 0-22.817 21.626-42.855 56.148-42.855 33.728 0 57.735 22.023 58.33 39.085 0 2.381-1.983 4.365-4.166 4.365z"/><g><path d="M150.578 269.46c13.765 0 17.435-7.188 19.117-12.082 1.07-3.211 1.835-4.435 5.2-4.435h20.034c1.836 0 3.365 1.53 3.365 3.365-.459 20.8-20.8 37.622-47.716 37.622-29.363 0-46.492-18.964-47.563-41.446-.458-8.258-.306-18.505 0-27.222.918-22.481 18.2-41.445 47.563-41.445 26.917 0 47.257 16.823 47.716 37.621 0 1.836-1.53 3.365-3.365 3.365h-20.034c-3.365 0-4.13-1.223-5.2-4.435-1.682-4.894-5.352-12.082-19.117-12.082s-18.505 8.412-19.27 17.74c-.459 5.353-.459 20.188 0 25.694.765 9.33 5.506 17.74 19.27 17.74zM309.02 286.742c.305.765.611 1.988.611 2.294 0 1.835-1.529 3.365-3.364 3.365h-19.27c-3.977 0-5.506-2.294-5.965-3.824l-4.282-12.693h-40.68l-4.283 12.693c-.459 1.53-1.988 3.824-5.964 3.824h-19.27c-1.836 0-3.365-1.53-3.365-3.365 0-.306.306-1.53.612-2.294l33.34-96.35c.765-2.293 2.753-5.046 6.882-5.046h24.775c4.13 0 6.118 2.753 6.883 5.047l33.34 96.349zm-40.223-34.563l-12.387-36.705-12.388 36.705h24.775zM401.085 272.06v16.211a4.112 4.112 0 0 1-4.13 4.13h-70.809a4.112 4.112 0 0 1-4.129-4.13v-98.796a4.112 4.112 0 0 1 4.13-4.13h20.034a4.112 4.112 0 0 1 4.13 4.13v78.456h46.644a4.112 4.112 0 0 1 4.13 4.13zM437.33 251.72c.766 9.33 5.66 17.74 19.27 17.74 10.706 0 19.27-4.588 19.27-16.822h-12.846a4.112 4.112 0 0 1-4.129-4.13v-16.21a4.112 4.112 0 0 1 4.129-4.13h37.01a4.112 4.112 0 0 1 4.13 4.13v19.575c0 26.152-20.8 42.057-47.563 42.057-29.364 0-46.493-18.964-47.563-41.446-.459-8.258-.306-18.505 0-27.222.918-22.481 18.2-41.445 47.563-41.445 28.751 0 45.88 18.81 46.798 32.575.153 1.835-1.53 3.364-3.364 3.364h-20.34c-3.06 0-4.589-2.294-6.118-4.13-2.907-3.67-7.035-7.34-16.976-7.34-13.764 0-18.2 8.259-19.27 17.74-.612 5.353-.459 20.188 0 25.694zM615.654 286.742c.305.765.612 1.988.612 2.294 0 1.835-1.53 3.365-3.365 3.365h-19.27c-3.976 0-5.505-2.294-5.965-3.824l-4.281-12.693h-40.681l-4.282 12.693c-.459 1.53-1.988 3.824-5.965 3.824h-19.27c-1.835 0-3.364-1.53-3.364-3.365 0-.306.305-1.53.612-2.294l33.34-96.35c.764-2.293 2.752-5.046 6.881-5.046h24.776c4.129 0 6.118 2.753 6.882 5.047l33.34 96.349zm-40.222-34.563l-12.388-36.705-12.388 36.705h24.776zM717.354 220.368c0 15.14-6.577 25.235-18.2 30.587l18.965 36.399c.305.612.458.918.458 1.682 0 1.835-1.53 3.365-3.365 3.365h-20.799c-4.13 0-5.505-2.294-6.423-4.13l-16.975-32.728h-14.07v32.729a4.112 4.112 0 0 1-4.13 4.129H632.78a4.112 4.112 0 0 1-4.13-4.13v-98.796a4.112 4.112 0 0 1 4.13-4.13h41.445c26.763 0 43.128 11.165 43.128 35.023zm-43.128 11.317c8.564 0 14.835-2.906 14.835-11.317s-6.27-11.317-14.835-11.317h-17.282v22.634h17.282zM782.657 292.4h-20.034a4.112 4.112 0 0 1-4.13-4.128v-32.576L723.165 190.7c-.459-.765-.611-1.53-.611-1.988 0-1.836 1.528-3.365 3.365-3.365h20.951a7.05 7.05 0 0 1 6.423 3.823l19.27 37.623 19.423-37.623a7.05 7.05 0 0 1 6.423-3.823h20.953c1.835 0 3.364 1.53 3.364 3.365 0 .458-.153 1.223-.611 1.988l-35.329 64.997v32.576a4.112 4.112 0 0 1-4.13 4.129z"/></g></g></symbol><symbol viewBox="-5 -5 970 650" id="team-7285-19241925-dark"><path fill="#FFF" d="M851.865 579.897v11.824h-2.957v-11.824h-3.422v-2.938h9.802v2.938h-3.423zm16.023 11.824v-8.712l-2.49 5.427h-2.611l-2.49-5.427v8.712h-2.957V576.96h2.956l3.797 7.884 3.795-7.884h2.957v14.762h-2.957zM135.886 48.283l764.16 394.68-75.9 146.955-764.16-394.68z"/><g fill="#046A38"><path d="M228.64 143.312l-59.699-30.836-12.374 23.956 54.8 28.306-10.12 19.593-54.8-28.305-14.983 29.007 62.454 32.259-10.476 20.282-85.492-44.158 58.272-112.815 82.736 42.735-10.318 19.976zM236.79 221.014c-1.933 5.531-2.49 10.123-1.672 13.777 1.508 6.662 7.004 12.441 16.486 17.339 5.678 2.933 10.606 4.702 14.78 5.307 7.933 1.125 13.547-1.502 16.842-7.88 1.924-3.724 1.766-7.458-.47-11.2-2.266-3.69-6.578-8.148-12.937-13.371l-10.83-8.988c-10.634-8.853-17.391-15.995-20.273-21.427-4.915-9.132-4.512-19.233 1.207-30.306 5.219-10.103 13.271-16.575 24.163-19.418 10.89-2.842 23.542-.542 37.954 6.902 12.034 6.216 20.671 14.67 25.915 25.36 5.241 10.691 4.972 22.138-.808 34.342l-22.654-11.702c3.086-7.001 2.542-13.39-1.63-19.167-2.793-3.832-6.986-7.195-12.583-10.086-6.225-3.215-11.827-4.557-16.806-4.027-4.98.53-8.602 2.991-10.868 7.379-2.082 4.032-1.806 7.987.828 11.868 1.667 2.543 5.86 6.68 12.576 12.41l17.387 14.895c7.622 6.524 12.716 12.613 15.282 18.268 3.983 8.781 3.38 18.197-1.812 28.248-5.324 10.308-13.73 16.809-25.217 19.505-11.486 2.696-24.5.288-39.044-7.224-14.853-7.672-24.802-17.06-29.846-28.166-5.045-11.104-4.535-22.524 1.528-34.26l22.501 11.622zM365.014 188.446l23.191 11.979-24.01 46.483 67.598-23.97 30.46 15.735-70.26 22.485 14.363 91.556-30.31-15.656-9.322-67.199-17.3 5.649-19.49 37.732-23.191-11.978 58.271-112.816zM441.065 370.642l-23.42-12.097 58.271-112.816 23.42 12.098-58.271 112.815zM596.218 307.868l33.92 17.52-58.272 112.816-21.966-11.346 39.415-76.307a844.923 844.923 0 0 1 4.84-9.183 886.38 886.38 0 0 0 4.8-9.107l-70.28 83.634-22.911-11.835 27.676-105.64a839.839 839.839 0 0 0-4.647 9.186 890.926 890.926 0 0 1-4.688 9.263l-39.414 76.307-21.966-11.346 58.272-112.815 34.302 17.718-25.282 99.313 66.2-78.178zM685.728 484.314c-13.056 4.375-27.645 2.398-43.767-5.93-16.125-8.329-26.18-19.08-30.168-32.259-5.87-16.67-3.572-35.132 6.892-55.39 10.674-20.664 24.399-33.224 41.18-37.678 13.053-4.375 27.642-2.399 43.767 5.93 16.123 8.327 26.178 19.08 30.168 32.258 6.026 16.236 3.705 34.686-6.969 55.35-10.463 20.258-24.166 32.83-41.103 37.72zm-5.878-24.754c9.041-4.056 16.846-12.435 23.408-25.14 6.536-12.654 8.845-23.855 6.933-33.602-1.915-9.747-7.54-17.032-16.877-21.855s-18.567-5.228-27.686-1.211c-9.12 4.015-16.96 12.375-23.523 25.08-6.562 12.706-8.842 23.939-6.838 33.7 2.002 9.76 7.674 17.053 17.012 21.876 9.337 4.823 18.527 5.207 27.57 1.152zM750.582 486.399c-1.934 5.53-2.49 10.123-1.672 13.776 1.508 6.662 7.004 12.442 16.486 17.34 5.678 2.932 10.606 4.702 14.78 5.306 7.934 1.126 13.547-1.501 16.842-7.88 1.924-3.724 1.766-7.457-.47-11.199-2.266-3.691-6.578-8.148-12.937-13.372l-10.83-8.987c-10.634-8.853-17.392-15.996-20.273-21.428-4.915-9.132-4.512-19.233 1.207-30.306 5.219-10.102 13.272-16.575 24.163-19.418 10.89-2.841 23.542-.541 37.954 6.903 12.034 6.216 20.672 14.67 25.915 25.36 5.241 10.69 4.973 22.138-.807 34.341l-22.655-11.701c3.086-7.002 2.542-13.391-1.63-19.167-2.793-3.833-6.986-7.195-12.582-10.086-6.226-3.216-11.827-4.558-16.807-4.028-4.98.531-8.602 2.992-10.868 7.38-2.082 4.03-1.806 7.986.828 11.867 1.668 2.544 5.859 6.68 12.577 12.411l17.386 14.895c7.623 6.523 12.716 12.613 15.282 18.268 3.983 8.78 3.38 18.196-1.812 28.248-5.324 10.307-13.73 16.808-25.216 19.504-11.486 2.696-24.502.288-39.045-7.224-14.853-7.672-24.802-17.06-29.846-28.166-5.044-11.104-4.534-22.524 1.528-34.26l22.501 11.623z"/></g></symbol><symbol viewBox="-5 -5 970 650" id="team-7285-19241925-light"><path fill="#046A38" d="M851.865 579.897v11.824h-2.957v-11.824h-3.422v-2.938h9.802v2.938h-3.423zm16.023 11.824v-8.712l-2.49 5.427h-2.611l-2.49-5.427v8.712h-2.957V576.96h2.956l3.797 7.884 3.795-7.884h2.957v14.762h-2.957zM135.886 48.283l764.16 394.68-75.9 146.955-764.16-394.68z"/><g fill="#FFF"><path d="M228.64 143.312l-59.699-30.836-12.374 23.956 54.8 28.306-10.12 19.593-54.8-28.305-14.983 29.007 62.454 32.259-10.476 20.282-85.492-44.158 58.272-112.815 82.736 42.735-10.318 19.976zM236.79 221.014c-1.933 5.531-2.49 10.123-1.672 13.777 1.508 6.662 7.004 12.441 16.486 17.339 5.678 2.933 10.606 4.702 14.78 5.307 7.933 1.125 13.547-1.502 16.842-7.88 1.924-3.724 1.766-7.458-.47-11.2-2.266-3.69-6.578-8.148-12.937-13.371l-10.83-8.988c-10.634-8.853-17.391-15.995-20.273-21.427-4.915-9.132-4.512-19.233 1.207-30.306 5.219-10.103 13.271-16.575 24.163-19.418 10.89-2.842 23.542-.542 37.954 6.902 12.034 6.216 20.671 14.67 25.915 25.36 5.241 10.691 4.972 22.138-.808 34.342l-22.654-11.702c3.086-7.001 2.542-13.39-1.63-19.167-2.793-3.832-6.986-7.195-12.583-10.086-6.225-3.215-11.827-4.557-16.806-4.027-4.98.53-8.602 2.991-10.868 7.379-2.082 4.032-1.806 7.987.828 11.868 1.667 2.543 5.86 6.68 12.576 12.41l17.387 14.895c7.622 6.524 12.716 12.613 15.282 18.268 3.983 8.781 3.38 18.197-1.812 28.248-5.324 10.308-13.73 16.809-25.217 19.505-11.486 2.696-24.5.288-39.044-7.224-14.853-7.672-24.802-17.06-29.846-28.166-5.045-11.104-4.535-22.524 1.528-34.26l22.501 11.622zM365.014 188.446l23.191 11.979-24.01 46.483 67.598-23.97 30.46 15.735-70.26 22.485 14.363 91.556-30.31-15.656-9.322-67.199-17.3 5.649-19.49 37.732-23.191-11.978 58.271-112.816zM441.065 370.642l-23.42-12.097 58.271-112.816 23.42 12.098-58.271 112.815zM596.218 307.868l33.92 17.52-58.272 112.816-21.966-11.346 39.415-76.307a844.923 844.923 0 0 1 4.84-9.183 886.38 886.38 0 0 0 4.8-9.107l-70.28 83.634-22.911-11.835 27.676-105.64a839.839 839.839 0 0 0-4.647 9.186 890.926 890.926 0 0 1-4.688 9.263l-39.414 76.307-21.966-11.346 58.272-112.815 34.302 17.718-25.282 99.313 66.2-78.178zM685.728 484.314c-13.056 4.375-27.645 2.398-43.767-5.93-16.125-8.329-26.18-19.08-30.168-32.259-5.87-16.67-3.572-35.132 6.892-55.39 10.674-20.664 24.399-33.224 41.18-37.678 13.053-4.375 27.642-2.399 43.767 5.93 16.123 8.327 26.178 19.08 30.168 32.258 6.026 16.236 3.705 34.686-6.969 55.35-10.463 20.258-24.166 32.83-41.103 37.72zm-5.878-24.754c9.041-4.056 16.846-12.435 23.408-25.14 6.536-12.654 8.845-23.855 6.933-33.602-1.915-9.747-7.54-17.032-16.877-21.855s-18.567-5.228-27.686-1.211c-9.12 4.015-16.96 12.375-23.523 25.08-6.562 12.706-8.842 23.939-6.838 33.7 2.002 9.76 7.674 17.053 17.012 21.876 9.337 4.823 18.527 5.207 27.57 1.152zM750.582 486.399c-1.934 5.53-2.49 10.123-1.672 13.776 1.508 6.662 7.004 12.442 16.486 17.34 5.678 2.932 10.606 4.702 14.78 5.306 7.934 1.126 13.547-1.501 16.842-7.88 1.924-3.724 1.766-7.457-.47-11.199-2.266-3.691-6.578-8.148-12.937-13.372l-10.83-8.987c-10.634-8.853-17.392-15.996-20.273-21.428-4.915-9.132-4.512-19.233 1.207-30.306 5.219-10.102 13.272-16.575 24.163-19.418 10.89-2.841 23.542-.541 37.954 6.903 12.034 6.216 20.672 14.67 25.915 25.36 5.241 10.69 4.973 22.138-.807 34.341l-22.655-11.701c3.086-7.002 2.542-13.391-1.63-19.167-2.793-3.833-6.986-7.195-12.582-10.086-6.226-3.216-11.827-4.558-16.807-4.028-4.98.531-8.602 2.992-10.868 7.38-2.082 4.03-1.806 7.986.828 11.867 1.668 2.544 5.859 6.68 12.577 12.411l17.386 14.895c7.623 6.523 12.716 12.613 15.282 18.268 3.983 8.78 3.38 18.196-1.812 28.248-5.324 10.307-13.73 16.808-25.216 19.504-11.486 2.696-24.502.288-39.045-7.224-14.853-7.672-24.802-17.06-29.846-28.166-5.044-11.104-4.534-22.524 1.528-34.26l22.501 11.623z"/></g></symbol><symbol viewBox="-5 -5 970 650" id="team-7289-19241925-dark"><g fill="#FFF"><path d="M553.57 588.175v11.824h-2.958v-11.824h-3.422v-2.938h9.802v2.938h-3.423zm16.022 11.824v-8.712l-2.49 5.427h-2.612l-2.49-5.428V600h-2.956v-14.762H562l3.796 7.883 3.796-7.883h2.956V600h-2.956zM534.35 103.754V60.53l-20.539-20.53h-68.07l-20.535 20.53v159.925l20.534 20.53h68.071l20.539-20.53v-43.222h-38.908v21.613H467.35V82.14h28.093v21.614z"/><path d="M680.487 126.836h-99.245c-15.112-1.065-9.083 24.879-5.976 30.577 4.172 7.635 13.08 21.161 13.08 37.111 0 12.594-4.276 22.18-6.352 28.832L480 508.72 378.006 223.356c-2.076-6.651-6.351-16.238-6.351-28.832 0-15.95 8.907-29.476 13.08-37.111 3.106-5.698 9.135-31.642-5.977-30.577h-99.245c-28.303 0-14.248 28.398-6.943 37.426 11.614 14.364 22.661 36.854 23.77 41.065l137.598 394.67h92.124l137.598-394.67c1.109-4.211 12.156-26.7 23.77-41.065 7.305-9.028 21.36-37.426-6.943-37.426z"/></g></symbol><symbol viewBox="-5 -5 970 650" id="team-7289-19241925-light"><g fill="#003087"><path d="M553.57 588.175v11.824h-2.958v-11.824h-3.422v-2.938h9.802v2.938h-3.423zm16.022 11.824v-8.712l-2.49 5.427h-2.612l-2.49-5.428V600h-2.956v-14.762H562l3.796 7.883 3.796-7.883h2.956V600h-2.956zM534.35 103.754V60.53l-20.539-20.53h-68.07l-20.535 20.53v159.925l20.534 20.53h68.071l20.539-20.53v-43.222h-38.908v21.613H467.35V82.14h28.093v21.614z"/><path d="M680.487 126.836h-99.245c-15.112-1.065-9.083 24.879-5.976 30.577 4.172 7.635 13.08 21.161 13.08 37.111 0 12.594-4.276 22.18-6.352 28.832L480 508.72 378.006 223.356c-2.076-6.651-6.351-16.238-6.351-28.832 0-15.95 8.907-29.476 13.08-37.111 3.106-5.698 9.135-31.642-5.977-30.577h-99.245c-28.303 0-14.248 28.398-6.943 37.426 11.614 14.364 22.661 36.854 23.77 41.065l137.598 394.67h92.124l137.598-394.67c1.109-4.211 12.156-26.7 23.77-41.065 7.305-9.028 21.36-37.426-6.943-37.426z"/></g></symbol><symbol viewBox="-5 -5 970 650" id="team-8-19241925-dark"><path fill="#FFF" d="M793.017 520.555v11.824h-2.957v-11.824h-3.423v-2.938h9.803v2.938h-3.423zm16.023 11.824v-8.712l-2.49 5.427h-2.612l-2.49-5.427v8.712h-2.956v-14.762h2.956l3.796 7.884 3.796-7.884h2.956v14.762h-2.956z"/><path fill="#003087" d="M733.797 389.375c-.246.252-23.919 23.676-118.247 41.096l3.883-217.41c18.71 2.136 68.536 5.876 123.58 32.895l1.893.892 33.644-5.763c-60.483-34.689-152.866-62.46-254.822-63.855-200.726-2.818-309.222 61.507-313.4 147.616-4.203 87.096 102.776 144.168 286.345 145.814 117.574 1.084 208.243-25.672 262.201-68.122l-20.134-10.386-4.943-2.777zm-335.334 48.078c-9.642-1.367-29.806-4.752-52.32-11.645-28.453-8.712-66.624-24.963-86.882-52.913-13.417-18.512-17.524-40.26-12.206-64.64l.056-.297c.13-.799 14.363-78.872 155.238-98.603l-3.886 228.098zm151.203 5.941c-1.43.098-2.835.197-4.22.293-12.313.866-22.946 1.612-36.49 1.265-6.819-.158-13.587-.22-22.952-.307-7.028-.064-15.605-.143-26.939-.286l.611-87.654 91.354.273-1.364 86.416zm3.718-144.812l-92.288-.296 2.286-95.233c28.103-.939 40.674-1.156 53.968-.966 12.344.182 24.952.793 37.552 1.82l-1.518 94.675z"/><path fill="#FFF" d="M210.328 324.846c-4.203 87.096 102.776 144.168 286.345 145.814 110.139 1.015 196.665-22.4 251.524-60.26l.41-.288a217.087 217.087 0 0 0 4.4-3.14c.39-.285.782-.57 1.169-.856 1.593-1.181-1.534 1.206 0 0l-20.3-10.298S711.963 416.9 609.633 437.12l4.112-230.174s66.264 1.948 133.81 35.104l23.604-5.084c-60.484-34.69-145.474-58.341-247.43-59.737-200.726-2.818-309.222 61.508-313.4 147.616zm193.307 118.89s-187.894-19.088-162.25-136.655c0 0 13.74-85.088 166.351-104.051l-4.1 240.706zm151.227 4.849c-16.614 1.071-29.174 2.346-46.293 1.91-12.618-.292-24.78-.254-55.34-.665l.688-98.674 102.48.307-1.535 97.122zm3.712-144.441l-103.41-.333 2.548-106.11c31.68-1.083 45.267-1.348 59.46-1.146 14.273.211 28.668.978 43.091 2.282l-1.689 105.307z"/><path fill="#C8102E" d="M847.767 450.868c-71.71 68.191-186.752 108.1-354.403 109.119-227.305 1.281-400.159-91.337-391.725-247.005 6.867-127.228 164.566-226.616 398.243-222.607 143.607 2.452 227.886 39.314 257.887 48.21L777.806 80l80.85 5.879s-19.52 78.044-14.094 143.9l-66.012 11.306c-60.484-34.689-152.866-62.46-254.822-63.855-200.726-2.818-309.222 61.508-313.4 147.616-4.203 87.096 102.776 144.169 286.345 145.814 117.574 1.084 208.243-25.672 262.201-68.122l88.893 48.33z"/></symbol><symbol viewBox="-5 -5 970 650" id="team-8-19241925-light"><path fill="#003087" d="M793.017 520.555v11.824h-2.957v-11.824h-3.423v-2.938h9.803v2.938h-3.423zm16.023 11.824v-8.712l-2.49 5.427h-2.612l-2.49-5.427v8.712h-2.956v-14.762h2.956l3.796 7.884 3.796-7.884h2.956v14.762h-2.956zM733.797 389.375c-.246.252-23.919 23.676-118.247 41.096l3.883-217.41c18.71 2.136 68.536 5.876 123.58 32.895l1.893.892 33.644-5.763c-60.483-34.689-152.866-62.46-254.822-63.855-200.726-2.818-309.222 61.507-313.4 147.616-4.203 87.096 102.776 144.168 286.345 145.814 117.574 1.084 208.243-25.672 262.201-68.122l-20.134-10.386-4.943-2.777zm-335.334 48.078c-9.642-1.367-29.806-4.752-52.32-11.645-28.453-8.712-66.624-24.963-86.882-52.913-13.417-18.512-17.524-40.26-12.206-64.64l.056-.297c.13-.799 14.363-78.872 155.238-98.603l-3.886 228.098zm151.203 5.941c-1.43.098-2.835.197-4.22.293-12.313.866-22.946 1.612-36.49 1.265-6.819-.158-13.587-.22-22.952-.307-7.028-.064-15.605-.143-26.939-.286l.611-87.654 91.354.273-1.364 86.416zm3.718-144.812l-92.288-.296 2.286-95.233c28.103-.939 40.674-1.156 53.968-.966 12.344.182 24.952.793 37.552 1.82l-1.518 94.675z"/><path fill="#FFF" d="M210.328 324.846c-4.203 87.096 102.776 144.168 286.345 145.814 110.139 1.015 196.665-22.4 251.524-60.26l.41-.288a217.087 217.087 0 0 0 4.4-3.14c.39-.285.782-.57 1.169-.856 1.593-1.181-1.534 1.206 0 0l-20.3-10.298S711.963 416.9 609.633 437.12l4.112-230.174s66.264 1.948 133.81 35.104l23.604-5.084c-60.484-34.69-145.474-58.341-247.43-59.737-200.726-2.818-309.222 61.508-313.4 147.616zm193.307 118.89s-187.894-19.088-162.25-136.655c0 0 13.74-85.088 166.351-104.051l-4.1 240.706zm151.227 4.849c-16.614 1.071-29.174 2.346-46.293 1.91-12.618-.292-24.78-.254-55.34-.665l.688-98.674 102.48.307-1.535 97.122zm3.712-144.441l-103.41-.333 2.548-106.11c31.68-1.083 45.267-1.348 59.46-1.146 14.273.211 28.668.978 43.091 2.282l-1.689 105.307z"/><path fill="#C8102E" d="M847.767 450.868c-71.71 68.191-186.752 108.1-354.403 109.119-227.305 1.281-400.159-91.337-391.725-247.005 6.867-127.228 164.566-226.616 398.243-222.607 143.607 2.452 227.886 39.314 257.887 48.21L777.806 80l80.85 5.879s-19.52 78.044-14.094 143.9l-66.012 11.306c-60.484-34.689-152.866-62.46-254.822-63.855-200.726-2.818-309.222 61.508-313.4 147.616-4.203 87.096 102.776 144.169 286.345 145.814 117.574 1.084 208.243-25.672 262.201-68.122l88.893 48.33z"/></symbol><symbol viewBox="-5 -5 970 650" id="team-99-19241925-dark"><path fill="#FE5000" d="M703.85 591.977v15.827h-3.958v-15.827h-4.581v-3.932h13.12v3.932h-4.58zm21.447 15.827v-11.662l-3.333 7.265h-3.495l-3.334-7.265v11.662h-3.956v-19.76h3.956l5.082 10.553 5.08-10.552h3.958v19.759h-3.957z"/><path fill="#010101" d="M653.503 24.133S551.618 60.206 479.998 0c-71.62 60.206-173.506 24.133-173.506 24.133-60.5 76.437-84.995 97.392-108.185 106.244 0 0 20.533 20.954 20.533 77.621 0 61.386-19.478 126.315-19.478 197.738 0 252.04 260.01 197.147 280.636 234.264 20.627-37.118 280.638 17.776 280.638-234.264 0-71.423-19.478-136.352-19.478-197.738 0-56.667 20.535-77.621 20.535-77.621-23.19-8.852-47.689-29.807-108.19-106.244z"/><g fill="#FE5000"><path d="M723.449 207.998c0-33.42 6.65-56.15 13.207-70.446-20.119-12.713-44.814-37.166-89.576-93.058-29.352 7.674-104.98 21.107-167.082-22.204-62.102 43.311-137.732 29.878-167.086 22.204-44.758 55.892-69.452 80.345-89.572 93.058 6.553 14.296 13.207 37.026 13.207 70.446 0 63.45-19.478 127.496-19.478 197.738 0 222.234 218.395 184.752 262.929 211.715 44.534-26.963 262.93 10.519 262.93-211.715 0-70.242-19.48-134.288-19.48-197.738zM319.695 64.297c35.177 7.52 101.517 14.354 160.303-20.927 58.788 35.281 125.125 28.448 160.298 20.927 30.472 37.565 52.668 61.536 71.422 76.928-3.145 4.518-11.924 21.217-11.924 66.773 0 48.53 16.679 84.871 23.018 148.22L295.435 93.334c7.491-8.65 15.527-18.271 24.26-29.037zm160.303 533.627c-39.546-31.282-245.22 16.175-245.22-192.188 0-45.009 5.53-78.008 11.432-106.493l409.613 251.956c-63.574 38.097-151.393 27.398-175.825 46.725zm191.725-57.74l-421.59-259.318c5.362-24.762 10.067-47.1 10.067-72.868 0-45.556-8.775-62.255-11.92-66.773 10.406-8.54 21.884-19.742 35.24-34.432l440.957 271.235c.47 8.73.743 17.922.743 27.708 0 68.516-22.24 109.365-53.497 134.447z"/><path d="M276 285.94l75.362-123.878 19.942 12.131-8.752 108.019 50.326-82.727 19.098 11.618-75.362 123.878-20.618-12.543 8.245-105.663-49.145 80.782L276 285.941zM407.267 366.33l75.362-123.879 20.45 12.44-29.662 48.758 48.833 29.789 29.662-48.758 20.45 12.442L497 421l-20.45-12.44 32.95-54.166-48.831-29.789-32.952 54.165-20.45-12.44zM550.552 454.589l74.745-122.863 20.45 12.44-61.996 101.907 63.998 38.976L635 506.005l-84.448-51.416z"/></g></symbol><symbol viewBox="-5 -5 970 650" id="team-99-19241925-light"><path fill="#010101" d="M703.85 591.977v15.827h-3.958v-15.827h-4.581v-3.932h13.12v3.932h-4.58zm21.447 15.827v-11.662l-3.333 7.265h-3.495l-3.334-7.265v11.662h-3.956v-19.76h3.956l5.082 10.553 5.08-10.552h3.958v19.759h-3.957zM653.503 24.133S551.618 60.206 479.998 0c-71.62 60.206-173.506 24.133-173.506 24.133-60.5 76.437-84.995 97.392-108.185 106.244 0 0 20.533 20.954 20.533 77.621 0 61.386-19.478 126.315-19.478 197.738 0 252.04 260.01 197.147 280.636 234.264 20.627-37.118 280.638 17.776 280.638-234.264 0-71.423-19.478-136.352-19.478-197.738 0-56.667 20.535-77.621 20.535-77.621-23.19-8.852-47.689-29.807-108.19-106.244z"/><g fill="#FE5000"><path d="M723.449 207.998c0-33.42 6.65-56.15 13.207-70.446-20.119-12.713-44.814-37.166-89.576-93.058-29.352 7.674-104.98 21.107-167.082-22.204-62.102 43.311-137.732 29.878-167.086 22.204-44.758 55.892-69.452 80.345-89.572 93.058 6.553 14.296 13.207 37.026 13.207 70.446 0 63.45-19.478 127.496-19.478 197.738 0 222.234 218.395 184.752 262.929 211.715 44.534-26.963 262.93 10.519 262.93-211.715 0-70.242-19.48-134.288-19.48-197.738zM319.695 64.297c35.177 7.52 101.517 14.354 160.303-20.927 58.788 35.281 125.125 28.448 160.298 20.927 30.472 37.565 52.668 61.536 71.422 76.928-3.145 4.518-11.924 21.217-11.924 66.773 0 48.53 16.679 84.871 23.018 148.22L295.435 93.334c7.491-8.65 15.527-18.271 24.26-29.037zm160.303 533.627c-39.546-31.282-245.22 16.175-245.22-192.188 0-45.009 5.53-78.008 11.432-106.493l409.613 251.956c-63.574 38.097-151.393 27.398-175.825 46.725zm191.725-57.74l-421.59-259.318c5.362-24.762 10.067-47.1 10.067-72.868 0-45.556-8.775-62.255-11.92-66.773 10.406-8.54 21.884-19.742 35.24-34.432l440.957 271.235c.47 8.73.743 17.922.743 27.708 0 68.516-22.24 109.365-53.497 134.447z"/><path d="M276 285.94l75.362-123.878 19.942 12.131-8.752 108.019 50.326-82.727 19.098 11.618-75.362 123.878-20.618-12.543 8.245-105.663-49.145 80.782L276 285.941zM407.267 366.33l75.362-123.879 20.45 12.44-29.662 48.758 48.833 29.789 29.662-48.758 20.45 12.442L497 421l-20.45-12.44 32.95-54.166-48.831-29.789-32.952 54.165-20.45-12.44zM550.552 454.589l74.745-122.863 20.45 12.44-61.996 101.907 63.998 38.976L635 506.005l-84.448-51.416z"/></g></symbol></svg>