<?xml version="1.0" encoding="utf-8"?><svg xmlns="http://www.w3.org/2000/svg" xmlns:xlink="http://www.w3.org/1999/xlink"><symbol viewBox="-5 -5 970 650" id="team-36-19251926-dark"><path fill="#FFF" d="M637.902 612.749v11.824h-2.957v-11.824h-3.422v-2.938h9.802v2.938h-3.423zm16.023 11.824v-8.713l-2.49 5.428h-2.611l-2.49-5.427v8.712h-2.957v-14.762h2.956l3.797 7.883 3.795-7.883h2.957v14.762h-2.957z"/><path fill="#C8102E" d="M668.306 87.084C622.959 30.113 557.844 0 480 0c-77.844 0-142.958 30.113-188.305 87.084-44.796 56.28-68.474 136.82-68.474 232.914 0 96.098 23.678 176.64 68.474 232.92C337.041 609.889 402.155 640 480 640c77.845 0 142.96-30.113 188.305-87.081 44.797-56.28 68.474-136.823 68.474-232.92 0-96.095-23.677-176.636-68.473-232.915zM353.849 319.998c0-41.01 3.98-99.797 22.946-146.973 9.807-24.397 22.712-43.346 38.356-56.322C432.827 102.043 454.645 94.61 480 94.61c25.355 0 47.174 7.434 64.851 22.095 15.644 12.975 28.55 31.924 38.357 56.321 18.964 47.175 22.945 105.963 22.945 146.973 0 41.01-3.98 99.799-22.945 146.975-9.807 24.399-22.713 43.35-38.356 56.325-17.678 14.661-39.496 22.096-64.852 22.096-25.354 0-47.173-7.434-64.849-22.096-15.644-12.976-28.55-31.926-38.356-56.325-18.965-47.178-22.946-105.966-22.946-146.975z"/><path fill="#FFF" d="M480 10.156c-152.125 0-246.623 118.726-246.623 309.842 0 191.127 94.498 309.846 246.623 309.846 152.126 0 246.623-118.72 246.623-309.846 0-191.116-94.497-309.842-246.623-309.842zm0 545.394c-118.6 0-136.307-147.586-136.307-235.552 0-87.969 17.706-235.545 136.307-235.545 118.606 0 136.309 147.576 136.309 235.545 0 87.966-17.703 235.552-136.31 235.552z"/><path fill="#010101" d="M706.585 319.998c0-160.105-70.24-289.804-226.585-289.804-156.343 0-226.588 129.7-226.588 289.804 0 160.107 70.245 289.813 226.588 289.813 156.346 0 226.585-129.706 226.585-289.813zm-382.928 0c0-141.144 43.323-255.58 156.343-255.58 113.021 0 156.346 114.436 156.346 255.58 0 141.153-43.325 255.588-156.346 255.588-113.02 0-156.343-114.435-156.343-255.588z"/></symbol><symbol viewBox="-5 -5 970 650" id="team-36-19251926-light"><path fill="#010101" d="M637.902 612.749v11.824h-2.957v-11.824h-3.422v-2.938h9.802v2.938h-3.423zm16.023 11.824v-8.713l-2.49 5.428h-2.611l-2.49-5.427v8.712h-2.957v-14.762h2.956l3.797 7.883 3.795-7.883h2.957v14.762h-2.957z"/><path fill="#C8102E" d="M668.306 87.084C622.959 30.113 557.844 0 480 0c-77.844 0-142.958 30.113-188.305 87.084-44.796 56.28-68.474 136.82-68.474 232.914 0 96.098 23.678 176.64 68.474 232.92C337.041 609.889 402.155 640 480 640c77.845 0 142.96-30.113 188.305-87.081 44.797-56.28 68.474-136.823 68.474-232.92 0-96.095-23.677-176.636-68.473-232.915zM353.849 319.998c0-41.01 3.98-99.797 22.946-146.973 9.807-24.397 22.712-43.346 38.356-56.322C432.827 102.043 454.645 94.61 480 94.61c25.355 0 47.174 7.434 64.851 22.095 15.644 12.975 28.55 31.924 38.357 56.321 18.964 47.175 22.945 105.963 22.945 146.973 0 41.01-3.98 99.799-22.945 146.975-9.807 24.399-22.713 43.35-38.356 56.325-17.678 14.661-39.496 22.096-64.852 22.096-25.354 0-47.173-7.434-64.849-22.096-15.644-12.976-28.55-31.926-38.356-56.325-18.965-47.178-22.946-105.966-22.946-146.975z"/><path fill="#FFF" d="M480 10.156c-152.125 0-246.623 118.726-246.623 309.842 0 191.127 94.498 309.846 246.623 309.846 152.126 0 246.623-118.72 246.623-309.846 0-191.116-94.497-309.842-246.623-309.842zm0 545.394c-118.6 0-136.307-147.586-136.307-235.552 0-87.969 17.706-235.545 136.307-235.545 118.606 0 136.309 147.576 136.309 235.545 0 87.966-17.703 235.552-136.31 235.552z"/><path fill="#010101" d="M706.585 319.998c0-160.105-70.24-289.804-226.585-289.804-156.343 0-226.588 129.7-226.588 289.804 0 160.107 70.245 289.813 226.588 289.813 156.346 0 226.585-129.706 226.585-289.813zm-382.928 0c0-141.144 43.323-255.58 156.343-255.58 113.021 0 156.346 114.436 156.346 255.58 0 141.153-43.325 255.588-156.346 255.588-113.02 0-156.343-114.435-156.343-255.588z"/></symbol><symbol viewBox="-5 -5 970 650" id="team-38-19251926-dark"><path fill="#F2A900" d="M733.728 588.176V600h-2.957v-11.824h-3.423v-2.938h9.802v2.938h-3.422zM749.75 600v-8.713l-2.49 5.428h-2.611l-2.49-5.427V600h-2.956v-14.762h2.955l3.797 7.883 3.795-7.883h2.957V600h-2.957z"/><path fill="#010101" d="M207.293 40v560h507.252V40H207.293z"/><path fill="#F2A900" d="M213.121 45.828v548.344h495.596V45.828H213.121z"/><path fill="#010101" d="M229.148 61.855v516.29H692.69V61.855H229.148zm15.984 191.81h120.312l23.393 132.67H245.132v-132.67zm431.574 308.496H245.132V429.49h151.315l5.982 33.925-31.484 5.55 7.494 42.503 105.467-18.596-7.495-42.502-31.48 5.551-4.66-26.43h236.435V562.16zM401.658 210.508l-5.161-29.273 137.734-24.286 9.444 53.56H401.66zm149.627 43.157l4.319 24.493-137.735 24.286-8.6-48.779h142.016zm125.42 132.67H432.663l-7.298-41.39 180.237-31.78-10.491-59.5h81.596v132.67zm0-175.827H587.5l-18.26-103.555-254.222 44.826 7.494 42.501 31.482-5.551 3.84 21.78H245.133V77.838h431.574v132.67z"/></symbol><symbol viewBox="-5 -5 970 650" id="team-38-19251926-light"><path fill="#010101" d="M733.698 588.176V600h-2.957v-11.824h-3.422v-2.938h9.802v2.938h-3.423zM749.721 600v-8.713l-2.49 5.428h-2.612l-2.49-5.427V600h-2.956v-14.762h2.956l3.797 7.883 3.795-7.883h2.956V600h-2.956zM207.322 40v560h507.252V40H207.322z"/><path fill="#F2A900" d="M213.15 45.828v548.344h495.596V45.828H213.15z"/><path fill="#010101" d="M229.177 61.855v516.29H692.72V61.855H229.177zm15.984 191.81h120.313l23.393 132.67H245.16v-132.67zm431.574 308.496H245.161V429.49h151.316l5.981 33.925-31.484 5.55 7.494 42.503 105.467-18.596-7.494-42.502-31.48 5.551-4.66-26.43h236.434V562.16zM401.688 210.508l-5.162-29.273 137.734-24.286 9.444 53.56H401.688zm149.626 43.157l4.319 24.493-137.734 24.286-8.601-48.779h142.016zm125.421 132.67H432.691l-7.298-41.39 180.237-31.78-10.491-59.5h81.596v132.67zm0-175.827H587.53l-18.26-103.555-254.222 44.826 7.494 42.501 31.483-5.551 3.84 21.78H245.162V77.838h431.573v132.67z"/></symbol><symbol viewBox="-5 -5 970 650" id="team-43-19251926-dark"><g fill="#FFF"><path d="M769.997 598.478v11.824h-2.957v-11.824h-3.423v-2.938h9.803v2.938h-3.423zm16.023 11.824v-8.712l-2.49 5.427h-2.612l-2.49-5.427v8.712h-2.956V595.54h2.956l3.796 7.884 3.796-7.884h2.956v14.762h-2.956z"/><path fill-rule="evenodd" clip-rule="evenodd" d="M751.024 141.586V29.698H555.655l-94.631 264.327-94.632-264.327H171.024v111.888h29.92v356.225h-29.92v111.887H345.16V497.81H313.76V315.025l110.195 294.673H498.091l110.196-294.673v182.786h-31.4v111.887h174.137V497.81h-29.92V141.586z"/></g></symbol><symbol viewBox="-5 -5 970 650" id="team-43-19251926-light"><g fill="#6F263D"><path d="M769.997 598.478v11.824h-2.957v-11.824h-3.423v-2.938h9.803v2.938h-3.423zm16.023 11.824v-8.712l-2.49 5.427h-2.612l-2.49-5.427v8.712h-2.956V595.54h2.956l3.796 7.884 3.796-7.884h2.956v14.762h-2.956z"/><path fill-rule="evenodd" clip-rule="evenodd" d="M751.024 141.586V29.698H555.655l-94.631 264.327-94.632-264.327H171.024v111.888h29.92v356.225h-29.92v111.887H345.16V497.81H313.76V315.025l110.195 294.673H498.091l110.196-294.673v182.786h-31.4v111.887h174.137V497.81h-29.92V141.586z"/></g></symbol><symbol viewBox="-5 -5 970 650" id="team-44-19251926-dark"><path fill="#FFF" d="M892.085 500.503v11.825h-2.957v-11.825h-3.423v-2.937h9.802v2.937h-3.422zm16.022 11.825v-8.713l-2.49 5.428h-2.611l-2.49-5.428v8.713h-2.956v-14.762h2.956l3.796 7.883 3.795-7.883h2.957v14.762h-2.957zM48.936 210.907h826.085v259.804H48.936z"/><path fill="#0033A0" d="M48.936 127.672v83.235h826.085v-83.235H48.936z"/><path fill="#C8102E" d="M48.936 470.71v41.618h826.085V470.71H48.936z"/><g fill="#FFF"><path d="M156.044 140.445h-15.499l-19.31 51.473-4.972.668v10.164h25.082v-10.117l-3.858-.64 1.774-5.172h17.935l1.774 5.171-3.859.641v10.117h25.083v-10.164l-4.97-.668-19.18-51.473zm-2.975 34.37h-9.682l4.841-14.123 4.841 14.124zM242.222 180.914l-15.001-40.47h-26.313v10.137l6.735 1.216v39.641l-6.735 1.216v10.096h29.731v-10.097l-6.779-1.216-.001-7.995-.75-15.94 13.653 35.248h10.994l13.745-35.437-.756 16.2v7.925l-6.735 1.216v10.096h29.732v-10.097l-6.78-1.216v-39.638l6.78-1.216v-10.138h-26.397zM346.628 190.38h-17.022v-13.57h21.423v-12.411h-21.423v-11.544h16.848l.565 7.053h13.136v-19.463h-53.502v10.136l6.736 1.216v39.641l-6.736 1.216v10.096h53.588v-19.423h-13.048zM435.927 191.533c-.324-.421-.495-1.134-.495-2.06v-3c0-3.841-.919-7.132-2.732-9.783-1.261-1.842-3.062-3.333-5.376-4.458 1.948-1.175 3.545-2.555 4.771-4.125 1.926-2.465 2.902-5.396 2.902-8.71 0-5.902-2.283-10.609-6.784-13.988-4.388-3.294-10.448-4.964-18.011-4.964h-30.184v10.136l6.736 1.216v39.641l-6.736 1.217v10.096h29.732v-10.098l-6.779-1.216v-12.56h8.57c2.517.068 4.379.74 5.693 2.051 1.333 1.333 1.98 3.173 1.98 5.626v3.364c0 3.648.968 6.694 2.876 9.056 2.023 2.506 5.436 3.777 10.144 3.777h8.325v-10.213l-3.13-.404c-.751-.08-1.257-.282-1.502-.601zm-17.103-31.609c0 2.162-.664 3.741-2.03 4.828-1.432 1.137-3.723 1.714-6.81 1.714h-7.013v-13.61h7.23c2.93 0 5.127.641 6.531 1.908 1.408 1.27 2.092 2.958 2.092 5.16zM458.045 150.583l6.779 1.216v39.638l-6.779 1.216v10.097h29.732v-10.097l-6.779-1.216v-39.638l6.779-1.216v-10.138h-29.732zM544.913 142.232c-4.152-1.75-8.856-2.639-13.981-2.639-9.024 0-16.495 2.963-22.205 8.806-5.67 5.8-8.544 13.277-8.544 22.226v1.986c0 8.98 2.891 16.459 8.593 22.232 5.74 5.812 13.193 8.759 22.156 8.759 5.12 0 9.828-.873 13.99-2.593 4.176-1.727 7.668-4.087 10.377-7.017l.428-.463v-13.93H543.02l-1.45 8.736c-.906.8-2.157 1.464-3.726 1.976-1.873.61-3.98.92-6.261.92-4.838 0-8.466-1.622-11.093-4.962-2.714-3.449-4.09-8.044-4.09-13.658v-2.067c0-5.61 1.38-10.19 4.106-13.61 2.64-3.318 6.335-4.93 11.294-4.93 2.349 0 4.396.305 6.084.905 1.453.518 2.693 1.2 3.693 2.028l1.443 8.7h12.706v-13.94l-.441-.467c-2.733-2.893-6.223-5.247-10.373-6.998zM614.352 140.445h-15.499l-19.31 51.473-4.973.668v10.164h25.083v-10.117l-3.859-.64 1.775-5.172h17.935l1.774 5.171-3.858.641v10.117h25.082v-10.164l-4.97-.668-19.18-51.473zm-2.975 34.37h-9.681l4.84-14.122 4.84 14.123zM699.744 150.583l6.78 1.216v24.477l-23.05-35.831h-22.187v10.136l6.735 1.216v39.641l-6.735 1.216v10.096h29.732v-10.097l-6.78-1.216v-24.518l23.05 35.831h15.408V151.8l6.78-1.216v-10.138h-29.733zM792.923 172.674c-3.792-3.124-9.37-5.656-16.52-7.51-4.675-1.375-7.974-2.673-9.803-3.856-1.513-.978-2.218-2.113-2.218-3.572 0-1.66.686-2.928 2.159-3.987 1.573-1.13 3.923-1.705 6.984-1.705 2.221 0 4.345.23 6.313.682 1.528.352 2.757.742 3.666 1.164l1.77 8.693h12.743v-14.455l-.582-.49c-2.879-2.427-6.463-4.39-10.653-5.835-4.175-1.44-8.855-2.169-13.932-2.169-6.927.086-12.787 1.771-17.418 5.01-4.793 3.354-7.224 7.744-7.224 13.051 0 5.35 2.174 9.633 6.464 12.73 4.011 2.899 9.94 5.42 17.605 7.49 4.06 1.144 6.893 2.343 8.422 3.565 1.325 1.06 1.97 2.442 1.97 4.223 0 1.72-.649 2.996-2.041 4.015-1.484 1.085-3.786 1.635-6.842 1.635-2.504 0-4.792-.295-6.799-.878-1.665-.483-3.033-1.07-4.078-1.748l-1.466-9.129H748.34v14.63l.49.476c2.859 2.782 6.469 4.987 10.73 6.554 4.232 1.555 9.018 2.344 14.227 2.344 7.36 0 13.412-1.58 17.987-4.694 4.748-3.232 7.156-7.702 7.156-13.286 0-5.306-2.021-9.663-6.006-12.948z"/></g><g fill="#0033A0"><path d="M131.777 329.158l-27.833-90.622h-33.61V453.43h36.3v-90.873l28.34 90.873h33.104V238.536h-36.3zM178.702 453.43h72.457v-42.428h-36.157V365.5h21.835V324.77h-21.835v-45.502h36.157v-40.731h-72.457zM352.398 333.959l-19.733-95.423h-9.901l-19.214 95.72-8.367-95.72h-35.556l24.786 214.894h31.113l12.193-71.694 12.204 71.694h31.102l24.787-214.894h-35.59zM513.758 238.536l-15.99 51.966-15.992-51.966h-38.743l36.585 108.735V453.43h36.3V347.27l36.585-108.735zM628.236 250.828l-.004-.004c-4.48-4.591-9.581-8.114-15.167-10.473-11.076-4.662-22.63-4.66-33.699.002-5.583 2.356-10.686 5.88-15.163 10.473-4.558 4.674-8.264 10.63-11.014 17.704-2.754 7.082-4.15 15.257-4.15 24.299v106.308c0 9.246 1.402 17.481 4.164 24.476 2.753 6.974 6.455 12.871 10.997 17.525 4.48 4.6 9.585 8.125 15.17 10.476 5.531 2.331 11.2 3.513 16.847 3.513 5.644 0 11.313-1.182 16.849-3.513 5.583-2.352 10.687-5.877 15.167-10.474 4.548-4.663 8.25-10.56 11-17.527 2.763-6.996 4.163-15.231 4.163-24.476V292.829c0-9.04-1.396-17.216-4.149-24.3-2.748-7.066-6.454-13.022-11.011-17.701zm-21.14 42v106.309c0 4.93-.954 8.28-2.92 10.241-2.239 2.235-4.843 3.321-7.959 3.321-3.116 0-5.719-1.086-7.96-3.323-1.962-1.956-2.917-5.306-2.917-10.24V292.83c0-4.93.956-8.28 2.92-10.24 2.24-2.236 4.844-3.322 7.957-3.322 3.112 0 5.717 1.087 7.957 3.318 1.967 1.965 2.923 5.316 2.923 10.244zM743.173 337.26c3.455-9.21 5.207-20.259 5.207-32.84 0-54.454-26.84-65.884-49.356-65.884H653.54V453.43h36.3v-85.95h4.668l22.981 85.95h38.504l-27.721-95.726c6.838-5.422 11.84-12.28 14.9-20.443zm-53.332-57.993h7.006c4.639 0 7.28.8 8.67 1.466 1.648.795 2.88 1.948 3.761 3.517 1.06 1.894 1.78 4.303 2.137 7.159.44 3.525.664 7.713.664 12.446 0 4.738-.223 8.926-.664 12.447v.001c-.368 2.936-1.04 5.364-2 7.212-.769 1.48-1.89 2.61-3.423 3.451-1.231.675-3.608 1.479-7.936 1.479h-8.216v-49.178zM820.987 326.224l36.591-87.688h-37.706l-26.984 68.792v-68.792h-36.3V453.43h36.3v-65.316l6.506-14.241 24.987 79.557h38.661z"/></g><g fill="#C8102E"><path d="M76.148 245.33h23.707l37.252 121.292h.484V245.33h24.674v201.306h-23.223l-37.736-121.01h-.484v121.01H76.148V245.33zM184.516 245.33h60.83v27.142h-36.157v59.091h21.835v27.143h-21.835v59.09h36.157v28.84h-60.83V245.33zM365.943 446.636h-21.029L327.83 345.983h-.438l-16.867 100.653h-21.029L266.276 245.33h23.657l11.172 127.795h.438l26.176-127.795 26.614 130.906h.438l10.734-130.906h23.657l-23.22 201.306zM485.431 345.983L451.565 245.33h26.125l19.836 64.463h.484l19.836-64.463h26.124l-33.866 100.653v100.653h-24.673V345.983zM554.853 292.829c0-8.102 1.21-15.267 3.63-21.488 2.417-6.22 5.6-11.353 9.554-15.408 3.95-4.051 8.383-7.113 13.304-9.19 4.917-2.071 9.876-3.11 14.877-3.11 4.997 0 9.956 1.039 14.877 3.11 4.917 2.077 9.351 5.139 13.304 9.19 3.95 4.055 7.137 9.188 9.556 15.408 2.418 6.22 3.628 13.386 3.628 21.488v106.308c0 8.296-1.21 15.506-3.628 21.63-2.42 6.125-5.606 11.215-9.556 15.266-3.953 4.056-8.387 7.117-13.304 9.189-4.921 2.072-9.88 3.11-14.877 3.11-5 0-9.96-1.038-14.877-3.11-4.92-2.071-9.354-5.133-13.304-9.19-3.954-4.05-7.137-9.14-9.555-15.266-2.42-6.123-3.629-13.333-3.629-21.63V292.83zm24.674 106.308c0 6.976 1.652 12.113 4.96 15.409 3.303 3.3 7.214 4.947 11.731 4.947 4.513 0 8.425-1.647 11.733-4.947 3.303-3.296 4.959-8.433 4.959-15.41V292.83c0-6.97-1.656-12.109-4.96-15.409-3.307-3.295-7.219-4.947-11.732-4.947-4.517 0-8.428 1.652-11.732 4.947-3.307 3.3-4.959 8.438-4.959 15.409v106.308zM659.353 245.33h39.671c29.028 0 43.542 19.699 43.542 59.09 0 11.69-1.572 21.728-4.717 30.113-3.145 8.388-8.67 15.126-16.57 20.214l26.61 91.889h-26.126l-22.98-85.95h-14.756v85.95h-24.674V245.33zm24.674 89.91h14.03c4.354 0 7.82-.707 10.401-2.12 2.578-1.415 4.555-3.438 5.927-6.08 1.368-2.638 2.298-5.889 2.781-9.754.484-3.861.726-8.341.726-13.43 0-5.09-.242-9.565-.726-13.43-.483-3.861-1.492-7.16-3.023-9.895-1.534-2.73-3.67-4.758-6.41-6.079-2.744-1.317-6.373-1.98-10.886-1.98h-12.82v62.767zM762.4 245.33h24.675v91.888h.484L823.6 245.33h24.674l-33.624 80.58 39.913 120.726H828.44l-28.061-89.344-13.304 29.122v60.222H762.4V245.33z"/></g></symbol><symbol viewBox="-5 -5 970 650" id="team-44-19251926-light"><path fill="#C8102E" d="M892.085 500.503v11.825h-2.957v-11.825h-3.423v-2.937h9.802v2.937h-3.422zm16.022 11.825v-8.713l-2.49 5.428h-2.611l-2.49-5.428v8.713h-2.956v-14.762h2.956l3.796 7.883 3.795-7.883h2.957v14.762h-2.957z"/><path fill="#FFF" d="M48.936 210.907h826.085v259.804H48.936z"/><path fill="#0033A0" d="M48.936 127.672v83.235h826.085v-83.235H48.936z"/><path fill="#C8102E" d="M48.936 470.71v41.618h826.085V470.71H48.936z"/><g fill="#FFF"><path d="M156.044 140.445h-15.499l-19.31 51.473-4.972.668v10.164h25.082v-10.117l-3.858-.64 1.774-5.172h17.935l1.774 5.171-3.859.641v10.117h25.083v-10.164l-4.97-.668-19.18-51.473zm-2.975 34.37h-9.682l4.841-14.123 4.841 14.124zM242.222 180.914l-15.001-40.47h-26.313v10.137l6.735 1.216v39.641l-6.735 1.216v10.096h29.731v-10.097l-6.779-1.216-.001-7.995-.75-15.94 13.653 35.248h10.994l13.745-35.437-.756 16.2v7.925l-6.735 1.216v10.096h29.732v-10.097l-6.78-1.216v-39.638l6.78-1.216v-10.138h-26.397zM346.628 190.38h-17.022v-13.57h21.423v-12.411h-21.423v-11.544h16.848l.565 7.053h13.136v-19.463h-53.502v10.136l6.736 1.216v39.641l-6.736 1.216v10.096h53.588v-19.423h-13.048zM435.927 191.533c-.324-.421-.495-1.134-.495-2.06v-3c0-3.841-.919-7.132-2.732-9.783-1.261-1.842-3.062-3.333-5.376-4.458 1.948-1.175 3.545-2.555 4.771-4.125 1.926-2.465 2.902-5.396 2.902-8.71 0-5.902-2.283-10.609-6.784-13.988-4.388-3.294-10.448-4.964-18.011-4.964h-30.184v10.136l6.736 1.216v39.641l-6.736 1.217v10.096h29.732v-10.098l-6.779-1.216v-12.56h8.57c2.517.068 4.379.74 5.693 2.051 1.333 1.333 1.98 3.173 1.98 5.626v3.364c0 3.648.968 6.694 2.876 9.056 2.023 2.506 5.436 3.777 10.144 3.777h8.325v-10.213l-3.13-.404c-.751-.08-1.257-.282-1.502-.601zm-17.103-31.609c0 2.162-.664 3.741-2.03 4.828-1.432 1.137-3.723 1.714-6.81 1.714h-7.013v-13.61h7.23c2.93 0 5.127.641 6.531 1.908 1.408 1.27 2.092 2.958 2.092 5.16zM458.045 150.583l6.779 1.216v39.638l-6.779 1.216v10.097h29.732v-10.097l-6.779-1.216v-39.638l6.779-1.216v-10.138h-29.732zM544.913 142.232c-4.152-1.75-8.856-2.639-13.981-2.639-9.024 0-16.495 2.963-22.205 8.806-5.67 5.8-8.544 13.277-8.544 22.226v1.986c0 8.98 2.891 16.459 8.593 22.232 5.74 5.812 13.193 8.759 22.156 8.759 5.12 0 9.828-.873 13.99-2.593 4.176-1.727 7.668-4.087 10.377-7.017l.428-.463v-13.93H543.02l-1.45 8.736c-.906.8-2.157 1.464-3.726 1.976-1.873.61-3.98.92-6.261.92-4.838 0-8.466-1.622-11.093-4.962-2.714-3.449-4.09-8.044-4.09-13.658v-2.067c0-5.61 1.38-10.19 4.106-13.61 2.64-3.318 6.335-4.93 11.294-4.93 2.349 0 4.396.305 6.084.905 1.453.518 2.693 1.2 3.693 2.028l1.443 8.7h12.706v-13.94l-.441-.467c-2.733-2.893-6.223-5.247-10.373-6.998zM614.352 140.445h-15.499l-19.31 51.473-4.973.668v10.164h25.083v-10.117l-3.859-.64 1.775-5.172h17.935l1.774 5.171-3.858.641v10.117h25.082v-10.164l-4.97-.668-19.18-51.473zm-2.975 34.37h-9.681l4.84-14.122 4.84 14.123zM699.744 150.583l6.78 1.216v24.477l-23.05-35.831h-22.187v10.136l6.735 1.216v39.641l-6.735 1.216v10.096h29.732v-10.097l-6.78-1.216v-24.518l23.05 35.831h15.408V151.8l6.78-1.216v-10.138h-29.733zM792.923 172.674c-3.792-3.124-9.37-5.656-16.52-7.51-4.675-1.375-7.974-2.673-9.803-3.856-1.513-.978-2.218-2.113-2.218-3.572 0-1.66.686-2.928 2.159-3.987 1.573-1.13 3.923-1.705 6.984-1.705 2.221 0 4.345.23 6.313.682 1.528.352 2.757.742 3.666 1.164l1.77 8.693h12.743v-14.455l-.582-.49c-2.879-2.427-6.463-4.39-10.653-5.835-4.175-1.44-8.855-2.169-13.932-2.169-6.927.086-12.787 1.771-17.418 5.01-4.793 3.354-7.224 7.744-7.224 13.051 0 5.35 2.174 9.633 6.464 12.73 4.011 2.899 9.94 5.42 17.605 7.49 4.06 1.144 6.893 2.343 8.422 3.565 1.325 1.06 1.97 2.442 1.97 4.223 0 1.72-.649 2.996-2.041 4.015-1.484 1.085-3.786 1.635-6.842 1.635-2.504 0-4.792-.295-6.799-.878-1.665-.483-3.033-1.07-4.078-1.748l-1.466-9.129H748.34v14.63l.49.476c2.859 2.782 6.469 4.987 10.73 6.554 4.232 1.555 9.018 2.344 14.227 2.344 7.36 0 13.412-1.58 17.987-4.694 4.748-3.232 7.156-7.702 7.156-13.286 0-5.306-2.021-9.663-6.006-12.948z"/></g><g fill="#0033A0"><path d="M131.777 329.158l-27.833-90.622h-33.61V453.43h36.3v-90.873l28.34 90.873h33.104V238.536h-36.3zM178.702 453.43h72.457v-42.428h-36.157V365.5h21.835V324.77h-21.835v-45.502h36.157v-40.731h-72.457zM352.398 333.959l-19.733-95.423h-9.901l-19.214 95.72-8.367-95.72h-35.556l24.786 214.894h31.113l12.193-71.694 12.204 71.694h31.102l24.787-214.894h-35.59zM513.758 238.536l-15.99 51.966-15.992-51.966h-38.743l36.585 108.735V453.43h36.3V347.27l36.585-108.735zM628.236 250.828l-.004-.004c-4.48-4.591-9.581-8.114-15.167-10.473-11.076-4.662-22.63-4.66-33.699.002-5.583 2.356-10.686 5.88-15.163 10.473-4.558 4.674-8.264 10.63-11.014 17.704-2.754 7.082-4.15 15.257-4.15 24.299v106.308c0 9.246 1.402 17.481 4.164 24.476 2.753 6.974 6.455 12.871 10.997 17.525 4.48 4.6 9.585 8.125 15.17 10.476 5.531 2.331 11.2 3.513 16.847 3.513 5.644 0 11.313-1.182 16.849-3.513 5.583-2.352 10.687-5.877 15.167-10.474 4.548-4.663 8.25-10.56 11-17.527 2.763-6.996 4.163-15.231 4.163-24.476V292.829c0-9.04-1.396-17.216-4.149-24.3-2.748-7.066-6.454-13.022-11.011-17.701zm-21.14 42v106.309c0 4.93-.954 8.28-2.92 10.241-2.239 2.235-4.843 3.321-7.959 3.321-3.116 0-5.719-1.086-7.96-3.323-1.962-1.956-2.917-5.306-2.917-10.24V292.83c0-4.93.956-8.28 2.92-10.24 2.24-2.236 4.844-3.322 7.957-3.322 3.112 0 5.717 1.087 7.957 3.318 1.967 1.965 2.923 5.316 2.923 10.244zM743.173 337.26c3.455-9.21 5.207-20.259 5.207-32.84 0-54.454-26.84-65.884-49.356-65.884H653.54V453.43h36.3v-85.95h4.668l22.981 85.95h38.504l-27.721-95.726c6.838-5.422 11.84-12.28 14.9-20.443zm-53.332-57.993h7.006c4.639 0 7.28.8 8.67 1.466 1.648.795 2.88 1.948 3.761 3.517 1.06 1.894 1.78 4.303 2.137 7.159.44 3.525.664 7.713.664 12.446 0 4.738-.223 8.926-.664 12.447v.001c-.368 2.936-1.04 5.364-2 7.212-.769 1.48-1.89 2.61-3.423 3.451-1.231.675-3.608 1.479-7.936 1.479h-8.216v-49.178zM820.987 326.224l36.591-87.688h-37.706l-26.984 68.792v-68.792h-36.3V453.43h36.3v-65.316l6.506-14.241 24.987 79.557h38.661z"/></g><g fill="#C8102E"><path d="M76.148 245.33h23.707l37.252 121.292h.484V245.33h24.674v201.306h-23.223l-37.736-121.01h-.484v121.01H76.148V245.33zM184.516 245.33h60.83v27.142h-36.157v59.091h21.835v27.143h-21.835v59.09h36.157v28.84h-60.83V245.33zM365.943 446.636h-21.029L327.83 345.983h-.438l-16.867 100.653h-21.029L266.276 245.33h23.657l11.172 127.795h.438l26.176-127.795 26.614 130.906h.438l10.734-130.906h23.657l-23.22 201.306zM485.431 345.983L451.565 245.33h26.125l19.836 64.463h.484l19.836-64.463h26.124l-33.866 100.653v100.653h-24.673V345.983zM554.853 292.829c0-8.102 1.21-15.267 3.63-21.488 2.417-6.22 5.6-11.353 9.554-15.408 3.95-4.051 8.383-7.113 13.304-9.19 4.917-2.071 9.876-3.11 14.877-3.11 4.997 0 9.956 1.039 14.877 3.11 4.917 2.077 9.351 5.139 13.304 9.19 3.95 4.055 7.137 9.188 9.556 15.408 2.418 6.22 3.628 13.386 3.628 21.488v106.308c0 8.296-1.21 15.506-3.628 21.63-2.42 6.125-5.606 11.215-9.556 15.266-3.953 4.056-8.387 7.117-13.304 9.189-4.921 2.072-9.88 3.11-14.877 3.11-5 0-9.96-1.038-14.877-3.11-4.92-2.071-9.354-5.133-13.304-9.19-3.954-4.05-7.137-9.14-9.555-15.266-2.42-6.123-3.629-13.333-3.629-21.63V292.83zm24.674 106.308c0 6.976 1.652 12.113 4.96 15.409 3.303 3.3 7.214 4.947 11.731 4.947 4.513 0 8.425-1.647 11.733-4.947 3.303-3.296 4.959-8.433 4.959-15.41V292.83c0-6.97-1.656-12.109-4.96-15.409-3.307-3.295-7.219-4.947-11.732-4.947-4.517 0-8.428 1.652-11.732 4.947-3.307 3.3-4.959 8.438-4.959 15.409v106.308zM659.353 245.33h39.671c29.028 0 43.542 19.699 43.542 59.09 0 11.69-1.572 21.728-4.717 30.113-3.145 8.388-8.67 15.126-16.57 20.214l26.61 91.889h-26.126l-22.98-85.95h-14.756v85.95h-24.674V245.33zm24.674 89.91h14.03c4.354 0 7.82-.707 10.401-2.12 2.578-1.415 4.555-3.438 5.927-6.08 1.368-2.638 2.298-5.889 2.781-9.754.484-3.861.726-8.341.726-13.43 0-5.09-.242-9.565-.726-13.43-.483-3.861-1.492-7.16-3.023-9.895-1.534-2.73-3.67-4.758-6.41-6.079-2.744-1.317-6.373-1.98-10.886-1.98h-12.82v62.767zM762.4 245.33h24.675v91.888h.484L823.6 245.33h24.674l-33.624 80.58 39.913 120.726H828.44l-28.061-89.344-13.304 29.122v60.222H762.4V245.33z"/></g></symbol><symbol viewBox="-5 -5 970 650" id="team-58-19251926-dark"><g fill="#FFF"><path d="M850.71 465.196v11.824h-2.957v-11.824h-3.422v-2.938h9.802v2.938h-3.423zm16.023 11.824v-8.712l-2.49 5.428h-2.611l-2.49-5.428v8.712h-2.957v-14.762h2.956l3.797 7.884 3.795-7.884h2.957v14.762h-2.957zM667.817 173.671l24.578 2.396-13.731 141.089c-5.945-.467-41.285-3.699-41.285-3.699-12.782-37.268-42.523-121.8-44.272-123.072l-9.468 117.28-24.747-2.396 13.771-141.373c13.485 1.39 41.158 4.565 41.158 4.565 13.12 36.94 42.524 120.182 44.634 121.797l9.362-116.587zM386.778 247.527c2.446.652 4.17 1.216 5.936 1.565 8.234 1.626 13.759 6.581 15.083 14.683 2.177 13.322 3.437 26.795 5.2 41.144-8.406.652-26.296 1.805-26.296 1.805s-.943-18.395-1.407-25.463c-1.046-15.906-7.028-21.186-23.04-19.856-11.102.922-19 1.103-28.454 2.043-6.172.613-6.07 1.728-5.71 7.7 1.26 12.681 2.857 38.447 2.784 39.754l-24.506 1.804c-.739-8.614-1.533-16.766-2.121-24.933-2.63-36.534-5.723-80.31-8.536-116.83 0 0 51.323-3.276 73.14-4.545 3.019-.176 6.09-.011 9.1.325 12.399 1.385 21.33 7.425 24.925 19.77 3.717 12.762 4.584 25.806 3.291 39.062-.994 10.2-6.16 16.83-15.711 20.241-1.062.38-2.053.959-3.678 1.731zm-60.638-6.187c15.38-1.446 30.054-2.533 44.636-4.352 5.3-.66 9.799-4.411 9.788-10.109-.018-9.986-.658-20.033-1.974-29.93-.643-4.846-5.265-7.455-10.016-7.302-15.078.485-30.14 1.469-45.967 2.3l3.533 49.393zM214.907 330.295c-23.518.445-34.767-7.155-39.734-21.8-4.776-14.082-7.93-28.772-10.977-43.366-2.678-12.827-5.203-25.83-6.031-38.866-1.183-18.633 5.637-28.307 23.195-34.576 15.858-5.662 32.292-9.147 49.244-9.25 18.492-.11 28.993 6.512 34.764 24.301 4.469 13.774 6.953 28.21 10.01 42.418 2.04 9.475 4.205 19.002 5.152 28.62 2.788 28.3-8.913 38.703-28.062 44.21-14.68 4.22-29.875 6.652-37.56 8.31zm-.758-22.893c8.068-1.723 16.29-2.93 24.171-5.282 14.787-4.413 18.815-11.118 16.342-26.33-1.49-9.165-3.446-18.26-5.336-27.356-2.012-9.68-3.94-19.39-6.38-28.965-2.109-8.273-7.558-13.719-16.385-13.559-12.79.232-25.407 2.4-36.611 8.965-2.709 1.588-5.549 5.71-5.54 8.66.025 8.967.774 18.05 2.416 26.868 2.731 14.666 5.838 29.31 9.82 43.678 2.803 10.116 7.356 12.591 17.503 13.321zM481.21 163.076c9.635.985 19.498.178 28.936 2.123 18.386 3.79 28.12 13.827 28.779 32.465.885 25.005.607 50.142-.937 75.113-1.178 19.055-12.58 30.783-31.539 32.776-15.354 1.615-31.187 1.574-46.52-.213-20.313-2.369-30.113-11.605-31.26-32.38-1.476-26.74-.964-53.787 1.335-80.474 1.702-19.742 14.149-28.286 35.427-29.37 5.247-.267 10.519-.04 15.779-.04.022-.333-.022.334 0 0zm33.033 69.388c-.16-.007.16.008 0 0 0-9.313.38-18.647-.099-27.936-.561-10.888-4.955-16.37-15.64-17.578-9.75-1.104-19.734-.567-29.59-.167-8.75.355-13.92 5.635-14.666 14.169a580.805 580.805 0 0 0-2.064 38.095c-.205 9.494.138 19.04.935 28.504.812 9.647 5.24 14.66 14.123 15.475 9.01.828 18.18 1.112 27.19.434 12.303-.925 17.02-5.409 18.455-17.665 1.29-11.023.795-22.222 1.356-33.33zM130.266 352.695l-23.76 8.1-38.402-112.573-36.534 12.242L24 238.758l97.333-33.19 7.497 21.684-36.825 12.834 38.261 112.609zM525.913 475.874c3.122-10.876 6.074-21.338 9.13-31.769 5.624-19.2 18.438-63.605 18.438-63.605h24.394s20.546 68.987 28.589 95.787c-4.895 0-15.29.146-15.29.146l-6.307-18.196c-5.673 0-32.512-.11-32.512-.11l-4.725.022s-5.505 17.899-5.627 18.284l-16.09-.559zm25.421-31.539h29.536c-4.826-16.552-14.278-50.91-14.768-50.857-4.59 15.797-9.963 34.324-14.768 50.857zM433.488 476.04H418.42v-94.531c16.521 0 32.84-.406 49.124.154 9.583.33 15.37 6.598 16.202 15.915.872 9.786 1.358 19.814.21 29.522-1.411 11.91-7.467 16.765-19.574 17.606-8.066.561-30.88.296-30.88.296l-.014 31.038zm.51-79.741v32.917c9.409 0 18.442.31 27.439-.13 4.481-.22 7.337-3.503 7.596-8.08.296-5.22.288-10.488-.045-15.706-.296-4.655-2.812-8.57-7.614-8.85-8.978-.524-18.007-.151-27.376-.151zM703.094 380.966v14.716s-17.615.082-24.837.082V475.9h-16.105s-.075-58.135.254-80.217c0 0-19.01.087-25.109.087v-14.803h65.797zM283.071 449.654h-10.652s-.17-40.073.232-53.212l-15.844-.023v-9.554h42.565v9.221l-16.3.128c-.002 12.14 0 34.112-.001 46.252v7.188zM750.188 330.372l-24.59-5.053c7.976-38.852 15.877-77.347 23.916-116.513l-37.701-7.951 4.469-22.55 100.733 20.69-4.52 22.493-38.252-7.589-24.055 116.473zM890.396 220.606c8.823 3.995 18.432 6.364 26.762 11.207 16.228 9.436 22.268 22.046 16.97 39.928-7.106 23.99-15.357 47.735-24.756 70.922-7.172 17.693-21.71 25.19-40.32 21.055-15.07-3.348-30.07-8.418-44.04-14.985-18.508-8.7-24.865-20.572-19.351-40.634 7.097-25.824 16.177-51.306 26.838-75.88 7.887-18.177 22.404-22.323 42.923-16.59 5.06 1.414 9.986 3.305 14.974 4.977.127-.31-.126.309 0 0zm9.272 76.288c-.15-.058.15.059 0 0 2.96-8.83 6.286-17.56 8.784-26.52 2.927-10.501.503-17.095-9.244-21.637-8.894-4.144-18.53-6.808-28.004-9.561-8.41-2.444-14.988.92-18.408 8.774a580.746 580.746 0 0 0-14.062 35.465c-3.212 8.937-5.92 18.097-8.172 27.324-2.295 9.405.31 15.564 8.474 19.16 8.28 3.648 16.885 6.832 25.643 9.053 11.959 3.031 17.857.28 23.112-10.886 4.726-10.041 7.815-20.817 11.877-31.172zM778.267 476.895c-12.038-1.045-18.888-7.86-19.602-19.819-.19-3.187-.029-6.394-.029-9.994 5.095 0 10.508.01 15.243.01 0 0-1.536 15.262 14.94 15.516 3.029.121 6.067.072 9.098.003 4.579-.104 9.273-.559 11.281-5.447 2.386-5.81 3.13-12.19-.663-17.446-1.65-2.285-5.821-3.36-9.01-3.795-6.8-.929-13.743-.789-20.563-1.614-12.58-1.522-17.277-6.214-19.458-18.633-.21-1.197-.507-2.382-.641-3.587-2.4-21.568 5.75-31.21 27.28-32.112a153.49 153.49 0 0 1 14.584.086c18.415.982 25.545 9.334 23.94 28.274-4.928 0-10.5.002-15.476-.002 0 0 1.453-13.463-13.946-13.35-3.036.022-6.081.017-9.109.224-8.626.591-11.506 3.467-11.678 11.464-.201 9.384 2.582 12.5 11.733 13.344 8.263.763 16.544 1.418 24.764 2.518 8.902 1.192 13.516 4.945 14.634 13.663.992 7.731 1.2 15.85-.027 23.513-1.879 11.735-7.611 16.003-19.446 17.154-2.13.207-25.92.197-27.849.03zM171.442 476.477c-12.038-1.045-18.888-7.859-19.602-19.818-.19-3.187-.029-6.394-.029-9.994 5.095 0 10.508.009 15.243.009 0 0-1.536 15.262 14.94 15.517 3.029.12 6.067.072 9.098.003 4.579-.104 9.273-.56 11.281-5.448 2.386-5.81 3.13-12.19-.663-17.446-1.65-2.284-5.82-3.36-9.009-3.795-6.801-.928-13.743-.788-20.564-1.613-12.58-1.522-17.276-6.214-19.458-18.634-.21-1.196-.507-2.382-.641-3.586-2.4-21.568 5.75-31.21 27.28-32.112a153.49 153.49 0 0 1 14.584.086c18.414.982 25.545 9.333 23.94 28.273-4.929 0-10.5.003-15.477-.002 0 0 1.454-13.463-13.945-13.35-3.036.022-6.081.017-9.109.225-8.626.59-11.506 3.466-11.678 11.464-.201 9.384 2.582 12.499 11.733 13.344 8.262.763 16.544 1.418 24.764 2.518 8.902 1.191 13.516 4.944 14.634 13.662.992 7.732 1.2 15.85-.027 23.513-1.879 11.735-7.611 16.004-19.446 17.154-2.13.207-25.92.198-27.849.03z"/></g></symbol><symbol viewBox="-5 -5 970 650" id="team-58-19251926-light"><g fill="#046A38"><path d="M850.71 465.196v11.824h-2.957v-11.824h-3.422v-2.938h9.802v2.938h-3.423zm16.023 11.824v-8.712l-2.49 5.428h-2.611l-2.49-5.428v8.712h-2.957v-14.762h2.956l3.797 7.884 3.795-7.884h2.957v14.762h-2.957zM667.817 173.671l24.578 2.396-13.731 141.089c-5.945-.467-41.285-3.699-41.285-3.699-12.782-37.268-42.523-121.8-44.272-123.072l-9.468 117.28-24.747-2.396 13.771-141.373c13.485 1.39 41.158 4.565 41.158 4.565 13.12 36.94 42.524 120.182 44.634 121.797l9.362-116.587zM386.778 247.527c2.446.652 4.17 1.216 5.936 1.565 8.234 1.626 13.759 6.581 15.083 14.683 2.177 13.322 3.437 26.795 5.2 41.144-8.406.652-26.296 1.805-26.296 1.805s-.943-18.395-1.407-25.463c-1.046-15.906-7.028-21.186-23.04-19.856-11.102.922-19 1.103-28.454 2.043-6.172.613-6.07 1.728-5.71 7.7 1.26 12.681 2.857 38.447 2.784 39.754l-24.506 1.804c-.739-8.614-1.533-16.766-2.121-24.933-2.63-36.534-5.723-80.31-8.536-116.83 0 0 51.323-3.276 73.14-4.545 3.019-.176 6.09-.011 9.1.325 12.399 1.385 21.33 7.425 24.925 19.77 3.717 12.762 4.584 25.806 3.291 39.062-.994 10.2-6.16 16.83-15.711 20.241-1.062.38-2.053.959-3.678 1.731zm-60.638-6.187c15.38-1.446 30.054-2.533 44.636-4.352 5.3-.66 9.799-4.411 9.788-10.109-.018-9.986-.658-20.033-1.974-29.93-.643-4.846-5.265-7.455-10.016-7.302-15.078.485-30.14 1.469-45.967 2.3l3.533 49.393zM214.907 330.295c-23.518.445-34.767-7.155-39.734-21.8-4.776-14.082-7.93-28.772-10.977-43.366-2.678-12.827-5.203-25.83-6.031-38.866-1.183-18.633 5.637-28.307 23.195-34.576 15.858-5.662 32.292-9.147 49.244-9.25 18.492-.11 28.993 6.512 34.764 24.301 4.469 13.774 6.953 28.21 10.01 42.418 2.04 9.475 4.205 19.002 5.152 28.62 2.788 28.3-8.913 38.703-28.062 44.21-14.68 4.22-29.875 6.652-37.56 8.31zm-.758-22.893c8.068-1.723 16.29-2.93 24.171-5.282 14.787-4.413 18.815-11.118 16.342-26.33-1.49-9.165-3.446-18.26-5.336-27.356-2.012-9.68-3.94-19.39-6.38-28.965-2.109-8.273-7.558-13.719-16.385-13.559-12.79.232-25.407 2.4-36.611 8.965-2.709 1.588-5.549 5.71-5.54 8.66.025 8.967.774 18.05 2.416 26.868 2.731 14.666 5.838 29.31 9.82 43.678 2.803 10.116 7.356 12.591 17.503 13.321zM481.21 163.076c9.635.985 19.498.178 28.936 2.123 18.386 3.79 28.12 13.827 28.779 32.465.885 25.005.607 50.142-.937 75.113-1.178 19.055-12.58 30.783-31.539 32.776-15.354 1.615-31.187 1.574-46.52-.213-20.313-2.369-30.113-11.605-31.26-32.38-1.476-26.74-.964-53.787 1.335-80.474 1.702-19.742 14.149-28.286 35.427-29.37 5.247-.267 10.519-.04 15.779-.04.022-.333-.022.334 0 0zm33.033 69.388c-.16-.007.16.008 0 0 0-9.313.38-18.647-.099-27.936-.561-10.888-4.955-16.37-15.64-17.578-9.75-1.104-19.734-.567-29.59-.167-8.75.355-13.92 5.635-14.666 14.169a580.805 580.805 0 0 0-2.064 38.095c-.205 9.494.138 19.04.935 28.504.812 9.647 5.24 14.66 14.123 15.475 9.01.828 18.18 1.112 27.19.434 12.303-.925 17.02-5.409 18.455-17.665 1.29-11.023.795-22.222 1.356-33.33zM130.266 352.695l-23.76 8.1-38.402-112.573-36.534 12.242L24 238.758l97.333-33.19 7.497 21.684-36.825 12.834 38.261 112.609zM525.913 475.874c3.122-10.876 6.074-21.338 9.13-31.769 5.624-19.2 18.438-63.605 18.438-63.605h24.394s20.546 68.987 28.589 95.787c-4.895 0-15.29.146-15.29.146l-6.307-18.196c-5.673 0-32.512-.11-32.512-.11l-4.725.022s-5.505 17.899-5.627 18.284l-16.09-.559zm25.421-31.539h29.536c-4.826-16.552-14.278-50.91-14.768-50.857-4.59 15.797-9.963 34.324-14.768 50.857zM433.488 476.04H418.42v-94.531c16.521 0 32.84-.406 49.124.154 9.583.33 15.37 6.598 16.202 15.915.872 9.786 1.358 19.814.21 29.522-1.411 11.91-7.467 16.765-19.574 17.606-8.066.561-30.88.296-30.88.296l-.014 31.038zm.51-79.741v32.917c9.409 0 18.442.31 27.439-.13 4.481-.22 7.337-3.503 7.596-8.08.296-5.22.288-10.488-.045-15.706-.296-4.655-2.812-8.57-7.614-8.85-8.978-.524-18.007-.151-27.376-.151zM703.094 380.966v14.716s-17.615.082-24.837.082V475.9h-16.105s-.075-58.135.254-80.217c0 0-19.01.087-25.109.087v-14.803h65.797zM283.071 449.654h-10.652s-.17-40.073.232-53.212l-15.844-.023v-9.554h42.565v9.221l-16.3.128c-.002 12.14 0 34.112-.001 46.252v7.188zM750.188 330.372l-24.59-5.053c7.976-38.852 15.877-77.347 23.916-116.513l-37.701-7.951 4.469-22.55 100.733 20.69-4.52 22.493-38.252-7.589-24.055 116.473zM890.396 220.606c8.823 3.995 18.432 6.364 26.762 11.207 16.228 9.436 22.268 22.046 16.97 39.928-7.106 23.99-15.357 47.735-24.756 70.922-7.172 17.693-21.71 25.19-40.32 21.055-15.07-3.348-30.07-8.418-44.04-14.985-18.508-8.7-24.865-20.572-19.351-40.634 7.097-25.824 16.177-51.306 26.838-75.88 7.887-18.177 22.404-22.323 42.923-16.59 5.06 1.414 9.986 3.305 14.974 4.977.127-.31-.126.309 0 0zm9.272 76.288c-.15-.058.15.059 0 0 2.96-8.83 6.286-17.56 8.784-26.52 2.927-10.501.503-17.095-9.244-21.637-8.894-4.144-18.53-6.808-28.004-9.561-8.41-2.444-14.988.92-18.408 8.774a580.746 580.746 0 0 0-14.062 35.465c-3.212 8.937-5.92 18.097-8.172 27.324-2.295 9.405.31 15.564 8.474 19.16 8.28 3.648 16.885 6.832 25.643 9.053 11.959 3.031 17.857.28 23.112-10.886 4.726-10.041 7.815-20.817 11.877-31.172zM778.267 476.895c-12.038-1.045-18.888-7.86-19.602-19.819-.19-3.187-.029-6.394-.029-9.994 5.095 0 10.508.01 15.243.01 0 0-1.536 15.262 14.94 15.516 3.029.121 6.067.072 9.098.003 4.579-.104 9.273-.559 11.281-5.447 2.386-5.81 3.13-12.19-.663-17.446-1.65-2.285-5.821-3.36-9.01-3.795-6.8-.929-13.743-.789-20.563-1.614-12.58-1.522-17.277-6.214-19.458-18.633-.21-1.197-.507-2.382-.641-3.587-2.4-21.568 5.75-31.21 27.28-32.112a153.49 153.49 0 0 1 14.584.086c18.415.982 25.545 9.334 23.94 28.274-4.928 0-10.5.002-15.476-.002 0 0 1.453-13.463-13.946-13.35-3.036.022-6.081.017-9.109.224-8.626.591-11.506 3.467-11.678 11.464-.201 9.384 2.582 12.5 11.733 13.344 8.263.763 16.544 1.418 24.764 2.518 8.902 1.192 13.516 4.945 14.634 13.663.992 7.731 1.2 15.85-.027 23.513-1.879 11.735-7.611 16.003-19.446 17.154-2.13.207-25.92.197-27.849.03zM171.442 476.477c-12.038-1.045-18.888-7.859-19.602-19.818-.19-3.187-.029-6.394-.029-9.994 5.095 0 10.508.009 15.243.009 0 0-1.536 15.262 14.94 15.517 3.029.12 6.067.072 9.098.003 4.579-.104 9.273-.56 11.281-5.448 2.386-5.81 3.13-12.19-.663-17.446-1.65-2.284-5.82-3.36-9.009-3.795-6.801-.928-13.743-.788-20.564-1.613-12.58-1.522-17.276-6.214-19.458-18.634-.21-1.196-.507-2.382-.641-3.586-2.4-21.568 5.75-31.21 27.28-32.112a153.49 153.49 0 0 1 14.584.086c18.414.982 25.545 9.333 23.94 28.273-4.929 0-10.5.003-15.477-.002 0 0 1.454-13.463-13.945-13.35-3.036.022-6.081.017-9.109.225-8.626.59-11.506 3.466-11.678 11.464-.201 9.384 2.582 12.499 11.733 13.344 8.262.763 16.544 1.418 24.764 2.518 8.902 1.191 13.516 4.944 14.634 13.662.992 7.732 1.2 15.85-.027 23.513-1.879 11.735-7.611 16.004-19.446 17.154-2.13.207-25.92.198-27.849.03z"/></g></symbol><symbol viewBox="-5 -5 970 650" id="team-6-19251926-dark"><path fill="#FFC72C" d="M711.438 544.86v11.825h-2.957V544.86h-3.423v-2.938h9.802v2.938h-3.422zm16.023 11.825v-8.713l-2.49 5.428h-2.612l-2.49-5.428v8.713h-2.956v-14.762h2.956l3.796 7.883 3.795-7.883h2.957v14.762h-2.957z"/><path fill="#744F28" d="M463.23 83.508C302.796 78.16 55.335 185.855 55.335 185.855l108.33 255.162 70.544-24.367v140.035h452.913V414.938l85.153 23.266 132.39-231.35c-255-107-281-118-441.435-123.346z"/><path fill="#FFC72C" d="M598.781 426.09v-11.883c-6.337 9.351-14.767 11.258-20.568 11.258-11.469 0-18.879-9.68-18.879-24.661l.004-.164 1.014-18.067c-.04-1.761-1.173-4.336-4.357-10.33l-11.034 17.332c-6.089 9.562-7.047 11.068-7.24 11.362-8.008 12.442-17.116 24.59-32.518 24.59-10.177 0-26.321-5.817-26.321-21.425 0-10.332 7.23-15.987 12.75-18.798a25.177 25.177 0 0 1-3.21-9.795c-12.29 4.979-22.373 5.407-39.25 4.894l-4.927 15.667-3.356 10.673c-4.473 13.239-15.204 20.802-29.458 20.802-18.765 0-27.164-11.137-27.164-22.174 0-12.25 7.374-18.188 10.917-21.043.67-.539 1.265-1.016 1.534-1.272v-.155c0-.915-1.735-4.725-9.656-11.274-4.365-3.61-9.61-7.196-13.83-9.486-2.62 4.073-6.55 9.912-13.372 16.932-11.436 11.77-25.151 11.153-26.677 11.047a12.48 12.48 0 0 1-2.369-.396v36.366H253.21v111.595h414.913V426.09h-69.34z"/><path fill="#FFC72C" d="M602.985 387.159l1.507-15.626c.925-9.667 1.309-13.668 1.934-16.914.078-.4.045-.859.117-1.262.7.11 1.318.371 2.074.371 6.084 0 13.196-4.271 13.196-16.315 0-6.934-3.352-27.246-11.66-36.354-9.413-10.316-60.716-61.774-146.578-61.774-69.061 0-97.31 24.176-116.001 40.176-10.007 8.564-15.554 13.03-22.543 13.03l-5.088-.263c-6.36 0-13.45 5.016-13.45 12.21 0 3.672 1.638 6.699 2.956 9.127 0 0 .723 1.445.931 1.865-.082 6.696-1.256 8.712-2.412 10.557-1.322 2.096-3.32 5.27-3.32 10.511 0 6.344 2.643 9.984 5.198 13.506 2.708 3.724 6.416 8.835 10.944 21.754.26.629 2.839 6.755 6.62 11.293a8.603 8.603 0 0 0 6.05 3.079c1.347.091 13.423.56 23.531-9.844 7.161-7.37 11.051-13.45 13.626-17.474 0 0 .615-.905 1.234-1.806 8.873 3.815 28.866 18.323 28.866 25.895 0 2.05-.254 2.317-3.014 4.534-3.528 2.842-9.436 7.591-9.436 17.936 0 9.047 7.161 18.174 23.164 18.174 12.437 0 21.773-6.553 25.634-17.975.036-.12 6.015-19.124 9.203-29.264 22.06.761 31.52.182 46.139-6.967-.085.944-.173 1.889-.173 2.816 0 7.048 2.78 11.69 5.537 14.922-6.598 2.158-14.89 7.188-14.89 17.025 0 12.698 13.695 17.425 22.322 17.425 13.385 0 21.767-11.276 29.205-22.829.016-.023 13.056-20.507 21.875-34.355 6.191 11.413 8.07 15.02 8.07 18.324l-1.02 18.138c0 12.551 5.84 20.66 14.88 20.66 7.982 0 21.82-4.457 24.772-34.306z"/><path fill="#744F28" d="M608.617 345.118c1.816 0 4.586-.924 4.586-7.705 0-6.777-3.47-24.037-9.41-30.55-5.944-6.514-56.084-58.967-140.218-58.967-101.6 0-108.684 53.212-138.544 53.212-2.656 0-4.212-.27-5.088-.27-2.239 0-4.84 1.907-4.84 3.6 0 3.024 3.92 7.145 3.92 10.351 0 16.211-5.766 14.746-5.766 21.71 0 8.063 6.83 7.206 15.658 32.411 0 0 2.06 4.968 5.11 8.63 0 0 4.55.296 9.91-2.28 1.282-10.842-1.134-22.912-1.134-22.912l5.586-1.1s2.009 10.045 1.39 20.045c.349-.322.7-.654 1.042-1.006 13.72-14.124 14.079-22.715 19.697-22.715 5.124 0 38.808 19.212 38.808 35.329 0 12.467-12.447 10.026-12.447 22.47 0 4.164 3.073 9.568 14.554 9.568 5.98 0 14.052-1.986 17.474-12.123l11.116-35.351c33.828 1.276 37.193 1.83 66.263-15.762 0 0-5.44 11.533-5.44 20.453 0 10.999 9.867 12.46 9.867 17.71 0 3.702-4.737 4.457-6.224 4.457-1.488 0-12.995 2.354-12.995 9.779 0 7.419 11.048 8.819 13.71 8.819 7.787 0 13.835-6.257 21.967-18.884l29.752-46.722c12.113 23.001 16.041 28.021 16.041 35.352 0 7.327-1.018 15.39-1.018 18.138 0 2.744.59 12.05 6.269 12.05 5.677 0 13.995-4.2 16.201-26.549 2.214-22.347 2.566-28.184 3.555-33.31.954-4.942 1.77-13.034-.785-25.74 1.013 4.516 4.583 17.862 11.433 17.862zm-279.604-.905c-.482 4.075-4.948 1.761-7.422.596-2.464-1.175-.97-2.344 0-5.247.989-2.917 7.929-3.497 7.929-3.497 2.953 1.758 0 4.076-.507 8.148z"/><g fill="#744F28"><path d="M283.085 441.019a2.383 2.383 0 0 0-2.383 2.38v76.978a2.383 2.383 0 0 0 2.383 2.38h39.694l13.668-13.497v-21.487l-7.438-5.885 7.438-5.889v-21.481l-13.668-13.5h-39.694zm42.408 62.949l-7.106 7.018h-24.352a2.38 2.38 0 0 1-2.379-2.383v-18.447a2.38 2.38 0 0 1 2.38-2.383h24.351l7.106 7.018v9.177zm0-34.984l-7.106 7.015h-24.352a2.378 2.378 0 0 1-2.379-2.38v-18.447a2.381 2.381 0 0 1 2.38-2.383h24.351l7.106 7.019v9.176zM354.413 441.019a2.384 2.384 0 0 0-2.383 2.38l.007 73.883a5.472 5.472 0 0 0 5.475 5.474 5.472 5.472 0 0 0 5.472-5.474v-27.126a2.381 2.381 0 0 1 2.383-2.383h24.348l7.107 7.018.006 22.49a5.472 5.472 0 0 0 5.475 5.475 5.471 5.471 0 0 0 5.472-5.474v-29.509l-7.435-5.885 7.435-5.889v-21.481l-13.665-13.5h-39.697zm42.409 27.965l-7.107 7.015h-24.349a2.379 2.379 0 0 1-2.382-2.38v-18.447a2.382 2.382 0 0 1 2.382-2.383h24.349l7.107 7.019v9.176zM499.093 441.019a5.473 5.473 0 0 0-5.476 5.475v70.788c0 3.027 2.452 5.474 5.476 5.474s5.472-2.447 5.472-5.474v-70.788a5.47 5.47 0 0 0-5.472-5.475zM473.63 441.019a5.47 5.47 0 0 0-5.472 5.475l-.006 57.474-7.109 7.018h-19.622l-7.11-7.018-.003-57.474a5.473 5.473 0 0 0-5.475-5.475 5.47 5.47 0 0 0-5.472 5.475v62.766l13.665 13.496h28.411l13.665-13.496v-62.766a5.47 5.47 0 0 0-5.472-5.475zM602.943 452.79h19.629l8.3 8.2a5.735 5.735 0 0 0 8.106-.05 5.732 5.732 0 0 0-.052-8.105l-11.964-11.816h-28.41l-13.666 13.499v19.76l13.665 13.495h24.02l7.107 7.018v9.177l-7.106 7.018h-19.63l-8.3-8.2a5.735 5.735 0 0 0-8.105.049 5.735 5.735 0 0 0 .052 8.105l11.962 11.816h28.411l13.67-13.496v-19.758l-13.67-13.503h-24.02l-7.102-7.015v-9.176l7.103-7.019zM569.35 441.019a5.478 5.478 0 0 0-5.479 5.475v51.891l-34.687-54.82a5.484 5.484 0 0 0-6.153-2.331 5.485 5.485 0 0 0-3.955 5.26v70.788c0 3.024 2.455 5.474 5.479 5.474s5.478-2.45 5.478-5.474v-51.888l34.687 54.814a5.473 5.473 0 0 0 6.15 2.334 5.48 5.48 0 0 0 3.954-5.26v-70.788a5.479 5.479 0 0 0-5.474-5.475z"/></g><g fill="#FFC72C"><path d="M751.165 151.355l-122 217 35 14.5 63.755-113.206c2.978-5.287 11.067-2.554 10.227 3.456l-18.482 132.25 40.5 16 123-216-36-15.5-63.218 113.82c-2.563 4.615-9.611 2.325-8.973-2.914l16.191-132.906-40-16.5zM667.998 131.521l-38.666-13.333-16.667 6.333-25.667 81 9 14 40 13.334 17-5.334 26-81.333-11-14.667zM657.506 149l-21.324 63.973a2.639 2.639 0 0 1-3.384 1.654l-22.413-7.927a2.639 2.639 0 0 1-1.642-3.264l19.786-64.305a2.639 2.639 0 0 1 3.383-1.719l23.95 8.26a2.639 2.639 0 0 1 1.644 3.328zM502.165 98.355l-1 16 21.5 2-6 85.5 21.5 2.5 6.5-85 22.5 3 .5-15.5zM428.165 99.355l-41 3-10.5 11.5 7.5 40.436 15.5 8.564 35-2.5 4.5 26-26 3-2-9-21 1.5 3 16.5 14.75 8.5 41.25-3.5 11.5-11-7.5-39.25-16-10.25-34 2-4.5-26.5 25-2 2.5 8 20-1-2.5-14.5zM320.247 126.855l-16.06-7.5-42.022 10.5-8.956 13.5 33.456 82 17.982 7.5 41.518-10.5 9-12.5-34.918-83zm9.33 80.437l-22.365 6.79a2.911 2.911 0 0 1-3.545-1.695l-26.253-64.942a2.911 2.911 0 0 1 1.981-3.912l21.84-5.56a2.911 2.911 0 0 1 3.402 1.694l26.777 63.712a2.911 2.911 0 0 1-1.838 3.913zM261.915 284.605l-25.513-14.45a3.834 3.834 0 0 1-1.752-4.537l9.015-27.333-31-69.43-36.25-12.75-104.75 33.25 98.5 231.25 103.5-34.25 17.991-32.5-29.74-69.25zM148.647 268.72l-21.304-49.774a6.952 6.952 0 0 1 4.098-9.298l43.288-15.132a6.952 6.952 0 0 1 8.71 3.885l21.094 50.547a6.952 6.952 0 0 1-4.217 9.272l-43.08 14.36a6.952 6.952 0 0 1-8.59-3.86zM240.89 356.6l-41.9 14.334a7.918 7.918 0 0 1-9.896-4.507l-19.77-48.559c-1.715-4.214.466-9.004 4.77-10.477l41.324-14.142a7.918 7.918 0 0 1 9.863 4.422l20.345 48.366c1.778 4.228-.396 9.078-4.736 10.563z"/></g></symbol><symbol viewBox="-5 -5 970 650" id="team-6-19251926-light"><path fill="#744F28" d="M711.438 544.86v11.825h-2.957V544.86h-3.423v-2.938h9.802v2.938h-3.422zm16.023 11.825v-8.713l-2.49 5.428h-2.612l-2.49-5.428v8.713h-2.956v-14.762h2.956l3.796 7.883 3.795-7.883h2.957v14.762h-2.957zM463.23 83.508C302.796 78.16 55.335 185.855 55.335 185.855l108.33 255.162 70.544-24.367v140.035h452.913V414.938l85.153 23.266 132.39-231.35c-255-107-281-118-441.435-123.346z"/><path fill="#FFC72C" d="M598.781 426.09v-11.883c-6.337 9.351-14.767 11.258-20.568 11.258-11.469 0-18.879-9.68-18.879-24.661l.004-.164 1.014-18.067c-.04-1.761-1.173-4.336-4.357-10.33l-11.034 17.332c-6.089 9.562-7.047 11.068-7.24 11.362-8.008 12.442-17.116 24.59-32.518 24.59-10.177 0-26.321-5.817-26.321-21.425 0-10.332 7.23-15.987 12.75-18.798a25.177 25.177 0 0 1-3.21-9.795c-12.29 4.979-22.373 5.407-39.25 4.894l-4.927 15.667-3.356 10.673c-4.473 13.239-15.204 20.802-29.458 20.802-18.765 0-27.164-11.137-27.164-22.174 0-12.25 7.374-18.188 10.917-21.043.67-.539 1.265-1.016 1.534-1.272v-.155c0-.915-1.735-4.725-9.656-11.274-4.365-3.61-9.61-7.196-13.83-9.486-2.62 4.073-6.55 9.912-13.372 16.932-11.436 11.77-25.151 11.153-26.677 11.047a12.48 12.48 0 0 1-2.369-.396v36.366H253.21v111.595h414.913V426.09h-69.34z"/><path fill="#FFC72C" d="M602.985 387.159l1.507-15.626c.925-9.667 1.309-13.668 1.934-16.914.078-.4.045-.859.117-1.262.7.11 1.318.371 2.074.371 6.084 0 13.196-4.271 13.196-16.315 0-6.934-3.352-27.246-11.66-36.354-9.413-10.316-60.716-61.774-146.578-61.774-69.061 0-97.31 24.176-116.001 40.176-10.007 8.564-15.554 13.03-22.543 13.03l-5.088-.263c-6.36 0-13.45 5.016-13.45 12.21 0 3.672 1.638 6.699 2.956 9.127 0 0 .723 1.445.931 1.865-.082 6.696-1.256 8.712-2.412 10.557-1.322 2.096-3.32 5.27-3.32 10.511 0 6.344 2.643 9.984 5.198 13.506 2.708 3.724 6.416 8.835 10.944 21.754.26.629 2.839 6.755 6.62 11.293a8.603 8.603 0 0 0 6.05 3.079c1.347.091 13.423.56 23.531-9.844 7.161-7.37 11.051-13.45 13.626-17.474 0 0 .615-.905 1.234-1.806 8.873 3.815 28.866 18.323 28.866 25.895 0 2.05-.254 2.317-3.014 4.534-3.528 2.842-9.436 7.591-9.436 17.936 0 9.047 7.161 18.174 23.164 18.174 12.437 0 21.773-6.553 25.634-17.975.036-.12 6.015-19.124 9.203-29.264 22.06.761 31.52.182 46.139-6.967-.085.944-.173 1.889-.173 2.816 0 7.048 2.78 11.69 5.537 14.922-6.598 2.158-14.89 7.188-14.89 17.025 0 12.698 13.695 17.425 22.322 17.425 13.385 0 21.767-11.276 29.205-22.829.016-.023 13.056-20.507 21.875-34.355 6.191 11.413 8.07 15.02 8.07 18.324l-1.02 18.138c0 12.551 5.84 20.66 14.88 20.66 7.982 0 21.82-4.457 24.772-34.306z"/><path fill="#744F28" d="M608.617 345.118c1.816 0 4.586-.924 4.586-7.705 0-6.777-3.47-24.037-9.41-30.55-5.944-6.514-56.084-58.967-140.218-58.967-101.6 0-108.684 53.212-138.544 53.212-2.656 0-4.212-.27-5.088-.27-2.239 0-4.84 1.907-4.84 3.6 0 3.024 3.92 7.145 3.92 10.351 0 16.211-5.766 14.746-5.766 21.71 0 8.063 6.83 7.206 15.658 32.411 0 0 2.06 4.968 5.11 8.63 0 0 4.55.296 9.91-2.28 1.282-10.842-1.134-22.912-1.134-22.912l5.586-1.1s2.009 10.045 1.39 20.045c.349-.322.7-.654 1.042-1.006 13.72-14.124 14.079-22.715 19.697-22.715 5.124 0 38.808 19.212 38.808 35.329 0 12.467-12.447 10.026-12.447 22.47 0 4.164 3.073 9.568 14.554 9.568 5.98 0 14.052-1.986 17.474-12.123l11.116-35.351c33.828 1.276 37.193 1.83 66.263-15.762 0 0-5.44 11.533-5.44 20.453 0 10.999 9.867 12.46 9.867 17.71 0 3.702-4.737 4.457-6.224 4.457-1.488 0-12.995 2.354-12.995 9.779 0 7.419 11.048 8.819 13.71 8.819 7.787 0 13.835-6.257 21.967-18.884l29.752-46.722c12.113 23.001 16.041 28.021 16.041 35.352 0 7.327-1.018 15.39-1.018 18.138 0 2.744.59 12.05 6.269 12.05 5.677 0 13.995-4.2 16.201-26.549 2.214-22.347 2.566-28.184 3.555-33.31.954-4.942 1.77-13.034-.785-25.74 1.013 4.516 4.583 17.862 11.433 17.862zm-279.604-.905c-.482 4.075-4.948 1.761-7.422.596-2.464-1.175-.97-2.344 0-5.247.989-2.917 7.929-3.497 7.929-3.497 2.953 1.758 0 4.076-.507 8.148z"/><g fill="#744F28"><path d="M283.085 441.019a2.383 2.383 0 0 0-2.383 2.38v76.978a2.383 2.383 0 0 0 2.383 2.38h39.694l13.668-13.497v-21.487l-7.438-5.885 7.438-5.889v-21.481l-13.668-13.5h-39.694zm42.408 62.949l-7.106 7.018h-24.352a2.38 2.38 0 0 1-2.379-2.383v-18.447a2.38 2.38 0 0 1 2.38-2.383h24.351l7.106 7.018v9.177zm0-34.984l-7.106 7.015h-24.352a2.378 2.378 0 0 1-2.379-2.38v-18.447a2.381 2.381 0 0 1 2.38-2.383h24.351l7.106 7.019v9.176zM354.413 441.019a2.384 2.384 0 0 0-2.383 2.38l.007 73.883a5.472 5.472 0 0 0 5.475 5.474 5.472 5.472 0 0 0 5.472-5.474v-27.126a2.381 2.381 0 0 1 2.383-2.383h24.348l7.107 7.018.006 22.49a5.472 5.472 0 0 0 5.475 5.475 5.471 5.471 0 0 0 5.472-5.474v-29.509l-7.435-5.885 7.435-5.889v-21.481l-13.665-13.5h-39.697zm42.409 27.965l-7.107 7.015h-24.349a2.379 2.379 0 0 1-2.382-2.38v-18.447a2.382 2.382 0 0 1 2.382-2.383h24.349l7.107 7.019v9.176zM499.093 441.019a5.473 5.473 0 0 0-5.476 5.475v70.788c0 3.027 2.452 5.474 5.476 5.474s5.472-2.447 5.472-5.474v-70.788a5.47 5.47 0 0 0-5.472-5.475zM473.63 441.019a5.47 5.47 0 0 0-5.472 5.475l-.006 57.474-7.109 7.018h-19.622l-7.11-7.018-.003-57.474a5.473 5.473 0 0 0-5.475-5.475 5.47 5.47 0 0 0-5.472 5.475v62.766l13.665 13.496h28.411l13.665-13.496v-62.766a5.47 5.47 0 0 0-5.472-5.475zM602.943 452.79h19.629l8.3 8.2a5.735 5.735 0 0 0 8.106-.05 5.732 5.732 0 0 0-.052-8.105l-11.964-11.816h-28.41l-13.666 13.499v19.76l13.665 13.495h24.02l7.107 7.018v9.177l-7.106 7.018h-19.63l-8.3-8.2a5.735 5.735 0 0 0-8.105.049 5.735 5.735 0 0 0 .052 8.105l11.962 11.816h28.411l13.67-13.496v-19.758l-13.67-13.503h-24.02l-7.102-7.015v-9.176l7.103-7.019zM569.35 441.019a5.478 5.478 0 0 0-5.479 5.475v51.891l-34.687-54.82a5.484 5.484 0 0 0-6.153-2.331 5.485 5.485 0 0 0-3.955 5.26v70.788c0 3.024 2.455 5.474 5.479 5.474s5.478-2.45 5.478-5.474v-51.888l34.687 54.814a5.473 5.473 0 0 0 6.15 2.334 5.48 5.48 0 0 0 3.954-5.26v-70.788a5.479 5.479 0 0 0-5.474-5.475z"/></g><g fill="#FFC72C"><path d="M751.165 151.355l-122 217 35 14.5 63.755-113.206c2.978-5.287 11.067-2.554 10.227 3.456l-18.482 132.25 40.5 16 123-216-36-15.5-63.218 113.82c-2.563 4.615-9.611 2.325-8.973-2.914l16.191-132.906-40-16.5zM667.998 131.521l-38.666-13.333-16.667 6.333-25.667 81 9 14 40 13.334 17-5.334 26-81.333-11-14.667zM657.506 149l-21.324 63.973a2.639 2.639 0 0 1-3.384 1.654l-22.413-7.927a2.639 2.639 0 0 1-1.642-3.264l19.786-64.305a2.639 2.639 0 0 1 3.383-1.719l23.95 8.26a2.639 2.639 0 0 1 1.644 3.328zM502.165 98.355l-1 16 21.5 2-6 85.5 21.5 2.5 6.5-85 22.5 3 .5-15.5zM428.165 99.355l-41 3-10.5 11.5 7.5 40.436 15.5 8.564 35-2.5 4.5 26-26 3-2-9-21 1.5 3 16.5 14.75 8.5 41.25-3.5 11.5-11-7.5-39.25-16-10.25-34 2-4.5-26.5 25-2 2.5 8 20-1-2.5-14.5zM320.247 126.855l-16.06-7.5-42.022 10.5-8.956 13.5 33.456 82 17.982 7.5 41.518-10.5 9-12.5-34.918-83zm9.33 80.437l-22.365 6.79a2.911 2.911 0 0 1-3.545-1.695l-26.253-64.942a2.911 2.911 0 0 1 1.981-3.912l21.84-5.56a2.911 2.911 0 0 1 3.402 1.694l26.777 63.712a2.911 2.911 0 0 1-1.838 3.913zM261.915 284.605l-25.513-14.45a3.834 3.834 0 0 1-1.752-4.537l9.015-27.333-31-69.43-36.25-12.75-104.75 33.25 98.5 231.25 103.5-34.25 17.991-32.5-29.74-69.25zM148.647 268.72l-21.304-49.774a6.952 6.952 0 0 1 4.098-9.298l43.288-15.132a6.952 6.952 0 0 1 8.71 3.885l21.094 50.547a6.952 6.952 0 0 1-4.217 9.272l-43.08 14.36a6.952 6.952 0 0 1-8.59-3.86zM240.89 356.6l-41.9 14.334a7.918 7.918 0 0 1-9.896-4.507l-19.77-48.559c-1.715-4.214.466-9.004 4.77-10.477l41.324-14.142a7.918 7.918 0 0 1 9.863 4.422l20.345 48.366c1.778 4.228-.396 9.078-4.736 10.563z"/></g></symbol><symbol viewBox="-5 -5 970 650" id="team-7285-19251926-dark"><path fill="#FFF" d="M851.865 579.897v11.824h-2.957v-11.824h-3.422v-2.938h9.802v2.938h-3.423zm16.023 11.824v-8.712l-2.49 5.427h-2.611l-2.49-5.427v8.712h-2.957V576.96h2.956l3.797 7.884 3.795-7.884h2.957v14.762h-2.957zM135.886 48.283l764.16 394.68-75.9 146.955-764.16-394.68z"/><g fill="#046A38"><path d="M228.64 143.312l-59.699-30.836-12.374 23.956 54.8 28.306-10.12 19.593-54.8-28.305-14.983 29.007 62.454 32.259-10.476 20.282-85.492-44.158 58.272-112.815 82.736 42.735-10.318 19.976zM236.79 221.014c-1.933 5.531-2.49 10.123-1.672 13.777 1.508 6.662 7.004 12.441 16.486 17.339 5.678 2.933 10.606 4.702 14.78 5.307 7.933 1.125 13.547-1.502 16.842-7.88 1.924-3.724 1.766-7.458-.47-11.2-2.266-3.69-6.578-8.148-12.937-13.371l-10.83-8.988c-10.634-8.853-17.391-15.995-20.273-21.427-4.915-9.132-4.512-19.233 1.207-30.306 5.219-10.103 13.271-16.575 24.163-19.418 10.89-2.842 23.542-.542 37.954 6.902 12.034 6.216 20.671 14.67 25.915 25.36 5.241 10.691 4.972 22.138-.808 34.342l-22.654-11.702c3.086-7.001 2.542-13.39-1.63-19.167-2.793-3.832-6.986-7.195-12.583-10.086-6.225-3.215-11.827-4.557-16.806-4.027-4.98.53-8.602 2.991-10.868 7.379-2.082 4.032-1.806 7.987.828 11.868 1.667 2.543 5.86 6.68 12.576 12.41l17.387 14.895c7.622 6.524 12.716 12.613 15.282 18.268 3.983 8.781 3.38 18.197-1.812 28.248-5.324 10.308-13.73 16.809-25.217 19.505-11.486 2.696-24.5.288-39.044-7.224-14.853-7.672-24.802-17.06-29.846-28.166-5.045-11.104-4.535-22.524 1.528-34.26l22.501 11.622zM365.014 188.446l23.191 11.979-24.01 46.483 67.598-23.97 30.46 15.735-70.26 22.485 14.363 91.556-30.31-15.656-9.322-67.199-17.3 5.649-19.49 37.732-23.191-11.978 58.271-112.816zM441.065 370.642l-23.42-12.097 58.271-112.816 23.42 12.098-58.271 112.815zM596.218 307.868l33.92 17.52-58.272 112.816-21.966-11.346 39.415-76.307a844.923 844.923 0 0 1 4.84-9.183 886.38 886.38 0 0 0 4.8-9.107l-70.28 83.634-22.911-11.835 27.676-105.64a839.839 839.839 0 0 0-4.647 9.186 890.926 890.926 0 0 1-4.688 9.263l-39.414 76.307-21.966-11.346 58.272-112.815 34.302 17.718-25.282 99.313 66.2-78.178zM685.728 484.314c-13.056 4.375-27.645 2.398-43.767-5.93-16.125-8.329-26.18-19.08-30.168-32.259-5.87-16.67-3.572-35.132 6.892-55.39 10.674-20.664 24.399-33.224 41.18-37.678 13.053-4.375 27.642-2.399 43.767 5.93 16.123 8.327 26.178 19.08 30.168 32.258 6.026 16.236 3.705 34.686-6.969 55.35-10.463 20.258-24.166 32.83-41.103 37.72zm-5.878-24.754c9.041-4.056 16.846-12.435 23.408-25.14 6.536-12.654 8.845-23.855 6.933-33.602-1.915-9.747-7.54-17.032-16.877-21.855s-18.567-5.228-27.686-1.211c-9.12 4.015-16.96 12.375-23.523 25.08-6.562 12.706-8.842 23.939-6.838 33.7 2.002 9.76 7.674 17.053 17.012 21.876 9.337 4.823 18.527 5.207 27.57 1.152zM750.582 486.399c-1.934 5.53-2.49 10.123-1.672 13.776 1.508 6.662 7.004 12.442 16.486 17.34 5.678 2.932 10.606 4.702 14.78 5.306 7.934 1.126 13.547-1.501 16.842-7.88 1.924-3.724 1.766-7.457-.47-11.199-2.266-3.691-6.578-8.148-12.937-13.372l-10.83-8.987c-10.634-8.853-17.392-15.996-20.273-21.428-4.915-9.132-4.512-19.233 1.207-30.306 5.219-10.102 13.272-16.575 24.163-19.418 10.89-2.841 23.542-.541 37.954 6.903 12.034 6.216 20.672 14.67 25.915 25.36 5.241 10.69 4.973 22.138-.807 34.341l-22.655-11.701c3.086-7.002 2.542-13.391-1.63-19.167-2.793-3.833-6.986-7.195-12.582-10.086-6.226-3.216-11.827-4.558-16.807-4.028-4.98.531-8.602 2.992-10.868 7.38-2.082 4.03-1.806 7.986.828 11.867 1.668 2.544 5.859 6.68 12.577 12.411l17.386 14.895c7.623 6.523 12.716 12.613 15.282 18.268 3.983 8.78 3.38 18.196-1.812 28.248-5.324 10.307-13.73 16.808-25.216 19.504-11.486 2.696-24.502.288-39.045-7.224-14.853-7.672-24.802-17.06-29.846-28.166-5.044-11.104-4.534-22.524 1.528-34.26l22.501 11.623z"/></g></symbol><symbol viewBox="-5 -5 970 650" id="team-7285-19251926-light"><path fill="#046A38" d="M851.865 579.897v11.824h-2.957v-11.824h-3.422v-2.938h9.802v2.938h-3.423zm16.023 11.824v-8.712l-2.49 5.427h-2.611l-2.49-5.427v8.712h-2.957V576.96h2.956l3.797 7.884 3.795-7.884h2.957v14.762h-2.957zM135.886 48.283l764.16 394.68-75.9 146.955-764.16-394.68z"/><g fill="#FFF"><path d="M228.64 143.312l-59.699-30.836-12.374 23.956 54.8 28.306-10.12 19.593-54.8-28.305-14.983 29.007 62.454 32.259-10.476 20.282-85.492-44.158 58.272-112.815 82.736 42.735-10.318 19.976zM236.79 221.014c-1.933 5.531-2.49 10.123-1.672 13.777 1.508 6.662 7.004 12.441 16.486 17.339 5.678 2.933 10.606 4.702 14.78 5.307 7.933 1.125 13.547-1.502 16.842-7.88 1.924-3.724 1.766-7.458-.47-11.2-2.266-3.69-6.578-8.148-12.937-13.371l-10.83-8.988c-10.634-8.853-17.391-15.995-20.273-21.427-4.915-9.132-4.512-19.233 1.207-30.306 5.219-10.103 13.271-16.575 24.163-19.418 10.89-2.842 23.542-.542 37.954 6.902 12.034 6.216 20.671 14.67 25.915 25.36 5.241 10.691 4.972 22.138-.808 34.342l-22.654-11.702c3.086-7.001 2.542-13.39-1.63-19.167-2.793-3.832-6.986-7.195-12.583-10.086-6.225-3.215-11.827-4.557-16.806-4.027-4.98.53-8.602 2.991-10.868 7.379-2.082 4.032-1.806 7.987.828 11.868 1.667 2.543 5.86 6.68 12.576 12.41l17.387 14.895c7.622 6.524 12.716 12.613 15.282 18.268 3.983 8.781 3.38 18.197-1.812 28.248-5.324 10.308-13.73 16.809-25.217 19.505-11.486 2.696-24.5.288-39.044-7.224-14.853-7.672-24.802-17.06-29.846-28.166-5.045-11.104-4.535-22.524 1.528-34.26l22.501 11.622zM365.014 188.446l23.191 11.979-24.01 46.483 67.598-23.97 30.46 15.735-70.26 22.485 14.363 91.556-30.31-15.656-9.322-67.199-17.3 5.649-19.49 37.732-23.191-11.978 58.271-112.816zM441.065 370.642l-23.42-12.097 58.271-112.816 23.42 12.098-58.271 112.815zM596.218 307.868l33.92 17.52-58.272 112.816-21.966-11.346 39.415-76.307a844.923 844.923 0 0 1 4.84-9.183 886.38 886.38 0 0 0 4.8-9.107l-70.28 83.634-22.911-11.835 27.676-105.64a839.839 839.839 0 0 0-4.647 9.186 890.926 890.926 0 0 1-4.688 9.263l-39.414 76.307-21.966-11.346 58.272-112.815 34.302 17.718-25.282 99.313 66.2-78.178zM685.728 484.314c-13.056 4.375-27.645 2.398-43.767-5.93-16.125-8.329-26.18-19.08-30.168-32.259-5.87-16.67-3.572-35.132 6.892-55.39 10.674-20.664 24.399-33.224 41.18-37.678 13.053-4.375 27.642-2.399 43.767 5.93 16.123 8.327 26.178 19.08 30.168 32.258 6.026 16.236 3.705 34.686-6.969 55.35-10.463 20.258-24.166 32.83-41.103 37.72zm-5.878-24.754c9.041-4.056 16.846-12.435 23.408-25.14 6.536-12.654 8.845-23.855 6.933-33.602-1.915-9.747-7.54-17.032-16.877-21.855s-18.567-5.228-27.686-1.211c-9.12 4.015-16.96 12.375-23.523 25.08-6.562 12.706-8.842 23.939-6.838 33.7 2.002 9.76 7.674 17.053 17.012 21.876 9.337 4.823 18.527 5.207 27.57 1.152zM750.582 486.399c-1.934 5.53-2.49 10.123-1.672 13.776 1.508 6.662 7.004 12.442 16.486 17.34 5.678 2.932 10.606 4.702 14.78 5.306 7.934 1.126 13.547-1.501 16.842-7.88 1.924-3.724 1.766-7.457-.47-11.199-2.266-3.691-6.578-8.148-12.937-13.372l-10.83-8.987c-10.634-8.853-17.392-15.996-20.273-21.428-4.915-9.132-4.512-19.233 1.207-30.306 5.219-10.102 13.272-16.575 24.163-19.418 10.89-2.841 23.542-.541 37.954 6.903 12.034 6.216 20.672 14.67 25.915 25.36 5.241 10.69 4.973 22.138-.807 34.341l-22.655-11.701c3.086-7.002 2.542-13.391-1.63-19.167-2.793-3.833-6.986-7.195-12.582-10.086-6.226-3.216-11.827-4.558-16.807-4.028-4.98.531-8.602 2.992-10.868 7.38-2.082 4.03-1.806 7.986.828 11.867 1.668 2.544 5.859 6.68 12.577 12.411l17.386 14.895c7.623 6.523 12.716 12.613 15.282 18.268 3.983 8.78 3.38 18.196-1.812 28.248-5.324 10.307-13.73 16.808-25.216 19.504-11.486 2.696-24.502.288-39.045-7.224-14.853-7.672-24.802-17.06-29.846-28.166-5.044-11.104-4.534-22.524 1.528-34.26l22.501 11.623z"/></g></symbol><symbol viewBox="-5 -5 970 650" id="team-7289-19251926-dark"><g fill="#FFF"><path d="M553.57 588.175v11.824h-2.958v-11.824h-3.422v-2.938h9.802v2.938h-3.423zm16.022 11.824v-8.712l-2.49 5.427h-2.612l-2.49-5.428V600h-2.956v-14.762H562l3.796 7.883 3.796-7.883h2.956V600h-2.956zM534.35 103.754V60.53l-20.539-20.53h-68.07l-20.535 20.53v159.925l20.534 20.53h68.071l20.539-20.53v-43.222h-38.908v21.613H467.35V82.14h28.093v21.614z"/><path d="M680.487 126.836h-99.245c-15.112-1.065-9.083 24.879-5.976 30.577 4.172 7.635 13.08 21.161 13.08 37.111 0 12.594-4.276 22.18-6.352 28.832L480 508.72 378.006 223.356c-2.076-6.651-6.351-16.238-6.351-28.832 0-15.95 8.907-29.476 13.08-37.111 3.106-5.698 9.135-31.642-5.977-30.577h-99.245c-28.303 0-14.248 28.398-6.943 37.426 11.614 14.364 22.661 36.854 23.77 41.065l137.598 394.67h92.124l137.598-394.67c1.109-4.211 12.156-26.7 23.77-41.065 7.305-9.028 21.36-37.426-6.943-37.426z"/></g></symbol><symbol viewBox="-5 -5 970 650" id="team-7289-19251926-light"><g fill="#003087"><path d="M553.57 588.175v11.824h-2.958v-11.824h-3.422v-2.938h9.802v2.938h-3.423zm16.022 11.824v-8.712l-2.49 5.427h-2.612l-2.49-5.428V600h-2.956v-14.762H562l3.796 7.883 3.796-7.883h2.956V600h-2.956zM534.35 103.754V60.53l-20.539-20.53h-68.07l-20.535 20.53v159.925l20.534 20.53h68.071l20.539-20.53v-43.222h-38.908v21.613H467.35V82.14h28.093v21.614z"/><path d="M680.487 126.836h-99.245c-15.112-1.065-9.083 24.879-5.976 30.577 4.172 7.635 13.08 21.161 13.08 37.111 0 12.594-4.276 22.18-6.352 28.832L480 508.72 378.006 223.356c-2.076-6.651-6.351-16.238-6.351-28.832 0-15.95 8.907-29.476 13.08-37.111 3.106-5.698 9.135-31.642-5.977-30.577h-99.245c-28.303 0-14.248 28.398-6.943 37.426 11.614 14.364 22.661 36.854 23.77 41.065l137.598 394.67h92.124l137.598-394.67c1.109-4.211 12.156-26.7 23.77-41.065 7.305-9.028 21.36-37.426-6.943-37.426z"/></g></symbol><symbol viewBox="-5 -5 970 650" id="team-8-19251926-dark"><path fill="#FFF" d="M764.495 509.171v11.825h-2.957v-11.824h-3.423v-2.938h9.802v2.938h-3.422zm16.023 11.825v-8.713l-2.49 5.428h-2.612l-2.49-5.428v8.713h-2.956v-14.762h2.956l3.796 7.883 3.796-7.883h2.956v14.762h-2.956z"/><path fill="#003087" d="M718.944 368.658l-1.276 1.551c-.344.418-34.712 41.327-105.257 57.504V206.105c12.43 2.075 66.129 12.406 115.787 42.877l.91.558 79.431-24.644-14.29-112.677h-71.688l-7.349 16.178c-62.681-25.72-110.582-38.382-209.179-40.668-110.685-2.518-203.07 19.45-267.201 63.558-59.868 41.178-93.194 99.359-96.375 168.254-2.456 53.12 15.885 101.429 53.04 139.703 59.314 61.103 159.914 93.222 291.532 93.222 4.503 0 9.066-.042 13.638-.115 144.863-2.378 262.85-48.53 315.625-123.454l1.47-2.084-98.818-58.155zm-316.323 62.41c-14.322-1.652-85.314-11.866-118.372-54.758-15.192-19.711-20.395-43.788-15.447-71.67.025-.204 2.803-20.645 20.838-43.39 16.523-20.836 49.491-47.692 112.981-58.179v227.997zm138.505 8.024c-2.111.18-4.15.359-6.146.533-10.797.95-20.175 1.767-32.013 1.584-2.947-.05-5.858-.078-8.745-.106-7.301-.073-14.235-.142-21.104-.532l-.726-88.03h68.734v86.551zm.813-147.727h-69.546l.718-95.352a468.372 468.372 0 0 1 33.367-.924c11.701.064 23.622.626 35.461 1.67v94.606z"/><path fill="#FFF" d="M719.959 374.708c-7.175 7.831-43.15 43.875-109.403 58.233l-2.846.62V200.668l2.667.36c.62.086 62.466 8.784 119.368 43.391l73.635-22.841-13.271-104.659H725.59l-7.974 17.554-2.097-.866c-63.173-26.073-110.647-38.885-209.597-41.178a736.22 736.22 0 0 0-16.93-.195c-102.165 0-187.468 21.642-247.497 62.927-58.61 40.31-91.233 97.227-94.343 164.595-2.394 51.794 15.49 98.895 51.715 136.21 59.553 61.351 166.546 93.924 301.725 91.684 142.013-2.332 257.746-46.904 310.37-119.386l-91.004-53.556zm-312.637 61.52l-2.541-.211c-3.507-.285-86.281-7.579-124.246-56.824-16.04-20.808-21.552-46.129-16.378-75.26.092-.745 12.396-86.005 140.452-105.941l2.713-.422v238.658zm138.505 7.193l-2.157.175c-2.879.234-5.62.477-8.277.711-9.846.868-18.48 1.63-28.988 1.63-1.148 0-2.318-.01-3.516-.028-2.934-.05-5.84-.078-8.713-.105-8.14-.083-15.832-.161-23.548-.68l-2.174-.147-.799-97.137h78.172v95.581zm.813-147.356h-78.985l.788-104.449 2.173-.15c11.526-.789 23.592-1.156 35.89-1.078 12.54.069 25.325.702 38.004 1.884l2.13.2v103.593z"/><path fill="#C8102E" d="M722.956 391.022l-1.23 1.12c-48.98 44.508-129.674 69.016-227.215 69.016-102.354 0-180.884-22.768-221.123-64.104-20.558-21.12-30.592-46.317-29.821-74.888 2.428-89.753 108.601-147.172 270.059-146.288 82.535.43 159.818 20.682 217.616 57.024l.932.585 59.541-19.323-12.04-85.08h-43.347l-9.92 21.903c-56.154-32.039-134.406-48.681-232.654-49.47-185.048-1.582-327.466 91.618-331.4 216.534-1.662 52.475 15.495 97.355 50.99 133.39 54.614 55.447 148.758 85.716 265.95 85.716 3.783 0 7.595-.032 11.426-.097 134.888-2.253 241.816-39.71 301.078-105.468l2.001-2.222-70.843-38.348z"/></symbol><symbol viewBox="-5 -5 970 650" id="team-8-19251926-light"><path fill="#003087" d="M764.495 509.171v11.825h-2.957v-11.824h-3.423v-2.938h9.802v2.938h-3.422zm16.023 11.825v-8.713l-2.49 5.428h-2.612l-2.49-5.428v8.713h-2.956v-14.762h2.956l3.796 7.883 3.796-7.883h2.956v14.762h-2.956zM718.944 368.658l-1.276 1.551c-.344.418-34.712 41.327-105.257 57.504V206.105c12.43 2.075 66.129 12.406 115.787 42.877l.91.558 79.431-24.644-14.29-112.677h-71.688l-7.349 16.178c-62.681-25.72-110.582-38.382-209.179-40.668-110.685-2.518-203.07 19.45-267.201 63.558-59.868 41.178-93.194 99.359-96.375 168.254-2.456 53.12 15.885 101.429 53.04 139.703 59.314 61.103 159.914 93.222 291.532 93.222 4.503 0 9.066-.042 13.638-.115 144.863-2.378 262.85-48.53 315.625-123.454l1.47-2.084-98.818-58.155zm-316.323 62.41c-14.322-1.652-85.314-11.866-118.372-54.758-15.192-19.711-20.395-43.788-15.447-71.67.025-.204 2.803-20.645 20.838-43.39 16.523-20.836 49.491-47.692 112.981-58.179v227.997zm138.505 8.024c-2.111.18-4.15.359-6.146.533-10.797.95-20.175 1.767-32.013 1.584-2.947-.05-5.858-.078-8.745-.106-7.301-.073-14.235-.142-21.104-.532l-.726-88.03h68.734v86.551zm.813-147.727h-69.546l.718-95.352a468.372 468.372 0 0 1 33.367-.924c11.701.064 23.622.626 35.461 1.67v94.606z"/><path fill="#FFF" d="M719.959 374.708c-7.175 7.831-43.15 43.875-109.403 58.233l-2.846.62V200.668l2.667.36c.62.086 62.466 8.784 119.368 43.391l73.635-22.841-13.271-104.659H725.59l-7.974 17.554-2.097-.866c-63.173-26.073-110.647-38.885-209.597-41.178a736.22 736.22 0 0 0-16.93-.195c-102.165 0-187.468 21.642-247.497 62.927-58.61 40.31-91.233 97.227-94.343 164.595-2.394 51.794 15.49 98.895 51.715 136.21 59.553 61.351 166.546 93.924 301.725 91.684 142.013-2.332 257.746-46.904 310.37-119.386l-91.004-53.556zm-312.637 61.52l-2.541-.211c-3.507-.285-86.281-7.579-124.246-56.824-16.04-20.808-21.552-46.129-16.378-75.26.092-.745 12.396-86.005 140.452-105.941l2.713-.422v238.658zm138.505 7.193l-2.157.175c-2.879.234-5.62.477-8.277.711-9.846.868-18.48 1.63-28.988 1.63-1.148 0-2.318-.01-3.516-.028-2.934-.05-5.84-.078-8.713-.105-8.14-.083-15.832-.161-23.548-.68l-2.174-.147-.799-97.137h78.172v95.581zm.813-147.356h-78.985l.788-104.449 2.173-.15c11.526-.789 23.592-1.156 35.89-1.078 12.54.069 25.325.702 38.004 1.884l2.13.2v103.593z"/><path fill="#C8102E" d="M722.956 391.022l-1.23 1.12c-48.98 44.508-129.674 69.016-227.215 69.016-102.354 0-180.884-22.768-221.123-64.104-20.558-21.12-30.592-46.317-29.821-74.888 2.428-89.753 108.601-147.172 270.059-146.288 82.535.43 159.818 20.682 217.616 57.024l.932.585 59.541-19.323-12.04-85.08h-43.347l-9.92 21.903c-56.154-32.039-134.406-48.681-232.654-49.47-185.048-1.582-327.466 91.618-331.4 216.534-1.662 52.475 15.495 97.355 50.99 133.39 54.614 55.447 148.758 85.716 265.95 85.716 3.783 0 7.595-.032 11.426-.097 134.888-2.253 241.816-39.71 301.078-105.468l2.001-2.222-70.843-38.348z"/></symbol><symbol viewBox="-5 -5 970 650" id="team-99-19251926-dark"><path fill="#FE5000" d="M703.85 591.977v15.827h-3.958v-15.827h-4.581v-3.932h13.12v3.932h-4.58zm21.447 15.827v-11.662l-3.333 7.265h-3.495l-3.334-7.265v11.662h-3.956v-19.76h3.956l5.082 10.553 5.08-10.552h3.958v19.759h-3.957z"/><path fill="#010101" d="M653.503 24.133S551.618 60.206 479.998 0c-71.62 60.206-173.506 24.133-173.506 24.133-60.5 76.437-84.995 97.392-108.185 106.244 0 0 20.533 20.954 20.533 77.621 0 61.386-19.478 126.315-19.478 197.738 0 252.04 260.01 197.147 280.636 234.264 20.627-37.118 280.638 17.776 280.638-234.264 0-71.423-19.478-136.352-19.478-197.738 0-56.667 20.535-77.621 20.535-77.621-23.19-8.852-47.689-29.807-108.19-106.244z"/><g fill="#FE5000"><path d="M723.449 207.998c0-33.42 6.65-56.15 13.207-70.446-20.119-12.713-44.814-37.166-89.576-93.058-29.352 7.674-104.98 21.107-167.082-22.204-62.102 43.311-137.732 29.878-167.086 22.204-44.758 55.892-69.452 80.345-89.572 93.058 6.553 14.296 13.207 37.026 13.207 70.446 0 63.45-19.478 127.496-19.478 197.738 0 222.234 218.395 184.752 262.929 211.715 44.534-26.963 262.93 10.519 262.93-211.715 0-70.242-19.48-134.288-19.48-197.738zM319.695 64.297c35.177 7.52 101.517 14.354 160.303-20.927 58.788 35.281 125.125 28.448 160.298 20.927 30.472 37.565 52.668 61.536 71.422 76.928-3.145 4.518-11.924 21.217-11.924 66.773 0 48.53 16.679 84.871 23.018 148.22L295.435 93.334c7.491-8.65 15.527-18.271 24.26-29.037zm160.303 533.627c-39.546-31.282-245.22 16.175-245.22-192.188 0-45.009 5.53-78.008 11.432-106.493l409.613 251.956c-63.574 38.097-151.393 27.398-175.825 46.725zm191.725-57.74l-421.59-259.318c5.362-24.762 10.067-47.1 10.067-72.868 0-45.556-8.775-62.255-11.92-66.773 10.406-8.54 21.884-19.742 35.24-34.432l440.957 271.235c.47 8.73.743 17.922.743 27.708 0 68.516-22.24 109.365-53.497 134.447z"/><path d="M276 285.94l75.362-123.878 19.942 12.131-8.752 108.019 50.326-82.727 19.098 11.618-75.362 123.878-20.618-12.543 8.245-105.663-49.145 80.782L276 285.941zM407.267 366.33l75.362-123.879 20.45 12.44-29.662 48.758 48.833 29.789 29.662-48.758 20.45 12.442L497 421l-20.45-12.44 32.95-54.166-48.831-29.789-32.952 54.165-20.45-12.44zM550.552 454.589l74.745-122.863 20.45 12.44-61.996 101.907 63.998 38.976L635 506.005l-84.448-51.416z"/></g></symbol><symbol viewBox="-5 -5 970 650" id="team-99-19251926-light"><path fill="#010101" d="M703.85 591.977v15.827h-3.958v-15.827h-4.581v-3.932h13.12v3.932h-4.58zm21.447 15.827v-11.662l-3.333 7.265h-3.495l-3.334-7.265v11.662h-3.956v-19.76h3.956l5.082 10.553 5.08-10.552h3.958v19.759h-3.957zM653.503 24.133S551.618 60.206 479.998 0c-71.62 60.206-173.506 24.133-173.506 24.133-60.5 76.437-84.995 97.392-108.185 106.244 0 0 20.533 20.954 20.533 77.621 0 61.386-19.478 126.315-19.478 197.738 0 252.04 260.01 197.147 280.636 234.264 20.627-37.118 280.638 17.776 280.638-234.264 0-71.423-19.478-136.352-19.478-197.738 0-56.667 20.535-77.621 20.535-77.621-23.19-8.852-47.689-29.807-108.19-106.244z"/><g fill="#FE5000"><path d="M723.449 207.998c0-33.42 6.65-56.15 13.207-70.446-20.119-12.713-44.814-37.166-89.576-93.058-29.352 7.674-104.98 21.107-167.082-22.204-62.102 43.311-137.732 29.878-167.086 22.204-44.758 55.892-69.452 80.345-89.572 93.058 6.553 14.296 13.207 37.026 13.207 70.446 0 63.45-19.478 127.496-19.478 197.738 0 222.234 218.395 184.752 262.929 211.715 44.534-26.963 262.93 10.519 262.93-211.715 0-70.242-19.48-134.288-19.48-197.738zM319.695 64.297c35.177 7.52 101.517 14.354 160.303-20.927 58.788 35.281 125.125 28.448 160.298 20.927 30.472 37.565 52.668 61.536 71.422 76.928-3.145 4.518-11.924 21.217-11.924 66.773 0 48.53 16.679 84.871 23.018 148.22L295.435 93.334c7.491-8.65 15.527-18.271 24.26-29.037zm160.303 533.627c-39.546-31.282-245.22 16.175-245.22-192.188 0-45.009 5.53-78.008 11.432-106.493l409.613 251.956c-63.574 38.097-151.393 27.398-175.825 46.725zm191.725-57.74l-421.59-259.318c5.362-24.762 10.067-47.1 10.067-72.868 0-45.556-8.775-62.255-11.92-66.773 10.406-8.54 21.884-19.742 35.24-34.432l440.957 271.235c.47 8.73.743 17.922.743 27.708 0 68.516-22.24 109.365-53.497 134.447z"/><path d="M276 285.94l75.362-123.878 19.942 12.131-8.752 108.019 50.326-82.727 19.098 11.618-75.362 123.878-20.618-12.543 8.245-105.663-49.145 80.782L276 285.941zM407.267 366.33l75.362-123.879 20.45 12.44-29.662 48.758 48.833 29.789 29.662-48.758 20.45 12.442L497 421l-20.45-12.44 32.95-54.166-48.831-29.789-32.952 54.165-20.45-12.44zM550.552 454.589l74.745-122.863 20.45 12.44-61.996 101.907 63.998 38.976L635 506.005l-84.448-51.416z"/></g></symbol></svg>