<?xml version="1.0" encoding="iso-8859-1"?>
<!-- Generator: Adobe Illustrator 19.0.0, SVG Export Plug-In . SVG Version: 6.00 Build 0)  -->
<svg fill="#2B313A" width="10pt" height="10pt" version="1.1" id="Capa_1" xmlns="http://www.w3.org/2000/svg" xmlns:xlink="http://www.w3.org/1999/xlink" x="0px" y="0px"
	 viewBox="0 0 512 512" style="enable-background:new 0 0 512 512;" xml:space="preserve">
<g>
	<g>
		<path d="M465.875,215.583c-32.896-18.021-76.198-42.958-122.031-69.375C256.396,95.833,157.281,38.729,87.375,4.646
			C81.01,1.563,74.281,0,67.385,0C41.99,0,21.333,20.521,21.333,45.729L21.354,256l-0.021,210.25
			c0,25.229,20.656,45.75,46.052,45.75c6.927,0,13.656-1.583,20.021-4.688c69.948-34.104,169.177-91.271,256.719-141.708
			c45.729-26.354,88.917-51.229,121.75-69.229c15.521-8.5,24.792-23.604,24.792-40.396
			C490.667,239.188,481.396,224.083,465.875,215.583z"/>
	</g>
</g>
<g>
</g>
<g>
</g>
<g>
</g>
<g>
</g>
<g>
</g>
<g>
</g>
<g>
</g>
<g>
</g>
<g>
</g>
<g>
</g>
<g>
</g>
<g>
</g>
<g>
</g>
<g>
</g>
<g>
</g>
</svg>
