<?xml version="1.0" encoding="iso-8859-1"?>
<!-- Generator: Adobe Illustrator 19.0.0, SVG Export Plug-In . SVG Version: 6.00 Build 0)  -->
<svg version="1.1" id="Capa_1" xmlns="http://www.w3.org/2000/svg" xmlns:xlink="http://www.w3.org/1999/xlink" x="0px" y="0px"
	 viewBox="0 0 53.88 53.88" style="enable-background:new 0 0 53.88 53.88;" xml:space="preserve">
<path style="fill:#E64C3C;" d="M44.421,1.984C42.603,0.636,40.354,0,38.092,0l-7.394,0l-8.688,0c-0.388,0-0.772,0.045-1.147,0.143
	c-1.903,0.501-7.41,2.516-7.41,9.054L15.943,37c0,0,3.226,2.06,9,3l0.006-5.51c0-3.207,2.913-5.557,6.129-5.489
	c3.231,0.068,5.865,2.993,5.865,6.224l0,4.774c5.987-0.925,9-3,9-3l2-27.803C47.943,5.575,46.252,3.341,44.421,1.984z"/>
<g>
	<path style="fill:#38454F;" d="M36.943,40v13c5.311-0.893,8-3,8-3V37.569C43.61,38.252,40.944,39.382,36.943,40z"/>
	<path style="fill:#38454F;" d="M16.943,50c0,0,3.197,1.986,8,3V40c-3.902-0.635-6.634-1.78-8-2.457V50z"/>
</g>
<path style="fill:#ED7161;" d="M42.943,16c-0.552,0-1-0.447-1-1c0-4.963-4.038-9-9-9c-0.552,0-1-0.447-1-1s0.448-1,1-1
	c6.065,0,11,4.935,11,11C43.943,15.553,43.495,16,42.943,16z"/>
<path style="fill:#C03A2B;" d="M5.943,16.701v7.653c0,0.767,0.281,1.507,0.791,2.081L15.943,37l-2.151-24.009
	C11.494,12.844,5.739,12.766,5.943,16.701z"/>
<path style="fill:#E6E7E8;" d="M24.949,34.49c0-3.162,2.832-5.49,5.994-5.49h0c3.162,0,6,2.443,6,5.605V53l0,0
	c-4.982,1.15-7.305,1.198-12,0L24.949,34.49z"/>
<g>
	<path style="fill:#556080;" d="M32.357,37l2.293-2.293c0.391-0.391,0.391-1.023,0-1.414s-1.023-0.391-1.414,0l-2.293,2.293
		l-2.293-2.293c-0.391-0.391-1.023-0.391-1.414,0s-0.391,1.023,0,1.414L29.529,37l-2.293,2.293c-0.391,0.391-0.391,1.023,0,1.414
		C27.431,40.902,27.687,41,27.943,41s0.512-0.098,0.707-0.293l2.293-2.293l2.293,2.293C33.431,40.902,33.687,41,33.943,41
		s0.512-0.098,0.707-0.293c0.391-0.391,0.391-1.023,0-1.414L32.357,37z"/>
	<path style="fill:#556080;" d="M34.65,43.293c-0.391-0.391-1.023-0.391-1.414,0l-2.293,2.293l-2.293-2.293
		c-0.391-0.391-1.023-0.391-1.414,0s-0.391,1.023,0,1.414L29.529,47l-2.293,2.293c-0.391,0.391-0.391,1.023,0,1.414
		C27.431,50.902,27.687,51,27.943,51s0.512-0.098,0.707-0.293l2.293-2.293l2.293,2.293C33.431,50.902,33.687,51,33.943,51
		s0.512-0.098,0.707-0.293c0.391-0.391,0.391-1.023,0-1.414L32.357,47l2.293-2.293C35.04,44.316,35.04,43.684,34.65,43.293z"/>
</g>
<g>
</g>
<g>
</g>
<g>
</g>
<g>
</g>
<g>
</g>
<g>
</g>
<g>
</g>
<g>
</g>
<g>
</g>
<g>
</g>
<g>
</g>
<g>
</g>
<g>
</g>
<g>
</g>
<g>
</g>
</svg>
