<?xml version="1.0" encoding="UTF-8"?>
<svg width="30px" height="30px" viewBox="0 0 30 30" version="1.1" xmlns="http://www.w3.org/2000/svg" xmlns:xlink="http://www.w3.org/1999/xlink">
    <!-- Generator: Sketch 47.1 (45422) - http://www.bohemiancoding.com/sketch -->
    <title>logo</title>
    <desc>Created with Sketch.</desc>
    <defs></defs>
    <g id="r" stroke="none" stroke-width="1" fill="none" fill-rule="evenodd">
        <g id="logo">
            <circle id="Oval-3" fill="#2B313A" cx="15" cy="15" r="15"></circle>
            <path d="M7.06395349,18.8992036 L7.06395349,22.8567307 C10.1719348,23.2517642 12.397041,22.9941367 13.7392721,22.0838484 C15.7526188,20.7184158 17.0115136,14.2536477 18.5718639,12.8278275 C19.6120974,11.8772807 21.0609271,11.5131638 22.918353,11.7354767 L22.918353,7.08176583 C20.3478467,6.88516775 18.7340803,6.96458995 18.0770536,7.32003244 C17.7009087,7.52352176 16.4575008,7.87061508 15.2455823,9.59698417 C14.9022869,10.086006 14.4616909,11.1629537 13.9237942,12.8278275 C13.4521944,14.108055 13.1360312,14.9873954 12.9753046,15.4658487 C12.4765455,16.9505628 11.9528764,17.8661701 11.8443629,18.0814296 C11.4233749,18.9165487 9.82990506,19.1891401 7.06395349,18.8992036 Z" id="Path-5" fill="#FFFFFF"></path>
        </g>
    </g>
</svg>