<?xml version="1.0" encoding="iso-8859-1"?>
<!-- Generator: Adobe Illustrator 19.0.0, SVG Export Plug-In . SVG Version: 6.00 Build 0)  -->
<svg version="1.1" id="Capa_1" xmlns="http://www.w3.org/2000/svg" xmlns:xlink="http://www.w3.org/1999/xlink" x="0px" y="0px"
	 viewBox="0 0 512.001 512.001" style="enable-background:new 0 0 512.001 512.001;" xml:space="preserve">
<path style="fill:#FCBF29;" d="M481.045,30.901c-4.456-4.456-9.549-8.7-15.067-12.52C430.966-6.02,383.86-6.02,348.634,17.745
	c-29.707,19.946-47.108,53.049-46.683,88.273c0.212,25.253-10.397,50.716-29.708,70.027l-18.258,18.47
	c-5.942,5.942-5.942,15.278,0,21.22l42.439,42.439c5.942,5.942,15.278,5.942,21.22,0l18.047-18.258
	c23.341-23.341,53.898-29.282,75.542-30.131c26.312-0.849,51.139-11.671,69.813-30.344
	C522.848,137.637,521.363,71.22,481.045,30.901z"/>
<path style="fill:#FEA832;" d="M296.424,258.173l-21.22-21.22L481.045,30.901c40.318,40.318,41.802,106.736,0,148.538
	c-18.674,18.674-43.5,29.494-69.813,30.344c-21.645,0.849-52.201,6.79-75.542,30.131l-18.047,18.258
	C311.701,264.116,302.366,264.116,296.424,258.173z"/>
<path style="fill:#00AADF;" d="M360.083,279.394L232.764,152.075c-17.612-17.612-46.046-17.612-63.66,0l-21.22,21.22
	c-5.942,5.942-5.942,15.278,0,21.22l169.758,169.758c5.942,5.942,15.278,5.942,21.22,0l21.22-21.22
	C377.696,325.44,377.696,297.006,360.083,279.394z"/>
<path style="fill:#98D400;" d="M232.764,279.394c-52.837-52.837-140.141-50.837-192.979,2.001s-52.837,138.141,0,190.978
	s138.141,52.837,190.978,0S285.602,332.23,232.764,279.394z M82.226,429.932c-29.283-29.283-29.283-76.816,0-106.099
	s78.816-31.284,108.099-2.001s27.282,78.816-2.001,108.099S111.509,459.215,82.226,429.932z"/>
<path style="fill:#0091BF;" d="M360.083,343.053l-21.22,21.22c-5.942,5.942-15.278,5.942-21.22,0l-84.879-84.879l63.66-63.66
	l63.66,63.66C377.696,297.006,377.696,325.44,360.083,343.053z"/>
<path style="fill:#7FBF00;" d="M230.764,472.372c-52.837,52.837-138.141,52.837-190.978,0l42.44-42.439
	c29.283,29.283,76.816,29.283,106.099,0s31.284-78.816,2.001-108.099l42.439-42.439C285.602,332.23,283.601,419.535,230.764,472.372
	z"/>
<path style="fill:#00C0F1;" d="M360.083,364.272L147.885,152.075c-17.612-17.612-46.046-17.612-63.66,0l-42.439,42.439
	c-5.942,5.942-5.942,15.278,0,21.22L296.423,470.37c5.942,5.942,15.278,5.942,21.22,0l42.439-42.439
	C377.696,410.319,377.696,381.886,360.083,364.272z"/>
<path style="fill:#00AADF;" d="M360.083,427.932l-42.439,42.439c-5.942,5.942-15.278,5.942-21.22,0L169.105,343.053l84.879-84.879
	l106.099,106.099C377.696,381.886,377.696,410.319,360.083,427.932z"/>
<g>
</g>
<g>
</g>
<g>
</g>
<g>
</g>
<g>
</g>
<g>
</g>
<g>
</g>
<g>
</g>
<g>
</g>
<g>
</g>
<g>
</g>
<g>
</g>
<g>
</g>
<g>
</g>
<g>
</g>
</svg>
