<?xml version="1.0" encoding="utf-8"?><svg xmlns="http://www.w3.org/2000/svg" xmlns:xlink="http://www.w3.org/1999/xlink"><symbol viewBox="-5 -5 970 650" id="team-36-19191920-dark"><path fill="#FFF" d="M637.902 612.749v11.824h-2.957v-11.824h-3.422v-2.938h9.802v2.938h-3.423zm16.023 11.824v-8.713l-2.49 5.428h-2.611l-2.49-5.427v8.712h-2.957v-14.762h2.956l3.797 7.883 3.795-7.883h2.957v14.762h-2.957z"/><path fill="#C8102E" d="M668.306 87.084C622.959 30.113 557.844 0 480 0c-77.844 0-142.958 30.113-188.305 87.084-44.796 56.28-68.474 136.82-68.474 232.914 0 96.098 23.678 176.64 68.474 232.92C337.041 609.889 402.155 640 480 640c77.845 0 142.96-30.113 188.305-87.081 44.797-56.28 68.474-136.823 68.474-232.92 0-96.095-23.677-176.636-68.473-232.915zM353.849 319.998c0-41.01 3.98-99.797 22.946-146.973 9.807-24.397 22.712-43.346 38.356-56.322C432.827 102.043 454.645 94.61 480 94.61c25.355 0 47.174 7.434 64.851 22.095 15.644 12.975 28.55 31.924 38.357 56.321 18.964 47.175 22.945 105.963 22.945 146.973 0 41.01-3.98 99.799-22.945 146.975-9.807 24.399-22.713 43.35-38.356 56.325-17.678 14.661-39.496 22.096-64.852 22.096-25.354 0-47.173-7.434-64.849-22.096-15.644-12.976-28.55-31.926-38.356-56.325-18.965-47.178-22.946-105.966-22.946-146.975z"/><path fill="#FFF" d="M480 10.156c-152.125 0-246.623 118.726-246.623 309.842 0 191.127 94.498 309.846 246.623 309.846 152.126 0 246.623-118.72 246.623-309.846 0-191.116-94.497-309.842-246.623-309.842zm0 545.394c-118.6 0-136.307-147.586-136.307-235.552 0-87.969 17.706-235.545 136.307-235.545 118.606 0 136.309 147.576 136.309 235.545 0 87.966-17.703 235.552-136.31 235.552z"/><path fill="#010101" d="M706.585 319.998c0-160.105-70.24-289.804-226.585-289.804-156.343 0-226.588 129.7-226.588 289.804 0 160.107 70.245 289.813 226.588 289.813 156.346 0 226.585-129.706 226.585-289.813zm-382.928 0c0-141.144 43.323-255.58 156.343-255.58 113.021 0 156.346 114.436 156.346 255.58 0 141.153-43.325 255.588-156.346 255.588-113.02 0-156.343-114.435-156.343-255.588z"/></symbol><symbol viewBox="-5 -5 970 650" id="team-36-19191920-light"><path fill="#010101" d="M637.902 612.749v11.824h-2.957v-11.824h-3.422v-2.938h9.802v2.938h-3.423zm16.023 11.824v-8.713l-2.49 5.428h-2.611l-2.49-5.427v8.712h-2.957v-14.762h2.956l3.797 7.883 3.795-7.883h2.957v14.762h-2.957z"/><path fill="#C8102E" d="M668.306 87.084C622.959 30.113 557.844 0 480 0c-77.844 0-142.958 30.113-188.305 87.084-44.796 56.28-68.474 136.82-68.474 232.914 0 96.098 23.678 176.64 68.474 232.92C337.041 609.889 402.155 640 480 640c77.845 0 142.96-30.113 188.305-87.081 44.797-56.28 68.474-136.823 68.474-232.92 0-96.095-23.677-176.636-68.473-232.915zM353.849 319.998c0-41.01 3.98-99.797 22.946-146.973 9.807-24.397 22.712-43.346 38.356-56.322C432.827 102.043 454.645 94.61 480 94.61c25.355 0 47.174 7.434 64.851 22.095 15.644 12.975 28.55 31.924 38.357 56.321 18.964 47.175 22.945 105.963 22.945 146.973 0 41.01-3.98 99.799-22.945 146.975-9.807 24.399-22.713 43.35-38.356 56.325-17.678 14.661-39.496 22.096-64.852 22.096-25.354 0-47.173-7.434-64.849-22.096-15.644-12.976-28.55-31.926-38.356-56.325-18.965-47.178-22.946-105.966-22.946-146.975z"/><path fill="#FFF" d="M480 10.156c-152.125 0-246.623 118.726-246.623 309.842 0 191.127 94.498 309.846 246.623 309.846 152.126 0 246.623-118.72 246.623-309.846 0-191.116-94.497-309.842-246.623-309.842zm0 545.394c-118.6 0-136.307-147.586-136.307-235.552 0-87.969 17.706-235.545 136.307-235.545 118.606 0 136.309 147.576 136.309 235.545 0 87.966-17.703 235.552-136.31 235.552z"/><path fill="#010101" d="M706.585 319.998c0-160.105-70.24-289.804-226.585-289.804-156.343 0-226.588 129.7-226.588 289.804 0 160.107 70.245 289.813 226.588 289.813 156.346 0 226.585-129.706 226.585-289.813zm-382.928 0c0-141.144 43.323-255.58 156.343-255.58 113.021 0 156.346 114.436 156.346 255.58 0 141.153-43.325 255.588-156.346 255.588-113.02 0-156.343-114.435-156.343-255.588z"/></symbol><symbol viewBox="-5 -5 970 650" id="team-42-19191920-dark"><g fill="#FFF"><path d="M675.236 622.769v11.824h-2.957v-11.824h-3.423v-2.938h9.802v2.938h-3.422zm16.023 11.824v-8.713l-2.49 5.428h-2.612l-2.49-5.428v8.713h-2.956V619.83h2.956l3.796 7.883 3.796-7.883h2.956v14.762h-2.956z"/><path d="M766.418 300.458C766.418 134.52 638.184 0 480 0S193.582 134.52 193.582 300.458 321.815 600.917 480 600.917c4.921 0 9.813-.131 14.673-.389L530.683 640h131.041l-61.1-66.973c97.906-47.761 165.794-151.84 165.794-272.569zm-229.62 202.608l-51.98-56.976h-131.04l41.397 45.376c-66.568-34.052-112.673-106.868-112.673-191.008C282.502 183.816 371.1 88.921 480 88.921c108.9 0 197.498 94.895 197.498 211.537 0 95.502-59.399 176.412-140.7 202.608z"/></g></symbol><symbol viewBox="-5 -5 970 650" id="team-42-19191920-light"><path fill="#2E3192" d="M675.236 622.769v11.824h-2.957v-11.824h-3.423v-2.938h9.802v2.938h-3.422zm16.023 11.824v-8.713l-2.49 5.428h-2.612l-2.49-5.428v8.713h-2.956V619.83h2.956l3.796 7.883 3.796-7.883h2.956v14.762h-2.956z"/><path fill="#0033A0" d="M766.418 300.458C766.418 134.52 638.184 0 480 0S193.582 134.52 193.582 300.458 321.815 600.917 480 600.917c4.921 0 9.813-.131 14.673-.389L530.683 640h131.041l-61.1-66.973c97.906-47.761 165.794-151.84 165.794-272.569zm-229.62 202.608l-51.98-56.976h-131.04l41.397 45.376c-66.568-34.052-112.673-106.868-112.673-191.008C282.502 183.816 371.1 88.921 480 88.921c108.9 0 197.498 94.895 197.498 211.537 0 95.502-59.399 176.412-140.7 202.608z"/></symbol><symbol viewBox="-5 -5 970 650" id="team-58-19191920-dark"><g fill="#FFF"><path d="M850.71 465.196v11.824h-2.957v-11.824h-3.422v-2.938h9.802v2.938h-3.423zm16.023 11.824v-8.712l-2.49 5.428h-2.611l-2.49-5.428v8.712h-2.957v-14.762h2.956l3.797 7.884 3.795-7.884h2.957v14.762h-2.957zM667.817 173.671l24.578 2.396-13.731 141.089c-5.945-.467-41.285-3.699-41.285-3.699-12.782-37.268-42.523-121.8-44.272-123.072l-9.468 117.28-24.747-2.396 13.771-141.373c13.485 1.39 41.158 4.565 41.158 4.565 13.12 36.94 42.524 120.182 44.634 121.797l9.362-116.587zM386.778 247.527c2.446.652 4.17 1.216 5.936 1.565 8.234 1.626 13.759 6.581 15.083 14.683 2.177 13.322 3.437 26.795 5.2 41.144-8.406.652-26.296 1.805-26.296 1.805s-.943-18.395-1.407-25.463c-1.046-15.906-7.028-21.186-23.04-19.856-11.102.922-19 1.103-28.454 2.043-6.172.613-6.07 1.728-5.71 7.7 1.26 12.681 2.857 38.447 2.784 39.754l-24.506 1.804c-.739-8.614-1.533-16.766-2.121-24.933-2.63-36.534-5.723-80.31-8.536-116.83 0 0 51.323-3.276 73.14-4.545 3.019-.176 6.09-.011 9.1.325 12.399 1.385 21.33 7.425 24.925 19.77 3.717 12.762 4.584 25.806 3.291 39.062-.994 10.2-6.16 16.83-15.711 20.241-1.062.38-2.053.959-3.678 1.731zm-60.638-6.187c15.38-1.446 30.054-2.533 44.636-4.352 5.3-.66 9.799-4.411 9.788-10.109-.018-9.986-.658-20.033-1.974-29.93-.643-4.846-5.265-7.455-10.016-7.302-15.078.485-30.14 1.469-45.967 2.3l3.533 49.393zM214.907 330.295c-23.518.445-34.767-7.155-39.734-21.8-4.776-14.082-7.93-28.772-10.977-43.366-2.678-12.827-5.203-25.83-6.031-38.866-1.183-18.633 5.637-28.307 23.195-34.576 15.858-5.662 32.292-9.147 49.244-9.25 18.492-.11 28.993 6.512 34.764 24.301 4.469 13.774 6.953 28.21 10.01 42.418 2.04 9.475 4.205 19.002 5.152 28.62 2.788 28.3-8.913 38.703-28.062 44.21-14.68 4.22-29.875 6.652-37.56 8.31zm-.758-22.893c8.068-1.723 16.29-2.93 24.171-5.282 14.787-4.413 18.815-11.118 16.342-26.33-1.49-9.165-3.446-18.26-5.336-27.356-2.012-9.68-3.94-19.39-6.38-28.965-2.109-8.273-7.558-13.719-16.385-13.559-12.79.232-25.407 2.4-36.611 8.965-2.709 1.588-5.549 5.71-5.54 8.66.025 8.967.774 18.05 2.416 26.868 2.731 14.666 5.838 29.31 9.82 43.678 2.803 10.116 7.356 12.591 17.503 13.321zM481.21 163.076c9.635.985 19.498.178 28.936 2.123 18.386 3.79 28.12 13.827 28.779 32.465.885 25.005.607 50.142-.937 75.113-1.178 19.055-12.58 30.783-31.539 32.776-15.354 1.615-31.187 1.574-46.52-.213-20.313-2.369-30.113-11.605-31.26-32.38-1.476-26.74-.964-53.787 1.335-80.474 1.702-19.742 14.149-28.286 35.427-29.37 5.247-.267 10.519-.04 15.779-.04.022-.333-.022.334 0 0zm33.033 69.388c-.16-.007.16.008 0 0 0-9.313.38-18.647-.099-27.936-.561-10.888-4.955-16.37-15.64-17.578-9.75-1.104-19.734-.567-29.59-.167-8.75.355-13.92 5.635-14.666 14.169a580.805 580.805 0 0 0-2.064 38.095c-.205 9.494.138 19.04.935 28.504.812 9.647 5.24 14.66 14.123 15.475 9.01.828 18.18 1.112 27.19.434 12.303-.925 17.02-5.409 18.455-17.665 1.29-11.023.795-22.222 1.356-33.33zM130.266 352.695l-23.76 8.1-38.402-112.573-36.534 12.242L24 238.758l97.333-33.19 7.497 21.684-36.825 12.834 38.261 112.609zM525.913 475.874c3.122-10.876 6.074-21.338 9.13-31.769 5.624-19.2 18.438-63.605 18.438-63.605h24.394s20.546 68.987 28.589 95.787c-4.895 0-15.29.146-15.29.146l-6.307-18.196c-5.673 0-32.512-.11-32.512-.11l-4.725.022s-5.505 17.899-5.627 18.284l-16.09-.559zm25.421-31.539h29.536c-4.826-16.552-14.278-50.91-14.768-50.857-4.59 15.797-9.963 34.324-14.768 50.857zM433.488 476.04H418.42v-94.531c16.521 0 32.84-.406 49.124.154 9.583.33 15.37 6.598 16.202 15.915.872 9.786 1.358 19.814.21 29.522-1.411 11.91-7.467 16.765-19.574 17.606-8.066.561-30.88.296-30.88.296l-.014 31.038zm.51-79.741v32.917c9.409 0 18.442.31 27.439-.13 4.481-.22 7.337-3.503 7.596-8.08.296-5.22.288-10.488-.045-15.706-.296-4.655-2.812-8.57-7.614-8.85-8.978-.524-18.007-.151-27.376-.151zM703.094 380.966v14.716s-17.615.082-24.837.082V475.9h-16.105s-.075-58.135.254-80.217c0 0-19.01.087-25.109.087v-14.803h65.797zM283.071 449.654h-10.652s-.17-40.073.232-53.212l-15.844-.023v-9.554h42.565v9.221l-16.3.128c-.002 12.14 0 34.112-.001 46.252v7.188zM750.188 330.372l-24.59-5.053c7.976-38.852 15.877-77.347 23.916-116.513l-37.701-7.951 4.469-22.55 100.733 20.69-4.52 22.493-38.252-7.589-24.055 116.473zM890.396 220.606c8.823 3.995 18.432 6.364 26.762 11.207 16.228 9.436 22.268 22.046 16.97 39.928-7.106 23.99-15.357 47.735-24.756 70.922-7.172 17.693-21.71 25.19-40.32 21.055-15.07-3.348-30.07-8.418-44.04-14.985-18.508-8.7-24.865-20.572-19.351-40.634 7.097-25.824 16.177-51.306 26.838-75.88 7.887-18.177 22.404-22.323 42.923-16.59 5.06 1.414 9.986 3.305 14.974 4.977.127-.31-.126.309 0 0zm9.272 76.288c-.15-.058.15.059 0 0 2.96-8.83 6.286-17.56 8.784-26.52 2.927-10.501.503-17.095-9.244-21.637-8.894-4.144-18.53-6.808-28.004-9.561-8.41-2.444-14.988.92-18.408 8.774a580.746 580.746 0 0 0-14.062 35.465c-3.212 8.937-5.92 18.097-8.172 27.324-2.295 9.405.31 15.564 8.474 19.16 8.28 3.648 16.885 6.832 25.643 9.053 11.959 3.031 17.857.28 23.112-10.886 4.726-10.041 7.815-20.817 11.877-31.172zM778.267 476.895c-12.038-1.045-18.888-7.86-19.602-19.819-.19-3.187-.029-6.394-.029-9.994 5.095 0 10.508.01 15.243.01 0 0-1.536 15.262 14.94 15.516 3.029.121 6.067.072 9.098.003 4.579-.104 9.273-.559 11.281-5.447 2.386-5.81 3.13-12.19-.663-17.446-1.65-2.285-5.821-3.36-9.01-3.795-6.8-.929-13.743-.789-20.563-1.614-12.58-1.522-17.277-6.214-19.458-18.633-.21-1.197-.507-2.382-.641-3.587-2.4-21.568 5.75-31.21 27.28-32.112a153.49 153.49 0 0 1 14.584.086c18.415.982 25.545 9.334 23.94 28.274-4.928 0-10.5.002-15.476-.002 0 0 1.453-13.463-13.946-13.35-3.036.022-6.081.017-9.109.224-8.626.591-11.506 3.467-11.678 11.464-.201 9.384 2.582 12.5 11.733 13.344 8.263.763 16.544 1.418 24.764 2.518 8.902 1.192 13.516 4.945 14.634 13.663.992 7.731 1.2 15.85-.027 23.513-1.879 11.735-7.611 16.003-19.446 17.154-2.13.207-25.92.197-27.849.03zM171.442 476.477c-12.038-1.045-18.888-7.859-19.602-19.818-.19-3.187-.029-6.394-.029-9.994 5.095 0 10.508.009 15.243.009 0 0-1.536 15.262 14.94 15.517 3.029.12 6.067.072 9.098.003 4.579-.104 9.273-.56 11.281-5.448 2.386-5.81 3.13-12.19-.663-17.446-1.65-2.284-5.82-3.36-9.009-3.795-6.801-.928-13.743-.788-20.564-1.613-12.58-1.522-17.276-6.214-19.458-18.634-.21-1.196-.507-2.382-.641-3.586-2.4-21.568 5.75-31.21 27.28-32.112a153.49 153.49 0 0 1 14.584.086c18.414.982 25.545 9.333 23.94 28.273-4.929 0-10.5.003-15.477-.002 0 0 1.454-13.463-13.945-13.35-3.036.022-6.081.017-9.109.225-8.626.59-11.506 3.466-11.678 11.464-.201 9.384 2.582 12.499 11.733 13.344 8.262.763 16.544 1.418 24.764 2.518 8.902 1.191 13.516 4.944 14.634 13.662.992 7.732 1.2 15.85-.027 23.513-1.879 11.735-7.611 16.004-19.446 17.154-2.13.207-25.92.198-27.849.03z"/></g></symbol><symbol viewBox="-5 -5 970 650" id="team-58-19191920-light"><g fill="#046A38"><path d="M850.71 465.196v11.824h-2.957v-11.824h-3.422v-2.938h9.802v2.938h-3.423zm16.023 11.824v-8.712l-2.49 5.428h-2.611l-2.49-5.428v8.712h-2.957v-14.762h2.956l3.797 7.884 3.795-7.884h2.957v14.762h-2.957zM667.817 173.671l24.578 2.396-13.731 141.089c-5.945-.467-41.285-3.699-41.285-3.699-12.782-37.268-42.523-121.8-44.272-123.072l-9.468 117.28-24.747-2.396 13.771-141.373c13.485 1.39 41.158 4.565 41.158 4.565 13.12 36.94 42.524 120.182 44.634 121.797l9.362-116.587zM386.778 247.527c2.446.652 4.17 1.216 5.936 1.565 8.234 1.626 13.759 6.581 15.083 14.683 2.177 13.322 3.437 26.795 5.2 41.144-8.406.652-26.296 1.805-26.296 1.805s-.943-18.395-1.407-25.463c-1.046-15.906-7.028-21.186-23.04-19.856-11.102.922-19 1.103-28.454 2.043-6.172.613-6.07 1.728-5.71 7.7 1.26 12.681 2.857 38.447 2.784 39.754l-24.506 1.804c-.739-8.614-1.533-16.766-2.121-24.933-2.63-36.534-5.723-80.31-8.536-116.83 0 0 51.323-3.276 73.14-4.545 3.019-.176 6.09-.011 9.1.325 12.399 1.385 21.33 7.425 24.925 19.77 3.717 12.762 4.584 25.806 3.291 39.062-.994 10.2-6.16 16.83-15.711 20.241-1.062.38-2.053.959-3.678 1.731zm-60.638-6.187c15.38-1.446 30.054-2.533 44.636-4.352 5.3-.66 9.799-4.411 9.788-10.109-.018-9.986-.658-20.033-1.974-29.93-.643-4.846-5.265-7.455-10.016-7.302-15.078.485-30.14 1.469-45.967 2.3l3.533 49.393zM214.907 330.295c-23.518.445-34.767-7.155-39.734-21.8-4.776-14.082-7.93-28.772-10.977-43.366-2.678-12.827-5.203-25.83-6.031-38.866-1.183-18.633 5.637-28.307 23.195-34.576 15.858-5.662 32.292-9.147 49.244-9.25 18.492-.11 28.993 6.512 34.764 24.301 4.469 13.774 6.953 28.21 10.01 42.418 2.04 9.475 4.205 19.002 5.152 28.62 2.788 28.3-8.913 38.703-28.062 44.21-14.68 4.22-29.875 6.652-37.56 8.31zm-.758-22.893c8.068-1.723 16.29-2.93 24.171-5.282 14.787-4.413 18.815-11.118 16.342-26.33-1.49-9.165-3.446-18.26-5.336-27.356-2.012-9.68-3.94-19.39-6.38-28.965-2.109-8.273-7.558-13.719-16.385-13.559-12.79.232-25.407 2.4-36.611 8.965-2.709 1.588-5.549 5.71-5.54 8.66.025 8.967.774 18.05 2.416 26.868 2.731 14.666 5.838 29.31 9.82 43.678 2.803 10.116 7.356 12.591 17.503 13.321zM481.21 163.076c9.635.985 19.498.178 28.936 2.123 18.386 3.79 28.12 13.827 28.779 32.465.885 25.005.607 50.142-.937 75.113-1.178 19.055-12.58 30.783-31.539 32.776-15.354 1.615-31.187 1.574-46.52-.213-20.313-2.369-30.113-11.605-31.26-32.38-1.476-26.74-.964-53.787 1.335-80.474 1.702-19.742 14.149-28.286 35.427-29.37 5.247-.267 10.519-.04 15.779-.04.022-.333-.022.334 0 0zm33.033 69.388c-.16-.007.16.008 0 0 0-9.313.38-18.647-.099-27.936-.561-10.888-4.955-16.37-15.64-17.578-9.75-1.104-19.734-.567-29.59-.167-8.75.355-13.92 5.635-14.666 14.169a580.805 580.805 0 0 0-2.064 38.095c-.205 9.494.138 19.04.935 28.504.812 9.647 5.24 14.66 14.123 15.475 9.01.828 18.18 1.112 27.19.434 12.303-.925 17.02-5.409 18.455-17.665 1.29-11.023.795-22.222 1.356-33.33zM130.266 352.695l-23.76 8.1-38.402-112.573-36.534 12.242L24 238.758l97.333-33.19 7.497 21.684-36.825 12.834 38.261 112.609zM525.913 475.874c3.122-10.876 6.074-21.338 9.13-31.769 5.624-19.2 18.438-63.605 18.438-63.605h24.394s20.546 68.987 28.589 95.787c-4.895 0-15.29.146-15.29.146l-6.307-18.196c-5.673 0-32.512-.11-32.512-.11l-4.725.022s-5.505 17.899-5.627 18.284l-16.09-.559zm25.421-31.539h29.536c-4.826-16.552-14.278-50.91-14.768-50.857-4.59 15.797-9.963 34.324-14.768 50.857zM433.488 476.04H418.42v-94.531c16.521 0 32.84-.406 49.124.154 9.583.33 15.37 6.598 16.202 15.915.872 9.786 1.358 19.814.21 29.522-1.411 11.91-7.467 16.765-19.574 17.606-8.066.561-30.88.296-30.88.296l-.014 31.038zm.51-79.741v32.917c9.409 0 18.442.31 27.439-.13 4.481-.22 7.337-3.503 7.596-8.08.296-5.22.288-10.488-.045-15.706-.296-4.655-2.812-8.57-7.614-8.85-8.978-.524-18.007-.151-27.376-.151zM703.094 380.966v14.716s-17.615.082-24.837.082V475.9h-16.105s-.075-58.135.254-80.217c0 0-19.01.087-25.109.087v-14.803h65.797zM283.071 449.654h-10.652s-.17-40.073.232-53.212l-15.844-.023v-9.554h42.565v9.221l-16.3.128c-.002 12.14 0 34.112-.001 46.252v7.188zM750.188 330.372l-24.59-5.053c7.976-38.852 15.877-77.347 23.916-116.513l-37.701-7.951 4.469-22.55 100.733 20.69-4.52 22.493-38.252-7.589-24.055 116.473zM890.396 220.606c8.823 3.995 18.432 6.364 26.762 11.207 16.228 9.436 22.268 22.046 16.97 39.928-7.106 23.99-15.357 47.735-24.756 70.922-7.172 17.693-21.71 25.19-40.32 21.055-15.07-3.348-30.07-8.418-44.04-14.985-18.508-8.7-24.865-20.572-19.351-40.634 7.097-25.824 16.177-51.306 26.838-75.88 7.887-18.177 22.404-22.323 42.923-16.59 5.06 1.414 9.986 3.305 14.974 4.977.127-.31-.126.309 0 0zm9.272 76.288c-.15-.058.15.059 0 0 2.96-8.83 6.286-17.56 8.784-26.52 2.927-10.501.503-17.095-9.244-21.637-8.894-4.144-18.53-6.808-28.004-9.561-8.41-2.444-14.988.92-18.408 8.774a580.746 580.746 0 0 0-14.062 35.465c-3.212 8.937-5.92 18.097-8.172 27.324-2.295 9.405.31 15.564 8.474 19.16 8.28 3.648 16.885 6.832 25.643 9.053 11.959 3.031 17.857.28 23.112-10.886 4.726-10.041 7.815-20.817 11.877-31.172zM778.267 476.895c-12.038-1.045-18.888-7.86-19.602-19.819-.19-3.187-.029-6.394-.029-9.994 5.095 0 10.508.01 15.243.01 0 0-1.536 15.262 14.94 15.516 3.029.121 6.067.072 9.098.003 4.579-.104 9.273-.559 11.281-5.447 2.386-5.81 3.13-12.19-.663-17.446-1.65-2.285-5.821-3.36-9.01-3.795-6.8-.929-13.743-.789-20.563-1.614-12.58-1.522-17.277-6.214-19.458-18.633-.21-1.197-.507-2.382-.641-3.587-2.4-21.568 5.75-31.21 27.28-32.112a153.49 153.49 0 0 1 14.584.086c18.415.982 25.545 9.334 23.94 28.274-4.928 0-10.5.002-15.476-.002 0 0 1.453-13.463-13.946-13.35-3.036.022-6.081.017-9.109.224-8.626.591-11.506 3.467-11.678 11.464-.201 9.384 2.582 12.5 11.733 13.344 8.263.763 16.544 1.418 24.764 2.518 8.902 1.192 13.516 4.945 14.634 13.663.992 7.731 1.2 15.85-.027 23.513-1.879 11.735-7.611 16.003-19.446 17.154-2.13.207-25.92.197-27.849.03zM171.442 476.477c-12.038-1.045-18.888-7.859-19.602-19.818-.19-3.187-.029-6.394-.029-9.994 5.095 0 10.508.009 15.243.009 0 0-1.536 15.262 14.94 15.517 3.029.12 6.067.072 9.098.003 4.579-.104 9.273-.56 11.281-5.448 2.386-5.81 3.13-12.19-.663-17.446-1.65-2.284-5.82-3.36-9.009-3.795-6.801-.928-13.743-.788-20.564-1.613-12.58-1.522-17.276-6.214-19.458-18.634-.21-1.196-.507-2.382-.641-3.586-2.4-21.568 5.75-31.21 27.28-32.112a153.49 153.49 0 0 1 14.584.086c18.414.982 25.545 9.333 23.94 28.273-4.929 0-10.5.003-15.477-.002 0 0 1.454-13.463-13.945-13.35-3.036.022-6.081.017-9.109.225-8.626.59-11.506 3.466-11.678 11.464-.201 9.384 2.582 12.499 11.733 13.344 8.262.763 16.544 1.418 24.764 2.518 8.902 1.191 13.516 4.944 14.634 13.662.992 7.732 1.2 15.85-.027 23.513-1.879 11.735-7.611 16.004-19.446 17.154-2.13.207-25.92.198-27.849.03z"/></g></symbol><symbol viewBox="-5 -5 970 650" id="team-7286-19191920-dark"><path fill="#FFF" d="M624.159 620.191v11.824h-2.957v-11.824h-3.423v-2.937h9.803v2.937h-3.423zm16.023 11.824v-8.712l-2.49 5.428h-2.612l-2.49-5.428v8.713h-2.956v-14.762h2.956l3.796 7.883 3.796-7.883h2.956v14.761h-2.956z"/><path fill="#154734" d="M485.866 640c-12.801 0-21.458-.814-23.56-1.033-46.066-1.112-93.195-19.404-136.319-52.915-32.45-25.217-51.13-49.917-51.91-50.956l-5.19-6.919 91.716-82.543 6.339 5.963c24.073 22.645 61.257 50.427 101.695 54.183 23.752 2.209 37.698-5.078 37.834-5.153 19.156-10.618 30.12-23.41 32.534-37.987 4.002-24.173-15.892-46.445-16.093-46.668l-.671-.739-.501-.865c-10.7-18.426-71.417-60.27-93.908-74.839l-.137-.09c-44.529-29.942-63.893-59.926-66.442-64.077-33.709-46.27-37.285-90.826-34.34-120.087 3.062-30.423 13.503-50.83 14.88-53.411 16.746-34.405 45.704-62.264 83.754-80.569 27.707-13.33 50.698-17.102 53.03-17.46C540.33-7.116 592.972 7.45 626.26 21.606c36.106 15.354 57.524 33.23 58.42 33.983l6.434 5.423-68.424 103.618-7.756-4.617c-34.806-20.717-83.595-42.723-118.38-29.907-20.685 7.623-26.982 24.655-27.04 24.824l-.13.36c-15.127 39.22 51.23 90.356 78.076 106.75 94.418 58.34 117.8 111.277 120.372 117.723 27.214 54.3 21.906 103.405 12.642 135.072-9.826 33.59-25.814 54.814-27.163 56.565-25.35 33.875-66.61 56.281-119.322 64.796C515.435 639.194 498.6 640 485.866 640z"/><path fill="#A6192E" d="M360.461 458.486l-78.817 70.936s73.3 97.734 181.28 100.098c0 0 124.531 14.187 182.856-63.842 0 0 63.842-81.97 13.399-182.068 0 0-19.704-53.596-116.65-113.497 0 0-103.25-63.054-81.97-118.226 0 0 26.798-78.818 159.211 0l58.813-89.064s-83.246-70.147-198.47-49.655c0 0-91.278 13.4-129.898 93.005 0 0-43.35 78.817 18.916 163.94 0 0 18.128 30.739 63.842 61.477 0 0 82.758 53.596 96.945 78.03 0 0 53.596 59.113-18.916 99.31 0 0-60.886 33.891-150.541-50.444z"/><g fill="#FFF"><path d="M445.19 86.862V71.493h-53.202V157.798h53.202v-15.37h-31.921V122.33h27.192v-15.37h-27.192V86.863zM443.492 286.23h21.977l-22.16-85.952h-30.753l-22.16 85.952h21.977l4.917-19.073h21.285l4.917 19.073zm-22.24-34.442l6.68-25.909 6.68 25.909h-13.36zM603.219 528.24v-70.936h-21.281V543.61h53.202v-15.37zM555.337 287.847h-62.66v16.551h20.69v69.754h21.28v-69.754h20.69zM628.637 346.566h-62.66v16.551h20.69v69.754h21.28v-69.754h20.69zM551.002 543.61v-15.37h-53.201v86.305h53.201v-15.37h-31.921v-20.098h27.192v-15.37h-27.192V543.61zM555.337 43.715V29.523l-13.793-8.274h-36.65l-13.202 8.274v33.103l13.202 8.768h29.162v19.407h-21.083v-7.096h-21.281v14.192l13.202 8.273h36.65l13.793-8.273V64.793l-13.793-8.768h-28.571V36.619h21.083v7.096z"/></g></symbol><symbol viewBox="-5 -5 970 650" id="team-7286-19191920-light"><path fill="#154734" d="M624.159 620.191v11.824h-2.957v-11.824h-3.423v-2.937h9.803v2.937h-3.423zm16.023 11.824v-8.712l-2.49 5.428h-2.612l-2.49-5.428v8.713h-2.956v-14.762h2.956l3.796 7.883 3.796-7.883h2.956v14.761h-2.956zM485.866 640c-12.801 0-21.458-.814-23.56-1.033-46.066-1.112-93.195-19.404-136.319-52.915-32.45-25.217-51.13-49.917-51.91-50.956l-5.19-6.919 91.716-82.543 6.339 5.963c24.073 22.645 61.257 50.427 101.695 54.183 23.752 2.209 37.698-5.078 37.834-5.153 19.156-10.618 30.12-23.41 32.534-37.987 4.002-24.173-15.892-46.445-16.093-46.668l-.671-.739-.501-.865c-10.7-18.426-71.417-60.27-93.908-74.839l-.137-.09c-44.529-29.942-63.893-59.926-66.442-64.077-33.709-46.27-37.285-90.826-34.34-120.087 3.062-30.423 13.503-50.83 14.88-53.411 16.746-34.405 45.704-62.264 83.754-80.569 27.707-13.33 50.698-17.102 53.03-17.46C540.33-7.116 592.972 7.45 626.26 21.606c36.106 15.354 57.524 33.23 58.42 33.983l6.434 5.423-68.424 103.618-7.756-4.617c-34.806-20.717-83.595-42.723-118.38-29.907-20.685 7.623-26.982 24.655-27.04 24.824l-.13.36c-15.127 39.22 51.23 90.356 78.076 106.75 94.418 58.34 117.8 111.277 120.372 117.723 27.214 54.3 21.906 103.405 12.642 135.072-9.826 33.59-25.814 54.814-27.163 56.565-25.35 33.875-66.61 56.281-119.322 64.796C515.435 639.194 498.6 640 485.866 640z"/><path fill="#A6192E" d="M360.461 458.486l-78.817 70.936s73.3 97.734 181.28 100.098c0 0 124.531 14.187 182.856-63.842 0 0 63.842-81.97 13.399-182.068 0 0-19.704-53.596-116.65-113.497 0 0-103.25-63.054-81.97-118.226 0 0 26.798-78.818 159.211 0l58.813-89.064s-83.246-70.147-198.47-49.655c0 0-91.278 13.4-129.898 93.005 0 0-43.35 78.817 18.916 163.94 0 0 18.128 30.739 63.842 61.477 0 0 82.758 53.596 96.945 78.03 0 0 53.596 59.113-18.916 99.31 0 0-60.886 33.891-150.541-50.444z"/><g fill="#FFF"><path d="M445.19 86.862V71.493h-53.202V157.798h53.202v-15.37h-31.921V122.33h27.192v-15.37h-27.192V86.863zM443.492 286.23h21.977l-22.16-85.952h-30.753l-22.16 85.952h21.977l4.917-19.073h21.285l4.917 19.073zm-22.24-34.442l6.68-25.909 6.68 25.909h-13.36zM603.219 528.24v-70.936h-21.281V543.61h53.202v-15.37zM555.337 287.847h-62.66v16.551h20.69v69.754h21.28v-69.754h20.69zM628.637 346.566h-62.66v16.551h20.69v69.754h21.28v-69.754h20.69zM551.002 543.61v-15.37h-53.201v86.305h53.201v-15.37h-31.921v-20.098h27.192v-15.37h-27.192V543.61zM555.337 43.715V29.523l-13.793-8.274h-36.65l-13.202 8.274v33.103l13.202 8.768h29.162v19.407h-21.083v-7.096h-21.281v14.192l13.202 8.273h36.65l13.793-8.273V64.793l-13.793-8.768h-28.571V36.619h21.083v7.096z"/></g></symbol><symbol viewBox="-5 -5 970 650" id="team-7288-19191920-dark"><path fill="#DDCBA4" d="M593.603 619.388v11.824h-2.957v-11.824h-3.423v-2.938h9.802v2.938h-3.422zm16.023 11.824v-8.713l-2.49 5.428h-2.612l-2.49-5.428v8.713h-2.956V616.45h2.956l3.796 7.883 3.795-7.883h2.957v14.762h-2.956zM559.309 0v119.722h42.431L479.584 469.918l-122.17-350.196h43.265V0h-226.51v119.722h48.168L394.409 640h170.335l172.061-520.278h49.026V0H559.31z"/><g fill="#6F263D"><path d="M305.163 21.136l-22.387 67.52-22.386-67.52h-24.122l34.14 102.973h24.736l34.141-102.973zM346.569 244.269h24.122L336.55 141.295h-24.735L277.674 244.27h24.122l8.598-25.933h27.577l8.598 25.933zm-28.584-48.83l6.197-18.69 6.197 18.69h-12.394zM395.938 270.975h-20.31v55.445l-35.196-55.44v-.005h-20.31V374.01h20.31v-55.44l35.195 55.44h20.31zM414.743 467.169v6.712a4.906 4.906 0 0 1-4.907 4.906h-20.511a4.906 4.906 0 0 1-4.906-4.906v-50.053a4.906 4.906 0 0 1 4.906-4.906h20.511a4.906 4.906 0 0 1 4.906 4.906v5.725h21.262v-15.538c0-9.032-7.323-16.354-16.355-16.354h-40.137c-9.032 0-16.355 7.322-16.355 16.354v69.679c0 9.032 7.323 16.355 16.355 16.355h40.137c9.033 0 16.355-7.323 16.355-16.355v-16.525h-21.262zM500.068 508.88H459.932c-9.033 0-16.355 7.323-16.355 16.356v69.678c0 9.032 7.322 16.355 16.355 16.355H500.068c9.033 0 16.355-7.323 16.355-16.355V525.236c0-9.033-7.322-16.355-16.355-16.355zm-4.906 58.776V585.1a4.906 4.906 0 0 1-4.907 4.906h-20.511a4.906 4.906 0 0 1-4.906-4.906v-50.053a4.906 4.906 0 0 1 4.906-4.906h20.512a4.906 4.906 0 0 1 4.906 4.906V567.657zM575.817 397.337v76.868a4.906 4.906 0 0 1-4.907 4.906H550.4a4.906 4.906 0 0 1-4.907-4.906v-76.868h-21.261v86.68c0 9.033 7.322 16.355 16.354 16.355h40.137c9.033 0 16.355-7.322 16.355-16.355v-86.68h-21.261zM633.731 271.006l-22.386 67.52-22.387-67.52h-24.122l34.141 102.974h24.735l34.141-102.974zM678.615 170.362v-22.896l-71.962-.103V250.4h71.962v-22.897h-51.651v-17.121h36.931v-22.897h-36.931v-17.122zM696.54 85.367C703.885 82.017 709 74.629 709 66.03V42.69c0-11.742-9.519-21.261-21.261-21.261h-51.585v102.388h21.26V87.29h17.221l13.24 36.525h22.614l-13.949-38.45zm-13.708-42.602a4.906 4.906 0 0 1 4.907 4.907v13.375a4.906 4.906 0 0 1-4.907 4.907h-25.417V42.766h25.417z"/></g></symbol><symbol viewBox="-5 -5 970 650" id="team-7288-19191920-light"><path fill="#6F263D" d="M593.603 619.388v11.824h-2.957v-11.824h-3.423v-2.938h9.802v2.938h-3.422zm16.023 11.824v-8.713l-2.49 5.428h-2.612l-2.49-5.428v8.713h-2.956V616.45h2.956l3.796 7.883 3.795-7.883h2.957v14.762h-2.956zM559.309 0v119.722h42.431L479.584 469.918l-122.17-350.196h43.265V0h-226.51v119.722h48.168L394.409 640h170.335l172.061-520.278h49.026V0H559.31z"/><g fill="#DDCBA4"><path d="M305.163 21.136l-22.387 67.52-22.386-67.52h-24.122l34.14 102.973h24.736l34.141-102.973zM346.569 244.269h24.122L336.55 141.295h-24.735L277.674 244.27h24.122l8.598-25.933h27.577l8.598 25.933zm-28.584-48.83l6.197-18.69 6.197 18.69h-12.394zM395.938 270.975h-20.31v55.445l-35.196-55.44v-.005h-20.31V374.01h20.31v-55.44l35.195 55.44h20.31zM414.743 467.169v6.712a4.906 4.906 0 0 1-4.907 4.906h-20.511a4.906 4.906 0 0 1-4.906-4.906v-50.053a4.906 4.906 0 0 1 4.906-4.906h20.511a4.906 4.906 0 0 1 4.906 4.906v5.725h21.262v-15.538c0-9.032-7.323-16.354-16.355-16.354h-40.137c-9.032 0-16.355 7.322-16.355 16.354v69.679c0 9.032 7.323 16.355 16.355 16.355h40.137c9.033 0 16.355-7.323 16.355-16.355v-16.525h-21.262zM500.068 508.88H459.932c-9.033 0-16.355 7.323-16.355 16.356v69.678c0 9.032 7.322 16.355 16.355 16.355H500.068c9.033 0 16.355-7.323 16.355-16.355V525.236c0-9.033-7.322-16.355-16.355-16.355zm-4.906 58.776V585.1a4.906 4.906 0 0 1-4.907 4.906h-20.511a4.906 4.906 0 0 1-4.906-4.906v-50.053a4.906 4.906 0 0 1 4.906-4.906h20.512a4.906 4.906 0 0 1 4.906 4.906V567.657zM575.817 397.337v76.868a4.906 4.906 0 0 1-4.907 4.906H550.4a4.906 4.906 0 0 1-4.907-4.906v-76.868h-21.261v86.68c0 9.033 7.322 16.355 16.354 16.355h40.137c9.033 0 16.355-7.322 16.355-16.355v-86.68h-21.261zM633.731 271.006l-22.386 67.52-22.387-67.52h-24.122l34.141 102.974h24.735l34.141-102.974zM678.615 170.362v-22.896l-71.962-.103V250.4h71.962v-22.897h-51.651v-17.121h36.931v-22.897h-36.931v-17.122zM696.54 85.367C703.885 82.017 709 74.629 709 66.03V42.69c0-11.742-9.519-21.261-21.261-21.261h-51.585v102.388h21.26V87.29h17.221l13.24 36.525h22.614l-13.949-38.45zm-13.708-42.602a4.906 4.906 0 0 1 4.907 4.907v13.375a4.906 4.906 0 0 1-4.907 4.907h-25.417V42.766h25.417z"/></g></symbol><symbol viewBox="-5 -5 970 650" id="team-8-19191920-dark"><path fill="#FFF" d="M792.51 520.555v11.824h-2.958v-11.824h-3.422v-2.938h9.802v2.938h-3.423zm16.022 11.824v-8.712l-2.49 5.427h-2.612l-2.49-5.427v8.712h-2.956v-14.762h2.956l3.796 7.884 3.796-7.884h2.956v14.762h-2.956z"/><path fill="#C8102E" d="M613.662 465.55V174.45c112.925 21.084 159.567 67.713 159.567 67.713L854.96 200C768.04 81.297 492.364 80 492.364 80c-402.81 8.757-387.243 240-387.243 240S89.554 551.243 492.364 560c0 0 275.676-1.297 362.595-120l-81.73-42.162s-46.642 46.63-159.567 67.713zM492.364 164.325c17.095-.11 33.289.37 48.65 1.318v127.115h-97.298V166.326c29.069-2.355 48.648-2.002 48.648-2.002zM197.23 320c5.02-88.915 94.658-127.097 173.838-143.466v286.932C291.887 447.096 202.25 408.916 197.23 320zm295.135 155.676s-19.58.353-48.648-2.002V352.432h97.297v121.926c-15.36.948-31.554 1.428-48.649 1.318z"/></symbol><symbol viewBox="-5 -5 970 650" id="team-8-19191920-light"><g fill="#C8102E"><path d="M792.51 520.555v11.824h-2.958v-11.824h-3.422v-2.938h9.802v2.938h-3.423zm16.022 11.824v-8.712l-2.49 5.427h-2.612l-2.49-5.427v8.712h-2.956v-14.762h2.956l3.796 7.884 3.796-7.884h2.956v14.762h-2.956zM613.662 465.55V174.45c112.925 21.084 159.567 67.713 159.567 67.713L854.96 200C768.04 81.297 492.364 80 492.364 80c-402.81 8.757-387.243 240-387.243 240S89.554 551.243 492.364 560c0 0 275.676-1.297 362.595-120l-81.73-42.162s-46.642 46.63-159.567 67.713zM492.364 164.325c17.095-.11 33.289.37 48.65 1.318v127.115h-97.298V166.326c29.069-2.355 48.648-2.002 48.648-2.002zM197.23 320c5.02-88.915 94.658-127.097 173.838-143.466v286.932C291.887 447.096 202.25 408.916 197.23 320zm295.135 155.676s-19.58.353-48.648-2.002V352.432h97.297v121.926c-15.36.948-31.554 1.428-48.649 1.318z"/></g></symbol><symbol viewBox="-5 -5 970 650" id="team-99-19191920-dark"><path fill="#FE5000" d="M703.85 591.977v15.827h-3.958v-15.827h-4.581v-3.932h13.12v3.932h-4.58zm21.447 15.827v-11.662l-3.333 7.265h-3.495l-3.334-7.265v11.662h-3.956v-19.76h3.956l5.082 10.553 5.08-10.552h3.958v19.759h-3.957z"/><path fill="#010101" d="M653.503 24.133S551.618 60.206 479.998 0c-71.62 60.206-173.506 24.133-173.506 24.133-60.5 76.437-84.995 97.392-108.185 106.244 0 0 20.533 20.954 20.533 77.621 0 61.386-19.478 126.315-19.478 197.738 0 252.04 260.01 197.147 280.636 234.264 20.627-37.118 280.638 17.776 280.638-234.264 0-71.423-19.478-136.352-19.478-197.738 0-56.667 20.535-77.621 20.535-77.621-23.19-8.852-47.689-29.807-108.19-106.244z"/><g fill="#FE5000"><path d="M723.449 207.998c0-33.42 6.65-56.15 13.207-70.446-20.119-12.713-44.814-37.166-89.576-93.058-29.352 7.674-104.98 21.107-167.082-22.204-62.102 43.311-137.732 29.878-167.086 22.204-44.758 55.892-69.452 80.345-89.572 93.058 6.553 14.296 13.207 37.026 13.207 70.446 0 63.45-19.478 127.496-19.478 197.738 0 222.234 218.395 184.752 262.929 211.715 44.534-26.963 262.93 10.519 262.93-211.715 0-70.242-19.48-134.288-19.48-197.738zM319.695 64.297c35.177 7.52 101.517 14.354 160.303-20.927 58.788 35.281 125.125 28.448 160.298 20.927 30.472 37.565 52.668 61.536 71.422 76.928-3.145 4.518-11.924 21.217-11.924 66.773 0 48.53 16.679 84.871 23.018 148.22L295.435 93.334c7.491-8.65 15.527-18.271 24.26-29.037zm160.303 533.627c-39.546-31.282-245.22 16.175-245.22-192.188 0-45.009 5.53-78.008 11.432-106.493l409.613 251.956c-63.574 38.097-151.393 27.398-175.825 46.725zm191.725-57.74l-421.59-259.318c5.362-24.762 10.067-47.1 10.067-72.868 0-45.556-8.775-62.255-11.92-66.773 10.406-8.54 21.884-19.742 35.24-34.432l440.957 271.235c.47 8.73.743 17.922.743 27.708 0 68.516-22.24 109.365-53.497 134.447z"/><path d="M276 285.94l75.362-123.878 19.942 12.131-8.752 108.019 50.326-82.727 19.098 11.618-75.362 123.878-20.618-12.543 8.245-105.663-49.145 80.782L276 285.941zM407.267 366.33l75.362-123.879 20.45 12.44-29.662 48.758 48.833 29.789 29.662-48.758 20.45 12.442L497 421l-20.45-12.44 32.95-54.166-48.831-29.789-32.952 54.165-20.45-12.44zM550.552 454.589l74.745-122.863 20.45 12.44-61.996 101.907 63.998 38.976L635 506.005l-84.448-51.416z"/></g></symbol><symbol viewBox="-5 -5 970 650" id="team-99-19191920-light"><path fill="#010101" d="M703.85 591.977v15.827h-3.958v-15.827h-4.581v-3.932h13.12v3.932h-4.58zm21.447 15.827v-11.662l-3.333 7.265h-3.495l-3.334-7.265v11.662h-3.956v-19.76h3.956l5.082 10.553 5.08-10.552h3.958v19.759h-3.957zM653.503 24.133S551.618 60.206 479.998 0c-71.62 60.206-173.506 24.133-173.506 24.133-60.5 76.437-84.995 97.392-108.185 106.244 0 0 20.533 20.954 20.533 77.621 0 61.386-19.478 126.315-19.478 197.738 0 252.04 260.01 197.147 280.636 234.264 20.627-37.118 280.638 17.776 280.638-234.264 0-71.423-19.478-136.352-19.478-197.738 0-56.667 20.535-77.621 20.535-77.621-23.19-8.852-47.689-29.807-108.19-106.244z"/><g fill="#FE5000"><path d="M723.449 207.998c0-33.42 6.65-56.15 13.207-70.446-20.119-12.713-44.814-37.166-89.576-93.058-29.352 7.674-104.98 21.107-167.082-22.204-62.102 43.311-137.732 29.878-167.086 22.204-44.758 55.892-69.452 80.345-89.572 93.058 6.553 14.296 13.207 37.026 13.207 70.446 0 63.45-19.478 127.496-19.478 197.738 0 222.234 218.395 184.752 262.929 211.715 44.534-26.963 262.93 10.519 262.93-211.715 0-70.242-19.48-134.288-19.48-197.738zM319.695 64.297c35.177 7.52 101.517 14.354 160.303-20.927 58.788 35.281 125.125 28.448 160.298 20.927 30.472 37.565 52.668 61.536 71.422 76.928-3.145 4.518-11.924 21.217-11.924 66.773 0 48.53 16.679 84.871 23.018 148.22L295.435 93.334c7.491-8.65 15.527-18.271 24.26-29.037zm160.303 533.627c-39.546-31.282-245.22 16.175-245.22-192.188 0-45.009 5.53-78.008 11.432-106.493l409.613 251.956c-63.574 38.097-151.393 27.398-175.825 46.725zm191.725-57.74l-421.59-259.318c5.362-24.762 10.067-47.1 10.067-72.868 0-45.556-8.775-62.255-11.92-66.773 10.406-8.54 21.884-19.742 35.24-34.432l440.957 271.235c.47 8.73.743 17.922.743 27.708 0 68.516-22.24 109.365-53.497 134.447z"/><path d="M276 285.94l75.362-123.878 19.942 12.131-8.752 108.019 50.326-82.727 19.098 11.618-75.362 123.878-20.618-12.543 8.245-105.663-49.145 80.782L276 285.941zM407.267 366.33l75.362-123.879 20.45 12.44-29.662 48.758 48.833 29.789 29.662-48.758 20.45 12.442L497 421l-20.45-12.44 32.95-54.166-48.831-29.789-32.952 54.165-20.45-12.44zM550.552 454.589l74.745-122.863 20.45 12.44-61.996 101.907 63.998 38.976L635 506.005l-84.448-51.416z"/></g></symbol></svg>