<svg height="512pt" viewBox="0 -79 512.00401 512" width="512pt" xmlns="http://www.w3.org/2000/svg"><path d="m512 17.660156v317.792969c.027344 2.113281-.363281 4.214844-1.148438 6.179687-2.351562 6.210938-7.96875 10.601563-14.566406 11.386719-.640625.074219-1.292968.105469-1.941406.085938h-476.6875c-.648438.019531-1.296875-.011719-1.941406-.085938-6.597656-.785156-12.210938-5.175781-14.566406-11.386719-.785157-1.964843-1.1757818-4.066406-1.148438-6.179687v-317.792969c-.0273438-2.113281.363281-4.214844 1.148438-6.179687 2.355468-6.210938 7.96875-10.601563 14.566406-11.386719.644531-.0742188 1.292968-.1054688 1.941406-.0859375h476.6875c.648438-.0195313 1.300781.0117187 1.941406.0859375 6.597656.785156 12.214844 5.175781 14.566406 11.386719.785157 1.964843 1.175782 4.066406 1.148438 6.179687zm0 0" fill="#285680"/><path d="m512 17.660156c.027344-2.113281-.363281-4.214844-1.148438-6.179687-2.351562-6.210938-7.96875-10.601563-14.566406-11.386719-.640625-.0742188-1.292968-.1054688-1.941406-.0859375h-28.953125l-156.425781 107.8710935v-107.8710935h-105.929688v107.8710935l-156.425781-107.8710935h-28.953125c-.648438-.0195313-1.296875.0117187-1.941406.0859375-6.597656.785156-12.210938 5.175781-14.566406 11.386719-.785157 1.964843-1.1757818 4.066406-1.148438 6.179687v14.476563l132.589844 91.453125h-132.58593775v105.933594h132.49999975l-132.49999975 91.453124v14.476563c-.03125005 2.113281.35937475 4.214844 1.14843775 6.179687 2.351562 6.210938 7.964844 10.601563 14.5625 11.386719.644531.074219 1.292968.105469 1.945312.085938h28.953125l156.421875-107.871094v107.871094h105.929688v-107.871094l156.425781 107.871094h28.953125c.648438.019531 1.296875-.011719 1.941406-.085938 6.597656-.785156 12.210938-5.175781 14.566406-11.386719.785157-1.964843 1.175782-4.066406 1.148438-6.179687v-14.476563l-132.589844-91.453124h132.589844v-105.933594h-132.503906l132.503906-91.453125zm0 0" fill="#ecf0f1"/><g fill="#c03a2b"><path d="m510.851562 341.632812c-2.351562 6.210938-7.96875 10.601563-14.566406 11.386719l-179.109375-123.496093h31.25zm0 0"/><path d="m194.824219 123.589844h-31.25l-162.425781-112.109375c2.355468-6.210938 7.96875-10.601563 14.566406-11.386719zm0 0"/><path d="m510.851562 11.480469-162.601562 112.109375h-30.988281l179.023437-123.496094c6.597656.785156 12.214844 5.175781 14.566406 11.386719zm0 0"/><path d="m194.738281 229.523438-179.023437 123.496093c-6.597656-.785156-12.210938-5.175781-14.566406-11.386719l162.605468-112.109374zm0 0"/><path d="m.00390625 158.902344h511.99609375v35.308594h-511.99609375zm0 0"/><path d="m238.34375.0078125h35.3125v353.0976565h-35.3125zm0 0"/></g></svg>