<?xml version="1.0" encoding="iso-8859-1"?>
<!-- Generator: Adobe Illustrator 19.0.0, SVG Export Plug-In . SVG Version: 6.00 Build 0)  -->
<svg version="1.1" id="Capa_1" xmlns="http://www.w3.org/2000/svg" xmlns:xlink="http://www.w3.org/1999/xlink" x="0px" y="0px"
	 viewBox="0 0 512 512" style="enable-background:new 0 0 512 512;" xml:space="preserve">
<g transform="matrix(1.25 0 0 -1.25 0 45)">
	<g>
		<g>
			<path style="fill:#00AFCA;" d="M409.6-271.2c0-25.134-20.378-45.511-45.511-45.511H45.511C20.378-316.711,0-296.334,0-271.2
				v204.8c0,25.134,20.378,45.511,45.511,45.511h318.578c25.134,0,45.511-20.378,45.511-45.511V-271.2z"/>
			<g>
				<path style="fill:#FFCC4D;" d="M216.633-119.273c18.022,0,32.597-14.598,32.597-32.597c0-18.022-14.575-32.609-32.597-32.609
					c-18,0-32.597,14.586-32.597,32.609C184.036-133.87,198.633-119.273,216.633-119.273"/>
				<path style="fill:#FFCC4D;" d="M216.633-116.826c1.934,0.023,2.64,1.24,2.64,2.685c0,1.934-2.64,17.021-2.64,17.021
					s-2.685-15.087-2.685-17.021C213.948-115.586,214.676-116.826,216.633-116.826"/>
				<path style="fill:#FFCC4D;" d="M216.633-187.118c-1.957-0.011-2.685-1.229-2.685-2.674c0-1.946,2.685-16.839,2.685-16.839
					s2.64,14.894,2.64,16.839C219.273-188.347,218.567-187.118,216.633-187.118"/>
				<path style="fill:#FFCC4D;" d="M207.485-185.742c-1.877,0.478-2.867-0.512-3.243-1.911c-0.501-1.866-1.855-17.135-1.855-17.135
					s6.497,13.892,6.997,15.758C209.761-187.63,209.374-186.242,207.485-185.742"/>
				<path style="fill:#FFCC4D;" d="M225.69-117.839c1.889-0.501,2.913,0.501,3.288,1.889c0.501,1.877,1.752,16.953,1.752,16.953
					s-6.394-13.687-6.906-15.576C223.448-115.962,223.812-117.338,225.69-117.839"/>
				<path style="fill:#FFCC4D;" d="M199.031-182.214c-1.684,0.944-2.913,0.25-3.63-1.013c-0.967-1.661-6.224-16.065-6.224-16.065
					s9.865,11.73,10.832,13.403C200.738-184.627,200.715-183.193,199.031-182.214"/>
				<path style="fill:#FFCC4D;" d="M234.177-121.355c1.695-0.978,2.947-0.273,3.664,0.978c0.978,1.673,6.087,15.906,6.087,15.906
					s-9.728-11.56-10.706-13.244C232.516-118.965,232.516-120.388,234.177-121.355"/>
				<path style="fill:#FFCC4D;" d="M191.772-176.639c-1.388,1.354-2.742,1.001-3.766-0.023
					c-1.365-1.377-10.172-13.915-10.172-13.915s12.572,8.784,13.938,10.138C192.796-179.415,193.161-178.016,191.772-176.639"/>
				<path style="fill:#FFCC4D;" d="M241.436-126.93c1.388-1.377,2.765-1.024,3.789,0c1.377,1.365,10.001,13.801,10.001,13.801
					s-12.39-8.67-13.756-10.047C240.447-124.199,240.071-125.564,241.436-126.93"/>
				<path style="fill:#FFCC4D;" d="M186.22-169.38c-0.99,1.65-2.389,1.661-3.652,0.944c-1.673-0.967-13.426-10.798-13.426-10.798
					s14.416,5.211,16.1,6.178C186.493-172.339,187.199-171.076,186.22-169.38"/>
				<path style="fill:#FFCC4D;" d="M247.091-134.212c0.99-1.684,2.423-1.707,3.664-0.99c1.695,0.978,13.232,10.741,13.232,10.741
					s-14.211-5.154-15.895-6.121C246.852-131.31,246.135-132.539,247.091-134.212"/>
				<path style="fill:#FFCC4D;" d="M182.727-160.927c-0.523,1.866-1.889,2.23-3.288,1.866c-1.866-0.501-15.758-6.963-15.758-6.963
					s15.269,1.308,17.135,1.809C182.215-163.839,183.228-162.815,182.727-160.927"/>
				<path style="fill:#FFCC4D;" d="M250.652-142.722c0.523-1.889,1.889-2.276,3.288-1.9c1.877,0.501,15.565,6.94,15.565,6.94
					s-15.064-1.297-16.953-1.798C251.164-139.844,250.152-140.856,250.652-142.722"/>
				<path style="fill:#FFCC4D;" d="M181.532-151.858c-0.023,1.934-1.24,2.64-2.685,2.64c-1.934,0-17.021-2.64-17.021-2.64
					s15.087-2.685,17.021-2.685C180.292-154.544,181.532-153.815,181.532-151.858"/>
				<path style="fill:#FFCC4D;" d="M251.79-151.858c0.011-1.957,1.229-2.685,2.674-2.685c1.946,0,16.839,2.685,16.839,2.685
					s-14.893,2.64-16.839,2.64C253.019-149.219,251.79-149.924,251.79-151.858"/>
				<path style="fill:#FFCC4D;" d="M182.727-142.79c0.478,1.877-0.512,2.879-1.911,3.243c-1.866,0.501-17.135,1.855-17.135,1.855
					s13.892-6.497,15.758-6.997C180.838-145.066,182.226-144.679,182.727-142.79"/>
				<path style="fill:#FFCC4D;" d="M250.652-160.995c-0.501-1.889,0.501-2.913,1.889-3.288c1.877-0.501,16.953-1.752,16.953-1.752
					s-13.687,6.406-15.576,6.906C252.53-158.753,251.153-159.118,250.652-160.995"/>
				<path style="fill:#FFCC4D;" d="M186.231-134.325c0.944,1.684,0.25,2.913-1.013,3.63c-1.661,0.967-16.065,6.224-16.065,6.224
					s11.73-9.865,13.403-10.832C183.819-136.032,185.253-136.009,186.231-134.325"/>
				<path style="fill:#FFCC4D;" d="M247.114-169.483c-0.978-1.695-0.273-2.947,0.979-3.664c1.673-0.978,15.906-6.087,15.906-6.087
					s-11.56,9.728-13.244,10.695C249.503-167.81,248.081-167.81,247.114-169.483"/>
				<path style="fill:#FFCC4D;" d="M191.795-127.078c1.354,1.388,1.001,2.742-0.023,3.766c-1.377,1.365-13.915,10.172-13.915,10.172
					s8.784-12.572,10.138-13.938C189.019-128.102,190.419-128.466,191.795-127.078"/>
				<path style="fill:#FFCC4D;" d="M241.55-176.787c-1.377-1.388-1.024-2.776,0-3.789c1.365-1.388,13.801-10.001,13.801-10.001
					s-8.67,12.39-10.047,13.767C244.281-175.797,242.916-175.422,241.55-176.787"/>
				<path style="fill:#FFCC4D;" d="M199.077-121.468c1.65,0.99,1.661,2.389,0.944,3.652c-0.967,1.673-10.798,13.414-10.798,13.414
					s5.211-14.404,6.178-16.088C196.119-121.742,197.382-122.447,199.077-121.468"/>
				<path style="fill:#FFCC4D;" d="M234.223-182.396c-1.684-0.978-1.707-2.401-0.99-3.652c0.978-1.684,10.741-13.232,10.741-13.232
					s-5.154,14.222-6.121,15.895C237.124-182.135,235.895-181.418,234.223-182.396"/>
				<path style="fill:#FFCC4D;" d="M207.519-118.021c1.866,0.523,2.23,1.889,1.866,3.288c-0.501,1.866-6.963,15.758-6.963,15.758
					s1.308-15.269,1.809-17.135C204.607-117.509,205.631-118.522,207.519-118.021"/>
				<path style="fill:#FFCC4D;" d="M225.724-185.912c-1.889-0.523-2.276-1.889-1.9-3.288c0.501-1.877,6.94-15.565,6.94-15.565
					s-1.297,15.076-1.798,16.941C228.602-186.424,227.59-185.412,225.724-185.912"/>
				<path style="fill:#FFCC4D;" d="M198.292-227.145l1.422-0.626l0.375,0.307l0.512,0.387l0.546,0.296l0.512,0.33l1.877,0.751
					l1.627,0.74l0.808,0.319l0.694,0.375l0.694,0.364l0.558,0.387l1.422,0.922l1.445,0.944l1.388,0.865l1.24,0.887l0.944,0.751
					l0.74,0.694l0.819,0.74l0.876,0.819l0.319,0.307l0.375,0.25l0.432,0.262l0.489,0.239l1.081,0.512l1.058,0.364l1.434,0.375
					l1.57,0.375l1.627,0.319l1.798,0.307l2.196,0.262l2.185,0.296l2.241,0.262l2.196,0.364l0.74,0.137l0.683,0.182l0.762,0.193
					l0.751,0.171l0.762,0.944l1.195,1.32l0.819,0.808l0.91,0.751l1.07,0.819l1.252,0.819l1.889,1.115l1.968,0.99l2.071,1.07
					l2.025,0.944l1.843,0.933l1.775,0.876l1.445,0.751l1.115,0.751l0.307,0.944l0.444,0.922l0.558,0.944l0.683,0.933l0.762,1.001
					l0.933,1.013l1.001,1.126l1.24,1.172l1.138,1.013l1.195,0.99l0.603,0.444l0.649,0.432l0.683,0.387l0.694,0.375l0.683,0.319
					l0.671,0.228l0.774,0.205l0.694,0.193l0.728,0.046l0.694,0.057l0.728-0.057l0.694-0.114l-0.046-0.762l-0.182-0.74l-0.262-0.762
					l-0.296-0.808l-0.466-0.808l-0.546-0.819l-0.694-0.876l-0.819-0.876l0.637,0.068l0.558,0.125l0.444,0.137l0.421,0.171
					l0.387,0.125l0.444,0.137l0.558,0.057l0.614,0.057l0.068-0.444v-0.432l-0.068-0.432l-0.114-0.375l-0.171-0.375l-0.273-0.375
					l-0.239-0.307l-0.307-0.319l-1.32-1.24l-1.308-1.195l0.74-0.068l0.819-0.25l0.819-0.239l0.603-0.125l-0.74-0.569l-0.865-0.569
					l-0.887-0.558l-1.001-0.569l-1.001-0.558l-1.001-0.614l-1.001-0.694l-0.933-0.751l0.432-0.057l0.569-0.262l0.25-0.057
					l0.239-0.125l0.205-0.057l0.182,0.057l-1.252-0.694l-1.582-0.751l-0.728-0.364l-0.649-0.387l-0.307-0.182l-0.182-0.193
					l-0.102-0.182l-0.137-0.182l0.046-0.25l0.137-0.193l0.239-0.182l0.228-0.193l-0.091-0.25l-0.137-0.193l-0.239-0.182
					l-0.228-0.193l-0.603-0.296l-0.728-0.319l-0.74-0.262l-0.683-0.239l-0.512-0.262l-0.375-0.182l1.24-1.252l-0.444-0.432
					l-0.421-0.319l-0.375-0.193l-0.444-0.171l-0.876-0.125h-1.195l0.137-0.569l0.171-0.558l0.137-0.626l0.137-0.637l-1.07-0.808
					l-1.308-0.933l-1.445-0.933l-1.604-0.933l-0.956-0.512l-0.933-0.432l-1.001-0.387l-1.058-0.375l-1.138-0.364l-1.183-0.25
					l-1.24-0.262l-1.331-0.193l2.31-0.046h2.025l1.843,0.182l1.707,0.193l1.559,0.307l1.377,0.375l1.377,0.489l1.308,0.512
					l1.741,0.808l1.707,0.944l1.604,1.013l1.707,0.978l-1.024,0.501l-0.978,0.319l-0.489,0.193l-0.512,0.25l-0.546,0.239l-0.58,0.33
					l0.489,0.364l0.603,0.25l0.637,0.25l0.785,0.182l1.479,0.33l1.559,0.171l1.377,0.193l1.252,0.125l0.512,0.125l0.444,0.114
					l0.239,0.137l0.182,0.182l-0.046,0.068l-0.137,0.125l-0.182,0.068l-0.239,0.114l-0.694,0.125l-0.887,0.125l-0.865,0.068
					l-0.865,0.125l-0.774,0.182l-0.466,0.193l1.661,0.375l1.684,0.364l1.513,0.33l1.252,0.296l1.058,0.319l0.933,0.375l0.455,0.182
					l0.284,0.193l0.307,0.193l0.273,0.25l-0.068,0.057l-0.114,0.125l-0.262,0.057l-0.319,0.068l-0.796,0.068h-0.956l-0.978,0.068
					l-0.956,0.046l-0.796,0.137l-0.512,0.114l0.444,0.193l0.444,0.182l1.491,0.444l1.308,0.375l1.206,0.307l1.104,0.375l1.206,0.387
					l1.172,0.489l0.558,0.319l0.512,0.307l0.182,0.193l0.193,0.25l0.182,0.182l0.068,0.182l-0.068,0.193l-0.182,0.137l-0.193,0.046
					h-1.741l-0.819-0.046h-1.115l-0.33,0.046l-0.228,0.125l-0.262,0.125l2.492,1.638l2.332,1.502l2.059,1.308l1.809,1.252
					l0.728,0.626l0.694,0.614l0.546,0.626l0.512,0.626l0.387,0.683l0.307,0.694l0.182,0.751v0.819h-0.432l-0.444-0.068l-0.512-0.193
					l-0.466-0.171l-0.99-0.626l-1.07-0.626l-0.58-0.319l-0.489-0.33l-0.58-0.228l-0.557-0.205l-0.501-0.114l-0.489-0.068h-0.58
					l-0.489,0.182l1.513,1.126l1.684,1.445l1.934,1.684l1.934,1.889l1.934,1.991l1.798,2.002l0.819,1.07l0.831,1.001l0.683,1.001
					l0.626,0.933l0.137,0.239l0.034,0.193l-0.034,0.25l-0.068,0.182l-0.068,0.193l-0.182,0.125l-0.193,0.193l-0.182,0.068
					l-0.239,0.102l-0.273,0.068h-0.489l-0.239-0.068l-0.341-0.046l-0.171-0.193l-0.273-0.193l-1.104-1.115l-1.297-1.32l-1.377-1.445
					l-1.513-1.434l-1.502-1.308l-1.49-1.252l-0.762-0.501l-0.683-0.432l-0.762-0.375l-0.614-0.319l0.421,0.387l0.58,0.546
					l0.751,0.762l0.796,0.933l1.82,2.196l2.002,2.56l1.001,1.377l0.933,1.377l0.956,1.308l0.785,1.365l0.774,1.263l0.626,1.126
					l0.489,1.07l0.307,0.865l0.068,0.319v0.501l-0.068,0.182l-0.114,0.193l-0.114,0.182l-0.125,0.125l-0.205,0.057l-0.353,0.193
					l-0.466,0.125h-0.865l-0.25-0.068l-0.182-0.057l-0.262-0.125l-0.182-0.182l-0.501-0.444l-0.512-0.626l-1.115-1.445l-1.183-1.809
					l-1.331-1.934l-1.422-2.002l-0.796-0.933l-0.774-0.933l-0.808-0.831l-0.865-0.751l1.115,2.071l1.126,2.367l0.626,1.32
					l0.557,1.308l0.58,1.377l0.489,1.377l0.444,1.445l0.421,1.377l0.307,1.377l0.273,1.365l0.102,1.32l0.091,1.252l-0.091,0.626
					l-0.046,0.546l-0.057,0.58l-0.137,0.558l-0.046,0.182l-0.137,0.193l-0.171,0.182l-0.137,0.137l-0.421,0.171l-0.466,0.137h-0.421
					l-0.41-0.068l-0.102-0.068l-0.182-0.046l-0.068-0.125l-0.068-0.205l-0.614-2.048l-0.558-2.059l-0.58-2.196l-0.558-2.116
					l-0.58-2.139l-0.728-1.991l-0.375-1.001l-0.444-0.876l-0.489-0.933l-0.58-0.819l0.375,1.798l0.273,1.638l0.216,1.502
					l0.137,1.377l0.137,1.183l0.057,1.07l-0.057,0.876l-0.068,0.751l-0.114,0.614l-0.182,0.501l-0.125,0.193l-0.137,0.193
					l-0.137,0.114l-0.193,0.068l-0.182,0.057l-0.182,0.068h-0.193l-0.182-0.068l-0.512-0.125l-0.489-0.25l-0.421-1.991l-0.466-1.946
					l-0.489-1.82l-0.558-1.729l-0.614-1.764l-0.694-1.752l-0.751-1.809l-0.887-1.809l-0.603-1.183l-0.649-1.195l-0.683-1.183
					l-0.694-1.195l-0.728-1.126l-0.762-1.126l-0.819-1.126l-0.819-1.126l-1.468-1.866l-1.582-1.752l-1.616-1.741l-1.695-1.638
					l-1.752-1.638l-1.82-1.479l-1.843-1.445l-1.957-1.377l-1.32-0.876l-1.377-0.876l-1.377-0.808l-1.377-0.808l-2.173-1.001
					l-2.207-1.013l-2.241-0.796l-2.264-0.819l-1.843-0.569l-1.889-0.558l-1.934-0.432l-1.934-0.444l-1.934-0.319l-2.025-0.25
					l-1.934-0.25l-1.991-0.125l-0.193-0.057l-0.193-0.057l-0.375-0.205l-0.421-0.296l-0.649-0.569l-0.796-0.74l-1.001-1.013
					l-1.183-1.32l-1.126-1.308l-1.32-1.434l-0.683-0.683l-0.694-0.694l-0.808-0.626l-0.808-0.614l-0.637-0.432l-0.626-0.398
					l-0.671-0.296l-0.694-0.319l-1.513-0.626l-1.49-0.569l-1.502-0.558l-1.308-0.512l-0.569-0.239l-0.558-0.307l-0.512-0.262
					l-0.364-0.239l-0.364-0.375l-0.319-0.319l-0.193-0.307l-0.137-0.307l-0.046-0.455V-227.145 M248.548-233.028l-0.421-0.171
					l-0.466-0.068l-0.353-0.068l-0.33,0.068l-0.319,0.068l-0.284,0.102l-0.262,0.125l-0.319,0.205l-0.512,0.364l-0.466,0.375
					l-0.262,0.182l-0.33,0.137l-0.228,0.057h-0.33l-0.558-1.183l-0.74-1.502l-0.262-0.375l-0.239-0.307l-0.273-0.193l-0.216-0.193
					l-0.341-0.114h-0.307l-0.284,0.114l-0.41,0.193l-0.102,0.193l-0.137,0.182l-0.137,0.262l-0.137,0.296l-0.102,0.569l-0.068,0.375
					l-0.375-0.307l-0.364-0.444l-0.33-0.489l-0.375-0.58l-0.421-0.558l-0.444-0.432l-0.25-0.262l-0.307-0.182l-0.307-0.137
					l-0.387-0.114h-0.171l-0.341-0.057l-0.307,0.057l-0.239,0.114l-0.74,0.876l-0.819,0.887l-0.558-0.887l-0.649-0.74l-0.307-0.307
					l-0.284-0.319l-0.319-0.239l-0.33-0.193l-0.239-0.137l-0.319-0.068h-0.307l-0.273,0.068l-0.239,0.137l-0.182,0.193l-0.239,0.296
					l-0.137,0.387l-0.137,0.364l-0.239,0.626l-0.068,0.33l-0.114,0.239l-0.125,0.125h-0.137l-1.695-2.765l-0.239-0.228l-0.444-0.205
					l-0.489-0.114l-0.489-0.125h-0.58l-0.444,0.125l-0.137,0.068l-0.171,0.182l-0.046,0.114v0.25l0.216,2.765l-0.171-0.068
					l-0.25-0.125l-0.239-0.125l-0.25-0.25l-0.512-0.558l-0.546-0.626l-0.558-0.683l-0.694-0.58l-0.319-0.25l-0.319-0.239
					l-0.375-0.205l-0.319-0.034l-0.421-0.068l-0.307,0.068l-0.137,0.034l-0.125,0.137l-0.068,0.193v0.182l0.068,0.808l0.125,0.819
					l0.068,0.444l-0.068,0.364l-0.057,0.375l-0.262,0.444l-0.375-0.558l-0.603-0.819l-0.774-0.819l-0.796-0.808l-0.455-0.319
					l-0.421-0.307l-0.387-0.137l-0.296-0.102l-0.137,0.068h-0.193l-0.125,0.102l-0.057,0.068l-0.125,0.193l-0.057,0.182v0.25
					l-0.068,0.319l0.068,2.367l-1.57-1.058l-1.877-1.183l-0.432-0.193l-0.501-0.25l-0.444-0.114l-0.512-0.137l-0.421-0.114h-0.444
					l-0.421,0.046l-0.387,0.137l0.193,0.501l0.193,0.432l0.182,0.444l0.239,0.364l0.262,0.387l0.239,0.375l0.319,0.307l0.319,0.319
					l0.683,0.489l0.796,0.501l0.819,0.387l0.944,0.307l0.944,0.239l1.058,0.193l1.058,0.193l1.07,0.125l2.298,0.114l2.389,0.068
					h4.745l1.195,0.068l1.115,0.057l1.138,0.068l1.058,0.114l1.07,0.205l0.91,0.182l0.956,0.25l0.887,0.364l0.831,0.375l0.637,0.501
					l0.694,0.501l0.592,0.705l-0.637,1.24l0.512,0.068l0.489,0.114l0.512,0.25l0.421,0.33l0.171,0.102l0.205,0.193l0.137,0.262
					l0.125,0.171l0.046,0.262v0.432l-0.125,0.25l1.058,0.193l1.138,0.114l1.195,0.068h1.252l2.571-0.114l2.628-0.193l2.662-0.319
					l2.628-0.25l2.571-0.25l2.355-0.125v-0.865l-0.046-0.387l-0.125-0.375l-0.114-0.375l-0.137-0.307l-0.171-0.262l-0.273-0.296
					l-0.421-0.444l-0.557-0.364l-0.603-0.262l-0.592-0.125l-0.694-0.125l-0.683,0.068l-0.649,0.057l-0.694,0.182l-0.592,0.33
					l-0.649,0.307l-0.489,0.444l-0.489,0.489v-1.07l-0.205-1.377l-0.102-0.683l-0.205-0.626l-0.137-0.262l-0.171-0.171l-0.137-0.193
					L248.548-233.028z"/>
				<path style="fill:#FFCC4D;" d="M221.195-229.956l1.047-0.137l0.512-0.182l0.102-0.057v-0.068h-0.102l-0.137-0.057l-1.001-0.193
					h-0.796l-2.628,0.193l-3.197,0.057l-3.425,0.068l-3.584-0.068l-1.684-0.057l-1.684-0.125l-1.502-0.125l-1.434-0.125
					l-1.195-0.193l-1.058-0.239l-0.375-0.137l-0.375-0.125l-0.307-0.125l-0.25-0.193l0.114,0.637l0.262,0.626l-0.444-0.125
					l-0.432-0.125l-0.375-0.193l-0.375-0.182l-0.307-0.193l-0.262-0.25l-0.193-0.307l-0.046-0.319l-0.182,0.432l-0.137,0.387
					l-0.068,0.432l-0.068,0.375l0.068,0.319l0.068,0.375l0.057,0.296l0.193,0.33l0.114,0.25l0.262,0.307l0.25,0.25l0.25,0.25
					l0.671,0.432l0.774,0.444c0.398-0.239,0.842-0.432,1.297-0.558c0.398-0.057,0.865,0.011,1.331,0.114
					c0.751-0.66,1.775-0.58,2.435,0.137c0.102,0.114,0.262,0.33,0.307,0.489c0.102,0.364,0.091,0.831,0,1.263l0.751,0.046
					l0.876,0.137l0.933,0.25l1.001,0.25l1.013,0.193l0.922,0.239l0.876,0.125l0.74,0.068l-0.296-0.262l-0.762-0.558l-0.876-0.683
					l-0.603-0.432l0.796-0.205l0.683-0.114l-0.489-0.569l-0.501-0.558l-0.489-0.558l-0.387-0.501l0.489-0.182l0.501-0.137
					l0.569-0.125h1.126l0.558,0.125l0.558,0.137l0.455,0.25l0.501-0.25l0.501-0.193l0.489-0.137l0.489-0.125l1.138-0.114
					l1.195-0.125H221.195"/>
				<path style="fill:#FFCC4D;" d="M215.495-210.955l-0.558-1.126l-0.626-1.445l-0.375-0.683l-0.319-0.626l-0.239-0.489
					l-0.319-0.319l-0.74,0.626l-0.831,0.558l-0.876,0.444l-0.922,0.375l-1.013,0.25l-1.001,0.262l-0.99,0.171l-1.07,0.125
					l-2.185,0.193l-2.196,0.057l-2.116,0.137l-2.014,0.239l-1.115,0.193l-1.07,0.239l-0.546,0.193l-0.569,0.193l-0.501,0.25
					l-0.444,0.239l-0.694,0.455l-0.671,0.489l-0.762,0.569l-0.683,0.614l-1.434,1.377l-1.434,1.377l-1.445,1.308l-1.308,1.195
					l-0.637,0.432l-0.614,0.432l-0.569,0.262l-0.569,0.193l-1.058,0.239l-0.933,0.319l-0.933,0.307l-0.944,0.444l-0.819,0.364
					l-0.796,0.501l-0.762,0.512l-0.683,0.501l-0.762,0.558l-0.614,0.569l-0.626,0.626l-0.626,0.626l-1.195,1.308l-1.126,1.377
					l-2.253,2.924l-2.367,3.015l-1.365,1.434l-1.445,1.445l-0.808,0.74l-0.831,0.683l-0.865,0.637l-0.933,0.683l-0.182-0.057
					l-0.205-0.193l-0.182-0.239l-0.114-0.33l-0.193-0.546l-0.057-0.262l-0.444,0.193l-0.375,0.182l-0.444,0.193l-0.375,0.125h-0.808
					l-0.432-0.125l-0.444-0.193l0.444-0.546l0.558-0.762l0.546-0.876l0.512-0.944l0.501-0.99l0.364-0.944l0.137-0.501l0.137-0.375
					l0.057-0.432v-0.364h-0.694h-2.674l0.489-0.762l0.569-0.751l0.603-0.751l0.694-0.683l0.683-0.694l0.694-0.683l0.694-0.558
					l0.637-0.444l-0.694-0.068l-0.933-0.068l-0.944-0.114l-0.694-0.068l0.558-0.501l0.683-0.489l0.762-0.569l0.808-0.558
					l0.819-0.501l0.808-0.444l0.762-0.262l0.683-0.171l0.307-0.068l0.25-0.057l0.193-0.068l0.125-0.125l0.057-0.057v-0.25
					l-0.057-0.137l-0.125-0.375l-0.057-0.364l-0.08-0.25v-0.182l0.08-0.319l0.057-0.262l0.125-0.114l0.182-0.125l0.239-0.125
					l0.33-0.068l0.319-0.125l0.307-0.125l0.307-0.114l0.25-0.193l0.057-0.068v-0.114l-0.057-0.068l-0.25-0.182l-0.25-0.182
					l-0.25-0.262l-0.25-0.307v-0.262l-0.057-0.25l0.057-0.307l0.068-0.375l1.058-0.375l1.126-0.375l0.501-0.114l0.501-0.205
					l0.375-0.182l0.319-0.193l-2.071-1.616l0.558-0.501l0.694-0.375l0.865-0.444l0.876-0.307l1.013-0.319l0.922-0.182l0.831-0.182
					h0.74l-0.683-0.501l-0.887-0.558l-0.922-0.512l-0.694-0.501l0.626-0.432l0.876-0.444l1.001-0.501l1.183-0.558l2.765-1.195
					l2.992-1.183l3.129-1.126l3.061-1.001l1.377-0.444l1.24-0.307l1.138-0.307l1.001-0.193l-2.014,0.193l-1.866,0.25l-1.866,0.319
					l-1.752,0.375l-1.752,0.501l-1.695,0.489l-1.616,0.558l-1.57,0.626l-3.072,1.252l-2.867,1.263l-1.377,0.558l-1.377,0.569
					l-1.308,0.489l-1.308,0.501l0.307,0.182l0.375,0.137l0.501,0.182l0.558,0.125l1.195,0.375l1.058,0.387l-1.877,0.296
					l-2.571,0.501l-1.252,0.387l-1.058,0.296l-0.432,0.193l-0.375,0.193l-0.307,0.193l-0.193,0.182v0.057l0.068,0.057l0.182,0.068
					l0.182,0.125l0.512,0.193l0.683,0.193l1.49,0.432l1.263,0.432l-3.072,0.558l-2.378,0.375l-0.865,0.205l-0.694,0.239l-0.25,0.125
					l-0.239,0.193l-0.193,0.114l-0.125,0.193l0.182,0.125l0.558,0.125l0.831,0.125l0.922,0.182l1.013,0.125l0.876,0.25l0.432,0.137
					l0.364,0.125l0.262,0.171l0.25,0.205l-0.512,0.193l-0.489,0.182l-0.637,0.114l-0.614,0.137l-1.445,0.182l-1.434,0.193
					l-0.74,0.171l-0.694,0.137l-0.683,0.25l-0.694,0.239l-0.637,0.319l-0.558,0.444l-0.501,0.444l-0.375,0.546l0.137,0.068
					l0.239,0.068h0.319l0.501-0.068l1.126-0.068l1.24-0.046l1.388-0.137h1.741l0.501,0.068l0.375,0.114l0.262,0.137l-1.513,0.626
					l-1.991,0.876l-1.126,0.558l-1.195,0.569l-1.172,0.614l-1.195,0.626l-1.126,0.694l-1.07,0.751l-0.99,0.74l-0.876,0.762
					l-0.375,0.432l-0.387,0.375l-0.239,0.375l-0.262,0.444l-0.239,0.375l-0.137,0.432l-0.057,0.375l-0.046,0.432h0.421l0.501-0.057
					l0.501-0.205l0.501-0.171l1.001-0.626l1.126-0.626l0.501-0.319l0.558-0.296l0.558-0.262l0.501-0.182l0.558-0.137l0.512-0.057
					h0.569l0.489,0.193l-1.49,1.126l-1.695,1.422l-1.934,1.695l-1.934,1.877l-1.934,2.002l-1.832,2.002l-0.785,1.058l-0.831,1.001
					l-0.683,1.001l-0.626,0.944l-0.125,0.25v0.432l0.057,0.193l0.068,0.182l0.182,0.114l0.182,0.193l0.205,0.137l0.239,0.068
					l0.25,0.046h0.501l0.307-0.046l0.273-0.068l0.239-0.193l0.182-0.182l1.126-1.126l1.308-1.32l1.377-1.445l1.513-1.422
					l1.479-1.308l1.513-1.274l0.74-0.489l0.694-0.432l0.74-0.387l0.694-0.25l-0.489,0.319l-0.569,0.558l-0.751,0.751l-0.819,0.944
					l-1.798,2.185l-2.002,2.56l-1.001,1.377l-0.944,1.377l-0.876,1.377l-0.876,1.32l-0.751,1.24l-0.626,1.138l-0.432,1.058
					l-0.364,0.865l-0.08,0.319v0.512l0.08,0.171l0.114,0.193l0.114,0.193l0.137,0.125l0.193,0.114l0.432,0.137l0.375,0.125h0.876
					l0.25-0.057l0.182-0.068l0.25-0.137l0.205-0.182l0.489-0.444l0.489-0.614l1.138-1.445l1.195-1.809l1.365-1.934l1.445-2.003
					l0.74-0.944l0.74-0.933l0.831-0.808l0.865-0.751l-1.058,2.059l-1.195,2.367l-0.614,1.308l-0.569,1.331l-0.558,1.354
					l-0.512,1.377l-0.421,1.445l-0.444,1.377l-0.307,1.388l-0.25,1.377l-0.137,1.308l-0.057,1.24l0.057,0.626l0.08,0.569
					l0.057,0.569l0.125,0.546l0.125,0.205l0.068,0.182l0.182,0.193l0.114,0.114l0.444,0.193l0.432,0.114h0.444l0.364-0.068
					l0.193-0.046l0.125-0.057l0.068-0.137l0.068-0.182l0.603-1.991l0.569-2.139l0.58-2.185l0.557-2.128l0.546-2.128l0.762-2.003
					l0.387-0.933l0.421-0.933l0.501-0.876l0.558-0.887l-0.364,1.832l-0.239,1.616l-0.273,1.49l-0.125,1.377l-0.114,1.206
					l-0.068,1.047l0.068,0.887l0.057,0.74l0.125,0.637l0.193,0.489l0.137,0.193l0.114,0.182l0.125,0.137l0.182,0.114l0.182,0.057
					h0.569l0.512-0.171l0.478-0.262l0.455-2.002l0.421-1.934l0.512-1.809l0.546-1.752l0.649-1.752l0.683-1.764l0.74-1.798
					l0.876-1.809l0.637-1.195l0.626-1.195l0.671-1.183l0.694-1.183l0.751-1.138l0.762-1.115l0.808-1.115l0.808-1.138l1.502-1.877
					l1.57-1.752l1.616-1.741l1.695-1.638l1.752-1.604l1.809-1.513l1.877-1.434l1.934-1.377l1.308-0.876l1.377-0.819l1.445-0.808
					l1.365-0.751l2.185-1.058l2.128-1.013l2.253-0.865l2.253-0.808l2.116-0.694l2.207-0.558l2.253-0.512l2.173-0.432l2.321-0.319
					l2.253-0.25l2.31-0.182L215.495-210.955z"/>
				<path style="fill:#FFCC4D;" d="M39.333-288.517c0,0-2.697-2.241-3.607-1.115c-1.468,1.82,4.528,10.911,4.528,14.131
					c0,5.245-3.516,6.702-7.839,7.441c-2.913,0.501-7.646-0.216-7.646-0.216c0.887-1.195,1.468-1.559,2.97-1.638
					c-1.673-0.887-3.368-2.765-3.368-5.7c0-4.517,1.855-6.383,1.855-11.48c0-2.833-2.321-6.428-2.321-6.428
					c4.096,0.41,6.144,4.198,4.983,7.236c0.649,0.091,1.24-0.046,1.752-0.523c0.296,0.831-0.171,1.82-0.808,2.651
					c0.501,0.262,0.887,0.102,1.695-0.057c-0.08,0.865-0.603,1.775-1.866,2.64c3.686-0.944,5.962,1.616,5.962,4.301
					c0,2.048-1.434,3.504-2.822,3.504c-0.455,0-1.115-0.193-1.49-0.466c-0.262,0.546-0.125,1.297,0.148,1.855
					c-1.013-0.25-1.661-0.865-1.206-2.128c-0.785-0.057-1.399-0.341-1.82-0.853c0.421-0.535,1.07-0.853,1.82-0.819
					c-0.569-1.183,0.068-1.855,0.99-2.378c0,0-0.592,2.378,0.922,2.378c0.683,0,1.297-0.228,1.297-1.229
					c0-0.865-0.762-2.059-2.514-1.991c-1.764,0.08-3.174,1.206-3.174,3.994c0,2.605,2.082,3.891,4.824,3.971
					c2.48,0.08,4.346-1.263,4.346-3.823c0-3.391-4.915-11.15-4.915-14.177c0-2.276,2.048-3.538,4.039-3.538
					c2.594,0,4.779,2.571,4.779,2.571L39.333-288.517z"/>
				<path style="fill:#FFCC4D;" d="M38.764-227.054c0,5.666,5.097,8.59,9.102,8.59c5.393,0,8.272-3.231,8.272-7.441
					c0-2.412-0.432-3.914-1.536-6.201c0,0-8.909-18.523-12.379-25.68c-0.421-0.899-0.58-1.923-0.58-3.413
					c0-2.298,2.253-4.187,4.585-4.244c2.128-0.057,4.46,1.991,4.46,4.324c0,2.833-1.468,4.085-2.97,4.085
					c-1.855,0-2.594-0.751-2.594-2.048c0-0.922,0.432-1.32,1.058-1.32c1.593,0,1.149,2.15,1.149,2.15
					c0.796-0.182,1.434-0.978,1.07-2.002c0.58-0.125,1.115-0.421,1.536-0.899c-0.421-0.421-0.91-0.751-1.536-0.842
					c0.375-1.24-0.125-1.832-1.195-2.094c0.205,0.489,0.216,0.91,0.148,1.32c-1.695-0.478-4.301,0.284-4.301,3.22
					c0,2.901,2.025,5.348,5.803,4.756c-0.899,0.41-1.354,1.286-1.445,2.287c0.683-0.296,1.445-0.33,1.445-0.33
					c-0.444,0.785-1.058,1.445-1.035,2.992c0.717-0.33,1.354-0.91,2.264-0.535c-1.411,2.765,0.319,6.565,4.722,7.487
					c-1.616-1.877-2.401-3.914-2.401-5.962c0-6.599,1.832-7.691,1.832-12.265c0-1.911-0.99-3.994-2.924-5.393v0.08
					c1.274-0.341,2.094-0.99,2.583-1.843c-2.947-0.831-7.236-0.819-9.535,0.08c-2.651,0.296-4.494,2.332-5.04,3.356
					c-0.546,1.047-1.593,4.756,0,8.124c1.752,3.652,10.012,21.163,12.584,26.67c0.546,1.172,0.876,2.412,0.876,3.755
					c0,3.356-3.083,4.551-4.836,4.551c-2.094,0-4.233-1.616-4.233-3.607c0-1.274,0.683-2.014,1.673-2.014
					c2.378,0,2.23,2.002,1.752,3.288c1.479-0.683,2.332-1.843,2.094-3.106c0.842-0.102,1.638-0.512,2.378-1.331
					c-0.58-0.74-1.286-1.297-2.378-1.308c0.478-1.934-0.819-2.753-2.094-3.197c0.398,1.411,0.66,3.049-1.752,3.049
					c-1.764,0-3.152,0.307-3.959,1.456c-0.057-1.536-0.205-7.566-0.205-7.566c-0.091-2.276,3.038-2.207,5.04-1.536
					c-0.751-2.606-2.287-4.028-5.871-3.664c0.876-0.364,1.798-1.183,1.798-2.742c0-2.139-1.729-4.494-2.867-5.2L38.764-227.054z"/>
				<path style="fill:#FFCC4D;" d="M39.89-227.054c0,5.666-5.097,8.59-9.102,8.59c-5.393,0-8.272-3.231-8.272-7.441
					c0-2.412,0.432-3.914,1.536-6.201c0,0,8.909-18.523,12.379-25.68c0.421-0.899,0.569-1.923,0.569-3.413
					c0-2.298-2.241-4.187-4.574-4.244c-2.139-0.057-4.46,1.991-4.46,4.324c0,2.833,1.468,4.085,2.97,4.085
					c1.855,0,2.594-0.751,2.594-2.048c0-0.922-0.432-1.32-1.058-1.32c-1.593,0-1.149,2.15-1.149,2.15
					c-0.796-0.182-1.434-0.978-1.07-2.002c-0.58-0.125-1.115-0.421-1.536-0.899c0.421-0.421,0.91-0.751,1.536-0.842
					c-0.364-1.24,0.125-1.832,1.195-2.094c-0.205,0.489-0.216,0.91-0.148,1.32c1.695-0.478,4.301,0.284,4.301,3.22
					c0,2.901-2.025,5.348-5.803,4.756c0.899,0.41,1.354,1.286,1.445,2.287c-0.683-0.296-1.445-0.33-1.445-0.33
					c0.432,0.785,1.058,1.445,1.024,2.992c-0.705-0.33-1.343-0.91-2.253-0.535c1.411,2.765-0.319,6.565-4.722,7.487
					c1.616-1.877,2.401-3.914,2.401-5.962c0-6.599-1.832-7.691-1.832-12.265c0-1.911,0.99-3.994,2.935-5.393v0.08
					c-1.286-0.341-2.116-0.99-2.583-1.843c2.947-0.831,7.225-0.819,9.523,0.08c2.651,0.296,4.494,2.332,5.04,3.356
					c0.546,1.047,1.593,4.756,0,8.124c-1.752,3.652-10.012,21.163-12.584,26.67c-0.546,1.172-0.876,2.412-0.876,3.755
					c0,3.356,3.083,4.551,4.836,4.551c2.094,0,4.233-1.616,4.233-3.607c0-1.274-0.683-2.014-1.673-2.014
					c-2.378,0-2.23,2.002-1.764,3.288c-1.468-0.683-2.321-1.843-2.094-3.106c-0.831-0.102-1.627-0.512-2.367-1.331
					c0.58-0.74,1.286-1.297,2.367-1.308c-0.466-1.934,0.819-2.753,2.094-3.197c-0.398,1.411-0.66,3.049,1.764,3.049
					c1.764,0,3.152,0.307,3.959,1.456c0.046-1.536,0.205-7.566,0.205-7.566c0.091-2.276-3.049-2.207-5.04-1.536
					c0.751-2.605,2.287-4.028,5.871-3.664c-0.876-0.364-1.798-1.183-1.798-2.742c0-2.139,1.729-4.494,2.867-5.2L39.89-227.054z"/>
				<path style="fill:#FFCC4D;" d="M39.333-288.517c0,0,2.697-2.241,3.607-1.115c1.468,1.82-4.528,10.911-4.528,14.131
					c0,5.245,3.516,6.702,7.839,7.441c2.913,0.501,7.646-0.216,7.646-0.216c-0.887-1.195-1.468-1.559-2.97-1.638
					c1.673-0.887,3.368-2.765,3.368-5.7c0-4.517-1.855-6.383-1.855-11.48c0-2.833,2.321-6.428,2.321-6.428
					c-4.096,0.41-6.144,4.198-4.983,7.236c-0.649,0.091-1.229-0.046-1.752-0.523c-0.296,0.831,0.182,1.82,0.808,2.651
					c-0.512,0.262-0.887,0.102-1.695-0.057c0.08,0.865,0.592,1.775,1.866,2.64c-3.686-0.944-5.962,1.616-5.962,4.301
					c0,2.048,1.434,3.504,2.822,3.504c0.444,0,1.115-0.193,1.49-0.466c0.262,0.546,0.125,1.297-0.159,1.855
					c1.024-0.25,1.673-0.865,1.217-2.128c0.785-0.057,1.399-0.341,1.82-0.853c-0.421-0.535-1.07-0.853-1.82-0.819
					c0.569-1.183-0.068-1.855-0.99-2.378c0,0,0.592,2.378-0.922,2.378c-0.683,0-1.297-0.228-1.297-1.229
					c0-0.865,0.762-2.059,2.514-1.991c1.764,0.08,3.174,1.206,3.174,3.994c0,2.606-2.082,3.891-4.824,3.971
					c-2.48,0.08-4.346-1.263-4.346-3.823c0-3.391,4.915-11.15,4.915-14.177c0-2.276-2.048-3.538-4.05-3.538
					c-2.583,0-4.779,2.571-4.779,2.571L39.333-288.517z"/>
				<path style="fill:#FFCC4D;" d="M38.764-127.578c0,5.689,5.097,8.602,9.102,8.602c5.393,0,8.272-3.231,8.272-7.452
					c0-2.401-0.432-3.903-1.536-6.19c0,0-8.909-18.534-12.379-25.691c-0.421-0.899-0.58-1.911-0.58-3.402
					c0-2.31,2.253-4.187,4.585-4.255c2.128-0.046,4.46,2.002,4.46,4.324c0,2.833-1.468,4.096-2.97,4.096
					c-1.855,0-2.594-0.762-2.594-2.071c0-0.899,0.432-1.297,1.058-1.297c1.593,0,1.149,2.139,1.149,2.139
					c0.796-0.171,1.434-0.979,1.07-1.98c0.58-0.125,1.115-0.432,1.536-0.922c-0.421-0.41-0.91-0.74-1.536-0.842
					c0.375-1.229-0.125-1.832-1.195-2.082c0.205,0.478,0.216,0.91,0.148,1.32c-1.695-0.478-4.301,0.284-4.301,3.22
					c0,2.89,2.025,5.336,5.803,4.733c-0.899,0.432-1.354,1.308-1.445,2.287c0.683-0.262,1.445-0.296,1.445-0.296
					c-0.444,0.774-1.058,1.445-1.035,2.97c0.717-0.307,1.354-0.91,2.264-0.523c-1.411,2.765,0.319,6.576,4.722,7.487
					c-1.616-1.889-2.401-3.937-2.401-5.962c0-6.588,1.832-7.691,1.832-12.277c0-1.911-0.99-3.971-2.924-5.393v0.08
					c1.274-0.341,2.094-0.967,2.583-1.843c-2.947-0.831-7.236-0.819-9.535,0.091c-2.651,0.307-4.494,2.332-5.04,3.356
					c-0.546,1.035-1.593,4.756,0,8.112c1.752,3.664,10.012,21.174,12.584,26.681c0.546,1.172,0.876,2.401,0.876,3.743
					c0,3.379-3.083,4.551-4.836,4.551c-2.094,0-4.233-1.593-4.233-3.584c0-1.274,0.683-2.037,1.673-2.037
					c2.378,0,2.23,2.025,1.752,3.288c1.479-0.66,2.332-1.843,2.094-3.095c0.842-0.125,1.638-0.512,2.378-1.343
					c-0.58-0.728-1.286-1.274-2.378-1.297c0.478-1.934-0.819-2.753-2.094-3.197c0.398,1.399,0.66,3.049-1.752,3.049
					c-1.764,0-3.152,0.307-3.959,1.445c-0.057-1.525-0.205-7.566-0.205-7.566c-0.091-2.264,3.038-2.207,5.04-1.525
					c-0.751-2.617-2.287-4.039-5.871-3.675c0.876-0.364,1.798-1.183,1.798-2.753c0-2.128-1.729-4.483-2.867-5.177L38.764-127.578z"
					/>
				<path style="fill:#FFCC4D;" d="M39.89-127.578c0,5.689-5.097,8.602-9.102,8.602c-5.393,0-8.272-3.231-8.272-7.452
					c0-2.401,0.432-3.903,1.536-6.19c0,0,8.909-18.534,12.379-25.691c0.421-0.899,0.569-1.911,0.569-3.402
					c0-2.31-2.241-4.187-4.574-4.255c-2.139-0.046-4.46,2.002-4.46,4.324c0,2.833,1.468,4.096,2.97,4.096
					c1.855,0,2.594-0.762,2.594-2.071c0-0.899-0.432-1.297-1.058-1.297c-1.593,0-1.149,2.139-1.149,2.139
					c-0.796-0.171-1.434-0.979-1.07-1.98c-0.58-0.125-1.115-0.432-1.536-0.922c0.421-0.41,0.91-0.74,1.536-0.842
					c-0.364-1.229,0.125-1.832,1.195-2.082c-0.205,0.478-0.216,0.91-0.148,1.32c1.695-0.478,4.301,0.284,4.301,3.22
					c0,2.89-2.025,5.336-5.803,4.733c0.899,0.432,1.354,1.308,1.445,2.287c-0.683-0.262-1.445-0.296-1.445-0.296
					c0.432,0.774,1.058,1.445,1.024,2.97c-0.705-0.307-1.343-0.91-2.253-0.523c1.411,2.765-0.319,6.576-4.722,7.487
					c1.616-1.889,2.401-3.937,2.401-5.962c0-6.588-1.832-7.691-1.832-12.277c0-1.911,0.99-3.971,2.935-5.393v0.08
					c-1.286-0.341-2.116-0.967-2.583-1.843c2.947-0.831,7.225-0.819,9.523,0.091c2.651,0.307,4.494,2.332,5.04,3.356
					c0.546,1.035,1.593,4.756,0,8.112c-1.752,3.664-10.012,21.174-12.584,26.681c-0.546,1.172-0.876,2.401-0.876,3.743
					c0,3.379,3.083,4.551,4.836,4.551c2.094,0,4.233-1.593,4.233-3.584c0-1.274-0.683-2.037-1.673-2.037
					c-2.378,0-2.23,2.025-1.764,3.288c-1.468-0.66-2.321-1.843-2.094-3.095c-0.831-0.125-1.627-0.512-2.367-1.343
					c0.58-0.728,1.286-1.274,2.367-1.297c-0.466-1.934,0.819-2.753,2.094-3.197c-0.398,1.399-0.66,3.049,1.764,3.049
					c1.764,0,3.152,0.307,3.959,1.445c0.046-1.525,0.205-7.566,0.205-7.566c0.091-2.264-3.049-2.207-5.04-1.525
					c0.751-2.617,2.287-4.039,5.871-3.675c-0.876-0.364-1.798-1.183-1.798-2.753c0-2.128,1.729-4.483,2.867-5.177L39.89-127.578z"/>
				<path style="fill:#FFCC4D;" d="M39.89-110.546c0-5.678-5.097-8.602-9.102-8.602c-5.393,0-8.272,3.22-8.272,7.452
					c0,2.401,0.432,3.903,1.536,6.19c0,0,8.909,18.534,12.379,25.691c0.421,0.899,0.569,1.911,0.569,3.402
					c0,2.31-2.241,4.187-4.574,4.255c-2.139,0.046-4.46-2.002-4.46-4.324c0-2.833,1.468-4.096,2.97-4.096
					c1.855,0,2.594,0.762,2.594,2.071c0,0.91-0.432,1.297-1.058,1.297c-1.593,0-1.149-2.139-1.149-2.139
					c-0.796,0.171-1.434,0.978-1.07,1.991c-0.58,0.125-1.115,0.432-1.536,0.91c0.421,0.41,0.91,0.74,1.536,0.842
					c-0.364,1.229,0.125,1.82,1.195,2.082c-0.205-0.478-0.216-0.91-0.148-1.32c1.695,0.489,4.301-0.284,4.301-3.209
					c0-2.901-2.025-5.348-5.803-4.745c0.899-0.432,1.354-1.308,1.445-2.287c-0.683,0.262-1.445,0.296-1.445,0.296
					c0.432-0.774,1.058-1.445,1.024-2.981c-0.705,0.319-1.343,0.91-2.253,0.535c1.411-2.765-0.319-6.588-4.722-7.487
					c1.616,1.889,2.401,3.937,2.401,5.962c0,6.588-1.832,7.691-1.832,12.277c0,1.911,0.99,3.982,2.935,5.393v-0.091
					c-1.286,0.353-2.116,0.99-2.583,1.855c2.947,0.831,7.225,0.819,9.523-0.091c2.651-0.307,4.494-2.332,5.04-3.368
					c0.546-1.024,1.593-4.745,0-8.101c-1.752-3.664-10.012-21.163-12.584-26.681c-0.546-1.161-0.876-2.401-0.876-3.743
					c0-3.379,3.083-4.551,4.836-4.551c2.094,0,4.233,1.593,4.233,3.595c0,1.263-0.683,2.025-1.673,2.025
					c-2.378,0-2.23-2.014-1.764-3.288c-1.468,0.66-2.321,1.843-2.094,3.095c-0.831,0.114-1.627,0.512-2.367,1.343
					c0.58,0.728,1.286,1.286,2.367,1.297c-0.466,1.934,0.819,2.753,2.094,3.209c-0.398-1.422-0.66-3.061,1.764-3.061
					c1.764,0,3.152-0.296,3.959-1.445c0.046,1.525,0.205,7.578,0.205,7.578c0.091,2.253-3.049,2.196-5.04,1.513
					c0.751,2.617,2.287,4.039,5.871,3.675c-0.876,0.364-1.798,1.183-1.798,2.753c0,2.128,1.729,4.494,2.867,5.188L39.89-110.546z"/>
				<path style="fill:#FFCC4D;" d="M39.89-210.022c0-5.678-5.097-8.59-9.102-8.59c-5.393,0-8.272,3.22-8.272,7.441
					c0,2.401,0.432,3.914,1.536,6.19c0,0,8.909,18.523,12.379,25.702c0.421,0.899,0.569,1.911,0.569,3.391
					c0,2.321-2.241,4.187-4.574,4.244c-2.139,0.057-4.46-1.991-4.46-4.312c0-2.833,1.468-4.085,2.97-4.085
					c1.855,0,2.594,0.762,2.594,2.059c0,0.899-0.432,1.297-1.058,1.297c-1.593,0-1.149-2.139-1.149-2.139
					c-0.796,0.182-1.434,0.978-1.07,1.991c-0.58,0.114-1.115,0.421-1.536,0.91c0.421,0.41,0.91,0.74,1.536,0.842
					c-0.364,1.24,0.125,1.832,1.195,2.082c-0.205-0.466-0.216-0.899-0.148-1.32c1.695,0.489,4.301-0.284,4.301-3.209
					c0-2.901-2.025-5.336-5.803-4.745c0.899-0.444,1.354-1.308,1.445-2.298c-0.683,0.273-1.445,0.319-1.445,0.319
					c0.432-0.785,1.058-1.456,1.024-2.981c-0.705,0.319-1.343,0.91-2.253,0.535c1.411-2.765-0.319-6.599-4.722-7.487
					c1.616,1.877,2.401,3.925,2.401,5.962c0,6.565-1.832,7.691-1.832,12.265c0,1.911,0.99,3.982,2.935,5.393v-0.08
					c-1.286,0.341-2.116,0.967-2.583,1.843c2.947,0.831,7.225,0.819,9.523-0.091c2.651-0.307,4.494-2.332,5.04-3.356
					c0.546-1.035,1.593-4.756,0-8.112c-1.752-3.664-10.012-21.174-12.584-26.681c-0.546-1.161-0.876-2.389-0.876-3.743
					c0-3.368,3.083-4.551,4.836-4.551c2.094,0,4.233,1.604,4.233,3.607c0,1.24-0.683,2.002-1.673,2.002
					c-2.378,0-2.23-2.002-1.764-3.277c-1.468,0.66-2.321,1.855-2.094,3.106c-0.831,0.114-1.627,0.489-2.367,1.331
					c0.58,0.717,1.286,1.263,2.367,1.308c-0.466,1.934,0.819,2.742,2.094,3.197c-0.398-1.422-0.66-3.049,1.764-3.049
					c1.764,0,3.152-0.307,3.959-1.456c0.046,1.525,0.205,7.578,0.205,7.578c0.091,2.253-3.049,2.196-5.04,1.525
					c0.751,2.606,2.287,4.016,5.871,3.664c-0.876,0.364-1.798,1.183-1.798,2.753c0,2.128,1.729,4.483,2.867,5.188L39.89-210.022z"/>
				<path style="fill:#FFCC4D;" d="M38.764-210.022c0-5.678,5.097-8.59,9.102-8.59c5.393,0,8.272,3.22,8.272,7.441
					c0,2.401-0.432,3.914-1.536,6.19c0,0-8.909,18.523-12.379,25.702c-0.421,0.899-0.58,1.911-0.58,3.391
					c0,2.321,2.253,4.187,4.585,4.244c2.128,0.057,4.46-1.991,4.46-4.312c0-2.833-1.468-4.085-2.97-4.085
					c-1.855,0-2.594,0.762-2.594,2.059c0,0.899,0.432,1.297,1.058,1.297c1.593,0,1.149-2.139,1.149-2.139
					c0.796,0.182,1.434,0.978,1.07,1.991c0.58,0.114,1.115,0.421,1.536,0.91c-0.421,0.41-0.91,0.74-1.536,0.842
					c0.375,1.24-0.125,1.832-1.195,2.082c0.205-0.466,0.216-0.899,0.148-1.32c-1.695,0.489-4.301-0.284-4.301-3.209
					c0-2.901,2.025-5.336,5.803-4.745c-0.899-0.444-1.354-1.308-1.445-2.298c0.683,0.273,1.445,0.319,1.445,0.319
					c-0.444-0.785-1.058-1.456-1.035-2.981c0.717,0.319,1.354,0.91,2.264,0.535c-1.411-2.765,0.319-6.599,4.722-7.487
					c-1.616,1.877-2.401,3.925-2.401,5.962c0,6.565,1.832,7.691,1.832,12.265c0,1.911-0.99,3.982-2.924,5.393v-0.08
					c1.274,0.341,2.094,0.967,2.583,1.843c-2.947,0.831-7.236,0.819-9.535-0.091c-2.651-0.307-4.494-2.332-5.04-3.356
					c-0.546-1.035-1.593-4.756,0-8.112c1.752-3.664,10.012-21.174,12.584-26.681c0.546-1.161,0.876-2.389,0.876-3.743
					c0-3.368-3.083-4.551-4.836-4.551c-2.094,0-4.233,1.604-4.233,3.607c0,1.24,0.683,2.002,1.673,2.002
					c2.378,0,2.23-2.002,1.752-3.277c1.479,0.66,2.332,1.855,2.094,3.106c0.842,0.114,1.638,0.489,2.378,1.331
					c-0.58,0.717-1.286,1.263-2.378,1.308c0.478,1.934-0.819,2.742-2.094,3.197c0.398-1.422,0.66-3.049-1.752-3.049
					c-1.764,0-3.152-0.307-3.959-1.456c-0.057,1.525-0.205,7.578-0.205,7.578c-0.091,2.253,3.038,2.196,5.04,1.525
					c-0.751,2.606-2.287,4.016-5.871,3.664c0.876,0.364,1.798,1.183,1.798,2.753c0,2.128-1.729,4.483-2.867,5.188L38.764-210.022z"
					/>
				<g transform="translate(3.457 28.521)">
					<path style="fill:#FFCC4D;" d="M35.876-77.615c0,0,2.697,2.264,3.607,1.138c1.468-1.843-4.528-10.934-4.528-14.143
						c0-5.245,3.516-6.679,7.839-7.418c2.913-0.512,7.646,0.205,7.646,0.205c-0.887,1.195-1.468,1.547-2.97,1.638
						c1.673,0.865,3.368,2.742,3.368,5.678c0,4.54-1.855,6.394-1.855,11.492c0,2.833,2.321,6.44,2.321,6.44
						c-4.096-0.421-6.144-4.21-4.983-7.248c-0.649-0.102-1.229,0.057-1.752,0.535c-0.296-0.842,0.182-1.82,0.808-2.662
						c-0.512-0.273-0.887-0.102-1.695,0.068c0.08-0.876,0.592-1.786,1.866-2.651c-3.686,0.956-5.962-1.616-5.962-4.312
						c0-2.037,1.434-3.482,2.822-3.482c0.444,0,1.115,0.182,1.49,0.466c0.262-0.569,0.125-1.308-0.159-1.866
						c1.024,0.262,1.673,0.876,1.217,2.128c0.785,0.08,1.399,0.341,1.82,0.842c-0.421,0.558-1.07,0.865-1.82,0.842
						c0.569,1.172-0.068,1.843-0.99,2.367c0,0,0.592-2.367-0.922-2.367c-0.683,0-1.297,0.228-1.297,1.217
						c0,0.865,0.762,2.071,2.514,1.991c1.764-0.068,3.174-1.206,3.174-4.005c0-2.583-2.082-3.868-4.824-3.959
						c-2.48-0.068-4.346,1.274-4.346,3.823c0,3.402,4.915,11.15,4.915,14.177c0,2.276-2.048,3.55-4.05,3.55
						c-2.583,0-4.779-2.571-4.779-2.571L35.876-77.615z"/>
					<path style="fill:#FFCC4D;" d="M35.876-77.615c0,0-2.697,2.264-3.607,1.138c-1.468-1.843,4.528-10.934,4.528-14.143
						c0-5.245-3.516-6.679-7.839-7.418c-2.913-0.512-7.646,0.205-7.646,0.205c0.887,1.195,1.468,1.547,2.97,1.638
						c-1.673,0.865-3.368,2.742-3.368,5.678c0,4.54,1.855,6.394,1.855,11.492c0,2.833-2.321,6.44-2.321,6.44
						c4.096-0.421,6.144-4.21,4.983-7.248c0.649-0.102,1.24,0.057,1.752,0.535c0.296-0.842-0.171-1.82-0.808-2.662
						c0.501-0.273,0.887-0.102,1.695,0.068c-0.08-0.876-0.603-1.786-1.866-2.651c3.686,0.956,5.962-1.616,5.962-4.312
						c0-2.037-1.434-3.482-2.822-3.482c-0.455,0-1.115,0.182-1.49,0.466c-0.262-0.569-0.125-1.308,0.148-1.866
						c-1.013,0.262-1.661,0.876-1.206,2.128c-0.785,0.08-1.399,0.341-1.82,0.842c0.421,0.558,1.07,0.865,1.82,0.842
						c-0.569,1.172,0.068,1.843,0.99,2.367c0,0-0.592-2.367,0.922-2.367c0.683,0,1.297,0.228,1.297,1.217
						c0,0.865-0.762,2.071-2.514,1.991c-1.764-0.068-3.174-1.206-3.174-4.005c0-2.583,2.082-3.868,4.824-3.959
						c2.48-0.068,4.346,1.274,4.346,3.823c0,3.402-4.915,11.15-4.915,14.177c0,2.276,2.048,3.55,4.039,3.55
						c2.594,0,4.779-2.571,4.779-2.571L35.876-77.615z"/>
				</g>
				<path style="fill:#FFCC4D;" d="M38.764-110.546c0-5.678,5.097-8.602,9.102-8.602c5.393,0,8.272,3.22,8.272,7.452
					c0,2.401-0.432,3.903-1.536,6.19c0,0-8.909,18.534-12.379,25.691c-0.421,0.899-0.58,1.911-0.58,3.402
					c0,2.31,2.253,4.187,4.585,4.255c2.128,0.046,4.46-2.002,4.46-4.324c0-2.833-1.468-4.096-2.97-4.096
					c-1.855,0-2.594,0.762-2.594,2.071c0,0.91,0.432,1.297,1.058,1.297c1.593,0,1.149-2.139,1.149-2.139
					c0.796,0.171,1.434,0.978,1.07,1.991c0.58,0.125,1.115,0.432,1.536,0.91c-0.421,0.41-0.91,0.74-1.536,0.842
					c0.375,1.229-0.125,1.82-1.195,2.082c0.205-0.478,0.216-0.91,0.148-1.32c-1.695,0.489-4.301-0.284-4.301-3.209
					c0-2.901,2.025-5.348,5.803-4.745c-0.899-0.432-1.354-1.308-1.445-2.287c0.683,0.262,1.445,0.296,1.445,0.296
					c-0.444-0.774-1.058-1.445-1.035-2.981c0.717,0.319,1.354,0.91,2.264,0.535c-1.411-2.765,0.319-6.588,4.722-7.487
					c-1.616,1.889-2.401,3.937-2.401,5.962c0,6.588,1.832,7.691,1.832,12.277c0,1.911-0.99,3.982-2.924,5.393v-0.091
					c1.274,0.353,2.094,0.99,2.583,1.855c-2.947,0.831-7.236,0.819-9.535-0.091c-2.651-0.307-4.494-2.332-5.04-3.368
					c-0.546-1.024-1.593-4.745,0-8.101c1.752-3.664,10.012-21.163,12.584-26.681c0.546-1.161,0.876-2.401,0.876-3.743
					c0-3.379-3.083-4.551-4.836-4.551c-2.094,0-4.233,1.593-4.233,3.595c0,1.263,0.683,2.025,1.673,2.025
					c2.378,0,2.23-2.014,1.752-3.288c1.479,0.66,2.332,1.843,2.094,3.095c0.842,0.114,1.638,0.512,2.378,1.343
					c-0.58,0.728-1.286,1.286-2.378,1.297c0.478,1.934-0.819,2.753-2.094,3.209c0.398-1.422,0.66-3.061-1.752-3.061
					c-1.764,0-3.152-0.296-3.959-1.445c-0.057,1.525-0.205,7.578-0.205,7.578c-0.091,2.253,3.038,2.196,5.04,1.513
					c-0.751,2.617-2.287,4.039-5.871,3.675c0.876,0.364,1.798,1.183,1.798,2.753c0,2.128-1.729,4.494-2.867,5.188L38.764-110.546z"
					/>
			</g>
		</g>
	</g>
</g>
<g>
</g>
<g>
</g>
<g>
</g>
<g>
</g>
<g>
</g>
<g>
</g>
<g>
</g>
<g>
</g>
<g>
</g>
<g>
</g>
<g>
</g>
<g>
</g>
<g>
</g>
<g>
</g>
<g>
</g>
</svg>
