<?xml version="1.0" encoding="iso-8859-1"?>
<!-- Generator: Adobe Illustrator 19.0.0, SVG Export Plug-In . SVG Version: 6.00 Build 0)  -->
<svg version="1.1" id="Capa_1" xmlns="http://www.w3.org/2000/svg" xmlns:xlink="http://www.w3.org/1999/xlink" x="0px" y="0px"
	 viewBox="0 0 511.998 511.998" style="enable-background:new 0 0 511.998 511.998;" xml:space="preserve">
<g>
	<g>
		<path d="M467.281,301.17c0-42.758-34.787-77.544-77.544-77.544h-84.685v-1.394c0-20.709,7.392-51.066,21.093-66.539
			c14.162-15.992,22.476-36.571,23.412-57.947c1.087-24.831-7.514-48.639-24.22-67.042c-16.694-18.389-39.539-29.246-64.328-30.57
			c-24.992-1.335-49.062,7.24-67.755,24.147c-18.687,16.9-29.626,39.972-30.8,64.965c-1.133,24.098,6.931,47.413,22.708,65.65
			c13.646,15.775,21.009,46.417,21.009,67.239v1.488h-83.911c-42.758,0-77.544,34.787-77.544,77.544V316.1h78.301
			c-6.637,16.71-10.091,34.611-10.091,52.825c0,78.891,64.183,143.072,143.072,143.072s143.071-64.18,143.071-143.07
			c0-18.214-3.454-36.115-10.091-52.825h78.301V301.17z M255.998,451.92c-45.658,0-82.803-37.146-82.803-82.804
			c0-20.152,7.244-38.64,19.255-53.014h127.095c12.011,14.374,19.255,32.86,19.255,53.014
			C338.801,414.774,301.657,451.92,255.998,451.92z"/>
	</g>
</g>
<g>
</g>
<g>
</g>
<g>
</g>
<g>
</g>
<g>
</g>
<g>
</g>
<g>
</g>
<g>
</g>
<g>
</g>
<g>
</g>
<g>
</g>
<g>
</g>
<g>
</g>
<g>
</g>
<g>
</g>
</svg>
