<?xml version="1.0" encoding="UTF-8"?>
<svg width="300px" height="200px" viewBox="0 0 300 200" version="1.1" xmlns="http://www.w3.org/2000/svg" xmlns:xlink="http://www.w3.org/1999/xlink">
    <!-- Generator: Sketch 47.1 (45422) - http://www.bohemiancoding.com/sketch -->
    <title>avatar</title>
    <desc>Created with Sketch.</desc>
    <defs>
        <rect id="path-1" x="0" y="0" width="300" height="200"></rect>
    </defs>
    <g id="Page-1" stroke="none" stroke-width="1" fill="none" fill-rule="evenodd">
        <g id="avatar">
            <g id="Rectangle-7">
                <use fill-opacity="0" fill="#D8D8D8" fill-rule="evenodd" xlink:href="#path-1"></use>
                <rect stroke="#F6F9FC" stroke-width="1" x="0.5" y="0.5" width="299" height="199"></rect>
            </g>
            <g transform="translate(46.000000, 0.000000)" id="Shape" fill-rule="nonzero" fill="#E2E7EC">
                <path d="M129.357407,140.448148 C124.239352,139.633796 124.122685,125.560648 124.122685,125.560648 C124.122685,125.560648 139.161574,110.672685 142.439352,90.6527778 C151.256481,90.6527778 156.702778,69.3689815 147.883796,61.8805556 C148.253241,53.9976852 159.217593,0 103.703704,0 C48.1893519,0 59.1550926,53.9976852 59.5222222,61.8805556 C50.7041667,69.3689815 56.149537,90.6527778 64.9671296,90.6527778 C68.2444444,110.672685 83.2837963,125.560648 83.2837963,125.560648 C83.2837963,125.560648 83.1671296,139.633796 78.0490741,140.448148 C61.562963,143.071296 0,170.225 0,200 L103.703704,200 L207.407407,200 C207.407407,170.225 145.843981,143.071296 129.357407,140.448148 Z"></path>
            </g>
        </g>
    </g>
</svg>