<?xml version="1.0" encoding="iso-8859-1"?>
<!-- Generator: Adobe Illustrator 17.1.0, SVG Export Plug-In . SVG Version: 6.00 Build 0)  -->
<!DOCTYPE svg PUBLIC "-//W3C//DTD SVG 1.1//EN" "http://www.w3.org/Graphics/SVG/1.1/DTD/svg11.dtd">
<svg width="18px" height="18px" version="1.1" id="Capa_1" xmlns="http://www.w3.org/2000/svg" xmlns:xlink="http://www.w3.org/1999/xlink" x="0px" y="0px"
	 viewBox="0 0 435.45 435.45" style="enable-background:new 0 0 435.45 435.45;" xml:space="preserve" fill="#3D5AFE">
<path d="M435.115,312.688c-0.544-15.472-1.608-29.929-1.653-30.537c-0.09-1.214-0.265-2.4-0.505-3.561
	c0.009-1.15,0.02-2.294,0.032-3.428c0.181-17.994,0.352-34.989-9.633-48.308c-10.794-14.396-32.096-22.263-67.033-24.755
	l-6.093-0.43l-19.882,37.597c-2.607,4.929-7.694,7.991-13.277,7.991c-2.454,0-4.807-0.587-6.995-1.744
	c-3.542-1.873-6.143-5.013-7.322-8.842c-1.18-3.829-0.798-7.889,1.075-11.43l14.878-28.134l-6.186-1.55
	c-8.087-2.027-16.011-4.524-23.553-7.421l-4.14-1.591l-17.496,33.083c-2.607,4.929-7.694,7.991-13.277,7.991
	c-2.454,0-4.807-0.587-6.996-1.744c-3.542-1.873-6.142-5.013-7.322-8.842c-1.18-3.829-0.798-7.889,1.075-11.43l17.3-32.714
	l-3.769-2.503c-6.271-4.164-12.261-8.771-17.806-13.694l-4.763-4.229l-17.458,33.012c-2.607,4.93-7.695,7.992-13.277,7.992
	c-2.454,0-4.807-0.587-6.995-1.744c-3.542-1.873-6.143-5.013-7.323-8.842c-1.18-3.829-0.798-7.889,1.075-11.431l23.157-43.789
	l-1.623-2.471c-4.069-6.191-7.812-12.814-11.126-19.688c-11.006-22.823-21.905-66.689-22.282-71.337
	c-0.081-5.663-7.308-7.122-11.2-7.908c-4.64-0.938-11.188-1.768-19.46-2.469c-15.697-1.331-36.564-2.094-57.252-2.094
	c-21.158,0-40.362,0.802-54.076,2.259C13.1,26.169,5.354,29.505,5.354,36.264v231.989c0,8.09,5.803,14.849,13.464,16.335v26.731
	c0,9.181,7.464,16.649,16.639,16.649h16.238v17.607c-5.34-1.589-9.316-3.176-12.488-4.667c-13.745-6.463-30.125-0.558-36.587,13.187
	c-6.462,13.744-0.559,30.125,13.186,36.587c25.484,11.981,68.901,23.068,212.796,23.068c61.913,0,111.201-5.777,146.494-17.17
	c32.35-10.443,46.936-23.782,53.477-33.134C434.797,354.547,436.203,343.636,435.115,312.688z M106.695,327.969h16.679
	c9.175,0,16.639-7.469,16.639-16.649v-26.165c17.765,0.96,42.882,2.774,47.93,4.41c6.896,2.234,13.892,4.652,20.657,6.992
	c2.738,0.947,5.486,1.896,8.244,2.84v59.328c-48.975-0.222-84.318-1.836-110.149-4.162V327.969z M380.374,334.264
	c-8.659,5.85-36.157,19.397-108.53,23.371v-43.33c8.105,1.271,16.318,2.015,24.655,2.015h0.19l83.278-6.339
	C380.362,319.559,380.541,328.465,380.374,334.264z"/>
<g>
</g>
<g>
</g>
<g>
</g>
<g>
</g>
<g>
</g>
<g>
</g>
<g>
</g>
<g>
</g>
<g>
</g>
<g>
</g>
<g>
</g>
<g>
</g>
<g>
</g>
<g>
</g>
<g>
</g>
</svg>
