<?xml version="1.0" encoding="UTF-8"?>
<svg width="53px" height="40px" viewBox="0 0 53 40" version="1.1" xmlns="http://www.w3.org/2000/svg" xmlns:xlink="http://www.w3.org/1999/xlink">
    <!-- Generator: Sketch 47.1 (45422) - http://www.bohemiancoding.com/sketch -->
    <title>logo</title>
    <desc>Created with Sketch.</desc>
    <defs>
        <path d="M31.9895967,21.7168129 C31.8437711,23.2148461 31.3040995,24.8341873 30.2546226,26.5897024 C29.9780344,27.0537645 29.6472972,27.4929704 29.2683843,27.9018492 C26.9260848,30.4422977 22.7827156,31.8907375 18.3131541,32.0077639 C16.6624549,32.0504595 14.9665667,31.9114312 13.3008045,31.5781913 C12.4964912,31.4170421 9.54237905,30.2940458 7.1006739,28.9419467 C4.65896874,27.5898475 3.50750441,26.4422301 3.04145978,25.8970583 C2.02366713,24.7115712 -0.815861198,23.845927 0.341783797,24.4889777 C2.94262189,25.9375363 5.72657287,21.3038904 11.3597526,18.6780507 C16.9944906,16.05233 15.4350859,9.63704065 14.9283971,7.85952356 C14.7133595,7.10087366 14.4804021,5.81477237 15.1329166,4.38559916 C15.5477989,3.47959586 18.4121371,0.0471567267 21.2470426,0.078732838 C24.081948,0.110308949 24.9767781,1.40229846 25.7586268,1.9641204 C26.6681215,2.61953969 26.8162703,3.37493809 26.6238273,4.38559916 C26.4478524,5.31050801 24.571031,6.73276139 23.8368255,7.49840425 C22.8210895,8.55763223 24.0963555,11.0475644 26.0885943,12.5549321 C29.8501939,15.3994828 32.4631729,16.8866189 31.9895967,21.7168129 Z" id="path-1"></path>
    </defs>
    <g id="r" stroke="none" stroke-width="1" fill="none" fill-rule="evenodd">
        <g id="logo">
            <g>
                <g id="Path-3" transform="translate(8.920195, 0.824427)">
                    <g id="Path-6">
                        <mask id="mask-2" fill="white">
                            <use xlink:href="#path-1"></use>
                        </mask>
                        <use id="Mask" fill="#E2E7EC" fill-rule="nonzero" xlink:href="#path-1"></use>
                        <path d="M26.8476976,2.33587786 C26.1285737,2.45892256 25.7848429,2.64789982 25.8165052,2.90280967 C25.8395648,3.08846042 26.047185,3.39309664 26.5708755,3.53017276 C26.7011212,3.5642646 26.9532456,3.5642646 27.3272487,3.53017276 L26.8476976,2.33587786 Z" fill="#2B313A" mask="url(#mask-2)"></path>
                    </g>
                </g>
                <path d="M26.2056595,12.2366646 C24.0835566,8.6859014 24.1329992,6.02079791 24.701442,4.72419725 C25.2698848,3.42759658 26.20363,2.23173222 27.9221691,1.65085536 C29.0678618,1.26360412 30.4037024,1.0699785 31.9296907,1.0699785 C30.5442194,0.389880022 29.1262075,0.0815717802 27.6756551,0.14505377 C25.6821774,0.232296351 24.2458994,0.674516355 22.6211964,2.25212662 C20.9964934,3.82973688 21.0023977,6.27081802 21.2533331,7.50488219 C21.5042686,8.73894635 26.0515147,16.6816038 20.3867824,19.2955968 C14.7221807,21.9095897 8.38140492,23.7938936 5.92903068,25.5590048 C5.21613088,26.0721188 -1.8161386,31.3690492 0.453455404,34.7051875 C2.7230494,38.0413259 4.39015408,33.1083362 5.92903068,33.2481509 C7.99419964,33.4357819 14.2906402,34.0751973 14.0367371,33.2481509 C13.3952407,31.1585858 7.79826244,29.3215606 9.6552499,28.31587 C11.5122374,27.3101794 12.9180985,29.1507223 16.3850767,30.3236372 C17.6140006,30.7393949 19.5177423,31.4375709 22.0963019,32.418165 C21.3682705,30.5957575 21.087281,28.9192881 21.2533331,27.3887568 C21.5024114,25.09296 27.6312868,14.6220649 26.2056595,12.2366646 Z" id="Shape" fill="#C6D0DA" fill-rule="nonzero"></path>
                <ellipse id="Oval" fill="#2B313A" fill-rule="nonzero" cx="27.774242" cy="4.19083969" rx="1.14881293" ry="1.03053435"></ellipse>
            </g>
            <g id="hockey" transform="translate(17.000000, 6.000000)" fill-rule="nonzero">
                <path d="M0.388585076,0.373847269 C0.989834446,-0.200673615 1.92570375,-0.0916551005 2.38830582,0.554430085 L19.2819466,23.7680166 C20.3964577,25.2996265 21.5809589,26.078139 23.470695,26.0841585 L34.2558556,26.0841585 C34.3471761,26.0841585 34.4371636,26.0908467 34.5244847,26.1028856 C35.7303163,26.2720984 36.3462303,27.6706119 35.7983068,28.7621347 L34.5964747,31.1571979 C34.3465096,31.6588169 33.7332619,32.1035857 33.1746732,32.1035857 L23.4700285,32.1035857 C21.1176903,32.1035857 18.9253298,30.9104014 17.6415091,28.9326852 L0.237272873,2.11479938 C-0.116677698,1.56903798 -0.0813492981,0.823297833 0.388585076,0.373847269 Z" id="Shape" fill="#CB8252"></path>
                <polygon id="Shape" fill="#FFFFFF" points="25.3082707 31.9681275 29.9398496 31.9681275 31.2631579 26.0079681 26.6315789 26.0079681"></polygon>
                <polygon id="Shape" fill="#FFFFFF" points="3.23867216 6.75513436 6.94226904 12.4511368 9.7271543 10.6109421 5.55711462 4.87649402"></polygon>
                <path d="M12.8120301,34 L8.30075188,34 C7.30827068,34 6.4962406,33.1770916 6.4962406,32.1713147 L6.4962406,32.1713147 C6.4962406,31.1655378 7.30827068,30.3426295 8.30075188,30.3426295 L12.8120301,30.3426295 C13.8045113,30.3426295 14.6165414,31.1655378 14.6165414,32.1713147 L14.6165414,32.1713147 C14.6165414,33.1770916 13.8045113,34 12.8120301,34 Z" id="Shape" fill="#38454F"></path>
            </g>
            <path d="M37.2474134,20.0887316 C38.4968103,20.5547007 44.514187,24.0308707 43.9646284,25.808789 C43.4150699,27.5867073 37.1754313,27.1934412 34.2919952,25.8155268 C31.408559,24.4376124 29.4399822,23.9557012 30.1430513,22.5151707 C30.8461205,21.0746402 35.9980165,19.6227624 37.2474134,20.0887316 Z" id="Shape" fill="#C6D0DA" fill-rule="nonzero" transform="translate(37.000000, 23.500000) rotate(110.000000) translate(-37.000000, -23.500000) "></path>
            <path d="M20.5256233,21.9695605 C25.8299887,20.1751892 28.8867118,19.6068916 29.6957925,20.2646676 C30.9094137,21.2513316 28.2006089,25.1686196 26.6870819,26.6512267 C25.6780639,27.6396314 23.4490366,28.4225558 20,29 L20.5256233,21.9695605 Z" id="Path-7" fill="#C6D0DA"></path>
        </g>
    </g>
</svg>