<?xml version="1.0" encoding="UTF-8"?>
<svg width="38px" height="40px" viewBox="0 0 38 40" version="1.1" xmlns="http://www.w3.org/2000/svg" xmlns:xlink="http://www.w3.org/1999/xlink">
    <!-- Generator: Sketch 47.1 (45422) - http://www.bohemiancoding.com/sketch -->
    <title>logo</title>
    <desc>Created with Sketch.</desc>
    <defs>
        <path d="M33.9644161,19.4343015 C33.8408994,20.6802847 33.3837884,22.0271653 32.4948637,23.4873081 C32.2605888,23.8732899 31.9804488,24.2385976 31.6595032,24.578681 C29.6755359,26.6916889 26.1660322,27.8964229 22.380238,27.9937592 C20.9820679,28.0292711 19.5456219,27.9136348 18.1346931,27.6364639 C17.4534262,27.5024287 16.7772187,27.3317935 16.1137698,27.1210961 C14.5793243,27.6880007 12.7430711,28.0396576 10.6342672,27.8781229 C9.32650741,27.7785115 8.70122444,26.3882055 9.55319311,25.4891311 C9.9301227,25.0917736 10.3312497,24.6485177 10.7196181,24.1766743 C10.2675665,23.7873293 9.8396024,23.3646486 9.44485472,22.911204 C8.58276714,21.9251798 7.2622487,21.3560001 5.86660832,21.3617374 C4.45182999,21.3685628 2.64362384,21.2563887 1.15757315,20.7742577 C-0.318248641,20.2955889 -0.401069762,18.4379897 1.01370857,17.8252857 C1.7242324,17.5195272 2.56212257,17.2263314 3.4713951,17.0419464 C4.89255274,16.7533009 5.4171965,15.1385478 4.34745118,14.2475847 C4.31566459,14.2223604 4.28376801,14.197235 4.25066156,14.1720106 C3.68785189,13.7482418 3.91706732,12.9283025 4.62627129,12.7587554 C5.58646835,12.528571 6.72484631,12.4712969 7.7053912,13.0061518 C9.90834503,14.2109847 11.7191909,19.0908549 16.4905894,16.9068231 C21.2633077,14.7228903 15.8526578,8.78814835 15.4234838,7.30970557 C15.2413433,6.67870152 15.0440245,5.60899188 15.5967152,4.42028273 C15.9481275,3.66671808 16.6001376,2.86507883 17.7487445,2.09885256 C18.3676482,1.68428319 19.1304164,1.28118843 20.0676259,0.899756918 C20.7527425,0.620310854 21.5307991,0.353427498 22.4132345,0.103756041 C23.2166983,-0.122966217 24.0915445,0.0281819553 24.7537835,0.495475125 C25.524141,1.04061752 25.8795129,1.89606869 25.7165103,2.73668202 C25.3612484,4.57024387 25.216064,7.92003555 28.1232723,10.08003 C31.3094108,12.4459737 34.3655431,15.4168068 33.9644161,19.4343015 Z" id="path-1"></path>
    </defs>
    <g id="r" stroke="none" stroke-width="1" fill="none" fill-rule="evenodd">
        <g id="logo">
            <g id="Path-3" transform="translate(0.000000, 12.000000)">
                <mask id="mask-2" fill="white">
                    <use xlink:href="#path-1"></use>
                </mask>
                <use id="Mask" fill="#E2E7EC" fill-rule="nonzero" xlink:href="#path-1"></use>
                <path d="M22.9962066,-0.264783246 C22.6794198,0.585519014 22.6794198,1.0541051 22.9962066,1.14097502 C23.3129935,1.22784495 23.8924691,0.918163831 24.7346335,0.211931684 L22.9962066,-0.264783246 Z" fill="#2B313A" mask="url(#mask-2)"></path>
            </g>
            <path d="M33.1782501,31 C33.1782501,31 38.4411445,34.3305972 37.970176,36.0760964 C37.4992076,37.8215957 30.8104164,36.5578346 30.8104164,36.5578346 C31.1396086,36.1900123 27.7709811,32.923426 28.0123962,32.5061263 C28.925413,30.9280812 33.0511598,32.3462593 33.1782501,31 Z" id="Shape" fill="#C6D0DA" fill-rule="nonzero"></path>
            <g id="Group" transform="translate(18.000000, 0.000000)" fill-rule="nonzero">
                <path d="M5.82988471,0.00245864944 C9.14192394,-0.0914773521 11.9036,2.51795027 11.997536,5.82988347 C12.091578,9.14319497 9.48204436,11.9035987 6.17011116,11.9975347 C2.85679966,12.0915768 0.096395894,9.48342141 0.00245989239,6.17010991 C-0.0914761092,2.85807069 2.51657322,0.0965006736 5.82988471,0.00245864944 Z" id="Shape" fill="#7688ED"></path>
                <path d="M4.01150243,6.05655673 C3.9372945,3.44564111 5.54743655,1.17781503 7.8600024,0.288284365 C7.22657709,0.0849327792 6.5489247,-0.0174851728 5.84596932,0.0024470994 C2.52351642,0.0964892562 -0.0917284911,2.85806317 0.00246667921,6.17010706 C0.0967681647,9.48342323 2.86478787,12.0914762 6.18713445,11.9975401 C6.89008983,11.9776078 7.56093805,11.8372337 8.18181818,11.5983645 C5.82226106,10.8412563 4.08581668,8.66863859 4.01150243,6.05655673 Z" id="Shape" fill="#3D5AFE"></path>
            </g>
            <path d="M20.296857,22.7928297 C19.193093,21.3128325 18.5409779,19.6473159 18.155642,18.1792973 L18.1557511,18.1793963 C18.1557511,18.1793963 17.987787,14.7363981 19.8996329,13 C18.9702679,13.3816314 18.2139932,13.785141 17.6002699,14.1999362 L17.6002699,14.1997382 C17.5899084,14.206767 17.5805286,14.2136967 17.5703853,14.2207255 C17.4980735,14.2699267 17.4277249,14.3192269 17.3592305,14.3686262 C17.335781,14.3855546 17.3129858,14.402681 17.2900816,14.4196094 C17.2330393,14.4617819 17.1771967,14.5039544 17.122881,14.5461269 C17.1022672,14.5621643 17.0817625,14.5781027 17.061585,14.5941401 C16.9983258,14.6443314 16.9369208,14.6948196 16.8774789,14.7451098 C16.8694079,14.7518415 16.8609006,14.7587713 16.8529387,14.765503 C16.7832445,14.8251979 16.716168,14.8848928 16.651709,14.9446866 C16.6438561,14.9519134 16.6365486,14.9592391 16.6286957,14.9664659 C16.5740529,15.017548 16.5212642,15.0687292 16.4701115,15.1199104 C16.4563689,15.1337699 16.4427355,15.1475304 16.4292111,15.1613899 C16.3826393,15.2089082 16.3374853,15.2566245 16.2938582,15.3042418 C16.2832787,15.3158244 16.2723719,15.327308 16.2620105,15.3386926 C16.1558877,15.4563004 16.0589266,15.5739082 15.9701456,15.690922 C15.9604386,15.7038906 15.9510588,15.7166611 15.9414608,15.7295306 C15.9071045,15.775861 15.8740571,15.8219933 15.8422093,15.8681257 C15.8327204,15.8818862 15.8231225,15.8956467 15.8139608,15.9094072 C15.7777504,15.9631623 15.7428487,16.0168184 15.7100194,16.0701775 C15.7079471,16.0735434 15.7057658,16.0768103 15.7036935,16.0801761 C15.6669377,16.140267 15.6322542,16.2001599 15.5995339,16.2598547 C15.5969163,16.2647056 15.5945168,16.2693584 15.5920083,16.2741102 C15.56256,16.3280633 15.5349659,16.3818184 15.5086806,16.4354745 C15.5046451,16.4436912 15.5007187,16.4519079 15.4966832,16.4601246 C15.4865399,16.4811118 15.4758513,16.5021981 15.4661443,16.5230863 L15.4675621,16.5239773 C14.9194975,17.7130239 15.1136378,18.7835717 15.2949081,19.4152682 C15.7200536,20.8949684 21.0850885,26.8337666 16.3529729,29.0195096 C11.6209663,31.2052527 9.82614994,26.3210639 7.64098071,25.1160789 C6.66918845,24.580409 5.54044793,24.6381239 4.58752436,24.8678947 C3.88414745,25.0372777 3.65717779,25.8583544 4.2148404,26.2821583 C4.24843322,26.3076994 4.27962655,26.3332404 4.31071081,26.3588805 C5.37193849,27.2500467 4.85146794,28.8662631 3.44176929,29.1549368 C2.54054377,29.3397632 1.70966684,29.6329908 1.00541739,29.9388898 C-0.397846263,30.551777 -0.315609298,32.4117226 1.14818687,32.8899746 C2.62103565,33.3725824 4.41454316,33.4847454 5.81780682,33.4783106 C7.20089297,33.4724698 8.5110129,34.0418975 9.36544843,35.0288923 C9.75743736,35.4831871 10.1810559,35.905704 10.6291056,36.2954531 L10.6304144,36.2954531 C10.2446423,36.7674683 9.84676372,37.2110715 9.4725528,37.6095323 C8.62782429,38.5084202 9.24852797,39.9004096 10.5452326,40 C17.210026,36.8344889 23.065647,26.5042073 20.296857,22.7928297 Z" id="Shape" fill="#C6D0DA" fill-rule="nonzero"></path>
            <circle id="Oval" fill="#2B313A" fill-rule="nonzero" cx="20" cy="17" r="1"></circle>
            <path d="M19,37 C19,37 18.6757751,37.898911 17.878092,39 C17.2449744,38.8873556 16.6165588,38.7439521 16,38.56688 C16.0001022,38.5669632 18.2508688,37.6092776 19,37 Z" id="Shape" fill="#C6D0DA" fill-rule="nonzero"></path>
        </g>
    </g>
</svg>