<?xml version="1.0" encoding="UTF-8"?>
<svg width="43px" height="41px" viewBox="0 0 43 41" version="1.1" xmlns="http://www.w3.org/2000/svg" xmlns:xlink="http://www.w3.org/1999/xlink">
    <!-- Generator: Sketch 47.1 (45422) - http://www.bohemiancoding.com/sketch -->
    <title>logo</title>
    <desc>Created with Sketch.</desc>
    <defs>
        <path d="M36.380417,21.2307495 C36.248114,22.5919077 35.7584872,24.0632898 34.8063304,25.6584038 C34.5553908,26.0800645 34.2553235,26.4791402 33.911548,26.8506599 C31.7864546,29.1589879 28.0273082,30.4750838 23.9722181,30.5814176 C22.4745915,30.6202121 20.9359664,30.4938868 19.4246736,30.191095 C18.6949459,30.04467 17.9706375,29.8582618 17.2599953,29.6280882 C15.6163997,30.2473957 13.6495278,30.6315587 11.3907177,30.4550922 C9.98993261,30.3462731 9.3201712,28.8274514 10.2327432,27.8452692 C10.636485,27.4111813 11.0661455,26.9269522 11.4821398,26.4114929 C10.9979324,25.986158 10.5395257,25.524406 10.1166984,25.0290464 C9.19328764,23.9518771 7.77883638,23.3300842 6.2839195,23.3363518 C4.76850332,23.3438082 2.83167351,23.221265 1.23991514,22.6945673 C-0.340886715,22.1716517 -0.429599176,20.1423417 1.085817,19.4730012 C1.84688273,19.1389793 2.74437479,18.8186813 3.71832687,18.6172524 C5.24057614,18.3019254 5.80253953,16.5379093 4.6566997,15.5645883 C4.62265203,15.5370323 4.58848654,15.5095844 4.55302512,15.4820284 C3.95018095,15.0190877 4.19570122,14.1233557 4.95535321,13.9381362 C5.98385225,13.6866742 7.20320679,13.6241059 8.25350106,14.2084011 C10.6131583,15.5246051 12.5528156,20.8555557 17.6636193,18.4696387 C22.7758369,16.0838298 16.9803096,9.6004982 16.520607,7.98539264 C16.3255103,7.29606048 16.1141555,6.12747012 16.706161,4.82888029 C17.0825704,4.00565841 17.7809601,3.12991805 19.0112712,2.29286414 C19.6741995,1.83997324 20.4912259,1.39961761 21.4951023,0.982927725 C22.2289534,0.677650512 23.0623557,0.386097267 24.0075617,0.113346936 C24.8681786,-0.134332842 25.8052555,0.03078701 26.5146017,0.541275347 C27.3397572,1.13680905 27.7204079,2.07133554 27.5458104,2.98965262 C27.1652776,4.99270339 27.0097657,8.65213968 30.1237733,11.0117975 C33.5365523,13.5964418 36.8100774,16.8418898 36.380417,21.2307495 Z" id="path-1"></path>
    </defs>
    <g id="r" stroke="none" stroke-width="1" fill="none" fill-rule="evenodd">
        <g id="logo">
            <g transform="translate(0.000000, 0.058824)">
                <g id="Path-3">
                    <mask id="mask-2" fill="white">
                        <use xlink:href="#path-1"></use>
                    </mask>
                    <use id="Mask" fill="#E2E7EC" fill-rule="nonzero" xlink:href="#path-1"></use>
                    <path d="M24.6320026,-0.289259009 C24.422286,0.373193685 24.4579793,0.747224145 24.7390827,0.832832374 C25.0201861,0.918440602 25.4536087,0.658008468 26.0393504,0.0515359715 L24.6320026,-0.289259009 Z" fill="#2B313A" mask="url(#mask-2)"></path>
                </g>
                <path d="M36.4838831,21.2244898 C36.4838831,21.2244898 42.0338334,24.5510887 41.5371768,26.2944925 C41.0405201,28.0378963 33.9868999,26.7756523 33.9868999,26.7756523 C34.3340473,26.4082716 30.7816836,23.1456068 31.0362663,22.728808 C31.9990821,21.1526574 36.3498609,22.5691329 36.4838831,21.2244898 Z" id="Shape" fill="#C6D0DA" fill-rule="nonzero"></path>
                <path d="M22.0438998,11.5153954 C20.8451298,9.90714626 20.1368841,8.09730118 19.7183807,6.50206862 L19.7184992,6.50217619 C19.7184992,6.50217619 19.5360777,2.7608185 21.6124848,0.87394958 C20.6031251,1.28865196 19.7817544,1.72712845 19.1152051,2.17786852 L19.1152051,2.17765337 C19.1039519,2.1852912 19.0937647,2.19282147 19.0827483,2.20045931 C19.0042123,2.25392418 18.9278085,2.30749663 18.8534184,2.36117665 C18.8279505,2.37957201 18.8031932,2.39818251 18.7783176,2.41657787 C18.7163653,2.46240491 18.6557161,2.50823194 18.5967252,2.55405897 C18.5743372,2.57148615 18.5520675,2.58880576 18.5301532,2.60623294 C18.461449,2.66077356 18.3947586,2.71563691 18.3302003,2.77028511 C18.3214346,2.77760023 18.312195,2.78513049 18.3035478,2.7924456 C18.2278547,2.85731345 18.1550045,2.92218129 18.0849973,2.98715671 C18.0764685,2.99500969 18.068532,3.00297026 18.0600032,3.01082325 C18.000657,3.06633205 17.9433245,3.12194842 17.8877689,3.1775648 C17.8728435,3.19262533 17.8580365,3.20757828 17.843348,3.22263881 C17.7927675,3.2742749 17.7437269,3.32612614 17.6963447,3.37786981 C17.6848545,3.39045611 17.673009,3.40293483 17.6617557,3.41530598 C17.5464985,3.54310531 17.4411915,3.67090464 17.3447687,3.79805852 C17.3342261,3.81215087 17.324039,3.82602807 17.3136149,3.84001285 C17.2763014,3.89035804 17.2404093,3.94048808 17.2058203,3.99061812 C17.1955147,4.00557107 17.1850906,4.02052403 17.1751403,4.03547698 C17.1358131,4.09389031 17.0979073,4.15219607 17.0622522,4.2101791 C17.0600016,4.21383665 17.0576325,4.21738663 17.0553818,4.22104419 C17.0154623,4.28634233 16.9777934,4.35142533 16.9422568,4.41629317 C16.9394138,4.42156435 16.9368078,4.42662039 16.9340833,4.431784 C16.9021003,4.49041248 16.8721311,4.54882581 16.8435833,4.60713156 C16.8392004,4.6160603 16.834936,4.62498905 16.8305532,4.63391779 C16.8195368,4.65672373 16.8079282,4.67963724 16.7973856,4.70233561 L16.7989256,4.70330379 C16.2036865,5.99538945 16.4145373,7.15870761 16.6114104,7.84514493 C17.0731501,9.45307136 22.899978,15.9065073 17.7605476,18.28166 C12.6212357,20.6568127 10.6719314,15.3493754 8.29867467,14.0399701 C7.24323583,13.4578807 6.01733948,13.5205971 4.98239345,13.7702791 C4.21847369,13.9543402 3.97196772,14.8465689 4.57763088,15.3070983 C4.61411518,15.3348527 4.64799347,15.3626071 4.68175329,15.3904691 C5.83432567,16.358861 5.26905585,18.1151336 3.73801803,18.4288229 C2.75921993,18.6296658 1.85682564,18.9483035 1.09195824,19.2807109 C-0.432090701,19.9467089 -0.342775226,21.9678316 1.24701654,22.4875274 C2.84664011,23.0119565 4.79452297,23.1338392 6.31857191,23.1268468 C7.82070657,23.1204999 9.24359449,23.7392724 10.1715752,24.8117971 C10.5973044,25.3054596 11.0573857,25.7645906 11.544001,26.1881141 L11.5454225,26.1881141 C11.1264453,26.7010326 10.6943195,27.1830771 10.2878985,27.6160672 C9.37046037,28.59285 10.0445908,30.1054648 11.4529087,30.2136855 C18.6913712,26.773861 25.0510121,15.5483895 22.0438998,11.5153954 Z" id="Shape" fill="#C6D0DA" fill-rule="nonzero"></path>
                <ellipse id="Oval" fill="#2B313A" fill-rule="nonzero" cx="22.0105269" cy="4.18247299" rx="1.04228122" ry="1"></ellipse>
                <path d="M20.6003817,27.4669868 C20.6003817,27.4669868 20.2425698,28.6453911 19.3622532,30.0888355 C18.6635498,29.9411672 17.9700354,29.7531761 17.2896061,29.521048 C17.2897189,29.521157 19.7736467,28.2657036 20.6003817,27.4669868 Z" id="Shape" fill="#C6D0DA" fill-rule="nonzero"></path>
                <path d="M33.4444444,40.1527888 L29.5555556,40.1527888 C28.7,40.1527888 28,39.4434114 28,38.5763944 L28,38.5763944 C28,37.7093775 28.7,37 29.5555556,37 L33.4444444,37 C34.3,37 35,37.7093775 35,38.5763944 L35,38.5763944 C35,39.4434114 34.3,40.1527888 33.4444444,40.1527888 Z" id="Shape" fill="#38454F" fill-rule="nonzero"></path>
            </g>
            <g id="hockey" transform="translate(12.000000, 7.000000)" fill-rule="nonzero">
                <path d="M0.330170326,0.911752718 C0.841035804,0.421273925 1.63621888,0.514344988 2.02927945,1.06591951 L16.3833534,20.8837751 C17.3303235,22.1913379 18.3367625,22.855968 19.9424206,22.8611069 L29.1062825,22.8611069 C29.1838752,22.8611069 29.2603351,22.8668168 29.3345295,22.8770946 C30.3590923,23.0215546 30.8824179,24.2154908 30.416862,25.1473434 L29.3956974,27.1920518 C29.1833088,27.6202929 28.6622487,28 28.1876308,28 L19.9418542,28 C17.9431355,28 16.0803456,26.9813572 14.9895175,25.2929453 L0.201604402,2.39803479 C-0.0991379133,1.93210848 -0.0691203187,1.29545673 0.330170326,0.911752718 Z" id="Shape" fill="#CB8252"></path>
                <polygon id="Shape" fill="#FFFFFF" points="21.4977557 27.8765432 25.4151246 27.8765432 26.5343728 22.8148148 22.617004 22.8148148"></polygon>
                <polygon id="Shape" fill="#FFFFFF" points="2.91527868 6.60417864 6.09139253 11.5461975 8.43989076 9.90073529 4.89049898 4.99478692"></polygon>
            </g>
        </g>
    </g>
</svg>