<?xml version="1.0" encoding="UTF-8"?>
<svg width="45px" height="35px" viewBox="0 0 45 35" version="1.1" xmlns="http://www.w3.org/2000/svg" xmlns:xlink="http://www.w3.org/1999/xlink">
    <!-- Generator: Sketch 47.1 (45422) - http://www.bohemiancoding.com/sketch -->
    <title>logo</title>
    <desc>Created with Sketch.</desc>
    <defs>
        <path d="M34.8460428,18.4391828 C34.7193199,19.711124 34.2503435,21.0860646 33.3383446,22.576627 C33.0979886,22.9706501 32.8105769,23.3435684 32.4813004,23.6907368 C30.4458346,25.8477657 26.8452333,27.0775984 22.96117,27.1769625 C21.526707,27.2132142 20.0529747,27.0951689 18.6054219,26.8122235 C17.9064711,26.6753959 15.3393381,25.7218889 13.2174884,24.5738566 C11.0956388,23.4258242 10.0950125,22.4514121 9.69001824,21.9885208 C8.80555314,20.9819544 7.45075753,20.4009168 6.01889,20.4067736 C4.56738776,20.4137412 2.71224534,20.2992302 1.18762069,19.8070548 C-0.326509536,19.3184137 -0.411480476,17.4221145 1.04002177,16.7966458 C1.76898892,16.4845173 2.62862852,16.1852133 3.56150336,15.996987 C5.01955051,15.702328 5.55781263,14.0539342 4.46029955,13.1444094 C4.42768786,13.1186595 4.39496333,13.0930107 4.36099752,13.0672608 C3.7835788,12.6346635 4.01874406,11.7976422 4.74635709,11.6245628 C5.73147834,11.3895829 6.89940559,11.3311156 7.90540283,11.8771132 C10.1655395,13.1070469 12.0233902,18.088581 16.9186416,15.8590486 C21.8152471,13.6296172 20.4601194,8.18256137 20.0198052,6.67331769 C19.8329368,6.02916772 19.6304961,4.93717247 20.1975333,3.72369854 C20.5580673,2.95443464 23.0471865,0.040039554 25.5107285,0.0668500116 C27.9742705,0.0936604691 28.7518808,1.19065527 29.4313098,1.66768371 C30.2216636,2.22418324 30.3504054,2.86557244 30.1831718,3.72369854 C30.030249,4.50901467 28.3992852,5.71661314 27.7612583,6.36670065 C26.8785804,7.26606366 27.9867907,9.38020053 29.7180526,10.6600674 C32.9868948,13.0753016 35.257582,14.3379903 34.8460428,18.4391828 Z" id="path-1"></path>
    </defs>
    <g id="r" stroke="none" stroke-width="1" fill="none" fill-rule="evenodd">
        <g id="logo">
            <g>
                <g id="Path-3" transform="translate(0.000000, 0.700000)">
                    <g id="Path-6">
                        <mask id="mask-2" fill="white">
                            <use xlink:href="#path-1"></use>
                        </mask>
                        <use id="Mask" fill="#E2E7EC" fill-rule="nonzero" xlink:href="#path-1"></use>
                        <path d="M30.3777159,1.98333333 C29.7527949,2.08780739 29.4540917,2.24826309 29.4816063,2.46470043 C29.5016452,2.62233167 29.6820678,2.88099039 30.1371565,2.99737816 C30.2503405,3.02632467 30.4694374,3.02632467 30.7944473,2.99737816 L30.3777159,1.98333333 Z" fill="#2B313A" mask="url(#mask-2)"></path>
                    </g>
                </g>
                <path d="M22.0681048,10.3898347 C20.2239905,7.37497369 20.2669563,5.11210341 20.760935,4.0111934 C21.2549136,2.91028339 22.0663411,1.89490597 23.5597572,1.40169848 C24.5553679,1.0728935 25.7162176,0.908491001 27.0423064,0.908491001 C25.8383273,0.331037019 24.6060704,0.0692604838 23.3455357,0.123161396 C21.6131972,0.197236809 20.3650669,0.572714349 18.9531948,1.91222232 C17.5413227,3.2517303 17.5464535,5.324389 17.7645172,6.37220089 C17.9825809,7.42001278 21.9341525,14.1639173 17.0114818,16.383391 C12.0889246,18.6028646 10.2218338,13.6433025 7.94867121,12.4197221 C6.93774638,11.8757856 5.76355321,11.9343913 4.77225689,12.1677079 C4.04055608,12.3397048 3.8044467,13.1734524 4.38456551,13.6037965 C4.41951106,13.6297318 4.4519605,13.655667 4.48429648,13.6817028 C5.58825817,14.5866215 5.04682906,16.2277795 3.58036403,16.5209081 C2.64284755,16.7085867 1.77851249,17.0063394 1.045904,17.3169591 C-0.413866918,17.9393044 -0.328318397,19.8279529 1.19442259,20.3135853 C2.72658071,20.8036407 4.59231,20.9175347 6.05208092,20.9110006 C7.49086181,20.9050697 8.85373825,21.4832848 9.74258058,22.485511 C10.1503543,22.9468165 10.5910313,23.3758538 11.0571232,23.7716175 C10.7904932,24.0911504 13.2704721,25.3424191 18.4970597,27.5254234 C17.8643982,25.9780644 17.6202173,24.5546177 17.7645172,23.2550833 C17.980967,21.3057817 23.3069796,12.4152162 22.0681048,10.3898347 Z" id="Shape" fill="#C6D0DA" fill-rule="nonzero"></path>
                <ellipse id="Oval" fill="#2B313A" fill-rule="nonzero" cx="23.4312081" cy="3.55833333" rx="1" ry="1"></ellipse>
            </g>
            <g id="hockey" transform="translate(14.000000, 5.000000)" fill-rule="nonzero">
                <path d="M0.334614927,0.329865237 C0.85235744,-0.177064955 1.6582449,-0.0808721475 2.05659668,0.489203016 L16.6038985,20.9717794 C17.5636163,22.3231998 18.5836035,23.0101227 20.2108763,23.0154339 L29.4980978,23.0154339 C29.576735,23.0154339 29.6542242,23.0213353 29.7294174,23.0319579 C30.7677724,23.1812633 31.2981428,24.4152458 30.8263198,25.3783542 L29.7914087,27.4916452 C29.576161,27.9342502 29.0480866,28.3266932 28.5670797,28.3266932 L20.2103023,28.3266932 C18.1846777,28.3266932 16.2968118,27.2738836 15.1912995,25.5288399 L0.204318308,1.86599945 C-0.100472462,1.38444528 -0.0700507845,0.726439264 0.334614927,0.329865237 Z" id="Shape" fill="#CB8252"></path>
                <polygon id="Shape" fill="#FFFFFF" points="21.7932331 28.2071713 25.7815372 28.2071713 26.9210526 22.9482072 22.9327485 22.9482072"></polygon>
                <polygon id="Shape" fill="#FFFFFF" points="2.78885658 5.96041267 5.97806501 10.9862972 8.37616065 9.36259595 4.78529314 4.30278884"></polygon>
                <path d="M11.0325815,30 L7.14786967,30 C6.29323308,30 5.59398496,29.2739044 5.59398496,28.3864542 L5.59398496,28.3864542 C5.59398496,27.499004 6.29323308,26.7729084 7.14786967,26.7729084 L11.0325815,26.7729084 C11.887218,26.7729084 12.5864662,27.499004 12.5864662,28.3864542 L12.5864662,28.3864542 C12.5864662,29.2739044 11.887218,30 11.0325815,30 Z" id="Shape" fill="#38454F"></path>
            </g>
            <path d="M31.2120686,17.0760556 C32.2829803,17.4754577 37.4407317,20.455032 36.9696815,21.978962 C36.4986313,23.5028919 31.1503696,23.1658068 28.678853,21.9847373 C26.2073363,20.8036678 24.5199847,20.3906011 25.1226154,19.1558606 C25.7252462,17.9211202 30.141157,16.6766535 31.2120686,17.0760556 Z" id="Shape" fill="#C6D0DA" fill-rule="nonzero" transform="translate(31.000000, 20.000000) rotate(110.000000) translate(-31.000000, -20.000000) "></path>
            <path d="M16.4730609,19.7507205 C21.2469898,18.1557238 23.9980406,17.6505703 24.7262133,18.2352601 C25.8184723,19.1122948 23.380548,22.5943285 22.0183737,23.9122015 C21.1102575,24.7907835 19.1041329,25.4867163 16,26 L16.4730609,19.7507205 Z" id="Path-7" fill="#C6D0DA"></path>
        </g>
    </g>
</svg>