<?xml version="1.0" encoding="UTF-8"?>
<svg width="30px" height="30px" viewBox="0 0 344 344" version="1.1" xmlns="http://www.w3.org/2000/svg" xmlns:xlink="http://www.w3.org/1999/xlink">
    <!-- Generator: Sketch 53.2 (72643) - https://sketchapp.com -->
    <title>logoTeal</title>
    <desc>Created with Sketch.</desc>
    <g id="Brainstorm" stroke="none" stroke-width="1" fill="none" fill-rule="evenodd">
        <g id="logoTeal" fill="#FFFFFF">
            <path d="M172,344 C77.007023,344 0,266.992977 0,172 C0,77.007023 77.007023,0 172,0 C266.992977,0 344,77.007023 344,172 C344,266.992977 266.992977,344 172,344 Z M81,216.710868 L81,262.090512 C116.638186,266.620229 142.152737,263.666101 157.543654,253.228128 C180.630029,237.571168 195.065355,163.441827 212.957372,147.092422 C224.885383,136.192819 241.498631,132.017611 262.797114,134.5668 L262.797114,81.2042482 C233.321976,78.9499235 214.817454,79.8606314 207.283548,83.936372 C202.97042,86.2697162 188.712676,90.2497196 174.81601,110.045419 C170.879556,115.652868 165.827389,128.00187 159.659507,147.092422 C154.251829,161.772364 150.626491,171.855467 148.783493,177.341731 C143.064388,194.366454 137.05965,204.865417 135.815362,207.333726 C130.988032,216.909759 112.716245,220.035473 81,216.710868 Z" id="Combined-Shape"></path>
        </g>
    </g>
</svg>
