<svg height="512pt" viewBox="-71 0 512 512.02782" width="512pt" xmlns="http://www.w3.org/2000/svg"><path d="m308.476562 10.769531-95.691406 159.339844-7.0625 11.738281-19.773437-33.015625v-.085937l7.0625-11.742188 18.800781-31.074218 20.570312-35.308594 20.65625-35.308594 20.566407-35.3125c12.449219-.03125 24.609375 3.722656 34.871093 10.769531zm0 0" fill="#e64c3c"/><path d="m331.871094 41.3125v.089844l-105.226563 175.402344-20.921875-34.957032 102.753906-171.078125c10.863282 7.417969 19.0625 18.121094 23.394532 30.542969zm0 0" fill="#ecf0f1"/><path d="m335.402344 61.792969v7.328125c.011718 24.078125-6.550782 47.703125-18.980469 68.324218l-61.792969 102.664063-7.0625 11.742187-20.921875-35.046874 7.0625-11.738282 98.164063-163.664062c2.347656 6.539062 3.542968 13.441406 3.53125 20.390625zm0 0" fill="#e64c3c"/><path d="m253.039062 35.3125-20.65625 35.308594h-93.132812l-21.097656-35.308594zm0 0" fill="#fff"/><path d="m122.566406 254.058594-121.289062 196.148437c-1.726563 2.867188-1.679688 6.460938.113281 9.285157 1.796875 2.824218 5.03125 4.390624 8.359375 4.042968l46.699219-11.828125c8.234375-.863281 15.957031 4.136719 18.539062 12.007813l9.972657 42.195312c1.046874 3.289063 3.921874 5.660156 7.347656 6.058594 3.425781.398438 6.769531-1.246094 8.542968-4.207031l82.800782-149.449219zm0 0" fill="#4482c3"/><path d="m298.058594 476.25-11.296875 30.71875c-1.390625 2.941406-4.285157 4.878906-7.53125 5.042969-3.25.167969-6.324219-1.464844-8.007813-4.25l-87.570312-149.449219-61.085938-104.253906-68.324218-116.613282c-12.429688-20.621093-18.992188-44.246093-18.980469-68.324218v-7.328125c-.027344-6.570313 1.015625-13.097657 3.089843-19.332031zm0 0" fill="#e64c3c"/><path d="m326.925781 453.296875-5.382812-1.589844c-7.546875-.890625-14.824219 3.121094-18.097657 9.976563l-5.386718 14.566406-259.707032-433.789062c3.003907-9.195313 8.148438-17.542969 15.007813-24.363282 2.503906-2.5 5.21875-4.773437 8.121094-6.796875zm0 0" fill="#ecf0f1"/><path d="m360.824219 463.535156-33.898438-10.238281-265.445312-441.996094c10.386719-7.394531 22.828125-11.347656 35.574219-11.300781l42.195312 70.621094 21.097656 35.308594 25.601563 42.816406v.085937l19.773437 33.015625 20.921875 34.957032 20.921875 35.046874 121.910156 198.355469c1.683594 2.902344 1.59375 6.507813-.234374 9.324219-1.824219 2.8125-5.082032 4.363281-8.417969 4.003906zm0 0" fill="#e64c3c"/><g fill="#c03a2b"><path d="m194.777344 140.007812 18.007812 30.101563-7.0625 11.738281-19.773437-33.015625v-.085937l7.0625-11.742188 1.765625 2.914063zm0 0"/><path d="m254.628906 240.109375-7.0625 11.742187-20.921875-35.046874 7.0625-11.738282 1.765625 2.910156zm0 0"/><path d="m273.605469 0-20.566407 35.3125h-134.886718l-21.097656-35.3125zm0 0"/><path d="m232.382812 70.621094-20.570312 35.308594h-51.464844l-21.097656-35.308594zm0 0"/></g><path d="m137.019531 322.367188-1.546875 13.019531 9.851563 8.640625-12.859375 2.5625-5.183594 12.039062-6.398438-11.441406-13.058593-1.207031 8.898437-9.621094-2.886718-12.785156 11.910156 5.484375zm0 0" fill="#fff"/><path d="m129.859375 369.875-1.546875 13.023438 9.851562 8.648437-12.851562 2.550781-5.179688 12.042969-6.410156-11.433594-13.046875-1.207031 8.898438-9.625-2.886719-12.789062 11.898438 5.492187zm0 0" fill="#fff"/><path d="m89.128906 396.050781-1.546875 13.019531 9.851563 8.644532-12.851563 2.558594-5.179687 12.039062-6.410156-11.4375-13.046876-1.203125 8.898438-9.628906-2.886719-12.785157 11.898438 5.484376zm0 0" fill="#fff"/><path d="m183.652344 358.3125-6.441406 11.5625-62.148438-103.632812 7.503906-12.183594zm0 0" fill="#285680"/></svg>