<?xml version="1.0" encoding="UTF-8"?>
<svg width="100px" height="100px" viewBox="0 0 665 665" version="1.1" xmlns="http://www.w3.org/2000/svg" xmlns:xlink="http://www.w3.org/1999/xlink">
    <!-- Generator: Sketch 54.1 (76490) - https://sketchapp.com -->
    <title>Calendar</title>
    <desc>Created with Sketch.</desc>
    <g id="Empty-State" stroke="none" stroke-width="1" fill="none" fill-rule="evenodd">
        <g id="Calendar">
            <rect id="Rectangle" x="0.5" y="0.5" width="664" height="664"></rect>
            <g id="calendar" transform="translate(77.000000, 87.000000)" fill-rule="nonzero">
                <path d="M0,124 L0,452 C0,474.055 17.945,492 40,492 L472,492 C494.055,492 512,474.055 512,452 L512,124 L0,124 Z" id="Path" fill="#E2E7EC"></path>
                <path d="M472,12 L40,12 C17.945,12 0,29.945 0,52 L0,124 L512,124 L512,52 C512,29.945 494.054,12 472,12 Z M64,92 C50.745,92 40,81.255 40,68 C40,54.745 50.745,44 64,44 C77.255,44 88,54.745 88,68 C88,81.255 77.255,92 64,92 Z M448,92 C434.745,92 424,81.255 424,68 C424,54.745 434.745,44 448,44 C461.255,44 472,54.745 472,68 C472,81.255 461.255,92 448,92 Z" id="Shape" fill="#3D5AFE"></path>
                <g id="Group" transform="translate(64.000000, 196.000000)">
                    <path d="M192,0 C174.352,0 160,14.352 160,32 C160,49.648 174.352,64 192,64 C209.648,64 224,49.648 224,32 C224,14.352 209.648,0 192,0 Z" id="Path" fill="#F24D6E"></path>
                    <path d="M112,0 C94.352,0 80,14.352 80,32 C80,49.648 94.352,64 112,64 C129.648,64 144,49.648 144,32 C144,14.352 129.648,0 112,0 Z" id="Path" fill="#FFFFFF"></path>
                    <path d="M32,0 C14.352,0 0,14.352 0,32 C0,49.648 14.352,64 32,64 C49.648,64 64,49.648 64,32 C64,14.352 49.648,0 32,0 Z" id="Path" fill="#FFFFFF"></path>
                    <path d="M272,0 C254.352,0 240,14.352 240,32 C240,49.648 254.352,64 272,64 C289.648,64 304,49.648 304,32 C304,14.352 289.648,0 272,0 Z" id="Path" fill="#FFFFFF"></path>
                    <path d="M352,64 C369.648,64 384,49.648 384,32 C384,14.352 369.648,0 352,0 C334.352,0 320,14.352 320,32 C320,49.648 334.351,64 352,64 Z" id="Path" fill="#FFFFFF"></path>
                    <path d="M192,80 C174.352,80 160,94.352 160,112 C160,129.648 174.352,144 192,144 C209.648,144 224,129.648 224,112 C224,94.352 209.648,80 192,80 Z" id="Path" fill="#FFFFFF"></path>
                    <path d="M112,80 C94.352,80 80,94.352 80,112 C80,129.648 94.352,144 112,144 C129.648,144 144,129.648 144,112 C144,94.352 129.648,80 112,80 Z" id="Path" fill="#FFFFFF"></path>
                    <path d="M32,80 C14.352,80 0,94.352 0,112 C0,129.648 14.352,144 32,144 C49.648,144 64,129.648 64,112 C64,94.352 49.648,80 32,80 Z" id="Path" fill="#FFFFFF"></path>
                    <path d="M272,80 C254.352,80 240,94.352 240,112 C240,129.648 254.352,144 272,144 C289.648,144 304,129.648 304,112 C304,94.352 289.648,80 272,80 Z" id="Path" fill="#FFFFFF"></path>
                    <path d="M352,80 C334.352,80 320,94.352 320,112 C320,129.648 334.352,144 352,144 C369.648,144 384,129.648 384,112 C384,94.352 369.648,80 352,80 Z" id="Path" fill="#FFFFFF"></path>
                    <path d="M192,160 C174.352,160 160,174.352 160,192 C160,209.648 174.352,224 192,224 C209.648,224 224,209.648 224,192 C224,174.351 209.648,160 192,160 Z" id="Path" fill="#FFFFFF"></path>
                    <path d="M112,160 C94.352,160 80,174.352 80,192 C80,209.648 94.352,224 112,224 C129.648,224 144,209.648 144,192 C144,174.351 129.648,160 112,160 Z" id="Path" fill="#FFFFFF"></path>
                    <path d="M32,160 C14.352,160 0,174.352 0,192 C0,209.648 14.352,224 32,224 C49.648,224 64,209.648 64,192 C64,174.351 49.648,160 32,160 Z" id="Path" fill="#FFFFFF"></path>
                    <path d="M272,160 C254.352,160 240,174.352 240,192 C240,209.648 254.352,224 272,224 C289.648,224 304,209.648 304,192 C304,174.351 289.648,160 272,160 Z" id="Path" fill="#FFFFFF"></path>
                    <path d="M352,160 C334.352,160 320,174.352 320,192 C320,209.648 334.352,224 352,224 C369.648,224 384,209.648 384,192 C384,174.351 369.648,160 352,160 Z" id="Path" fill="#FFFFFF"></path>
                </g>
                <path d="M64,80 C57.375,80 52,74.629 52,68 L52,12 C52,5.371 57.375,0 64,0 C70.625,0 76,5.371 76,12 L76,68 C76,74.629 70.625,80 64,80 Z" id="Path" fill="#2B313A"></path>
                <path d="M448,80 C441.375,80 436,74.629 436,68 L436,12 C436,5.371 441.375,0 448,0 C454.625,0 460,5.371 460,12 L460,68 C460,74.629 454.625,80 448,80 Z" id="Path" fill="#2B313A"></path>
                <circle id="Oval" fill="#FFFFFF" cx="96" cy="228" r="32"></circle>
                <circle id="Oval" fill="#FFFFFF" cx="256" cy="388" r="32"></circle>
                <circle id="Oval" fill="#FFFFFF" cx="336" cy="308" r="32"></circle>
            </g>
            <g id="Group-2" transform="translate(434.000000, 422.000000)">
                <circle id="Oval" stroke="#F24D6E" stroke-width="20" fill="#FFFFFF" cx="109" cy="109" r="109"></circle>
                <path d="M117,126 L100,126 L100,61 L117,61 L117,126 Z M98,146.636364 C98,143.727258 99.0770726,141.227283 101.23125,139.136364 C103.385427,137.045444 105.974985,136 109,136 C111.933348,136 114.499989,136.99999 116.7,139 C118.900011,141.00001 120,143.454531 120,146.363636 C120,149.272742 118.922927,151.772717 116.76875,153.863636 C114.614573,155.954556 112.025015,157 109,157 C107.533326,157 106.135423,156.727275 104.80625,156.181818 C103.477077,155.636361 102.308338,154.909095 101.3,154 C100.291662,153.090905 99.4895863,152.000006 98.89375,150.727273 C98.2979137,149.454539 98,148.090916 98,146.636364 Z" id="!" fill="#F24D6E" fill-rule="nonzero"></path>
            </g>
        </g>
    </g>
</svg>
