<?xml version="1.0" encoding="UTF-8"?>
<svg width="100px" height="100px" viewBox="0 0 665 665" version="1.1" xmlns="http://www.w3.org/2000/svg" xmlns:xlink="http://www.w3.org/1999/xlink">
    <!-- Generator: Sketch 54.1 (76490) - https://sketchapp.com -->
    <title>Whistle</title>
    <desc>Created with Sketch.</desc>
    <g id="Empty-State" stroke="none" stroke-width="1" fill="none" fill-rule="evenodd">
        <g id="Whistle" transform="translate(0.000000, -0.000000)">
            <rect id="Rectangle" x="0.5" y="0.5" width="664" height="664"></rect>
            <g id="whistle" transform="translate(68.000000, 31.000000)" fill-rule="nonzero">
                <path d="M349.418504,209 L60.2408264,209 C57.0463542,209 53.9840437,210.271906 51.7248695,212.533073 L3.53329659,260.758109 C-0.53434643,264.821426 -1.16126725,271.199047 2.02416827,275.985938 L50.2157412,348.341016 C52.4568419,351.697718 56.2161077,353.711287 60.2408264,353.711287 L204.824582,353.711287 C204.824582,433.504474 259.454184,529 339.186087,529 C418.907824,529 494,433.504474 494,353.711287 C494.00113,273.919231 429.14024,209 349.418504,209 Z" id="Path" stroke="#979797" fill="#3D5AFE"></path>
                <path d="M349.410096,210 L272.196453,210 L220.52433,261.503305 C215.825223,266.196878 215.825223,273.790747 220.52433,278.48432 C222.86937,280.822107 225.954711,282 229.032152,282 C231.835366,282 282.512144,281.01561 293.416916,279.081704 C295.664904,281.01561 298.460218,282 301.254404,282 C304.339745,282 307.408158,280.822107 309.771254,278.48432 L376,212.443538 C367.377071,210.843763 358.491199,210 349.410096,210 Z" id="Path" fill="#2B313A"></path>
                <path d="M493.99925,282 L422,282 C422,282 448.965687,301.98625 464.71489,354 L493.99925,354 C513.880664,354 530,337.880496 530,318 C530,298.119504 513.880664,282 493.99925,282 Z" id="Path" fill="#2B313A"></path>
                <path d="M301.349702,258 L12.0513663,258 C5.39395828,258 0,263.397427 0,270.04797 L0,390.470093 C0,397.119507 5.39395828,402.5 12.0513663,402.5 L156.700534,402.5 C156.700534,482.176684 221.590768,547 301.349702,547 C381.108636,547 446,482.176684 446,402.5 C446,322.825574 381.108636,258 301.349702,258 Z" id="Path" fill="#526CFE"></path>
                <path d="M301.503403,342 C268.145647,342 241,369.134536 241,402.490925 C241,435.847314 268.145647,463 301.503403,463 C334.862294,463 362,435.847314 362,402.490925 C362,369.134536 334.862294,342 301.503403,342 Z" id="Path" fill="#2B313A"></path>
                <path d="M377.083503,162 C374.945307,162 372.779698,161.427987 370.818879,160.228709 C365.108959,156.734878 363.291654,149.238581 366.758563,143.485948 L422.567743,50.8636854 C426.034653,45.1110526 433.473189,43.2780103 439.181496,46.7718409 C444.889803,50.2656716 446.708721,57.7619696 443.241812,63.5146023 L387.432631,156.136865 C385.157371,159.911827 381.169619,162 377.083503,162 Z" id="Path" fill="#F24D6E"></path>
                <path d="M249.916553,162 C245.830457,162 241.842723,159.913459 239.567474,156.136884 L183.758555,63.5149203 C180.291662,57.7606811 182.108959,50.2660323 187.818851,46.772213 C193.528744,43.2783936 200.967246,45.109805 204.432526,50.8640442 L260.241445,143.486008 C263.708338,149.240247 261.891041,156.734895 256.181149,160.228715 C254.220338,161.427989 252.054739,162 249.916553,162 Z" id="Path" fill="#F24D6E"></path>
                <path d="M313,147 C306.3728,147 301,141.5753 301,134.884083 L301,12.1159172 C301,5.42469999 306.3728,0 313,0 C319.6272,0 325,5.42469999 325,12.1159172 L325,134.884083 C325,141.5753 319.6288,147 313,147 Z" id="Path" fill="#F24D6E"></path>
            </g>
        </g>
    </g>
</svg>
